%TF.GenerationSoftware,KiCad,Pcbnew,8.0.8-8.0.8-0~ubuntu22.04.1*%
%TF.CreationDate,2025-02-12T21:06:57+01:00*%
%TF.ProjectId,BrakeOutBoard,4272616b-654f-4757-9442-6f6172642e6b,rev?*%
%TF.SameCoordinates,Original*%
%TF.FileFunction,Legend,Top*%
%TF.FilePolarity,Positive*%
%FSLAX46Y46*%
G04 Gerber Fmt 4.6, Leading zero omitted, Abs format (unit mm)*
G04 Created by KiCad (PCBNEW 8.0.8-8.0.8-0~ubuntu22.04.1) date 2025-02-12 21:06:57*
%MOMM*%
%LPD*%
G01*
G04 APERTURE LIST*
G04 Aperture macros list*
%AMRoundRect*
0 Rectangle with rounded corners*
0 $1 Rounding radius*
0 $2 $3 $4 $5 $6 $7 $8 $9 X,Y pos of 4 corners*
0 Add a 4 corners polygon primitive as box body*
4,1,4,$2,$3,$4,$5,$6,$7,$8,$9,$2,$3,0*
0 Add four circle primitives for the rounded corners*
1,1,$1+$1,$2,$3*
1,1,$1+$1,$4,$5*
1,1,$1+$1,$6,$7*
1,1,$1+$1,$8,$9*
0 Add four rect primitives between the rounded corners*
20,1,$1+$1,$2,$3,$4,$5,0*
20,1,$1+$1,$4,$5,$6,$7,0*
20,1,$1+$1,$6,$7,$8,$9,0*
20,1,$1+$1,$8,$9,$2,$3,0*%
G04 Aperture macros list end*
%ADD10C,0.150000*%
%ADD11C,0.120000*%
%TA.AperFunction,ComponentPad*%
%ADD12RoundRect,0.250000X-0.620000X-0.845000X0.620000X-0.845000X0.620000X0.845000X-0.620000X0.845000X0*%
%TD*%
%TA.AperFunction,ComponentPad*%
%ADD13O,1.740000X2.190000*%
%TD*%
%TA.AperFunction,ComponentPad*%
%ADD14R,1.050000X1.500000*%
%TD*%
%TA.AperFunction,ComponentPad*%
%ADD15O,1.050000X1.500000*%
%TD*%
%TA.AperFunction,ComponentPad*%
%ADD16C,1.600000*%
%TD*%
%TA.AperFunction,ComponentPad*%
%ADD17O,1.600000X1.600000*%
%TD*%
%TA.AperFunction,ComponentPad*%
%ADD18R,3.200000X3.200000*%
%TD*%
%TA.AperFunction,ComponentPad*%
%ADD19O,3.200000X3.200000*%
%TD*%
%TA.AperFunction,ComponentPad*%
%ADD20R,2.000000X1.905000*%
%TD*%
%TA.AperFunction,ComponentPad*%
%ADD21O,2.000000X1.905000*%
%TD*%
%TA.AperFunction,ComponentPad*%
%ADD22R,1.700000X1.700000*%
%TD*%
%TA.AperFunction,ComponentPad*%
%ADD23O,1.700000X1.700000*%
%TD*%
%TA.AperFunction,ComponentPad*%
%ADD24RoundRect,0.250000X-0.620000X-0.620000X0.620000X-0.620000X0.620000X0.620000X-0.620000X0.620000X0*%
%TD*%
%TA.AperFunction,ComponentPad*%
%ADD25C,1.740000*%
%TD*%
%TA.AperFunction,ComponentPad*%
%ADD26RoundRect,0.250000X0.620000X0.845000X-0.620000X0.845000X-0.620000X-0.845000X0.620000X-0.845000X0*%
%TD*%
%TA.AperFunction,ComponentPad*%
%ADD27R,1.600000X1.600000*%
%TD*%
%TA.AperFunction,ComponentPad*%
%ADD28R,1.200000X2.000000*%
%TD*%
%TA.AperFunction,ComponentPad*%
%ADD29O,1.200000X2.000000*%
%TD*%
%TA.AperFunction,ComponentPad*%
%ADD30RoundRect,0.250000X0.620000X0.620000X-0.620000X0.620000X-0.620000X-0.620000X0.620000X-0.620000X0*%
%TD*%
%TA.AperFunction,Conductor*%
%ADD31C,1.800000*%
%TD*%
%TA.AperFunction,Conductor*%
%ADD32C,2.000000*%
%TD*%
%TA.AperFunction,Conductor*%
%ADD33C,1.000000*%
%TD*%
G04 APERTURE END LIST*
D10*
X68054819Y-68021904D02*
X67054819Y-68021904D01*
X68054819Y-67450476D02*
X67483390Y-67879047D01*
X67054819Y-67450476D02*
X67626247Y-68021904D01*
X71618095Y-66854819D02*
X71618095Y-65854819D01*
X72189523Y-66854819D02*
X71760952Y-66283390D01*
X72189523Y-65854819D02*
X71618095Y-66426247D01*
X78908095Y-109073866D02*
X78955714Y-109026247D01*
X78955714Y-109026247D02*
X79050952Y-108978628D01*
X79050952Y-108978628D02*
X79241428Y-109073866D01*
X79241428Y-109073866D02*
X79336666Y-109026247D01*
X79336666Y-109026247D02*
X79384285Y-108978628D01*
X73170633Y-98202017D02*
X73203966Y-98135350D01*
X73203966Y-98135350D02*
X73203966Y-98035350D01*
X73203966Y-98035350D02*
X73170633Y-97935350D01*
X73170633Y-97935350D02*
X73103966Y-97868684D01*
X73103966Y-97868684D02*
X73037300Y-97835350D01*
X73037300Y-97835350D02*
X72903966Y-97802017D01*
X72903966Y-97802017D02*
X72803966Y-97802017D01*
X72803966Y-97802017D02*
X72670633Y-97835350D01*
X72670633Y-97835350D02*
X72603966Y-97868684D01*
X72603966Y-97868684D02*
X72537300Y-97935350D01*
X72537300Y-97935350D02*
X72503966Y-98035350D01*
X72503966Y-98035350D02*
X72503966Y-98102017D01*
X72503966Y-98102017D02*
X72537300Y-98202017D01*
X72537300Y-98202017D02*
X72570633Y-98235350D01*
X72570633Y-98235350D02*
X72803966Y-98235350D01*
X72803966Y-98235350D02*
X72803966Y-98102017D01*
X72503966Y-98535350D02*
X73203966Y-98535350D01*
X73203966Y-98535350D02*
X73203966Y-98802017D01*
X73203966Y-98802017D02*
X73170633Y-98868684D01*
X73170633Y-98868684D02*
X73137300Y-98902017D01*
X73137300Y-98902017D02*
X73070633Y-98935350D01*
X73070633Y-98935350D02*
X72970633Y-98935350D01*
X72970633Y-98935350D02*
X72903966Y-98902017D01*
X72903966Y-98902017D02*
X72870633Y-98868684D01*
X72870633Y-98868684D02*
X72837300Y-98802017D01*
X72837300Y-98802017D02*
X72837300Y-98535350D01*
X72503966Y-99235350D02*
X73203966Y-99235350D01*
X73203966Y-99702017D02*
X73203966Y-99835350D01*
X73203966Y-99835350D02*
X73170633Y-99902017D01*
X73170633Y-99902017D02*
X73103966Y-99968683D01*
X73103966Y-99968683D02*
X72970633Y-100002017D01*
X72970633Y-100002017D02*
X72737300Y-100002017D01*
X72737300Y-100002017D02*
X72603966Y-99968683D01*
X72603966Y-99968683D02*
X72537300Y-99902017D01*
X72537300Y-99902017D02*
X72503966Y-99835350D01*
X72503966Y-99835350D02*
X72503966Y-99702017D01*
X72503966Y-99702017D02*
X72537300Y-99635350D01*
X72537300Y-99635350D02*
X72603966Y-99568683D01*
X72603966Y-99568683D02*
X72737300Y-99535350D01*
X72737300Y-99535350D02*
X72970633Y-99535350D01*
X72970633Y-99535350D02*
X73103966Y-99568683D01*
X73103966Y-99568683D02*
X73170633Y-99635350D01*
X73170633Y-99635350D02*
X73203966Y-99702017D01*
X72503966Y-100668683D02*
X72503966Y-100268683D01*
X72503966Y-100468683D02*
X73203966Y-100468683D01*
X73203966Y-100468683D02*
X73103966Y-100402016D01*
X73103966Y-100402016D02*
X73037300Y-100335350D01*
X73037300Y-100335350D02*
X73003966Y-100268683D01*
X73137300Y-100935350D02*
X73170633Y-100968683D01*
X73170633Y-100968683D02*
X73203966Y-101035350D01*
X73203966Y-101035350D02*
X73203966Y-101202017D01*
X73203966Y-101202017D02*
X73170633Y-101268683D01*
X73170633Y-101268683D02*
X73137300Y-101302017D01*
X73137300Y-101302017D02*
X73070633Y-101335350D01*
X73070633Y-101335350D02*
X73003966Y-101335350D01*
X73003966Y-101335350D02*
X72903966Y-101302017D01*
X72903966Y-101302017D02*
X72503966Y-100902017D01*
X72503966Y-100902017D02*
X72503966Y-101335350D01*
X73237300Y-102135350D02*
X72337300Y-101535350D01*
X72503966Y-102368683D02*
X73203966Y-102368683D01*
X73203966Y-102368683D02*
X72703966Y-102602017D01*
X72703966Y-102602017D02*
X73203966Y-102835350D01*
X73203966Y-102835350D02*
X72503966Y-102835350D01*
X73203966Y-103068683D02*
X73203966Y-103468683D01*
X72503966Y-103268683D02*
X73203966Y-103268683D01*
X72503966Y-103702016D02*
X73203966Y-103702016D01*
X73203966Y-103702016D02*
X73203966Y-103868683D01*
X73203966Y-103868683D02*
X73170633Y-103968683D01*
X73170633Y-103968683D02*
X73103966Y-104035350D01*
X73103966Y-104035350D02*
X73037300Y-104068683D01*
X73037300Y-104068683D02*
X72903966Y-104102016D01*
X72903966Y-104102016D02*
X72803966Y-104102016D01*
X72803966Y-104102016D02*
X72670633Y-104068683D01*
X72670633Y-104068683D02*
X72603966Y-104035350D01*
X72603966Y-104035350D02*
X72537300Y-103968683D01*
X72537300Y-103968683D02*
X72503966Y-103868683D01*
X72503966Y-103868683D02*
X72503966Y-103702016D01*
X72503966Y-104402016D02*
X73203966Y-104402016D01*
X90950633Y-98202017D02*
X90983966Y-98135350D01*
X90983966Y-98135350D02*
X90983966Y-98035350D01*
X90983966Y-98035350D02*
X90950633Y-97935350D01*
X90950633Y-97935350D02*
X90883966Y-97868684D01*
X90883966Y-97868684D02*
X90817300Y-97835350D01*
X90817300Y-97835350D02*
X90683966Y-97802017D01*
X90683966Y-97802017D02*
X90583966Y-97802017D01*
X90583966Y-97802017D02*
X90450633Y-97835350D01*
X90450633Y-97835350D02*
X90383966Y-97868684D01*
X90383966Y-97868684D02*
X90317300Y-97935350D01*
X90317300Y-97935350D02*
X90283966Y-98035350D01*
X90283966Y-98035350D02*
X90283966Y-98102017D01*
X90283966Y-98102017D02*
X90317300Y-98202017D01*
X90317300Y-98202017D02*
X90350633Y-98235350D01*
X90350633Y-98235350D02*
X90583966Y-98235350D01*
X90583966Y-98235350D02*
X90583966Y-98102017D01*
X90283966Y-98535350D02*
X90983966Y-98535350D01*
X90983966Y-98535350D02*
X90983966Y-98802017D01*
X90983966Y-98802017D02*
X90950633Y-98868684D01*
X90950633Y-98868684D02*
X90917300Y-98902017D01*
X90917300Y-98902017D02*
X90850633Y-98935350D01*
X90850633Y-98935350D02*
X90750633Y-98935350D01*
X90750633Y-98935350D02*
X90683966Y-98902017D01*
X90683966Y-98902017D02*
X90650633Y-98868684D01*
X90650633Y-98868684D02*
X90617300Y-98802017D01*
X90617300Y-98802017D02*
X90617300Y-98535350D01*
X90283966Y-99235350D02*
X90983966Y-99235350D01*
X90983966Y-99702017D02*
X90983966Y-99835350D01*
X90983966Y-99835350D02*
X90950633Y-99902017D01*
X90950633Y-99902017D02*
X90883966Y-99968683D01*
X90883966Y-99968683D02*
X90750633Y-100002017D01*
X90750633Y-100002017D02*
X90517300Y-100002017D01*
X90517300Y-100002017D02*
X90383966Y-99968683D01*
X90383966Y-99968683D02*
X90317300Y-99902017D01*
X90317300Y-99902017D02*
X90283966Y-99835350D01*
X90283966Y-99835350D02*
X90283966Y-99702017D01*
X90283966Y-99702017D02*
X90317300Y-99635350D01*
X90317300Y-99635350D02*
X90383966Y-99568683D01*
X90383966Y-99568683D02*
X90517300Y-99535350D01*
X90517300Y-99535350D02*
X90750633Y-99535350D01*
X90750633Y-99535350D02*
X90883966Y-99568683D01*
X90883966Y-99568683D02*
X90950633Y-99635350D01*
X90950633Y-99635350D02*
X90983966Y-99702017D01*
X90983966Y-100235350D02*
X90983966Y-100668683D01*
X90983966Y-100668683D02*
X90717300Y-100435350D01*
X90717300Y-100435350D02*
X90717300Y-100535350D01*
X90717300Y-100535350D02*
X90683966Y-100602016D01*
X90683966Y-100602016D02*
X90650633Y-100635350D01*
X90650633Y-100635350D02*
X90583966Y-100668683D01*
X90583966Y-100668683D02*
X90417300Y-100668683D01*
X90417300Y-100668683D02*
X90350633Y-100635350D01*
X90350633Y-100635350D02*
X90317300Y-100602016D01*
X90317300Y-100602016D02*
X90283966Y-100535350D01*
X90283966Y-100535350D02*
X90283966Y-100335350D01*
X90283966Y-100335350D02*
X90317300Y-100268683D01*
X90317300Y-100268683D02*
X90350633Y-100235350D01*
X90983966Y-101302017D02*
X90983966Y-100968683D01*
X90983966Y-100968683D02*
X90650633Y-100935350D01*
X90650633Y-100935350D02*
X90683966Y-100968683D01*
X90683966Y-100968683D02*
X90717300Y-101035350D01*
X90717300Y-101035350D02*
X90717300Y-101202017D01*
X90717300Y-101202017D02*
X90683966Y-101268683D01*
X90683966Y-101268683D02*
X90650633Y-101302017D01*
X90650633Y-101302017D02*
X90583966Y-101335350D01*
X90583966Y-101335350D02*
X90417300Y-101335350D01*
X90417300Y-101335350D02*
X90350633Y-101302017D01*
X90350633Y-101302017D02*
X90317300Y-101268683D01*
X90317300Y-101268683D02*
X90283966Y-101202017D01*
X90283966Y-101202017D02*
X90283966Y-101035350D01*
X90283966Y-101035350D02*
X90317300Y-100968683D01*
X90317300Y-100968683D02*
X90350633Y-100935350D01*
X75710633Y-98202017D02*
X75743966Y-98135350D01*
X75743966Y-98135350D02*
X75743966Y-98035350D01*
X75743966Y-98035350D02*
X75710633Y-97935350D01*
X75710633Y-97935350D02*
X75643966Y-97868684D01*
X75643966Y-97868684D02*
X75577300Y-97835350D01*
X75577300Y-97835350D02*
X75443966Y-97802017D01*
X75443966Y-97802017D02*
X75343966Y-97802017D01*
X75343966Y-97802017D02*
X75210633Y-97835350D01*
X75210633Y-97835350D02*
X75143966Y-97868684D01*
X75143966Y-97868684D02*
X75077300Y-97935350D01*
X75077300Y-97935350D02*
X75043966Y-98035350D01*
X75043966Y-98035350D02*
X75043966Y-98102017D01*
X75043966Y-98102017D02*
X75077300Y-98202017D01*
X75077300Y-98202017D02*
X75110633Y-98235350D01*
X75110633Y-98235350D02*
X75343966Y-98235350D01*
X75343966Y-98235350D02*
X75343966Y-98102017D01*
X75043966Y-98535350D02*
X75743966Y-98535350D01*
X75743966Y-98535350D02*
X75743966Y-98802017D01*
X75743966Y-98802017D02*
X75710633Y-98868684D01*
X75710633Y-98868684D02*
X75677300Y-98902017D01*
X75677300Y-98902017D02*
X75610633Y-98935350D01*
X75610633Y-98935350D02*
X75510633Y-98935350D01*
X75510633Y-98935350D02*
X75443966Y-98902017D01*
X75443966Y-98902017D02*
X75410633Y-98868684D01*
X75410633Y-98868684D02*
X75377300Y-98802017D01*
X75377300Y-98802017D02*
X75377300Y-98535350D01*
X75043966Y-99235350D02*
X75743966Y-99235350D01*
X75743966Y-99702017D02*
X75743966Y-99835350D01*
X75743966Y-99835350D02*
X75710633Y-99902017D01*
X75710633Y-99902017D02*
X75643966Y-99968683D01*
X75643966Y-99968683D02*
X75510633Y-100002017D01*
X75510633Y-100002017D02*
X75277300Y-100002017D01*
X75277300Y-100002017D02*
X75143966Y-99968683D01*
X75143966Y-99968683D02*
X75077300Y-99902017D01*
X75077300Y-99902017D02*
X75043966Y-99835350D01*
X75043966Y-99835350D02*
X75043966Y-99702017D01*
X75043966Y-99702017D02*
X75077300Y-99635350D01*
X75077300Y-99635350D02*
X75143966Y-99568683D01*
X75143966Y-99568683D02*
X75277300Y-99535350D01*
X75277300Y-99535350D02*
X75510633Y-99535350D01*
X75510633Y-99535350D02*
X75643966Y-99568683D01*
X75643966Y-99568683D02*
X75710633Y-99635350D01*
X75710633Y-99635350D02*
X75743966Y-99702017D01*
X75043966Y-100668683D02*
X75043966Y-100268683D01*
X75043966Y-100468683D02*
X75743966Y-100468683D01*
X75743966Y-100468683D02*
X75643966Y-100402016D01*
X75643966Y-100402016D02*
X75577300Y-100335350D01*
X75577300Y-100335350D02*
X75543966Y-100268683D01*
X75510633Y-101268683D02*
X75043966Y-101268683D01*
X75777300Y-101102017D02*
X75277300Y-100935350D01*
X75277300Y-100935350D02*
X75277300Y-101368683D01*
X75777300Y-102135350D02*
X74877300Y-101535350D01*
X75043966Y-102368683D02*
X75743966Y-102368683D01*
X75743966Y-102368683D02*
X75243966Y-102602017D01*
X75243966Y-102602017D02*
X75743966Y-102835350D01*
X75743966Y-102835350D02*
X75043966Y-102835350D01*
X75743966Y-103068683D02*
X75743966Y-103468683D01*
X75043966Y-103268683D02*
X75743966Y-103268683D01*
X75043966Y-103702016D02*
X75743966Y-103702016D01*
X75743966Y-103702016D02*
X75243966Y-103935350D01*
X75243966Y-103935350D02*
X75743966Y-104168683D01*
X75743966Y-104168683D02*
X75043966Y-104168683D01*
X75077300Y-104468683D02*
X75043966Y-104568683D01*
X75043966Y-104568683D02*
X75043966Y-104735350D01*
X75043966Y-104735350D02*
X75077300Y-104802016D01*
X75077300Y-104802016D02*
X75110633Y-104835350D01*
X75110633Y-104835350D02*
X75177300Y-104868683D01*
X75177300Y-104868683D02*
X75243966Y-104868683D01*
X75243966Y-104868683D02*
X75310633Y-104835350D01*
X75310633Y-104835350D02*
X75343966Y-104802016D01*
X75343966Y-104802016D02*
X75377300Y-104735350D01*
X75377300Y-104735350D02*
X75410633Y-104602016D01*
X75410633Y-104602016D02*
X75443966Y-104535350D01*
X75443966Y-104535350D02*
X75477300Y-104502016D01*
X75477300Y-104502016D02*
X75543966Y-104468683D01*
X75543966Y-104468683D02*
X75610633Y-104468683D01*
X75610633Y-104468683D02*
X75677300Y-104502016D01*
X75677300Y-104502016D02*
X75710633Y-104535350D01*
X75710633Y-104535350D02*
X75743966Y-104602016D01*
X75743966Y-104602016D02*
X75743966Y-104768683D01*
X75743966Y-104768683D02*
X75710633Y-104868683D01*
X103797561Y-118045601D02*
X103845180Y-117950363D01*
X103845180Y-117950363D02*
X103845180Y-117807506D01*
X103845180Y-117807506D02*
X103797561Y-117664649D01*
X103797561Y-117664649D02*
X103702323Y-117569411D01*
X103702323Y-117569411D02*
X103607085Y-117521792D01*
X103607085Y-117521792D02*
X103416609Y-117474173D01*
X103416609Y-117474173D02*
X103273752Y-117474173D01*
X103273752Y-117474173D02*
X103083276Y-117521792D01*
X103083276Y-117521792D02*
X102988038Y-117569411D01*
X102988038Y-117569411D02*
X102892800Y-117664649D01*
X102892800Y-117664649D02*
X102845180Y-117807506D01*
X102845180Y-117807506D02*
X102845180Y-117902744D01*
X102845180Y-117902744D02*
X102892800Y-118045601D01*
X102892800Y-118045601D02*
X102940419Y-118093220D01*
X102940419Y-118093220D02*
X103273752Y-118093220D01*
X103273752Y-118093220D02*
X103273752Y-117902744D01*
X102845180Y-118521792D02*
X103845180Y-118521792D01*
X103845180Y-118521792D02*
X102845180Y-119093220D01*
X102845180Y-119093220D02*
X103845180Y-119093220D01*
X102845180Y-119569411D02*
X103845180Y-119569411D01*
X103845180Y-119569411D02*
X103845180Y-119807506D01*
X103845180Y-119807506D02*
X103797561Y-119950363D01*
X103797561Y-119950363D02*
X103702323Y-120045601D01*
X103702323Y-120045601D02*
X103607085Y-120093220D01*
X103607085Y-120093220D02*
X103416609Y-120140839D01*
X103416609Y-120140839D02*
X103273752Y-120140839D01*
X103273752Y-120140839D02*
X103083276Y-120093220D01*
X103083276Y-120093220D02*
X102988038Y-120045601D01*
X102988038Y-120045601D02*
X102892800Y-119950363D01*
X102892800Y-119950363D02*
X102845180Y-119807506D01*
X102845180Y-119807506D02*
X102845180Y-119569411D01*
X68090633Y-98202017D02*
X68123966Y-98135350D01*
X68123966Y-98135350D02*
X68123966Y-98035350D01*
X68123966Y-98035350D02*
X68090633Y-97935350D01*
X68090633Y-97935350D02*
X68023966Y-97868684D01*
X68023966Y-97868684D02*
X67957300Y-97835350D01*
X67957300Y-97835350D02*
X67823966Y-97802017D01*
X67823966Y-97802017D02*
X67723966Y-97802017D01*
X67723966Y-97802017D02*
X67590633Y-97835350D01*
X67590633Y-97835350D02*
X67523966Y-97868684D01*
X67523966Y-97868684D02*
X67457300Y-97935350D01*
X67457300Y-97935350D02*
X67423966Y-98035350D01*
X67423966Y-98035350D02*
X67423966Y-98102017D01*
X67423966Y-98102017D02*
X67457300Y-98202017D01*
X67457300Y-98202017D02*
X67490633Y-98235350D01*
X67490633Y-98235350D02*
X67723966Y-98235350D01*
X67723966Y-98235350D02*
X67723966Y-98102017D01*
X67423966Y-98535350D02*
X68123966Y-98535350D01*
X68123966Y-98535350D02*
X68123966Y-98802017D01*
X68123966Y-98802017D02*
X68090633Y-98868684D01*
X68090633Y-98868684D02*
X68057300Y-98902017D01*
X68057300Y-98902017D02*
X67990633Y-98935350D01*
X67990633Y-98935350D02*
X67890633Y-98935350D01*
X67890633Y-98935350D02*
X67823966Y-98902017D01*
X67823966Y-98902017D02*
X67790633Y-98868684D01*
X67790633Y-98868684D02*
X67757300Y-98802017D01*
X67757300Y-98802017D02*
X67757300Y-98535350D01*
X67423966Y-99235350D02*
X68123966Y-99235350D01*
X68123966Y-99702017D02*
X68123966Y-99835350D01*
X68123966Y-99835350D02*
X68090633Y-99902017D01*
X68090633Y-99902017D02*
X68023966Y-99968683D01*
X68023966Y-99968683D02*
X67890633Y-100002017D01*
X67890633Y-100002017D02*
X67657300Y-100002017D01*
X67657300Y-100002017D02*
X67523966Y-99968683D01*
X67523966Y-99968683D02*
X67457300Y-99902017D01*
X67457300Y-99902017D02*
X67423966Y-99835350D01*
X67423966Y-99835350D02*
X67423966Y-99702017D01*
X67423966Y-99702017D02*
X67457300Y-99635350D01*
X67457300Y-99635350D02*
X67523966Y-99568683D01*
X67523966Y-99568683D02*
X67657300Y-99535350D01*
X67657300Y-99535350D02*
X67890633Y-99535350D01*
X67890633Y-99535350D02*
X68023966Y-99568683D01*
X68023966Y-99568683D02*
X68090633Y-99635350D01*
X68090633Y-99635350D02*
X68123966Y-99702017D01*
X67423966Y-100668683D02*
X67423966Y-100268683D01*
X67423966Y-100468683D02*
X68123966Y-100468683D01*
X68123966Y-100468683D02*
X68023966Y-100402016D01*
X68023966Y-100402016D02*
X67957300Y-100335350D01*
X67957300Y-100335350D02*
X67923966Y-100268683D01*
X68123966Y-100902017D02*
X68123966Y-101335350D01*
X68123966Y-101335350D02*
X67857300Y-101102017D01*
X67857300Y-101102017D02*
X67857300Y-101202017D01*
X67857300Y-101202017D02*
X67823966Y-101268683D01*
X67823966Y-101268683D02*
X67790633Y-101302017D01*
X67790633Y-101302017D02*
X67723966Y-101335350D01*
X67723966Y-101335350D02*
X67557300Y-101335350D01*
X67557300Y-101335350D02*
X67490633Y-101302017D01*
X67490633Y-101302017D02*
X67457300Y-101268683D01*
X67457300Y-101268683D02*
X67423966Y-101202017D01*
X67423966Y-101202017D02*
X67423966Y-101002017D01*
X67423966Y-101002017D02*
X67457300Y-100935350D01*
X67457300Y-100935350D02*
X67490633Y-100902017D01*
X68157300Y-102135350D02*
X67257300Y-101535350D01*
X67423966Y-102368683D02*
X68123966Y-102368683D01*
X68123966Y-102368683D02*
X67623966Y-102602017D01*
X67623966Y-102602017D02*
X68123966Y-102835350D01*
X68123966Y-102835350D02*
X67423966Y-102835350D01*
X68123966Y-103068683D02*
X68123966Y-103468683D01*
X67423966Y-103268683D02*
X68123966Y-103268683D01*
X67490633Y-104102016D02*
X67457300Y-104068683D01*
X67457300Y-104068683D02*
X67423966Y-103968683D01*
X67423966Y-103968683D02*
X67423966Y-103902016D01*
X67423966Y-103902016D02*
X67457300Y-103802016D01*
X67457300Y-103802016D02*
X67523966Y-103735350D01*
X67523966Y-103735350D02*
X67590633Y-103702016D01*
X67590633Y-103702016D02*
X67723966Y-103668683D01*
X67723966Y-103668683D02*
X67823966Y-103668683D01*
X67823966Y-103668683D02*
X67957300Y-103702016D01*
X67957300Y-103702016D02*
X68023966Y-103735350D01*
X68023966Y-103735350D02*
X68090633Y-103802016D01*
X68090633Y-103802016D02*
X68123966Y-103902016D01*
X68123966Y-103902016D02*
X68123966Y-103968683D01*
X68123966Y-103968683D02*
X68090633Y-104068683D01*
X68090633Y-104068683D02*
X68057300Y-104102016D01*
X67423966Y-104402016D02*
X68123966Y-104402016D01*
X67423966Y-104802016D02*
X67823966Y-104502016D01*
X68123966Y-104802016D02*
X67723966Y-104402016D01*
X57330633Y-118931315D02*
X57297300Y-118897982D01*
X57297300Y-118897982D02*
X57263966Y-118797982D01*
X57263966Y-118797982D02*
X57263966Y-118731315D01*
X57263966Y-118731315D02*
X57297300Y-118631315D01*
X57297300Y-118631315D02*
X57363966Y-118564649D01*
X57363966Y-118564649D02*
X57430633Y-118531315D01*
X57430633Y-118531315D02*
X57563966Y-118497982D01*
X57563966Y-118497982D02*
X57663966Y-118497982D01*
X57663966Y-118497982D02*
X57797300Y-118531315D01*
X57797300Y-118531315D02*
X57863966Y-118564649D01*
X57863966Y-118564649D02*
X57930633Y-118631315D01*
X57930633Y-118631315D02*
X57963966Y-118731315D01*
X57963966Y-118731315D02*
X57963966Y-118797982D01*
X57963966Y-118797982D02*
X57930633Y-118897982D01*
X57930633Y-118897982D02*
X57897300Y-118931315D01*
X57263966Y-119564649D02*
X57263966Y-119231315D01*
X57263966Y-119231315D02*
X57963966Y-119231315D01*
X57263966Y-119797982D02*
X57963966Y-119797982D01*
X57263966Y-120197982D02*
X57663966Y-119897982D01*
X57963966Y-120197982D02*
X57563966Y-119797982D01*
X62343966Y-119131315D02*
X63043966Y-119131315D01*
X63043966Y-119131315D02*
X63043966Y-119297982D01*
X63043966Y-119297982D02*
X63010633Y-119397982D01*
X63010633Y-119397982D02*
X62943966Y-119464649D01*
X62943966Y-119464649D02*
X62877300Y-119497982D01*
X62877300Y-119497982D02*
X62743966Y-119531315D01*
X62743966Y-119531315D02*
X62643966Y-119531315D01*
X62643966Y-119531315D02*
X62510633Y-119497982D01*
X62510633Y-119497982D02*
X62443966Y-119464649D01*
X62443966Y-119464649D02*
X62377300Y-119397982D01*
X62377300Y-119397982D02*
X62343966Y-119297982D01*
X62343966Y-119297982D02*
X62343966Y-119131315D01*
X62343966Y-120197982D02*
X62343966Y-119797982D01*
X62343966Y-119997982D02*
X63043966Y-119997982D01*
X63043966Y-119997982D02*
X62943966Y-119931315D01*
X62943966Y-119931315D02*
X62877300Y-119864649D01*
X62877300Y-119864649D02*
X62843966Y-119797982D01*
X88557561Y-118045601D02*
X88605180Y-117950363D01*
X88605180Y-117950363D02*
X88605180Y-117807506D01*
X88605180Y-117807506D02*
X88557561Y-117664649D01*
X88557561Y-117664649D02*
X88462323Y-117569411D01*
X88462323Y-117569411D02*
X88367085Y-117521792D01*
X88367085Y-117521792D02*
X88176609Y-117474173D01*
X88176609Y-117474173D02*
X88033752Y-117474173D01*
X88033752Y-117474173D02*
X87843276Y-117521792D01*
X87843276Y-117521792D02*
X87748038Y-117569411D01*
X87748038Y-117569411D02*
X87652800Y-117664649D01*
X87652800Y-117664649D02*
X87605180Y-117807506D01*
X87605180Y-117807506D02*
X87605180Y-117902744D01*
X87605180Y-117902744D02*
X87652800Y-118045601D01*
X87652800Y-118045601D02*
X87700419Y-118093220D01*
X87700419Y-118093220D02*
X88033752Y-118093220D01*
X88033752Y-118093220D02*
X88033752Y-117902744D01*
X87605180Y-118521792D02*
X88605180Y-118521792D01*
X88605180Y-118521792D02*
X87605180Y-119093220D01*
X87605180Y-119093220D02*
X88605180Y-119093220D01*
X87605180Y-119569411D02*
X88605180Y-119569411D01*
X88605180Y-119569411D02*
X88605180Y-119807506D01*
X88605180Y-119807506D02*
X88557561Y-119950363D01*
X88557561Y-119950363D02*
X88462323Y-120045601D01*
X88462323Y-120045601D02*
X88367085Y-120093220D01*
X88367085Y-120093220D02*
X88176609Y-120140839D01*
X88176609Y-120140839D02*
X88033752Y-120140839D01*
X88033752Y-120140839D02*
X87843276Y-120093220D01*
X87843276Y-120093220D02*
X87748038Y-120045601D01*
X87748038Y-120045601D02*
X87652800Y-119950363D01*
X87652800Y-119950363D02*
X87605180Y-119807506D01*
X87605180Y-119807506D02*
X87605180Y-119569411D01*
X85870633Y-98202017D02*
X85903966Y-98135350D01*
X85903966Y-98135350D02*
X85903966Y-98035350D01*
X85903966Y-98035350D02*
X85870633Y-97935350D01*
X85870633Y-97935350D02*
X85803966Y-97868684D01*
X85803966Y-97868684D02*
X85737300Y-97835350D01*
X85737300Y-97835350D02*
X85603966Y-97802017D01*
X85603966Y-97802017D02*
X85503966Y-97802017D01*
X85503966Y-97802017D02*
X85370633Y-97835350D01*
X85370633Y-97835350D02*
X85303966Y-97868684D01*
X85303966Y-97868684D02*
X85237300Y-97935350D01*
X85237300Y-97935350D02*
X85203966Y-98035350D01*
X85203966Y-98035350D02*
X85203966Y-98102017D01*
X85203966Y-98102017D02*
X85237300Y-98202017D01*
X85237300Y-98202017D02*
X85270633Y-98235350D01*
X85270633Y-98235350D02*
X85503966Y-98235350D01*
X85503966Y-98235350D02*
X85503966Y-98102017D01*
X85203966Y-98535350D02*
X85903966Y-98535350D01*
X85903966Y-98535350D02*
X85903966Y-98802017D01*
X85903966Y-98802017D02*
X85870633Y-98868684D01*
X85870633Y-98868684D02*
X85837300Y-98902017D01*
X85837300Y-98902017D02*
X85770633Y-98935350D01*
X85770633Y-98935350D02*
X85670633Y-98935350D01*
X85670633Y-98935350D02*
X85603966Y-98902017D01*
X85603966Y-98902017D02*
X85570633Y-98868684D01*
X85570633Y-98868684D02*
X85537300Y-98802017D01*
X85537300Y-98802017D02*
X85537300Y-98535350D01*
X85203966Y-99235350D02*
X85903966Y-99235350D01*
X85903966Y-99702017D02*
X85903966Y-99835350D01*
X85903966Y-99835350D02*
X85870633Y-99902017D01*
X85870633Y-99902017D02*
X85803966Y-99968683D01*
X85803966Y-99968683D02*
X85670633Y-100002017D01*
X85670633Y-100002017D02*
X85437300Y-100002017D01*
X85437300Y-100002017D02*
X85303966Y-99968683D01*
X85303966Y-99968683D02*
X85237300Y-99902017D01*
X85237300Y-99902017D02*
X85203966Y-99835350D01*
X85203966Y-99835350D02*
X85203966Y-99702017D01*
X85203966Y-99702017D02*
X85237300Y-99635350D01*
X85237300Y-99635350D02*
X85303966Y-99568683D01*
X85303966Y-99568683D02*
X85437300Y-99535350D01*
X85437300Y-99535350D02*
X85670633Y-99535350D01*
X85670633Y-99535350D02*
X85803966Y-99568683D01*
X85803966Y-99568683D02*
X85870633Y-99635350D01*
X85870633Y-99635350D02*
X85903966Y-99702017D01*
X85903966Y-100235350D02*
X85903966Y-100668683D01*
X85903966Y-100668683D02*
X85637300Y-100435350D01*
X85637300Y-100435350D02*
X85637300Y-100535350D01*
X85637300Y-100535350D02*
X85603966Y-100602016D01*
X85603966Y-100602016D02*
X85570633Y-100635350D01*
X85570633Y-100635350D02*
X85503966Y-100668683D01*
X85503966Y-100668683D02*
X85337300Y-100668683D01*
X85337300Y-100668683D02*
X85270633Y-100635350D01*
X85270633Y-100635350D02*
X85237300Y-100602016D01*
X85237300Y-100602016D02*
X85203966Y-100535350D01*
X85203966Y-100535350D02*
X85203966Y-100335350D01*
X85203966Y-100335350D02*
X85237300Y-100268683D01*
X85237300Y-100268683D02*
X85270633Y-100235350D01*
X85903966Y-100902017D02*
X85903966Y-101335350D01*
X85903966Y-101335350D02*
X85637300Y-101102017D01*
X85637300Y-101102017D02*
X85637300Y-101202017D01*
X85637300Y-101202017D02*
X85603966Y-101268683D01*
X85603966Y-101268683D02*
X85570633Y-101302017D01*
X85570633Y-101302017D02*
X85503966Y-101335350D01*
X85503966Y-101335350D02*
X85337300Y-101335350D01*
X85337300Y-101335350D02*
X85270633Y-101302017D01*
X85270633Y-101302017D02*
X85237300Y-101268683D01*
X85237300Y-101268683D02*
X85203966Y-101202017D01*
X85203966Y-101202017D02*
X85203966Y-101002017D01*
X85203966Y-101002017D02*
X85237300Y-100935350D01*
X85237300Y-100935350D02*
X85270633Y-100902017D01*
X64883966Y-97835350D02*
X65583966Y-97835350D01*
X65583966Y-97835350D02*
X65583966Y-98002017D01*
X65583966Y-98002017D02*
X65550633Y-98102017D01*
X65550633Y-98102017D02*
X65483966Y-98168684D01*
X65483966Y-98168684D02*
X65417300Y-98202017D01*
X65417300Y-98202017D02*
X65283966Y-98235350D01*
X65283966Y-98235350D02*
X65183966Y-98235350D01*
X65183966Y-98235350D02*
X65050633Y-98202017D01*
X65050633Y-98202017D02*
X64983966Y-98168684D01*
X64983966Y-98168684D02*
X64917300Y-98102017D01*
X64917300Y-98102017D02*
X64883966Y-98002017D01*
X64883966Y-98002017D02*
X64883966Y-97835350D01*
X65517300Y-98502017D02*
X65550633Y-98535350D01*
X65550633Y-98535350D02*
X65583966Y-98602017D01*
X65583966Y-98602017D02*
X65583966Y-98768684D01*
X65583966Y-98768684D02*
X65550633Y-98835350D01*
X65550633Y-98835350D02*
X65517300Y-98868684D01*
X65517300Y-98868684D02*
X65450633Y-98902017D01*
X65450633Y-98902017D02*
X65383966Y-98902017D01*
X65383966Y-98902017D02*
X65283966Y-98868684D01*
X65283966Y-98868684D02*
X64883966Y-98468684D01*
X64883966Y-98468684D02*
X64883966Y-98902017D01*
X59870633Y-98235350D02*
X59837300Y-98202017D01*
X59837300Y-98202017D02*
X59803966Y-98102017D01*
X59803966Y-98102017D02*
X59803966Y-98035350D01*
X59803966Y-98035350D02*
X59837300Y-97935350D01*
X59837300Y-97935350D02*
X59903966Y-97868684D01*
X59903966Y-97868684D02*
X59970633Y-97835350D01*
X59970633Y-97835350D02*
X60103966Y-97802017D01*
X60103966Y-97802017D02*
X60203966Y-97802017D01*
X60203966Y-97802017D02*
X60337300Y-97835350D01*
X60337300Y-97835350D02*
X60403966Y-97868684D01*
X60403966Y-97868684D02*
X60470633Y-97935350D01*
X60470633Y-97935350D02*
X60503966Y-98035350D01*
X60503966Y-98035350D02*
X60503966Y-98102017D01*
X60503966Y-98102017D02*
X60470633Y-98202017D01*
X60470633Y-98202017D02*
X60437300Y-98235350D01*
X59803966Y-98535350D02*
X60503966Y-98535350D01*
X60503966Y-98535350D02*
X60003966Y-98768684D01*
X60003966Y-98768684D02*
X60503966Y-99002017D01*
X60503966Y-99002017D02*
X59803966Y-99002017D01*
X59803966Y-99335350D02*
X60503966Y-99335350D01*
X60503966Y-99335350D02*
X60503966Y-99502017D01*
X60503966Y-99502017D02*
X60470633Y-99602017D01*
X60470633Y-99602017D02*
X60403966Y-99668684D01*
X60403966Y-99668684D02*
X60337300Y-99702017D01*
X60337300Y-99702017D02*
X60203966Y-99735350D01*
X60203966Y-99735350D02*
X60103966Y-99735350D01*
X60103966Y-99735350D02*
X59970633Y-99702017D01*
X59970633Y-99702017D02*
X59903966Y-99668684D01*
X59903966Y-99668684D02*
X59837300Y-99602017D01*
X59837300Y-99602017D02*
X59803966Y-99502017D01*
X59803966Y-99502017D02*
X59803966Y-99335350D01*
X93490633Y-113531316D02*
X93523966Y-113464649D01*
X93523966Y-113464649D02*
X93523966Y-113364649D01*
X93523966Y-113364649D02*
X93490633Y-113264649D01*
X93490633Y-113264649D02*
X93423966Y-113197983D01*
X93423966Y-113197983D02*
X93357300Y-113164649D01*
X93357300Y-113164649D02*
X93223966Y-113131316D01*
X93223966Y-113131316D02*
X93123966Y-113131316D01*
X93123966Y-113131316D02*
X92990633Y-113164649D01*
X92990633Y-113164649D02*
X92923966Y-113197983D01*
X92923966Y-113197983D02*
X92857300Y-113264649D01*
X92857300Y-113264649D02*
X92823966Y-113364649D01*
X92823966Y-113364649D02*
X92823966Y-113431316D01*
X92823966Y-113431316D02*
X92857300Y-113531316D01*
X92857300Y-113531316D02*
X92890633Y-113564649D01*
X92890633Y-113564649D02*
X93123966Y-113564649D01*
X93123966Y-113564649D02*
X93123966Y-113431316D01*
X92823966Y-113864649D02*
X93523966Y-113864649D01*
X93523966Y-113864649D02*
X93523966Y-114131316D01*
X93523966Y-114131316D02*
X93490633Y-114197983D01*
X93490633Y-114197983D02*
X93457300Y-114231316D01*
X93457300Y-114231316D02*
X93390633Y-114264649D01*
X93390633Y-114264649D02*
X93290633Y-114264649D01*
X93290633Y-114264649D02*
X93223966Y-114231316D01*
X93223966Y-114231316D02*
X93190633Y-114197983D01*
X93190633Y-114197983D02*
X93157300Y-114131316D01*
X93157300Y-114131316D02*
X93157300Y-113864649D01*
X92823966Y-114564649D02*
X93523966Y-114564649D01*
X93523966Y-115031316D02*
X93523966Y-115164649D01*
X93523966Y-115164649D02*
X93490633Y-115231316D01*
X93490633Y-115231316D02*
X93423966Y-115297982D01*
X93423966Y-115297982D02*
X93290633Y-115331316D01*
X93290633Y-115331316D02*
X93057300Y-115331316D01*
X93057300Y-115331316D02*
X92923966Y-115297982D01*
X92923966Y-115297982D02*
X92857300Y-115231316D01*
X92857300Y-115231316D02*
X92823966Y-115164649D01*
X92823966Y-115164649D02*
X92823966Y-115031316D01*
X92823966Y-115031316D02*
X92857300Y-114964649D01*
X92857300Y-114964649D02*
X92923966Y-114897982D01*
X92923966Y-114897982D02*
X93057300Y-114864649D01*
X93057300Y-114864649D02*
X93290633Y-114864649D01*
X93290633Y-114864649D02*
X93423966Y-114897982D01*
X93423966Y-114897982D02*
X93490633Y-114964649D01*
X93490633Y-114964649D02*
X93523966Y-115031316D01*
X93523966Y-115564649D02*
X93523966Y-115997982D01*
X93523966Y-115997982D02*
X93257300Y-115764649D01*
X93257300Y-115764649D02*
X93257300Y-115864649D01*
X93257300Y-115864649D02*
X93223966Y-115931315D01*
X93223966Y-115931315D02*
X93190633Y-115964649D01*
X93190633Y-115964649D02*
X93123966Y-115997982D01*
X93123966Y-115997982D02*
X92957300Y-115997982D01*
X92957300Y-115997982D02*
X92890633Y-115964649D01*
X92890633Y-115964649D02*
X92857300Y-115931315D01*
X92857300Y-115931315D02*
X92823966Y-115864649D01*
X92823966Y-115864649D02*
X92823966Y-115664649D01*
X92823966Y-115664649D02*
X92857300Y-115597982D01*
X92857300Y-115597982D02*
X92890633Y-115564649D01*
X93557300Y-116797982D02*
X92657300Y-116197982D01*
X93523966Y-117031315D02*
X92957300Y-117031315D01*
X92957300Y-117031315D02*
X92890633Y-117064649D01*
X92890633Y-117064649D02*
X92857300Y-117097982D01*
X92857300Y-117097982D02*
X92823966Y-117164649D01*
X92823966Y-117164649D02*
X92823966Y-117297982D01*
X92823966Y-117297982D02*
X92857300Y-117364649D01*
X92857300Y-117364649D02*
X92890633Y-117397982D01*
X92890633Y-117397982D02*
X92957300Y-117431315D01*
X92957300Y-117431315D02*
X93523966Y-117431315D01*
X93523966Y-117897982D02*
X93523966Y-117964648D01*
X93523966Y-117964648D02*
X93490633Y-118031315D01*
X93490633Y-118031315D02*
X93457300Y-118064648D01*
X93457300Y-118064648D02*
X93390633Y-118097982D01*
X93390633Y-118097982D02*
X93257300Y-118131315D01*
X93257300Y-118131315D02*
X93090633Y-118131315D01*
X93090633Y-118131315D02*
X92957300Y-118097982D01*
X92957300Y-118097982D02*
X92890633Y-118064648D01*
X92890633Y-118064648D02*
X92857300Y-118031315D01*
X92857300Y-118031315D02*
X92823966Y-117964648D01*
X92823966Y-117964648D02*
X92823966Y-117897982D01*
X92823966Y-117897982D02*
X92857300Y-117831315D01*
X92857300Y-117831315D02*
X92890633Y-117797982D01*
X92890633Y-117797982D02*
X92957300Y-117764648D01*
X92957300Y-117764648D02*
X93090633Y-117731315D01*
X93090633Y-117731315D02*
X93257300Y-117731315D01*
X93257300Y-117731315D02*
X93390633Y-117764648D01*
X93390633Y-117764648D02*
X93457300Y-117797982D01*
X93457300Y-117797982D02*
X93490633Y-117831315D01*
X93490633Y-117831315D02*
X93523966Y-117897982D01*
X92823966Y-118831315D02*
X93157300Y-118597982D01*
X92823966Y-118431315D02*
X93523966Y-118431315D01*
X93523966Y-118431315D02*
X93523966Y-118697982D01*
X93523966Y-118697982D02*
X93490633Y-118764649D01*
X93490633Y-118764649D02*
X93457300Y-118797982D01*
X93457300Y-118797982D02*
X93390633Y-118831315D01*
X93390633Y-118831315D02*
X93290633Y-118831315D01*
X93290633Y-118831315D02*
X93223966Y-118797982D01*
X93223966Y-118797982D02*
X93190633Y-118764649D01*
X93190633Y-118764649D02*
X93157300Y-118697982D01*
X93157300Y-118697982D02*
X93157300Y-118431315D01*
X93523966Y-119064649D02*
X92823966Y-119531315D01*
X93523966Y-119531315D02*
X92823966Y-119064649D01*
X92823966Y-119797982D02*
X93523966Y-119797982D01*
X93523966Y-119797982D02*
X93523966Y-119964649D01*
X93523966Y-119964649D02*
X93490633Y-120064649D01*
X93490633Y-120064649D02*
X93423966Y-120131316D01*
X93423966Y-120131316D02*
X93357300Y-120164649D01*
X93357300Y-120164649D02*
X93223966Y-120197982D01*
X93223966Y-120197982D02*
X93123966Y-120197982D01*
X93123966Y-120197982D02*
X92990633Y-120164649D01*
X92990633Y-120164649D02*
X92923966Y-120131316D01*
X92923966Y-120131316D02*
X92857300Y-120064649D01*
X92857300Y-120064649D02*
X92823966Y-119964649D01*
X92823966Y-119964649D02*
X92823966Y-119797982D01*
X78250633Y-117064649D02*
X78283966Y-116997982D01*
X78283966Y-116997982D02*
X78283966Y-116897982D01*
X78283966Y-116897982D02*
X78250633Y-116797982D01*
X78250633Y-116797982D02*
X78183966Y-116731316D01*
X78183966Y-116731316D02*
X78117300Y-116697982D01*
X78117300Y-116697982D02*
X77983966Y-116664649D01*
X77983966Y-116664649D02*
X77883966Y-116664649D01*
X77883966Y-116664649D02*
X77750633Y-116697982D01*
X77750633Y-116697982D02*
X77683966Y-116731316D01*
X77683966Y-116731316D02*
X77617300Y-116797982D01*
X77617300Y-116797982D02*
X77583966Y-116897982D01*
X77583966Y-116897982D02*
X77583966Y-116964649D01*
X77583966Y-116964649D02*
X77617300Y-117064649D01*
X77617300Y-117064649D02*
X77650633Y-117097982D01*
X77650633Y-117097982D02*
X77883966Y-117097982D01*
X77883966Y-117097982D02*
X77883966Y-116964649D01*
X77583966Y-117397982D02*
X78283966Y-117397982D01*
X78283966Y-117397982D02*
X78283966Y-117664649D01*
X78283966Y-117664649D02*
X78250633Y-117731316D01*
X78250633Y-117731316D02*
X78217300Y-117764649D01*
X78217300Y-117764649D02*
X78150633Y-117797982D01*
X78150633Y-117797982D02*
X78050633Y-117797982D01*
X78050633Y-117797982D02*
X77983966Y-117764649D01*
X77983966Y-117764649D02*
X77950633Y-117731316D01*
X77950633Y-117731316D02*
X77917300Y-117664649D01*
X77917300Y-117664649D02*
X77917300Y-117397982D01*
X77583966Y-118097982D02*
X78283966Y-118097982D01*
X78283966Y-118564649D02*
X78283966Y-118697982D01*
X78283966Y-118697982D02*
X78250633Y-118764649D01*
X78250633Y-118764649D02*
X78183966Y-118831315D01*
X78183966Y-118831315D02*
X78050633Y-118864649D01*
X78050633Y-118864649D02*
X77817300Y-118864649D01*
X77817300Y-118864649D02*
X77683966Y-118831315D01*
X77683966Y-118831315D02*
X77617300Y-118764649D01*
X77617300Y-118764649D02*
X77583966Y-118697982D01*
X77583966Y-118697982D02*
X77583966Y-118564649D01*
X77583966Y-118564649D02*
X77617300Y-118497982D01*
X77617300Y-118497982D02*
X77683966Y-118431315D01*
X77683966Y-118431315D02*
X77817300Y-118397982D01*
X77817300Y-118397982D02*
X78050633Y-118397982D01*
X78050633Y-118397982D02*
X78183966Y-118431315D01*
X78183966Y-118431315D02*
X78250633Y-118497982D01*
X78250633Y-118497982D02*
X78283966Y-118564649D01*
X77583966Y-119531315D02*
X77583966Y-119131315D01*
X77583966Y-119331315D02*
X78283966Y-119331315D01*
X78283966Y-119331315D02*
X78183966Y-119264648D01*
X78183966Y-119264648D02*
X78117300Y-119197982D01*
X78117300Y-119197982D02*
X78083966Y-119131315D01*
X78283966Y-119764649D02*
X78283966Y-120231315D01*
X78283966Y-120231315D02*
X77583966Y-119931315D01*
X96030633Y-113697983D02*
X96063966Y-113631316D01*
X96063966Y-113631316D02*
X96063966Y-113531316D01*
X96063966Y-113531316D02*
X96030633Y-113431316D01*
X96030633Y-113431316D02*
X95963966Y-113364650D01*
X95963966Y-113364650D02*
X95897300Y-113331316D01*
X95897300Y-113331316D02*
X95763966Y-113297983D01*
X95763966Y-113297983D02*
X95663966Y-113297983D01*
X95663966Y-113297983D02*
X95530633Y-113331316D01*
X95530633Y-113331316D02*
X95463966Y-113364650D01*
X95463966Y-113364650D02*
X95397300Y-113431316D01*
X95397300Y-113431316D02*
X95363966Y-113531316D01*
X95363966Y-113531316D02*
X95363966Y-113597983D01*
X95363966Y-113597983D02*
X95397300Y-113697983D01*
X95397300Y-113697983D02*
X95430633Y-113731316D01*
X95430633Y-113731316D02*
X95663966Y-113731316D01*
X95663966Y-113731316D02*
X95663966Y-113597983D01*
X95363966Y-114031316D02*
X96063966Y-114031316D01*
X96063966Y-114031316D02*
X96063966Y-114297983D01*
X96063966Y-114297983D02*
X96030633Y-114364650D01*
X96030633Y-114364650D02*
X95997300Y-114397983D01*
X95997300Y-114397983D02*
X95930633Y-114431316D01*
X95930633Y-114431316D02*
X95830633Y-114431316D01*
X95830633Y-114431316D02*
X95763966Y-114397983D01*
X95763966Y-114397983D02*
X95730633Y-114364650D01*
X95730633Y-114364650D02*
X95697300Y-114297983D01*
X95697300Y-114297983D02*
X95697300Y-114031316D01*
X95363966Y-114731316D02*
X96063966Y-114731316D01*
X96063966Y-115197983D02*
X96063966Y-115331316D01*
X96063966Y-115331316D02*
X96030633Y-115397983D01*
X96030633Y-115397983D02*
X95963966Y-115464649D01*
X95963966Y-115464649D02*
X95830633Y-115497983D01*
X95830633Y-115497983D02*
X95597300Y-115497983D01*
X95597300Y-115497983D02*
X95463966Y-115464649D01*
X95463966Y-115464649D02*
X95397300Y-115397983D01*
X95397300Y-115397983D02*
X95363966Y-115331316D01*
X95363966Y-115331316D02*
X95363966Y-115197983D01*
X95363966Y-115197983D02*
X95397300Y-115131316D01*
X95397300Y-115131316D02*
X95463966Y-115064649D01*
X95463966Y-115064649D02*
X95597300Y-115031316D01*
X95597300Y-115031316D02*
X95830633Y-115031316D01*
X95830633Y-115031316D02*
X95963966Y-115064649D01*
X95963966Y-115064649D02*
X96030633Y-115131316D01*
X96030633Y-115131316D02*
X96063966Y-115197983D01*
X95363966Y-116164649D02*
X95363966Y-115764649D01*
X95363966Y-115964649D02*
X96063966Y-115964649D01*
X96063966Y-115964649D02*
X95963966Y-115897982D01*
X95963966Y-115897982D02*
X95897300Y-115831316D01*
X95897300Y-115831316D02*
X95863966Y-115764649D01*
X96097300Y-116964649D02*
X95197300Y-116364649D01*
X96063966Y-117197982D02*
X95497300Y-117197982D01*
X95497300Y-117197982D02*
X95430633Y-117231316D01*
X95430633Y-117231316D02*
X95397300Y-117264649D01*
X95397300Y-117264649D02*
X95363966Y-117331316D01*
X95363966Y-117331316D02*
X95363966Y-117464649D01*
X95363966Y-117464649D02*
X95397300Y-117531316D01*
X95397300Y-117531316D02*
X95430633Y-117564649D01*
X95430633Y-117564649D02*
X95497300Y-117597982D01*
X95497300Y-117597982D02*
X96063966Y-117597982D01*
X96063966Y-118064649D02*
X96063966Y-118131315D01*
X96063966Y-118131315D02*
X96030633Y-118197982D01*
X96030633Y-118197982D02*
X95997300Y-118231315D01*
X95997300Y-118231315D02*
X95930633Y-118264649D01*
X95930633Y-118264649D02*
X95797300Y-118297982D01*
X95797300Y-118297982D02*
X95630633Y-118297982D01*
X95630633Y-118297982D02*
X95497300Y-118264649D01*
X95497300Y-118264649D02*
X95430633Y-118231315D01*
X95430633Y-118231315D02*
X95397300Y-118197982D01*
X95397300Y-118197982D02*
X95363966Y-118131315D01*
X95363966Y-118131315D02*
X95363966Y-118064649D01*
X95363966Y-118064649D02*
X95397300Y-117997982D01*
X95397300Y-117997982D02*
X95430633Y-117964649D01*
X95430633Y-117964649D02*
X95497300Y-117931315D01*
X95497300Y-117931315D02*
X95630633Y-117897982D01*
X95630633Y-117897982D02*
X95797300Y-117897982D01*
X95797300Y-117897982D02*
X95930633Y-117931315D01*
X95930633Y-117931315D02*
X95997300Y-117964649D01*
X95997300Y-117964649D02*
X96030633Y-117997982D01*
X96030633Y-117997982D02*
X96063966Y-118064649D01*
X96063966Y-118497982D02*
X96063966Y-118897982D01*
X95363966Y-118697982D02*
X96063966Y-118697982D01*
X96063966Y-119064649D02*
X95363966Y-119531315D01*
X96063966Y-119531315D02*
X95363966Y-119064649D01*
X95363966Y-119797982D02*
X96063966Y-119797982D01*
X96063966Y-119797982D02*
X96063966Y-119964649D01*
X96063966Y-119964649D02*
X96030633Y-120064649D01*
X96030633Y-120064649D02*
X95963966Y-120131316D01*
X95963966Y-120131316D02*
X95897300Y-120164649D01*
X95897300Y-120164649D02*
X95763966Y-120197982D01*
X95763966Y-120197982D02*
X95663966Y-120197982D01*
X95663966Y-120197982D02*
X95530633Y-120164649D01*
X95530633Y-120164649D02*
X95463966Y-120131316D01*
X95463966Y-120131316D02*
X95397300Y-120064649D01*
X95397300Y-120064649D02*
X95363966Y-119964649D01*
X95363966Y-119964649D02*
X95363966Y-119797982D01*
X68090633Y-117731316D02*
X68123966Y-117664649D01*
X68123966Y-117664649D02*
X68123966Y-117564649D01*
X68123966Y-117564649D02*
X68090633Y-117464649D01*
X68090633Y-117464649D02*
X68023966Y-117397983D01*
X68023966Y-117397983D02*
X67957300Y-117364649D01*
X67957300Y-117364649D02*
X67823966Y-117331316D01*
X67823966Y-117331316D02*
X67723966Y-117331316D01*
X67723966Y-117331316D02*
X67590633Y-117364649D01*
X67590633Y-117364649D02*
X67523966Y-117397983D01*
X67523966Y-117397983D02*
X67457300Y-117464649D01*
X67457300Y-117464649D02*
X67423966Y-117564649D01*
X67423966Y-117564649D02*
X67423966Y-117631316D01*
X67423966Y-117631316D02*
X67457300Y-117731316D01*
X67457300Y-117731316D02*
X67490633Y-117764649D01*
X67490633Y-117764649D02*
X67723966Y-117764649D01*
X67723966Y-117764649D02*
X67723966Y-117631316D01*
X67423966Y-118064649D02*
X68123966Y-118064649D01*
X68123966Y-118064649D02*
X68123966Y-118331316D01*
X68123966Y-118331316D02*
X68090633Y-118397983D01*
X68090633Y-118397983D02*
X68057300Y-118431316D01*
X68057300Y-118431316D02*
X67990633Y-118464649D01*
X67990633Y-118464649D02*
X67890633Y-118464649D01*
X67890633Y-118464649D02*
X67823966Y-118431316D01*
X67823966Y-118431316D02*
X67790633Y-118397983D01*
X67790633Y-118397983D02*
X67757300Y-118331316D01*
X67757300Y-118331316D02*
X67757300Y-118064649D01*
X67423966Y-118764649D02*
X68123966Y-118764649D01*
X68123966Y-119231316D02*
X68123966Y-119364649D01*
X68123966Y-119364649D02*
X68090633Y-119431316D01*
X68090633Y-119431316D02*
X68023966Y-119497982D01*
X68023966Y-119497982D02*
X67890633Y-119531316D01*
X67890633Y-119531316D02*
X67657300Y-119531316D01*
X67657300Y-119531316D02*
X67523966Y-119497982D01*
X67523966Y-119497982D02*
X67457300Y-119431316D01*
X67457300Y-119431316D02*
X67423966Y-119364649D01*
X67423966Y-119364649D02*
X67423966Y-119231316D01*
X67423966Y-119231316D02*
X67457300Y-119164649D01*
X67457300Y-119164649D02*
X67523966Y-119097982D01*
X67523966Y-119097982D02*
X67657300Y-119064649D01*
X67657300Y-119064649D02*
X67890633Y-119064649D01*
X67890633Y-119064649D02*
X68023966Y-119097982D01*
X68023966Y-119097982D02*
X68090633Y-119164649D01*
X68090633Y-119164649D02*
X68123966Y-119231316D01*
X68057300Y-119797982D02*
X68090633Y-119831315D01*
X68090633Y-119831315D02*
X68123966Y-119897982D01*
X68123966Y-119897982D02*
X68123966Y-120064649D01*
X68123966Y-120064649D02*
X68090633Y-120131315D01*
X68090633Y-120131315D02*
X68057300Y-120164649D01*
X68057300Y-120164649D02*
X67990633Y-120197982D01*
X67990633Y-120197982D02*
X67923966Y-120197982D01*
X67923966Y-120197982D02*
X67823966Y-120164649D01*
X67823966Y-120164649D02*
X67423966Y-119764649D01*
X67423966Y-119764649D02*
X67423966Y-120197982D01*
X75710633Y-117064649D02*
X75743966Y-116997982D01*
X75743966Y-116997982D02*
X75743966Y-116897982D01*
X75743966Y-116897982D02*
X75710633Y-116797982D01*
X75710633Y-116797982D02*
X75643966Y-116731316D01*
X75643966Y-116731316D02*
X75577300Y-116697982D01*
X75577300Y-116697982D02*
X75443966Y-116664649D01*
X75443966Y-116664649D02*
X75343966Y-116664649D01*
X75343966Y-116664649D02*
X75210633Y-116697982D01*
X75210633Y-116697982D02*
X75143966Y-116731316D01*
X75143966Y-116731316D02*
X75077300Y-116797982D01*
X75077300Y-116797982D02*
X75043966Y-116897982D01*
X75043966Y-116897982D02*
X75043966Y-116964649D01*
X75043966Y-116964649D02*
X75077300Y-117064649D01*
X75077300Y-117064649D02*
X75110633Y-117097982D01*
X75110633Y-117097982D02*
X75343966Y-117097982D01*
X75343966Y-117097982D02*
X75343966Y-116964649D01*
X75043966Y-117397982D02*
X75743966Y-117397982D01*
X75743966Y-117397982D02*
X75743966Y-117664649D01*
X75743966Y-117664649D02*
X75710633Y-117731316D01*
X75710633Y-117731316D02*
X75677300Y-117764649D01*
X75677300Y-117764649D02*
X75610633Y-117797982D01*
X75610633Y-117797982D02*
X75510633Y-117797982D01*
X75510633Y-117797982D02*
X75443966Y-117764649D01*
X75443966Y-117764649D02*
X75410633Y-117731316D01*
X75410633Y-117731316D02*
X75377300Y-117664649D01*
X75377300Y-117664649D02*
X75377300Y-117397982D01*
X75043966Y-118097982D02*
X75743966Y-118097982D01*
X75743966Y-118564649D02*
X75743966Y-118697982D01*
X75743966Y-118697982D02*
X75710633Y-118764649D01*
X75710633Y-118764649D02*
X75643966Y-118831315D01*
X75643966Y-118831315D02*
X75510633Y-118864649D01*
X75510633Y-118864649D02*
X75277300Y-118864649D01*
X75277300Y-118864649D02*
X75143966Y-118831315D01*
X75143966Y-118831315D02*
X75077300Y-118764649D01*
X75077300Y-118764649D02*
X75043966Y-118697982D01*
X75043966Y-118697982D02*
X75043966Y-118564649D01*
X75043966Y-118564649D02*
X75077300Y-118497982D01*
X75077300Y-118497982D02*
X75143966Y-118431315D01*
X75143966Y-118431315D02*
X75277300Y-118397982D01*
X75277300Y-118397982D02*
X75510633Y-118397982D01*
X75510633Y-118397982D02*
X75643966Y-118431315D01*
X75643966Y-118431315D02*
X75710633Y-118497982D01*
X75710633Y-118497982D02*
X75743966Y-118564649D01*
X75043966Y-119531315D02*
X75043966Y-119131315D01*
X75043966Y-119331315D02*
X75743966Y-119331315D01*
X75743966Y-119331315D02*
X75643966Y-119264648D01*
X75643966Y-119264648D02*
X75577300Y-119197982D01*
X75577300Y-119197982D02*
X75543966Y-119131315D01*
X75743966Y-120131315D02*
X75743966Y-119997982D01*
X75743966Y-119997982D02*
X75710633Y-119931315D01*
X75710633Y-119931315D02*
X75677300Y-119897982D01*
X75677300Y-119897982D02*
X75577300Y-119831315D01*
X75577300Y-119831315D02*
X75443966Y-119797982D01*
X75443966Y-119797982D02*
X75177300Y-119797982D01*
X75177300Y-119797982D02*
X75110633Y-119831315D01*
X75110633Y-119831315D02*
X75077300Y-119864649D01*
X75077300Y-119864649D02*
X75043966Y-119931315D01*
X75043966Y-119931315D02*
X75043966Y-120064649D01*
X75043966Y-120064649D02*
X75077300Y-120131315D01*
X75077300Y-120131315D02*
X75110633Y-120164649D01*
X75110633Y-120164649D02*
X75177300Y-120197982D01*
X75177300Y-120197982D02*
X75343966Y-120197982D01*
X75343966Y-120197982D02*
X75410633Y-120164649D01*
X75410633Y-120164649D02*
X75443966Y-120131315D01*
X75443966Y-120131315D02*
X75477300Y-120064649D01*
X75477300Y-120064649D02*
X75477300Y-119931315D01*
X75477300Y-119931315D02*
X75443966Y-119864649D01*
X75443966Y-119864649D02*
X75410633Y-119831315D01*
X75410633Y-119831315D02*
X75343966Y-119797982D01*
X78250633Y-98202017D02*
X78283966Y-98135350D01*
X78283966Y-98135350D02*
X78283966Y-98035350D01*
X78283966Y-98035350D02*
X78250633Y-97935350D01*
X78250633Y-97935350D02*
X78183966Y-97868684D01*
X78183966Y-97868684D02*
X78117300Y-97835350D01*
X78117300Y-97835350D02*
X77983966Y-97802017D01*
X77983966Y-97802017D02*
X77883966Y-97802017D01*
X77883966Y-97802017D02*
X77750633Y-97835350D01*
X77750633Y-97835350D02*
X77683966Y-97868684D01*
X77683966Y-97868684D02*
X77617300Y-97935350D01*
X77617300Y-97935350D02*
X77583966Y-98035350D01*
X77583966Y-98035350D02*
X77583966Y-98102017D01*
X77583966Y-98102017D02*
X77617300Y-98202017D01*
X77617300Y-98202017D02*
X77650633Y-98235350D01*
X77650633Y-98235350D02*
X77883966Y-98235350D01*
X77883966Y-98235350D02*
X77883966Y-98102017D01*
X77583966Y-98535350D02*
X78283966Y-98535350D01*
X78283966Y-98535350D02*
X78283966Y-98802017D01*
X78283966Y-98802017D02*
X78250633Y-98868684D01*
X78250633Y-98868684D02*
X78217300Y-98902017D01*
X78217300Y-98902017D02*
X78150633Y-98935350D01*
X78150633Y-98935350D02*
X78050633Y-98935350D01*
X78050633Y-98935350D02*
X77983966Y-98902017D01*
X77983966Y-98902017D02*
X77950633Y-98868684D01*
X77950633Y-98868684D02*
X77917300Y-98802017D01*
X77917300Y-98802017D02*
X77917300Y-98535350D01*
X77583966Y-99235350D02*
X78283966Y-99235350D01*
X78283966Y-99702017D02*
X78283966Y-99835350D01*
X78283966Y-99835350D02*
X78250633Y-99902017D01*
X78250633Y-99902017D02*
X78183966Y-99968683D01*
X78183966Y-99968683D02*
X78050633Y-100002017D01*
X78050633Y-100002017D02*
X77817300Y-100002017D01*
X77817300Y-100002017D02*
X77683966Y-99968683D01*
X77683966Y-99968683D02*
X77617300Y-99902017D01*
X77617300Y-99902017D02*
X77583966Y-99835350D01*
X77583966Y-99835350D02*
X77583966Y-99702017D01*
X77583966Y-99702017D02*
X77617300Y-99635350D01*
X77617300Y-99635350D02*
X77683966Y-99568683D01*
X77683966Y-99568683D02*
X77817300Y-99535350D01*
X77817300Y-99535350D02*
X78050633Y-99535350D01*
X78050633Y-99535350D02*
X78183966Y-99568683D01*
X78183966Y-99568683D02*
X78250633Y-99635350D01*
X78250633Y-99635350D02*
X78283966Y-99702017D01*
X78217300Y-100268683D02*
X78250633Y-100302016D01*
X78250633Y-100302016D02*
X78283966Y-100368683D01*
X78283966Y-100368683D02*
X78283966Y-100535350D01*
X78283966Y-100535350D02*
X78250633Y-100602016D01*
X78250633Y-100602016D02*
X78217300Y-100635350D01*
X78217300Y-100635350D02*
X78150633Y-100668683D01*
X78150633Y-100668683D02*
X78083966Y-100668683D01*
X78083966Y-100668683D02*
X77983966Y-100635350D01*
X77983966Y-100635350D02*
X77583966Y-100235350D01*
X77583966Y-100235350D02*
X77583966Y-100668683D01*
X78283966Y-100902017D02*
X78283966Y-101368683D01*
X78283966Y-101368683D02*
X77583966Y-101068683D01*
X57873900Y-98379289D02*
X57873900Y-97903099D01*
X57873900Y-97903099D02*
X57397710Y-97855480D01*
X57397710Y-97855480D02*
X57445329Y-97903099D01*
X57445329Y-97903099D02*
X57492948Y-97998337D01*
X57492948Y-97998337D02*
X57492948Y-98236432D01*
X57492948Y-98236432D02*
X57445329Y-98331670D01*
X57445329Y-98331670D02*
X57397710Y-98379289D01*
X57397710Y-98379289D02*
X57302472Y-98426908D01*
X57302472Y-98426908D02*
X57064377Y-98426908D01*
X57064377Y-98426908D02*
X56969139Y-98379289D01*
X56969139Y-98379289D02*
X56921520Y-98331670D01*
X56921520Y-98331670D02*
X56873900Y-98236432D01*
X56873900Y-98236432D02*
X56873900Y-97998337D01*
X56873900Y-97998337D02*
X56921520Y-97903099D01*
X56921520Y-97903099D02*
X56969139Y-97855480D01*
X57873900Y-98712623D02*
X56873900Y-99045956D01*
X56873900Y-99045956D02*
X57873900Y-99379289D01*
X88410633Y-98202017D02*
X88443966Y-98135350D01*
X88443966Y-98135350D02*
X88443966Y-98035350D01*
X88443966Y-98035350D02*
X88410633Y-97935350D01*
X88410633Y-97935350D02*
X88343966Y-97868684D01*
X88343966Y-97868684D02*
X88277300Y-97835350D01*
X88277300Y-97835350D02*
X88143966Y-97802017D01*
X88143966Y-97802017D02*
X88043966Y-97802017D01*
X88043966Y-97802017D02*
X87910633Y-97835350D01*
X87910633Y-97835350D02*
X87843966Y-97868684D01*
X87843966Y-97868684D02*
X87777300Y-97935350D01*
X87777300Y-97935350D02*
X87743966Y-98035350D01*
X87743966Y-98035350D02*
X87743966Y-98102017D01*
X87743966Y-98102017D02*
X87777300Y-98202017D01*
X87777300Y-98202017D02*
X87810633Y-98235350D01*
X87810633Y-98235350D02*
X88043966Y-98235350D01*
X88043966Y-98235350D02*
X88043966Y-98102017D01*
X87743966Y-98535350D02*
X88443966Y-98535350D01*
X88443966Y-98535350D02*
X88443966Y-98802017D01*
X88443966Y-98802017D02*
X88410633Y-98868684D01*
X88410633Y-98868684D02*
X88377300Y-98902017D01*
X88377300Y-98902017D02*
X88310633Y-98935350D01*
X88310633Y-98935350D02*
X88210633Y-98935350D01*
X88210633Y-98935350D02*
X88143966Y-98902017D01*
X88143966Y-98902017D02*
X88110633Y-98868684D01*
X88110633Y-98868684D02*
X88077300Y-98802017D01*
X88077300Y-98802017D02*
X88077300Y-98535350D01*
X87743966Y-99235350D02*
X88443966Y-99235350D01*
X88443966Y-99702017D02*
X88443966Y-99835350D01*
X88443966Y-99835350D02*
X88410633Y-99902017D01*
X88410633Y-99902017D02*
X88343966Y-99968683D01*
X88343966Y-99968683D02*
X88210633Y-100002017D01*
X88210633Y-100002017D02*
X87977300Y-100002017D01*
X87977300Y-100002017D02*
X87843966Y-99968683D01*
X87843966Y-99968683D02*
X87777300Y-99902017D01*
X87777300Y-99902017D02*
X87743966Y-99835350D01*
X87743966Y-99835350D02*
X87743966Y-99702017D01*
X87743966Y-99702017D02*
X87777300Y-99635350D01*
X87777300Y-99635350D02*
X87843966Y-99568683D01*
X87843966Y-99568683D02*
X87977300Y-99535350D01*
X87977300Y-99535350D02*
X88210633Y-99535350D01*
X88210633Y-99535350D02*
X88343966Y-99568683D01*
X88343966Y-99568683D02*
X88410633Y-99635350D01*
X88410633Y-99635350D02*
X88443966Y-99702017D01*
X88443966Y-100235350D02*
X88443966Y-100668683D01*
X88443966Y-100668683D02*
X88177300Y-100435350D01*
X88177300Y-100435350D02*
X88177300Y-100535350D01*
X88177300Y-100535350D02*
X88143966Y-100602016D01*
X88143966Y-100602016D02*
X88110633Y-100635350D01*
X88110633Y-100635350D02*
X88043966Y-100668683D01*
X88043966Y-100668683D02*
X87877300Y-100668683D01*
X87877300Y-100668683D02*
X87810633Y-100635350D01*
X87810633Y-100635350D02*
X87777300Y-100602016D01*
X87777300Y-100602016D02*
X87743966Y-100535350D01*
X87743966Y-100535350D02*
X87743966Y-100335350D01*
X87743966Y-100335350D02*
X87777300Y-100268683D01*
X87777300Y-100268683D02*
X87810633Y-100235350D01*
X88377300Y-100935350D02*
X88410633Y-100968683D01*
X88410633Y-100968683D02*
X88443966Y-101035350D01*
X88443966Y-101035350D02*
X88443966Y-101202017D01*
X88443966Y-101202017D02*
X88410633Y-101268683D01*
X88410633Y-101268683D02*
X88377300Y-101302017D01*
X88377300Y-101302017D02*
X88310633Y-101335350D01*
X88310633Y-101335350D02*
X88243966Y-101335350D01*
X88243966Y-101335350D02*
X88143966Y-101302017D01*
X88143966Y-101302017D02*
X87743966Y-100902017D01*
X87743966Y-100902017D02*
X87743966Y-101335350D01*
X83330633Y-117064649D02*
X83363966Y-116997982D01*
X83363966Y-116997982D02*
X83363966Y-116897982D01*
X83363966Y-116897982D02*
X83330633Y-116797982D01*
X83330633Y-116797982D02*
X83263966Y-116731316D01*
X83263966Y-116731316D02*
X83197300Y-116697982D01*
X83197300Y-116697982D02*
X83063966Y-116664649D01*
X83063966Y-116664649D02*
X82963966Y-116664649D01*
X82963966Y-116664649D02*
X82830633Y-116697982D01*
X82830633Y-116697982D02*
X82763966Y-116731316D01*
X82763966Y-116731316D02*
X82697300Y-116797982D01*
X82697300Y-116797982D02*
X82663966Y-116897982D01*
X82663966Y-116897982D02*
X82663966Y-116964649D01*
X82663966Y-116964649D02*
X82697300Y-117064649D01*
X82697300Y-117064649D02*
X82730633Y-117097982D01*
X82730633Y-117097982D02*
X82963966Y-117097982D01*
X82963966Y-117097982D02*
X82963966Y-116964649D01*
X82663966Y-117397982D02*
X83363966Y-117397982D01*
X83363966Y-117397982D02*
X83363966Y-117664649D01*
X83363966Y-117664649D02*
X83330633Y-117731316D01*
X83330633Y-117731316D02*
X83297300Y-117764649D01*
X83297300Y-117764649D02*
X83230633Y-117797982D01*
X83230633Y-117797982D02*
X83130633Y-117797982D01*
X83130633Y-117797982D02*
X83063966Y-117764649D01*
X83063966Y-117764649D02*
X83030633Y-117731316D01*
X83030633Y-117731316D02*
X82997300Y-117664649D01*
X82997300Y-117664649D02*
X82997300Y-117397982D01*
X82663966Y-118097982D02*
X83363966Y-118097982D01*
X83363966Y-118564649D02*
X83363966Y-118697982D01*
X83363966Y-118697982D02*
X83330633Y-118764649D01*
X83330633Y-118764649D02*
X83263966Y-118831315D01*
X83263966Y-118831315D02*
X83130633Y-118864649D01*
X83130633Y-118864649D02*
X82897300Y-118864649D01*
X82897300Y-118864649D02*
X82763966Y-118831315D01*
X82763966Y-118831315D02*
X82697300Y-118764649D01*
X82697300Y-118764649D02*
X82663966Y-118697982D01*
X82663966Y-118697982D02*
X82663966Y-118564649D01*
X82663966Y-118564649D02*
X82697300Y-118497982D01*
X82697300Y-118497982D02*
X82763966Y-118431315D01*
X82763966Y-118431315D02*
X82897300Y-118397982D01*
X82897300Y-118397982D02*
X83130633Y-118397982D01*
X83130633Y-118397982D02*
X83263966Y-118431315D01*
X83263966Y-118431315D02*
X83330633Y-118497982D01*
X83330633Y-118497982D02*
X83363966Y-118564649D01*
X82663966Y-119531315D02*
X82663966Y-119131315D01*
X82663966Y-119331315D02*
X83363966Y-119331315D01*
X83363966Y-119331315D02*
X83263966Y-119264648D01*
X83263966Y-119264648D02*
X83197300Y-119197982D01*
X83197300Y-119197982D02*
X83163966Y-119131315D01*
X83063966Y-119931315D02*
X83097300Y-119864649D01*
X83097300Y-119864649D02*
X83130633Y-119831315D01*
X83130633Y-119831315D02*
X83197300Y-119797982D01*
X83197300Y-119797982D02*
X83230633Y-119797982D01*
X83230633Y-119797982D02*
X83297300Y-119831315D01*
X83297300Y-119831315D02*
X83330633Y-119864649D01*
X83330633Y-119864649D02*
X83363966Y-119931315D01*
X83363966Y-119931315D02*
X83363966Y-120064649D01*
X83363966Y-120064649D02*
X83330633Y-120131315D01*
X83330633Y-120131315D02*
X83297300Y-120164649D01*
X83297300Y-120164649D02*
X83230633Y-120197982D01*
X83230633Y-120197982D02*
X83197300Y-120197982D01*
X83197300Y-120197982D02*
X83130633Y-120164649D01*
X83130633Y-120164649D02*
X83097300Y-120131315D01*
X83097300Y-120131315D02*
X83063966Y-120064649D01*
X83063966Y-120064649D02*
X83063966Y-119931315D01*
X83063966Y-119931315D02*
X83030633Y-119864649D01*
X83030633Y-119864649D02*
X82997300Y-119831315D01*
X82997300Y-119831315D02*
X82930633Y-119797982D01*
X82930633Y-119797982D02*
X82797300Y-119797982D01*
X82797300Y-119797982D02*
X82730633Y-119831315D01*
X82730633Y-119831315D02*
X82697300Y-119864649D01*
X82697300Y-119864649D02*
X82663966Y-119931315D01*
X82663966Y-119931315D02*
X82663966Y-120064649D01*
X82663966Y-120064649D02*
X82697300Y-120131315D01*
X82697300Y-120131315D02*
X82730633Y-120164649D01*
X82730633Y-120164649D02*
X82797300Y-120197982D01*
X82797300Y-120197982D02*
X82930633Y-120197982D01*
X82930633Y-120197982D02*
X82997300Y-120164649D01*
X82997300Y-120164649D02*
X83030633Y-120131315D01*
X83030633Y-120131315D02*
X83063966Y-120064649D01*
X93490633Y-98202017D02*
X93523966Y-98135350D01*
X93523966Y-98135350D02*
X93523966Y-98035350D01*
X93523966Y-98035350D02*
X93490633Y-97935350D01*
X93490633Y-97935350D02*
X93423966Y-97868684D01*
X93423966Y-97868684D02*
X93357300Y-97835350D01*
X93357300Y-97835350D02*
X93223966Y-97802017D01*
X93223966Y-97802017D02*
X93123966Y-97802017D01*
X93123966Y-97802017D02*
X92990633Y-97835350D01*
X92990633Y-97835350D02*
X92923966Y-97868684D01*
X92923966Y-97868684D02*
X92857300Y-97935350D01*
X92857300Y-97935350D02*
X92823966Y-98035350D01*
X92823966Y-98035350D02*
X92823966Y-98102017D01*
X92823966Y-98102017D02*
X92857300Y-98202017D01*
X92857300Y-98202017D02*
X92890633Y-98235350D01*
X92890633Y-98235350D02*
X93123966Y-98235350D01*
X93123966Y-98235350D02*
X93123966Y-98102017D01*
X92823966Y-98535350D02*
X93523966Y-98535350D01*
X93523966Y-98535350D02*
X93523966Y-98802017D01*
X93523966Y-98802017D02*
X93490633Y-98868684D01*
X93490633Y-98868684D02*
X93457300Y-98902017D01*
X93457300Y-98902017D02*
X93390633Y-98935350D01*
X93390633Y-98935350D02*
X93290633Y-98935350D01*
X93290633Y-98935350D02*
X93223966Y-98902017D01*
X93223966Y-98902017D02*
X93190633Y-98868684D01*
X93190633Y-98868684D02*
X93157300Y-98802017D01*
X93157300Y-98802017D02*
X93157300Y-98535350D01*
X92823966Y-99235350D02*
X93523966Y-99235350D01*
X93523966Y-99702017D02*
X93523966Y-99835350D01*
X93523966Y-99835350D02*
X93490633Y-99902017D01*
X93490633Y-99902017D02*
X93423966Y-99968683D01*
X93423966Y-99968683D02*
X93290633Y-100002017D01*
X93290633Y-100002017D02*
X93057300Y-100002017D01*
X93057300Y-100002017D02*
X92923966Y-99968683D01*
X92923966Y-99968683D02*
X92857300Y-99902017D01*
X92857300Y-99902017D02*
X92823966Y-99835350D01*
X92823966Y-99835350D02*
X92823966Y-99702017D01*
X92823966Y-99702017D02*
X92857300Y-99635350D01*
X92857300Y-99635350D02*
X92923966Y-99568683D01*
X92923966Y-99568683D02*
X93057300Y-99535350D01*
X93057300Y-99535350D02*
X93290633Y-99535350D01*
X93290633Y-99535350D02*
X93423966Y-99568683D01*
X93423966Y-99568683D02*
X93490633Y-99635350D01*
X93490633Y-99635350D02*
X93523966Y-99702017D01*
X93523966Y-100235350D02*
X93523966Y-100668683D01*
X93523966Y-100668683D02*
X93257300Y-100435350D01*
X93257300Y-100435350D02*
X93257300Y-100535350D01*
X93257300Y-100535350D02*
X93223966Y-100602016D01*
X93223966Y-100602016D02*
X93190633Y-100635350D01*
X93190633Y-100635350D02*
X93123966Y-100668683D01*
X93123966Y-100668683D02*
X92957300Y-100668683D01*
X92957300Y-100668683D02*
X92890633Y-100635350D01*
X92890633Y-100635350D02*
X92857300Y-100602016D01*
X92857300Y-100602016D02*
X92823966Y-100535350D01*
X92823966Y-100535350D02*
X92823966Y-100335350D01*
X92823966Y-100335350D02*
X92857300Y-100268683D01*
X92857300Y-100268683D02*
X92890633Y-100235350D01*
X93290633Y-101268683D02*
X92823966Y-101268683D01*
X93557300Y-101102017D02*
X93057300Y-100935350D01*
X93057300Y-100935350D02*
X93057300Y-101368683D01*
X83330633Y-98202017D02*
X83363966Y-98135350D01*
X83363966Y-98135350D02*
X83363966Y-98035350D01*
X83363966Y-98035350D02*
X83330633Y-97935350D01*
X83330633Y-97935350D02*
X83263966Y-97868684D01*
X83263966Y-97868684D02*
X83197300Y-97835350D01*
X83197300Y-97835350D02*
X83063966Y-97802017D01*
X83063966Y-97802017D02*
X82963966Y-97802017D01*
X82963966Y-97802017D02*
X82830633Y-97835350D01*
X82830633Y-97835350D02*
X82763966Y-97868684D01*
X82763966Y-97868684D02*
X82697300Y-97935350D01*
X82697300Y-97935350D02*
X82663966Y-98035350D01*
X82663966Y-98035350D02*
X82663966Y-98102017D01*
X82663966Y-98102017D02*
X82697300Y-98202017D01*
X82697300Y-98202017D02*
X82730633Y-98235350D01*
X82730633Y-98235350D02*
X82963966Y-98235350D01*
X82963966Y-98235350D02*
X82963966Y-98102017D01*
X82663966Y-98535350D02*
X83363966Y-98535350D01*
X83363966Y-98535350D02*
X83363966Y-98802017D01*
X83363966Y-98802017D02*
X83330633Y-98868684D01*
X83330633Y-98868684D02*
X83297300Y-98902017D01*
X83297300Y-98902017D02*
X83230633Y-98935350D01*
X83230633Y-98935350D02*
X83130633Y-98935350D01*
X83130633Y-98935350D02*
X83063966Y-98902017D01*
X83063966Y-98902017D02*
X83030633Y-98868684D01*
X83030633Y-98868684D02*
X82997300Y-98802017D01*
X82997300Y-98802017D02*
X82997300Y-98535350D01*
X82663966Y-99235350D02*
X83363966Y-99235350D01*
X83363966Y-99702017D02*
X83363966Y-99835350D01*
X83363966Y-99835350D02*
X83330633Y-99902017D01*
X83330633Y-99902017D02*
X83263966Y-99968683D01*
X83263966Y-99968683D02*
X83130633Y-100002017D01*
X83130633Y-100002017D02*
X82897300Y-100002017D01*
X82897300Y-100002017D02*
X82763966Y-99968683D01*
X82763966Y-99968683D02*
X82697300Y-99902017D01*
X82697300Y-99902017D02*
X82663966Y-99835350D01*
X82663966Y-99835350D02*
X82663966Y-99702017D01*
X82663966Y-99702017D02*
X82697300Y-99635350D01*
X82697300Y-99635350D02*
X82763966Y-99568683D01*
X82763966Y-99568683D02*
X82897300Y-99535350D01*
X82897300Y-99535350D02*
X83130633Y-99535350D01*
X83130633Y-99535350D02*
X83263966Y-99568683D01*
X83263966Y-99568683D02*
X83330633Y-99635350D01*
X83330633Y-99635350D02*
X83363966Y-99702017D01*
X83297300Y-100268683D02*
X83330633Y-100302016D01*
X83330633Y-100302016D02*
X83363966Y-100368683D01*
X83363966Y-100368683D02*
X83363966Y-100535350D01*
X83363966Y-100535350D02*
X83330633Y-100602016D01*
X83330633Y-100602016D02*
X83297300Y-100635350D01*
X83297300Y-100635350D02*
X83230633Y-100668683D01*
X83230633Y-100668683D02*
X83163966Y-100668683D01*
X83163966Y-100668683D02*
X83063966Y-100635350D01*
X83063966Y-100635350D02*
X82663966Y-100235350D01*
X82663966Y-100235350D02*
X82663966Y-100668683D01*
X83363966Y-101302017D02*
X83363966Y-100968683D01*
X83363966Y-100968683D02*
X83030633Y-100935350D01*
X83030633Y-100935350D02*
X83063966Y-100968683D01*
X83063966Y-100968683D02*
X83097300Y-101035350D01*
X83097300Y-101035350D02*
X83097300Y-101202017D01*
X83097300Y-101202017D02*
X83063966Y-101268683D01*
X83063966Y-101268683D02*
X83030633Y-101302017D01*
X83030633Y-101302017D02*
X82963966Y-101335350D01*
X82963966Y-101335350D02*
X82797300Y-101335350D01*
X82797300Y-101335350D02*
X82730633Y-101302017D01*
X82730633Y-101302017D02*
X82697300Y-101268683D01*
X82697300Y-101268683D02*
X82663966Y-101202017D01*
X82663966Y-101202017D02*
X82663966Y-101035350D01*
X82663966Y-101035350D02*
X82697300Y-100968683D01*
X82697300Y-100968683D02*
X82730633Y-100935350D01*
X98603966Y-97735350D02*
X97903966Y-97968684D01*
X97903966Y-97968684D02*
X98603966Y-98202017D01*
X97903966Y-98435350D02*
X98603966Y-98435350D01*
X98603966Y-98435350D02*
X98603966Y-98702017D01*
X98603966Y-98702017D02*
X98570633Y-98768684D01*
X98570633Y-98768684D02*
X98537300Y-98802017D01*
X98537300Y-98802017D02*
X98470633Y-98835350D01*
X98470633Y-98835350D02*
X98370633Y-98835350D01*
X98370633Y-98835350D02*
X98303966Y-98802017D01*
X98303966Y-98802017D02*
X98270633Y-98768684D01*
X98270633Y-98768684D02*
X98237300Y-98702017D01*
X98237300Y-98702017D02*
X98237300Y-98435350D01*
X98637300Y-99635350D02*
X97737300Y-99035350D01*
X98570633Y-100235350D02*
X98603966Y-100168683D01*
X98603966Y-100168683D02*
X98603966Y-100068683D01*
X98603966Y-100068683D02*
X98570633Y-99968683D01*
X98570633Y-99968683D02*
X98503966Y-99902017D01*
X98503966Y-99902017D02*
X98437300Y-99868683D01*
X98437300Y-99868683D02*
X98303966Y-99835350D01*
X98303966Y-99835350D02*
X98203966Y-99835350D01*
X98203966Y-99835350D02*
X98070633Y-99868683D01*
X98070633Y-99868683D02*
X98003966Y-99902017D01*
X98003966Y-99902017D02*
X97937300Y-99968683D01*
X97937300Y-99968683D02*
X97903966Y-100068683D01*
X97903966Y-100068683D02*
X97903966Y-100135350D01*
X97903966Y-100135350D02*
X97937300Y-100235350D01*
X97937300Y-100235350D02*
X97970633Y-100268683D01*
X97970633Y-100268683D02*
X98203966Y-100268683D01*
X98203966Y-100268683D02*
X98203966Y-100135350D01*
X97903966Y-100568683D02*
X98603966Y-100568683D01*
X98603966Y-100568683D02*
X98603966Y-100835350D01*
X98603966Y-100835350D02*
X98570633Y-100902017D01*
X98570633Y-100902017D02*
X98537300Y-100935350D01*
X98537300Y-100935350D02*
X98470633Y-100968683D01*
X98470633Y-100968683D02*
X98370633Y-100968683D01*
X98370633Y-100968683D02*
X98303966Y-100935350D01*
X98303966Y-100935350D02*
X98270633Y-100902017D01*
X98270633Y-100902017D02*
X98237300Y-100835350D01*
X98237300Y-100835350D02*
X98237300Y-100568683D01*
X97903966Y-101268683D02*
X98603966Y-101268683D01*
X98603966Y-101735350D02*
X98603966Y-101868683D01*
X98603966Y-101868683D02*
X98570633Y-101935350D01*
X98570633Y-101935350D02*
X98503966Y-102002016D01*
X98503966Y-102002016D02*
X98370633Y-102035350D01*
X98370633Y-102035350D02*
X98137300Y-102035350D01*
X98137300Y-102035350D02*
X98003966Y-102002016D01*
X98003966Y-102002016D02*
X97937300Y-101935350D01*
X97937300Y-101935350D02*
X97903966Y-101868683D01*
X97903966Y-101868683D02*
X97903966Y-101735350D01*
X97903966Y-101735350D02*
X97937300Y-101668683D01*
X97937300Y-101668683D02*
X98003966Y-101602016D01*
X98003966Y-101602016D02*
X98137300Y-101568683D01*
X98137300Y-101568683D02*
X98370633Y-101568683D01*
X98370633Y-101568683D02*
X98503966Y-101602016D01*
X98503966Y-101602016D02*
X98570633Y-101668683D01*
X98570633Y-101668683D02*
X98603966Y-101735350D01*
X98603966Y-102268683D02*
X98603966Y-102702016D01*
X98603966Y-102702016D02*
X98337300Y-102468683D01*
X98337300Y-102468683D02*
X98337300Y-102568683D01*
X98337300Y-102568683D02*
X98303966Y-102635349D01*
X98303966Y-102635349D02*
X98270633Y-102668683D01*
X98270633Y-102668683D02*
X98203966Y-102702016D01*
X98203966Y-102702016D02*
X98037300Y-102702016D01*
X98037300Y-102702016D02*
X97970633Y-102668683D01*
X97970633Y-102668683D02*
X97937300Y-102635349D01*
X97937300Y-102635349D02*
X97903966Y-102568683D01*
X97903966Y-102568683D02*
X97903966Y-102368683D01*
X97903966Y-102368683D02*
X97937300Y-102302016D01*
X97937300Y-102302016D02*
X97970633Y-102268683D01*
X98603966Y-103302016D02*
X98603966Y-103168683D01*
X98603966Y-103168683D02*
X98570633Y-103102016D01*
X98570633Y-103102016D02*
X98537300Y-103068683D01*
X98537300Y-103068683D02*
X98437300Y-103002016D01*
X98437300Y-103002016D02*
X98303966Y-102968683D01*
X98303966Y-102968683D02*
X98037300Y-102968683D01*
X98037300Y-102968683D02*
X97970633Y-103002016D01*
X97970633Y-103002016D02*
X97937300Y-103035350D01*
X97937300Y-103035350D02*
X97903966Y-103102016D01*
X97903966Y-103102016D02*
X97903966Y-103235350D01*
X97903966Y-103235350D02*
X97937300Y-103302016D01*
X97937300Y-103302016D02*
X97970633Y-103335350D01*
X97970633Y-103335350D02*
X98037300Y-103368683D01*
X98037300Y-103368683D02*
X98203966Y-103368683D01*
X98203966Y-103368683D02*
X98270633Y-103335350D01*
X98270633Y-103335350D02*
X98303966Y-103302016D01*
X98303966Y-103302016D02*
X98337300Y-103235350D01*
X98337300Y-103235350D02*
X98337300Y-103102016D01*
X98337300Y-103102016D02*
X98303966Y-103035350D01*
X98303966Y-103035350D02*
X98270633Y-103002016D01*
X98270633Y-103002016D02*
X98203966Y-102968683D01*
X103845180Y-97811541D02*
X103845180Y-98430588D01*
X103845180Y-98430588D02*
X103464228Y-98097255D01*
X103464228Y-98097255D02*
X103464228Y-98240112D01*
X103464228Y-98240112D02*
X103416609Y-98335350D01*
X103416609Y-98335350D02*
X103368990Y-98382969D01*
X103368990Y-98382969D02*
X103273752Y-98430588D01*
X103273752Y-98430588D02*
X103035657Y-98430588D01*
X103035657Y-98430588D02*
X102940419Y-98382969D01*
X102940419Y-98382969D02*
X102892800Y-98335350D01*
X102892800Y-98335350D02*
X102845180Y-98240112D01*
X102845180Y-98240112D02*
X102845180Y-97954398D01*
X102845180Y-97954398D02*
X102892800Y-97859160D01*
X102892800Y-97859160D02*
X102940419Y-97811541D01*
X103845180Y-98716303D02*
X102845180Y-99049636D01*
X102845180Y-99049636D02*
X103845180Y-99382969D01*
X103845180Y-99621065D02*
X103845180Y-100240112D01*
X103845180Y-100240112D02*
X103464228Y-99906779D01*
X103464228Y-99906779D02*
X103464228Y-100049636D01*
X103464228Y-100049636D02*
X103416609Y-100144874D01*
X103416609Y-100144874D02*
X103368990Y-100192493D01*
X103368990Y-100192493D02*
X103273752Y-100240112D01*
X103273752Y-100240112D02*
X103035657Y-100240112D01*
X103035657Y-100240112D02*
X102940419Y-100192493D01*
X102940419Y-100192493D02*
X102892800Y-100144874D01*
X102892800Y-100144874D02*
X102845180Y-100049636D01*
X102845180Y-100049636D02*
X102845180Y-99763922D01*
X102845180Y-99763922D02*
X102892800Y-99668684D01*
X102892800Y-99668684D02*
X102940419Y-99621065D01*
X85870633Y-117064649D02*
X85903966Y-116997982D01*
X85903966Y-116997982D02*
X85903966Y-116897982D01*
X85903966Y-116897982D02*
X85870633Y-116797982D01*
X85870633Y-116797982D02*
X85803966Y-116731316D01*
X85803966Y-116731316D02*
X85737300Y-116697982D01*
X85737300Y-116697982D02*
X85603966Y-116664649D01*
X85603966Y-116664649D02*
X85503966Y-116664649D01*
X85503966Y-116664649D02*
X85370633Y-116697982D01*
X85370633Y-116697982D02*
X85303966Y-116731316D01*
X85303966Y-116731316D02*
X85237300Y-116797982D01*
X85237300Y-116797982D02*
X85203966Y-116897982D01*
X85203966Y-116897982D02*
X85203966Y-116964649D01*
X85203966Y-116964649D02*
X85237300Y-117064649D01*
X85237300Y-117064649D02*
X85270633Y-117097982D01*
X85270633Y-117097982D02*
X85503966Y-117097982D01*
X85503966Y-117097982D02*
X85503966Y-116964649D01*
X85203966Y-117397982D02*
X85903966Y-117397982D01*
X85903966Y-117397982D02*
X85903966Y-117664649D01*
X85903966Y-117664649D02*
X85870633Y-117731316D01*
X85870633Y-117731316D02*
X85837300Y-117764649D01*
X85837300Y-117764649D02*
X85770633Y-117797982D01*
X85770633Y-117797982D02*
X85670633Y-117797982D01*
X85670633Y-117797982D02*
X85603966Y-117764649D01*
X85603966Y-117764649D02*
X85570633Y-117731316D01*
X85570633Y-117731316D02*
X85537300Y-117664649D01*
X85537300Y-117664649D02*
X85537300Y-117397982D01*
X85203966Y-118097982D02*
X85903966Y-118097982D01*
X85903966Y-118564649D02*
X85903966Y-118697982D01*
X85903966Y-118697982D02*
X85870633Y-118764649D01*
X85870633Y-118764649D02*
X85803966Y-118831315D01*
X85803966Y-118831315D02*
X85670633Y-118864649D01*
X85670633Y-118864649D02*
X85437300Y-118864649D01*
X85437300Y-118864649D02*
X85303966Y-118831315D01*
X85303966Y-118831315D02*
X85237300Y-118764649D01*
X85237300Y-118764649D02*
X85203966Y-118697982D01*
X85203966Y-118697982D02*
X85203966Y-118564649D01*
X85203966Y-118564649D02*
X85237300Y-118497982D01*
X85237300Y-118497982D02*
X85303966Y-118431315D01*
X85303966Y-118431315D02*
X85437300Y-118397982D01*
X85437300Y-118397982D02*
X85670633Y-118397982D01*
X85670633Y-118397982D02*
X85803966Y-118431315D01*
X85803966Y-118431315D02*
X85870633Y-118497982D01*
X85870633Y-118497982D02*
X85903966Y-118564649D01*
X85203966Y-119531315D02*
X85203966Y-119131315D01*
X85203966Y-119331315D02*
X85903966Y-119331315D01*
X85903966Y-119331315D02*
X85803966Y-119264648D01*
X85803966Y-119264648D02*
X85737300Y-119197982D01*
X85737300Y-119197982D02*
X85703966Y-119131315D01*
X85203966Y-119864649D02*
X85203966Y-119997982D01*
X85203966Y-119997982D02*
X85237300Y-120064649D01*
X85237300Y-120064649D02*
X85270633Y-120097982D01*
X85270633Y-120097982D02*
X85370633Y-120164649D01*
X85370633Y-120164649D02*
X85503966Y-120197982D01*
X85503966Y-120197982D02*
X85770633Y-120197982D01*
X85770633Y-120197982D02*
X85837300Y-120164649D01*
X85837300Y-120164649D02*
X85870633Y-120131315D01*
X85870633Y-120131315D02*
X85903966Y-120064649D01*
X85903966Y-120064649D02*
X85903966Y-119931315D01*
X85903966Y-119931315D02*
X85870633Y-119864649D01*
X85870633Y-119864649D02*
X85837300Y-119831315D01*
X85837300Y-119831315D02*
X85770633Y-119797982D01*
X85770633Y-119797982D02*
X85603966Y-119797982D01*
X85603966Y-119797982D02*
X85537300Y-119831315D01*
X85537300Y-119831315D02*
X85503966Y-119864649D01*
X85503966Y-119864649D02*
X85470633Y-119931315D01*
X85470633Y-119931315D02*
X85470633Y-120064649D01*
X85470633Y-120064649D02*
X85503966Y-120131315D01*
X85503966Y-120131315D02*
X85537300Y-120164649D01*
X85537300Y-120164649D02*
X85603966Y-120197982D01*
X90950633Y-117064649D02*
X90983966Y-116997982D01*
X90983966Y-116997982D02*
X90983966Y-116897982D01*
X90983966Y-116897982D02*
X90950633Y-116797982D01*
X90950633Y-116797982D02*
X90883966Y-116731316D01*
X90883966Y-116731316D02*
X90817300Y-116697982D01*
X90817300Y-116697982D02*
X90683966Y-116664649D01*
X90683966Y-116664649D02*
X90583966Y-116664649D01*
X90583966Y-116664649D02*
X90450633Y-116697982D01*
X90450633Y-116697982D02*
X90383966Y-116731316D01*
X90383966Y-116731316D02*
X90317300Y-116797982D01*
X90317300Y-116797982D02*
X90283966Y-116897982D01*
X90283966Y-116897982D02*
X90283966Y-116964649D01*
X90283966Y-116964649D02*
X90317300Y-117064649D01*
X90317300Y-117064649D02*
X90350633Y-117097982D01*
X90350633Y-117097982D02*
X90583966Y-117097982D01*
X90583966Y-117097982D02*
X90583966Y-116964649D01*
X90283966Y-117397982D02*
X90983966Y-117397982D01*
X90983966Y-117397982D02*
X90983966Y-117664649D01*
X90983966Y-117664649D02*
X90950633Y-117731316D01*
X90950633Y-117731316D02*
X90917300Y-117764649D01*
X90917300Y-117764649D02*
X90850633Y-117797982D01*
X90850633Y-117797982D02*
X90750633Y-117797982D01*
X90750633Y-117797982D02*
X90683966Y-117764649D01*
X90683966Y-117764649D02*
X90650633Y-117731316D01*
X90650633Y-117731316D02*
X90617300Y-117664649D01*
X90617300Y-117664649D02*
X90617300Y-117397982D01*
X90283966Y-118097982D02*
X90983966Y-118097982D01*
X90983966Y-118564649D02*
X90983966Y-118697982D01*
X90983966Y-118697982D02*
X90950633Y-118764649D01*
X90950633Y-118764649D02*
X90883966Y-118831315D01*
X90883966Y-118831315D02*
X90750633Y-118864649D01*
X90750633Y-118864649D02*
X90517300Y-118864649D01*
X90517300Y-118864649D02*
X90383966Y-118831315D01*
X90383966Y-118831315D02*
X90317300Y-118764649D01*
X90317300Y-118764649D02*
X90283966Y-118697982D01*
X90283966Y-118697982D02*
X90283966Y-118564649D01*
X90283966Y-118564649D02*
X90317300Y-118497982D01*
X90317300Y-118497982D02*
X90383966Y-118431315D01*
X90383966Y-118431315D02*
X90517300Y-118397982D01*
X90517300Y-118397982D02*
X90750633Y-118397982D01*
X90750633Y-118397982D02*
X90883966Y-118431315D01*
X90883966Y-118431315D02*
X90950633Y-118497982D01*
X90950633Y-118497982D02*
X90983966Y-118564649D01*
X90917300Y-119131315D02*
X90950633Y-119164648D01*
X90950633Y-119164648D02*
X90983966Y-119231315D01*
X90983966Y-119231315D02*
X90983966Y-119397982D01*
X90983966Y-119397982D02*
X90950633Y-119464648D01*
X90950633Y-119464648D02*
X90917300Y-119497982D01*
X90917300Y-119497982D02*
X90850633Y-119531315D01*
X90850633Y-119531315D02*
X90783966Y-119531315D01*
X90783966Y-119531315D02*
X90683966Y-119497982D01*
X90683966Y-119497982D02*
X90283966Y-119097982D01*
X90283966Y-119097982D02*
X90283966Y-119531315D01*
X90283966Y-120197982D02*
X90283966Y-119797982D01*
X90283966Y-119997982D02*
X90983966Y-119997982D01*
X90983966Y-119997982D02*
X90883966Y-119931315D01*
X90883966Y-119931315D02*
X90817300Y-119864649D01*
X90817300Y-119864649D02*
X90783966Y-119797982D01*
X98570633Y-117064649D02*
X98603966Y-116997982D01*
X98603966Y-116997982D02*
X98603966Y-116897982D01*
X98603966Y-116897982D02*
X98570633Y-116797982D01*
X98570633Y-116797982D02*
X98503966Y-116731316D01*
X98503966Y-116731316D02*
X98437300Y-116697982D01*
X98437300Y-116697982D02*
X98303966Y-116664649D01*
X98303966Y-116664649D02*
X98203966Y-116664649D01*
X98203966Y-116664649D02*
X98070633Y-116697982D01*
X98070633Y-116697982D02*
X98003966Y-116731316D01*
X98003966Y-116731316D02*
X97937300Y-116797982D01*
X97937300Y-116797982D02*
X97903966Y-116897982D01*
X97903966Y-116897982D02*
X97903966Y-116964649D01*
X97903966Y-116964649D02*
X97937300Y-117064649D01*
X97937300Y-117064649D02*
X97970633Y-117097982D01*
X97970633Y-117097982D02*
X98203966Y-117097982D01*
X98203966Y-117097982D02*
X98203966Y-116964649D01*
X97903966Y-117397982D02*
X98603966Y-117397982D01*
X98603966Y-117397982D02*
X98603966Y-117664649D01*
X98603966Y-117664649D02*
X98570633Y-117731316D01*
X98570633Y-117731316D02*
X98537300Y-117764649D01*
X98537300Y-117764649D02*
X98470633Y-117797982D01*
X98470633Y-117797982D02*
X98370633Y-117797982D01*
X98370633Y-117797982D02*
X98303966Y-117764649D01*
X98303966Y-117764649D02*
X98270633Y-117731316D01*
X98270633Y-117731316D02*
X98237300Y-117664649D01*
X98237300Y-117664649D02*
X98237300Y-117397982D01*
X97903966Y-118097982D02*
X98603966Y-118097982D01*
X98603966Y-118564649D02*
X98603966Y-118697982D01*
X98603966Y-118697982D02*
X98570633Y-118764649D01*
X98570633Y-118764649D02*
X98503966Y-118831315D01*
X98503966Y-118831315D02*
X98370633Y-118864649D01*
X98370633Y-118864649D02*
X98137300Y-118864649D01*
X98137300Y-118864649D02*
X98003966Y-118831315D01*
X98003966Y-118831315D02*
X97937300Y-118764649D01*
X97937300Y-118764649D02*
X97903966Y-118697982D01*
X97903966Y-118697982D02*
X97903966Y-118564649D01*
X97903966Y-118564649D02*
X97937300Y-118497982D01*
X97937300Y-118497982D02*
X98003966Y-118431315D01*
X98003966Y-118431315D02*
X98137300Y-118397982D01*
X98137300Y-118397982D02*
X98370633Y-118397982D01*
X98370633Y-118397982D02*
X98503966Y-118431315D01*
X98503966Y-118431315D02*
X98570633Y-118497982D01*
X98570633Y-118497982D02*
X98603966Y-118564649D01*
X98537300Y-119131315D02*
X98570633Y-119164648D01*
X98570633Y-119164648D02*
X98603966Y-119231315D01*
X98603966Y-119231315D02*
X98603966Y-119397982D01*
X98603966Y-119397982D02*
X98570633Y-119464648D01*
X98570633Y-119464648D02*
X98537300Y-119497982D01*
X98537300Y-119497982D02*
X98470633Y-119531315D01*
X98470633Y-119531315D02*
X98403966Y-119531315D01*
X98403966Y-119531315D02*
X98303966Y-119497982D01*
X98303966Y-119497982D02*
X97903966Y-119097982D01*
X97903966Y-119097982D02*
X97903966Y-119531315D01*
X98537300Y-119797982D02*
X98570633Y-119831315D01*
X98570633Y-119831315D02*
X98603966Y-119897982D01*
X98603966Y-119897982D02*
X98603966Y-120064649D01*
X98603966Y-120064649D02*
X98570633Y-120131315D01*
X98570633Y-120131315D02*
X98537300Y-120164649D01*
X98537300Y-120164649D02*
X98470633Y-120197982D01*
X98470633Y-120197982D02*
X98403966Y-120197982D01*
X98403966Y-120197982D02*
X98303966Y-120164649D01*
X98303966Y-120164649D02*
X97903966Y-119764649D01*
X97903966Y-119764649D02*
X97903966Y-120197982D01*
X73170633Y-117731316D02*
X73203966Y-117664649D01*
X73203966Y-117664649D02*
X73203966Y-117564649D01*
X73203966Y-117564649D02*
X73170633Y-117464649D01*
X73170633Y-117464649D02*
X73103966Y-117397983D01*
X73103966Y-117397983D02*
X73037300Y-117364649D01*
X73037300Y-117364649D02*
X72903966Y-117331316D01*
X72903966Y-117331316D02*
X72803966Y-117331316D01*
X72803966Y-117331316D02*
X72670633Y-117364649D01*
X72670633Y-117364649D02*
X72603966Y-117397983D01*
X72603966Y-117397983D02*
X72537300Y-117464649D01*
X72537300Y-117464649D02*
X72503966Y-117564649D01*
X72503966Y-117564649D02*
X72503966Y-117631316D01*
X72503966Y-117631316D02*
X72537300Y-117731316D01*
X72537300Y-117731316D02*
X72570633Y-117764649D01*
X72570633Y-117764649D02*
X72803966Y-117764649D01*
X72803966Y-117764649D02*
X72803966Y-117631316D01*
X72503966Y-118064649D02*
X73203966Y-118064649D01*
X73203966Y-118064649D02*
X73203966Y-118331316D01*
X73203966Y-118331316D02*
X73170633Y-118397983D01*
X73170633Y-118397983D02*
X73137300Y-118431316D01*
X73137300Y-118431316D02*
X73070633Y-118464649D01*
X73070633Y-118464649D02*
X72970633Y-118464649D01*
X72970633Y-118464649D02*
X72903966Y-118431316D01*
X72903966Y-118431316D02*
X72870633Y-118397983D01*
X72870633Y-118397983D02*
X72837300Y-118331316D01*
X72837300Y-118331316D02*
X72837300Y-118064649D01*
X72503966Y-118764649D02*
X73203966Y-118764649D01*
X73203966Y-119231316D02*
X73203966Y-119364649D01*
X73203966Y-119364649D02*
X73170633Y-119431316D01*
X73170633Y-119431316D02*
X73103966Y-119497982D01*
X73103966Y-119497982D02*
X72970633Y-119531316D01*
X72970633Y-119531316D02*
X72737300Y-119531316D01*
X72737300Y-119531316D02*
X72603966Y-119497982D01*
X72603966Y-119497982D02*
X72537300Y-119431316D01*
X72537300Y-119431316D02*
X72503966Y-119364649D01*
X72503966Y-119364649D02*
X72503966Y-119231316D01*
X72503966Y-119231316D02*
X72537300Y-119164649D01*
X72537300Y-119164649D02*
X72603966Y-119097982D01*
X72603966Y-119097982D02*
X72737300Y-119064649D01*
X72737300Y-119064649D02*
X72970633Y-119064649D01*
X72970633Y-119064649D02*
X73103966Y-119097982D01*
X73103966Y-119097982D02*
X73170633Y-119164649D01*
X73170633Y-119164649D02*
X73203966Y-119231316D01*
X72970633Y-120131315D02*
X72503966Y-120131315D01*
X73237300Y-119964649D02*
X72737300Y-119797982D01*
X72737300Y-119797982D02*
X72737300Y-120231315D01*
X59803966Y-119131315D02*
X60503966Y-119131315D01*
X60503966Y-119131315D02*
X60503966Y-119297982D01*
X60503966Y-119297982D02*
X60470633Y-119397982D01*
X60470633Y-119397982D02*
X60403966Y-119464649D01*
X60403966Y-119464649D02*
X60337300Y-119497982D01*
X60337300Y-119497982D02*
X60203966Y-119531315D01*
X60203966Y-119531315D02*
X60103966Y-119531315D01*
X60103966Y-119531315D02*
X59970633Y-119497982D01*
X59970633Y-119497982D02*
X59903966Y-119464649D01*
X59903966Y-119464649D02*
X59837300Y-119397982D01*
X59837300Y-119397982D02*
X59803966Y-119297982D01*
X59803966Y-119297982D02*
X59803966Y-119131315D01*
X60503966Y-119964649D02*
X60503966Y-120031315D01*
X60503966Y-120031315D02*
X60470633Y-120097982D01*
X60470633Y-120097982D02*
X60437300Y-120131315D01*
X60437300Y-120131315D02*
X60370633Y-120164649D01*
X60370633Y-120164649D02*
X60237300Y-120197982D01*
X60237300Y-120197982D02*
X60070633Y-120197982D01*
X60070633Y-120197982D02*
X59937300Y-120164649D01*
X59937300Y-120164649D02*
X59870633Y-120131315D01*
X59870633Y-120131315D02*
X59837300Y-120097982D01*
X59837300Y-120097982D02*
X59803966Y-120031315D01*
X59803966Y-120031315D02*
X59803966Y-119964649D01*
X59803966Y-119964649D02*
X59837300Y-119897982D01*
X59837300Y-119897982D02*
X59870633Y-119864649D01*
X59870633Y-119864649D02*
X59937300Y-119831315D01*
X59937300Y-119831315D02*
X60070633Y-119797982D01*
X60070633Y-119797982D02*
X60237300Y-119797982D01*
X60237300Y-119797982D02*
X60370633Y-119831315D01*
X60370633Y-119831315D02*
X60437300Y-119864649D01*
X60437300Y-119864649D02*
X60470633Y-119897982D01*
X60470633Y-119897982D02*
X60503966Y-119964649D01*
X70777561Y-98430588D02*
X70825180Y-98335350D01*
X70825180Y-98335350D02*
X70825180Y-98192493D01*
X70825180Y-98192493D02*
X70777561Y-98049636D01*
X70777561Y-98049636D02*
X70682323Y-97954398D01*
X70682323Y-97954398D02*
X70587085Y-97906779D01*
X70587085Y-97906779D02*
X70396609Y-97859160D01*
X70396609Y-97859160D02*
X70253752Y-97859160D01*
X70253752Y-97859160D02*
X70063276Y-97906779D01*
X70063276Y-97906779D02*
X69968038Y-97954398D01*
X69968038Y-97954398D02*
X69872800Y-98049636D01*
X69872800Y-98049636D02*
X69825180Y-98192493D01*
X69825180Y-98192493D02*
X69825180Y-98287731D01*
X69825180Y-98287731D02*
X69872800Y-98430588D01*
X69872800Y-98430588D02*
X69920419Y-98478207D01*
X69920419Y-98478207D02*
X70253752Y-98478207D01*
X70253752Y-98478207D02*
X70253752Y-98287731D01*
X69825180Y-98906779D02*
X70825180Y-98906779D01*
X70825180Y-98906779D02*
X69825180Y-99478207D01*
X69825180Y-99478207D02*
X70825180Y-99478207D01*
X69825180Y-99954398D02*
X70825180Y-99954398D01*
X70825180Y-99954398D02*
X70825180Y-100192493D01*
X70825180Y-100192493D02*
X70777561Y-100335350D01*
X70777561Y-100335350D02*
X70682323Y-100430588D01*
X70682323Y-100430588D02*
X70587085Y-100478207D01*
X70587085Y-100478207D02*
X70396609Y-100525826D01*
X70396609Y-100525826D02*
X70253752Y-100525826D01*
X70253752Y-100525826D02*
X70063276Y-100478207D01*
X70063276Y-100478207D02*
X69968038Y-100430588D01*
X69968038Y-100430588D02*
X69872800Y-100335350D01*
X69872800Y-100335350D02*
X69825180Y-100192493D01*
X69825180Y-100192493D02*
X69825180Y-99954398D01*
X70630633Y-117731316D02*
X70663966Y-117664649D01*
X70663966Y-117664649D02*
X70663966Y-117564649D01*
X70663966Y-117564649D02*
X70630633Y-117464649D01*
X70630633Y-117464649D02*
X70563966Y-117397983D01*
X70563966Y-117397983D02*
X70497300Y-117364649D01*
X70497300Y-117364649D02*
X70363966Y-117331316D01*
X70363966Y-117331316D02*
X70263966Y-117331316D01*
X70263966Y-117331316D02*
X70130633Y-117364649D01*
X70130633Y-117364649D02*
X70063966Y-117397983D01*
X70063966Y-117397983D02*
X69997300Y-117464649D01*
X69997300Y-117464649D02*
X69963966Y-117564649D01*
X69963966Y-117564649D02*
X69963966Y-117631316D01*
X69963966Y-117631316D02*
X69997300Y-117731316D01*
X69997300Y-117731316D02*
X70030633Y-117764649D01*
X70030633Y-117764649D02*
X70263966Y-117764649D01*
X70263966Y-117764649D02*
X70263966Y-117631316D01*
X69963966Y-118064649D02*
X70663966Y-118064649D01*
X70663966Y-118064649D02*
X70663966Y-118331316D01*
X70663966Y-118331316D02*
X70630633Y-118397983D01*
X70630633Y-118397983D02*
X70597300Y-118431316D01*
X70597300Y-118431316D02*
X70530633Y-118464649D01*
X70530633Y-118464649D02*
X70430633Y-118464649D01*
X70430633Y-118464649D02*
X70363966Y-118431316D01*
X70363966Y-118431316D02*
X70330633Y-118397983D01*
X70330633Y-118397983D02*
X70297300Y-118331316D01*
X70297300Y-118331316D02*
X70297300Y-118064649D01*
X69963966Y-118764649D02*
X70663966Y-118764649D01*
X70663966Y-119231316D02*
X70663966Y-119364649D01*
X70663966Y-119364649D02*
X70630633Y-119431316D01*
X70630633Y-119431316D02*
X70563966Y-119497982D01*
X70563966Y-119497982D02*
X70430633Y-119531316D01*
X70430633Y-119531316D02*
X70197300Y-119531316D01*
X70197300Y-119531316D02*
X70063966Y-119497982D01*
X70063966Y-119497982D02*
X69997300Y-119431316D01*
X69997300Y-119431316D02*
X69963966Y-119364649D01*
X69963966Y-119364649D02*
X69963966Y-119231316D01*
X69963966Y-119231316D02*
X69997300Y-119164649D01*
X69997300Y-119164649D02*
X70063966Y-119097982D01*
X70063966Y-119097982D02*
X70197300Y-119064649D01*
X70197300Y-119064649D02*
X70430633Y-119064649D01*
X70430633Y-119064649D02*
X70563966Y-119097982D01*
X70563966Y-119097982D02*
X70630633Y-119164649D01*
X70630633Y-119164649D02*
X70663966Y-119231316D01*
X70663966Y-119964649D02*
X70663966Y-120031315D01*
X70663966Y-120031315D02*
X70630633Y-120097982D01*
X70630633Y-120097982D02*
X70597300Y-120131315D01*
X70597300Y-120131315D02*
X70530633Y-120164649D01*
X70530633Y-120164649D02*
X70397300Y-120197982D01*
X70397300Y-120197982D02*
X70230633Y-120197982D01*
X70230633Y-120197982D02*
X70097300Y-120164649D01*
X70097300Y-120164649D02*
X70030633Y-120131315D01*
X70030633Y-120131315D02*
X69997300Y-120097982D01*
X69997300Y-120097982D02*
X69963966Y-120031315D01*
X69963966Y-120031315D02*
X69963966Y-119964649D01*
X69963966Y-119964649D02*
X69997300Y-119897982D01*
X69997300Y-119897982D02*
X70030633Y-119864649D01*
X70030633Y-119864649D02*
X70097300Y-119831315D01*
X70097300Y-119831315D02*
X70230633Y-119797982D01*
X70230633Y-119797982D02*
X70397300Y-119797982D01*
X70397300Y-119797982D02*
X70530633Y-119831315D01*
X70530633Y-119831315D02*
X70597300Y-119864649D01*
X70597300Y-119864649D02*
X70630633Y-119897982D01*
X70630633Y-119897982D02*
X70663966Y-119964649D01*
X80790633Y-117731316D02*
X80823966Y-117664649D01*
X80823966Y-117664649D02*
X80823966Y-117564649D01*
X80823966Y-117564649D02*
X80790633Y-117464649D01*
X80790633Y-117464649D02*
X80723966Y-117397983D01*
X80723966Y-117397983D02*
X80657300Y-117364649D01*
X80657300Y-117364649D02*
X80523966Y-117331316D01*
X80523966Y-117331316D02*
X80423966Y-117331316D01*
X80423966Y-117331316D02*
X80290633Y-117364649D01*
X80290633Y-117364649D02*
X80223966Y-117397983D01*
X80223966Y-117397983D02*
X80157300Y-117464649D01*
X80157300Y-117464649D02*
X80123966Y-117564649D01*
X80123966Y-117564649D02*
X80123966Y-117631316D01*
X80123966Y-117631316D02*
X80157300Y-117731316D01*
X80157300Y-117731316D02*
X80190633Y-117764649D01*
X80190633Y-117764649D02*
X80423966Y-117764649D01*
X80423966Y-117764649D02*
X80423966Y-117631316D01*
X80123966Y-118064649D02*
X80823966Y-118064649D01*
X80823966Y-118064649D02*
X80823966Y-118331316D01*
X80823966Y-118331316D02*
X80790633Y-118397983D01*
X80790633Y-118397983D02*
X80757300Y-118431316D01*
X80757300Y-118431316D02*
X80690633Y-118464649D01*
X80690633Y-118464649D02*
X80590633Y-118464649D01*
X80590633Y-118464649D02*
X80523966Y-118431316D01*
X80523966Y-118431316D02*
X80490633Y-118397983D01*
X80490633Y-118397983D02*
X80457300Y-118331316D01*
X80457300Y-118331316D02*
X80457300Y-118064649D01*
X80123966Y-118764649D02*
X80823966Y-118764649D01*
X80823966Y-119231316D02*
X80823966Y-119364649D01*
X80823966Y-119364649D02*
X80790633Y-119431316D01*
X80790633Y-119431316D02*
X80723966Y-119497982D01*
X80723966Y-119497982D02*
X80590633Y-119531316D01*
X80590633Y-119531316D02*
X80357300Y-119531316D01*
X80357300Y-119531316D02*
X80223966Y-119497982D01*
X80223966Y-119497982D02*
X80157300Y-119431316D01*
X80157300Y-119431316D02*
X80123966Y-119364649D01*
X80123966Y-119364649D02*
X80123966Y-119231316D01*
X80123966Y-119231316D02*
X80157300Y-119164649D01*
X80157300Y-119164649D02*
X80223966Y-119097982D01*
X80223966Y-119097982D02*
X80357300Y-119064649D01*
X80357300Y-119064649D02*
X80590633Y-119064649D01*
X80590633Y-119064649D02*
X80723966Y-119097982D01*
X80723966Y-119097982D02*
X80790633Y-119164649D01*
X80790633Y-119164649D02*
X80823966Y-119231316D01*
X80823966Y-120164649D02*
X80823966Y-119831315D01*
X80823966Y-119831315D02*
X80490633Y-119797982D01*
X80490633Y-119797982D02*
X80523966Y-119831315D01*
X80523966Y-119831315D02*
X80557300Y-119897982D01*
X80557300Y-119897982D02*
X80557300Y-120064649D01*
X80557300Y-120064649D02*
X80523966Y-120131315D01*
X80523966Y-120131315D02*
X80490633Y-120164649D01*
X80490633Y-120164649D02*
X80423966Y-120197982D01*
X80423966Y-120197982D02*
X80257300Y-120197982D01*
X80257300Y-120197982D02*
X80190633Y-120164649D01*
X80190633Y-120164649D02*
X80157300Y-120131315D01*
X80157300Y-120131315D02*
X80123966Y-120064649D01*
X80123966Y-120064649D02*
X80123966Y-119897982D01*
X80123966Y-119897982D02*
X80157300Y-119831315D01*
X80157300Y-119831315D02*
X80190633Y-119797982D01*
X65550633Y-113564650D02*
X65583966Y-113497983D01*
X65583966Y-113497983D02*
X65583966Y-113397983D01*
X65583966Y-113397983D02*
X65550633Y-113297983D01*
X65550633Y-113297983D02*
X65483966Y-113231317D01*
X65483966Y-113231317D02*
X65417300Y-113197983D01*
X65417300Y-113197983D02*
X65283966Y-113164650D01*
X65283966Y-113164650D02*
X65183966Y-113164650D01*
X65183966Y-113164650D02*
X65050633Y-113197983D01*
X65050633Y-113197983D02*
X64983966Y-113231317D01*
X64983966Y-113231317D02*
X64917300Y-113297983D01*
X64917300Y-113297983D02*
X64883966Y-113397983D01*
X64883966Y-113397983D02*
X64883966Y-113464650D01*
X64883966Y-113464650D02*
X64917300Y-113564650D01*
X64917300Y-113564650D02*
X64950633Y-113597983D01*
X64950633Y-113597983D02*
X65183966Y-113597983D01*
X65183966Y-113597983D02*
X65183966Y-113464650D01*
X64883966Y-113897983D02*
X65583966Y-113897983D01*
X65583966Y-113897983D02*
X65583966Y-114164650D01*
X65583966Y-114164650D02*
X65550633Y-114231317D01*
X65550633Y-114231317D02*
X65517300Y-114264650D01*
X65517300Y-114264650D02*
X65450633Y-114297983D01*
X65450633Y-114297983D02*
X65350633Y-114297983D01*
X65350633Y-114297983D02*
X65283966Y-114264650D01*
X65283966Y-114264650D02*
X65250633Y-114231317D01*
X65250633Y-114231317D02*
X65217300Y-114164650D01*
X65217300Y-114164650D02*
X65217300Y-113897983D01*
X64883966Y-114597983D02*
X65583966Y-114597983D01*
X65583966Y-115064650D02*
X65583966Y-115197983D01*
X65583966Y-115197983D02*
X65550633Y-115264650D01*
X65550633Y-115264650D02*
X65483966Y-115331316D01*
X65483966Y-115331316D02*
X65350633Y-115364650D01*
X65350633Y-115364650D02*
X65117300Y-115364650D01*
X65117300Y-115364650D02*
X64983966Y-115331316D01*
X64983966Y-115331316D02*
X64917300Y-115264650D01*
X64917300Y-115264650D02*
X64883966Y-115197983D01*
X64883966Y-115197983D02*
X64883966Y-115064650D01*
X64883966Y-115064650D02*
X64917300Y-114997983D01*
X64917300Y-114997983D02*
X64983966Y-114931316D01*
X64983966Y-114931316D02*
X65117300Y-114897983D01*
X65117300Y-114897983D02*
X65350633Y-114897983D01*
X65350633Y-114897983D02*
X65483966Y-114931316D01*
X65483966Y-114931316D02*
X65550633Y-114997983D01*
X65550633Y-114997983D02*
X65583966Y-115064650D01*
X64883966Y-116031316D02*
X64883966Y-115631316D01*
X64883966Y-115831316D02*
X65583966Y-115831316D01*
X65583966Y-115831316D02*
X65483966Y-115764649D01*
X65483966Y-115764649D02*
X65417300Y-115697983D01*
X65417300Y-115697983D02*
X65383966Y-115631316D01*
X65583966Y-116664650D02*
X65583966Y-116331316D01*
X65583966Y-116331316D02*
X65250633Y-116297983D01*
X65250633Y-116297983D02*
X65283966Y-116331316D01*
X65283966Y-116331316D02*
X65317300Y-116397983D01*
X65317300Y-116397983D02*
X65317300Y-116564650D01*
X65317300Y-116564650D02*
X65283966Y-116631316D01*
X65283966Y-116631316D02*
X65250633Y-116664650D01*
X65250633Y-116664650D02*
X65183966Y-116697983D01*
X65183966Y-116697983D02*
X65017300Y-116697983D01*
X65017300Y-116697983D02*
X64950633Y-116664650D01*
X64950633Y-116664650D02*
X64917300Y-116631316D01*
X64917300Y-116631316D02*
X64883966Y-116564650D01*
X64883966Y-116564650D02*
X64883966Y-116397983D01*
X64883966Y-116397983D02*
X64917300Y-116331316D01*
X64917300Y-116331316D02*
X64950633Y-116297983D01*
X65617300Y-117497983D02*
X64717300Y-116897983D01*
X64883966Y-117731316D02*
X65583966Y-117731316D01*
X65583966Y-117731316D02*
X65083966Y-117964650D01*
X65083966Y-117964650D02*
X65583966Y-118197983D01*
X65583966Y-118197983D02*
X64883966Y-118197983D01*
X65583966Y-118431316D02*
X65583966Y-118831316D01*
X64883966Y-118631316D02*
X65583966Y-118631316D01*
X64883966Y-119064649D02*
X65583966Y-119064649D01*
X65583966Y-119064649D02*
X65583966Y-119231316D01*
X65583966Y-119231316D02*
X65550633Y-119331316D01*
X65550633Y-119331316D02*
X65483966Y-119397983D01*
X65483966Y-119397983D02*
X65417300Y-119431316D01*
X65417300Y-119431316D02*
X65283966Y-119464649D01*
X65283966Y-119464649D02*
X65183966Y-119464649D01*
X65183966Y-119464649D02*
X65050633Y-119431316D01*
X65050633Y-119431316D02*
X64983966Y-119397983D01*
X64983966Y-119397983D02*
X64917300Y-119331316D01*
X64917300Y-119331316D02*
X64883966Y-119231316D01*
X64883966Y-119231316D02*
X64883966Y-119064649D01*
X65583966Y-119897983D02*
X65583966Y-120031316D01*
X65583966Y-120031316D02*
X65550633Y-120097983D01*
X65550633Y-120097983D02*
X65483966Y-120164649D01*
X65483966Y-120164649D02*
X65350633Y-120197983D01*
X65350633Y-120197983D02*
X65117300Y-120197983D01*
X65117300Y-120197983D02*
X64983966Y-120164649D01*
X64983966Y-120164649D02*
X64917300Y-120097983D01*
X64917300Y-120097983D02*
X64883966Y-120031316D01*
X64883966Y-120031316D02*
X64883966Y-119897983D01*
X64883966Y-119897983D02*
X64917300Y-119831316D01*
X64917300Y-119831316D02*
X64983966Y-119764649D01*
X64983966Y-119764649D02*
X65117300Y-119731316D01*
X65117300Y-119731316D02*
X65350633Y-119731316D01*
X65350633Y-119731316D02*
X65483966Y-119764649D01*
X65483966Y-119764649D02*
X65550633Y-119831316D01*
X65550633Y-119831316D02*
X65583966Y-119897983D01*
X62343966Y-97835350D02*
X63043966Y-97835350D01*
X63043966Y-97835350D02*
X63043966Y-98002017D01*
X63043966Y-98002017D02*
X63010633Y-98102017D01*
X63010633Y-98102017D02*
X62943966Y-98168684D01*
X62943966Y-98168684D02*
X62877300Y-98202017D01*
X62877300Y-98202017D02*
X62743966Y-98235350D01*
X62743966Y-98235350D02*
X62643966Y-98235350D01*
X62643966Y-98235350D02*
X62510633Y-98202017D01*
X62510633Y-98202017D02*
X62443966Y-98168684D01*
X62443966Y-98168684D02*
X62377300Y-98102017D01*
X62377300Y-98102017D02*
X62343966Y-98002017D01*
X62343966Y-98002017D02*
X62343966Y-97835350D01*
X63043966Y-98468684D02*
X63043966Y-98902017D01*
X63043966Y-98902017D02*
X62777300Y-98668684D01*
X62777300Y-98668684D02*
X62777300Y-98768684D01*
X62777300Y-98768684D02*
X62743966Y-98835350D01*
X62743966Y-98835350D02*
X62710633Y-98868684D01*
X62710633Y-98868684D02*
X62643966Y-98902017D01*
X62643966Y-98902017D02*
X62477300Y-98902017D01*
X62477300Y-98902017D02*
X62410633Y-98868684D01*
X62410633Y-98868684D02*
X62377300Y-98835350D01*
X62377300Y-98835350D02*
X62343966Y-98768684D01*
X62343966Y-98768684D02*
X62343966Y-98568684D01*
X62343966Y-98568684D02*
X62377300Y-98502017D01*
X62377300Y-98502017D02*
X62410633Y-98468684D01*
X101110633Y-117064649D02*
X101143966Y-116997982D01*
X101143966Y-116997982D02*
X101143966Y-116897982D01*
X101143966Y-116897982D02*
X101110633Y-116797982D01*
X101110633Y-116797982D02*
X101043966Y-116731316D01*
X101043966Y-116731316D02*
X100977300Y-116697982D01*
X100977300Y-116697982D02*
X100843966Y-116664649D01*
X100843966Y-116664649D02*
X100743966Y-116664649D01*
X100743966Y-116664649D02*
X100610633Y-116697982D01*
X100610633Y-116697982D02*
X100543966Y-116731316D01*
X100543966Y-116731316D02*
X100477300Y-116797982D01*
X100477300Y-116797982D02*
X100443966Y-116897982D01*
X100443966Y-116897982D02*
X100443966Y-116964649D01*
X100443966Y-116964649D02*
X100477300Y-117064649D01*
X100477300Y-117064649D02*
X100510633Y-117097982D01*
X100510633Y-117097982D02*
X100743966Y-117097982D01*
X100743966Y-117097982D02*
X100743966Y-116964649D01*
X100443966Y-117397982D02*
X101143966Y-117397982D01*
X101143966Y-117397982D02*
X101143966Y-117664649D01*
X101143966Y-117664649D02*
X101110633Y-117731316D01*
X101110633Y-117731316D02*
X101077300Y-117764649D01*
X101077300Y-117764649D02*
X101010633Y-117797982D01*
X101010633Y-117797982D02*
X100910633Y-117797982D01*
X100910633Y-117797982D02*
X100843966Y-117764649D01*
X100843966Y-117764649D02*
X100810633Y-117731316D01*
X100810633Y-117731316D02*
X100777300Y-117664649D01*
X100777300Y-117664649D02*
X100777300Y-117397982D01*
X100443966Y-118097982D02*
X101143966Y-118097982D01*
X101143966Y-118564649D02*
X101143966Y-118697982D01*
X101143966Y-118697982D02*
X101110633Y-118764649D01*
X101110633Y-118764649D02*
X101043966Y-118831315D01*
X101043966Y-118831315D02*
X100910633Y-118864649D01*
X100910633Y-118864649D02*
X100677300Y-118864649D01*
X100677300Y-118864649D02*
X100543966Y-118831315D01*
X100543966Y-118831315D02*
X100477300Y-118764649D01*
X100477300Y-118764649D02*
X100443966Y-118697982D01*
X100443966Y-118697982D02*
X100443966Y-118564649D01*
X100443966Y-118564649D02*
X100477300Y-118497982D01*
X100477300Y-118497982D02*
X100543966Y-118431315D01*
X100543966Y-118431315D02*
X100677300Y-118397982D01*
X100677300Y-118397982D02*
X100910633Y-118397982D01*
X100910633Y-118397982D02*
X101043966Y-118431315D01*
X101043966Y-118431315D02*
X101110633Y-118497982D01*
X101110633Y-118497982D02*
X101143966Y-118564649D01*
X101077300Y-119131315D02*
X101110633Y-119164648D01*
X101110633Y-119164648D02*
X101143966Y-119231315D01*
X101143966Y-119231315D02*
X101143966Y-119397982D01*
X101143966Y-119397982D02*
X101110633Y-119464648D01*
X101110633Y-119464648D02*
X101077300Y-119497982D01*
X101077300Y-119497982D02*
X101010633Y-119531315D01*
X101010633Y-119531315D02*
X100943966Y-119531315D01*
X100943966Y-119531315D02*
X100843966Y-119497982D01*
X100843966Y-119497982D02*
X100443966Y-119097982D01*
X100443966Y-119097982D02*
X100443966Y-119531315D01*
X101143966Y-119764649D02*
X101143966Y-120197982D01*
X101143966Y-120197982D02*
X100877300Y-119964649D01*
X100877300Y-119964649D02*
X100877300Y-120064649D01*
X100877300Y-120064649D02*
X100843966Y-120131315D01*
X100843966Y-120131315D02*
X100810633Y-120164649D01*
X100810633Y-120164649D02*
X100743966Y-120197982D01*
X100743966Y-120197982D02*
X100577300Y-120197982D01*
X100577300Y-120197982D02*
X100510633Y-120164649D01*
X100510633Y-120164649D02*
X100477300Y-120131315D01*
X100477300Y-120131315D02*
X100443966Y-120064649D01*
X100443966Y-120064649D02*
X100443966Y-119864649D01*
X100443966Y-119864649D02*
X100477300Y-119797982D01*
X100477300Y-119797982D02*
X100510633Y-119764649D01*
X96063966Y-97735350D02*
X95363966Y-97968684D01*
X95363966Y-97968684D02*
X96063966Y-98202017D01*
X95363966Y-98435350D02*
X96063966Y-98435350D01*
X96063966Y-98435350D02*
X95363966Y-98835350D01*
X95363966Y-98835350D02*
X96063966Y-98835350D01*
X96097300Y-99668683D02*
X95197300Y-99068683D01*
X96030633Y-100268683D02*
X96063966Y-100202016D01*
X96063966Y-100202016D02*
X96063966Y-100102016D01*
X96063966Y-100102016D02*
X96030633Y-100002016D01*
X96030633Y-100002016D02*
X95963966Y-99935350D01*
X95963966Y-99935350D02*
X95897300Y-99902016D01*
X95897300Y-99902016D02*
X95763966Y-99868683D01*
X95763966Y-99868683D02*
X95663966Y-99868683D01*
X95663966Y-99868683D02*
X95530633Y-99902016D01*
X95530633Y-99902016D02*
X95463966Y-99935350D01*
X95463966Y-99935350D02*
X95397300Y-100002016D01*
X95397300Y-100002016D02*
X95363966Y-100102016D01*
X95363966Y-100102016D02*
X95363966Y-100168683D01*
X95363966Y-100168683D02*
X95397300Y-100268683D01*
X95397300Y-100268683D02*
X95430633Y-100302016D01*
X95430633Y-100302016D02*
X95663966Y-100302016D01*
X95663966Y-100302016D02*
X95663966Y-100168683D01*
X95363966Y-100602016D02*
X96063966Y-100602016D01*
X96063966Y-100602016D02*
X96063966Y-100868683D01*
X96063966Y-100868683D02*
X96030633Y-100935350D01*
X96030633Y-100935350D02*
X95997300Y-100968683D01*
X95997300Y-100968683D02*
X95930633Y-101002016D01*
X95930633Y-101002016D02*
X95830633Y-101002016D01*
X95830633Y-101002016D02*
X95763966Y-100968683D01*
X95763966Y-100968683D02*
X95730633Y-100935350D01*
X95730633Y-100935350D02*
X95697300Y-100868683D01*
X95697300Y-100868683D02*
X95697300Y-100602016D01*
X95363966Y-101302016D02*
X96063966Y-101302016D01*
X96063966Y-101768683D02*
X96063966Y-101902016D01*
X96063966Y-101902016D02*
X96030633Y-101968683D01*
X96030633Y-101968683D02*
X95963966Y-102035349D01*
X95963966Y-102035349D02*
X95830633Y-102068683D01*
X95830633Y-102068683D02*
X95597300Y-102068683D01*
X95597300Y-102068683D02*
X95463966Y-102035349D01*
X95463966Y-102035349D02*
X95397300Y-101968683D01*
X95397300Y-101968683D02*
X95363966Y-101902016D01*
X95363966Y-101902016D02*
X95363966Y-101768683D01*
X95363966Y-101768683D02*
X95397300Y-101702016D01*
X95397300Y-101702016D02*
X95463966Y-101635349D01*
X95463966Y-101635349D02*
X95597300Y-101602016D01*
X95597300Y-101602016D02*
X95830633Y-101602016D01*
X95830633Y-101602016D02*
X95963966Y-101635349D01*
X95963966Y-101635349D02*
X96030633Y-101702016D01*
X96030633Y-101702016D02*
X96063966Y-101768683D01*
X96063966Y-102302016D02*
X96063966Y-102735349D01*
X96063966Y-102735349D02*
X95797300Y-102502016D01*
X95797300Y-102502016D02*
X95797300Y-102602016D01*
X95797300Y-102602016D02*
X95763966Y-102668682D01*
X95763966Y-102668682D02*
X95730633Y-102702016D01*
X95730633Y-102702016D02*
X95663966Y-102735349D01*
X95663966Y-102735349D02*
X95497300Y-102735349D01*
X95497300Y-102735349D02*
X95430633Y-102702016D01*
X95430633Y-102702016D02*
X95397300Y-102668682D01*
X95397300Y-102668682D02*
X95363966Y-102602016D01*
X95363966Y-102602016D02*
X95363966Y-102402016D01*
X95363966Y-102402016D02*
X95397300Y-102335349D01*
X95397300Y-102335349D02*
X95430633Y-102302016D01*
X95363966Y-103068683D02*
X95363966Y-103202016D01*
X95363966Y-103202016D02*
X95397300Y-103268683D01*
X95397300Y-103268683D02*
X95430633Y-103302016D01*
X95430633Y-103302016D02*
X95530633Y-103368683D01*
X95530633Y-103368683D02*
X95663966Y-103402016D01*
X95663966Y-103402016D02*
X95930633Y-103402016D01*
X95930633Y-103402016D02*
X95997300Y-103368683D01*
X95997300Y-103368683D02*
X96030633Y-103335349D01*
X96030633Y-103335349D02*
X96063966Y-103268683D01*
X96063966Y-103268683D02*
X96063966Y-103135349D01*
X96063966Y-103135349D02*
X96030633Y-103068683D01*
X96030633Y-103068683D02*
X95997300Y-103035349D01*
X95997300Y-103035349D02*
X95930633Y-103002016D01*
X95930633Y-103002016D02*
X95763966Y-103002016D01*
X95763966Y-103002016D02*
X95697300Y-103035349D01*
X95697300Y-103035349D02*
X95663966Y-103068683D01*
X95663966Y-103068683D02*
X95630633Y-103135349D01*
X95630633Y-103135349D02*
X95630633Y-103268683D01*
X95630633Y-103268683D02*
X95663966Y-103335349D01*
X95663966Y-103335349D02*
X95697300Y-103368683D01*
X95697300Y-103368683D02*
X95763966Y-103402016D01*
X100831710Y-97801921D02*
X100831710Y-98135254D01*
X100307900Y-98278111D02*
X100307900Y-97801921D01*
X100307900Y-97801921D02*
X101307900Y-97801921D01*
X101307900Y-97801921D02*
X101307900Y-98278111D01*
X100307900Y-98706683D02*
X101307900Y-98706683D01*
X101307900Y-98706683D02*
X100307900Y-99278111D01*
X100307900Y-99278111D02*
X101307900Y-99278111D01*
X101355520Y-100468587D02*
X100069805Y-99611445D01*
X100307900Y-101373349D02*
X100784091Y-101040016D01*
X100307900Y-100801921D02*
X101307900Y-100801921D01*
X101307900Y-100801921D02*
X101307900Y-101182873D01*
X101307900Y-101182873D02*
X101260281Y-101278111D01*
X101260281Y-101278111D02*
X101212662Y-101325730D01*
X101212662Y-101325730D02*
X101117424Y-101373349D01*
X101117424Y-101373349D02*
X100974567Y-101373349D01*
X100974567Y-101373349D02*
X100879329Y-101325730D01*
X100879329Y-101325730D02*
X100831710Y-101278111D01*
X100831710Y-101278111D02*
X100784091Y-101182873D01*
X100784091Y-101182873D02*
X100784091Y-100801921D01*
X100831710Y-101801921D02*
X100831710Y-102135254D01*
X100307900Y-102278111D02*
X100307900Y-101801921D01*
X100307900Y-101801921D02*
X101307900Y-101801921D01*
X101307900Y-101801921D02*
X101307900Y-102278111D01*
X100355520Y-102659064D02*
X100307900Y-102801921D01*
X100307900Y-102801921D02*
X100307900Y-103040016D01*
X100307900Y-103040016D02*
X100355520Y-103135254D01*
X100355520Y-103135254D02*
X100403139Y-103182873D01*
X100403139Y-103182873D02*
X100498377Y-103230492D01*
X100498377Y-103230492D02*
X100593615Y-103230492D01*
X100593615Y-103230492D02*
X100688853Y-103182873D01*
X100688853Y-103182873D02*
X100736472Y-103135254D01*
X100736472Y-103135254D02*
X100784091Y-103040016D01*
X100784091Y-103040016D02*
X100831710Y-102849540D01*
X100831710Y-102849540D02*
X100879329Y-102754302D01*
X100879329Y-102754302D02*
X100926948Y-102706683D01*
X100926948Y-102706683D02*
X101022186Y-102659064D01*
X101022186Y-102659064D02*
X101117424Y-102659064D01*
X101117424Y-102659064D02*
X101212662Y-102706683D01*
X101212662Y-102706683D02*
X101260281Y-102754302D01*
X101260281Y-102754302D02*
X101307900Y-102849540D01*
X101307900Y-102849540D02*
X101307900Y-103087635D01*
X101307900Y-103087635D02*
X101260281Y-103230492D01*
X100831710Y-103659064D02*
X100831710Y-103992397D01*
X100307900Y-104135254D02*
X100307900Y-103659064D01*
X100307900Y-103659064D02*
X101307900Y-103659064D01*
X101307900Y-103659064D02*
X101307900Y-104135254D01*
X101307900Y-104420969D02*
X101307900Y-104992397D01*
X100307900Y-104706683D02*
X101307900Y-104706683D01*
X80790633Y-98202017D02*
X80823966Y-98135350D01*
X80823966Y-98135350D02*
X80823966Y-98035350D01*
X80823966Y-98035350D02*
X80790633Y-97935350D01*
X80790633Y-97935350D02*
X80723966Y-97868684D01*
X80723966Y-97868684D02*
X80657300Y-97835350D01*
X80657300Y-97835350D02*
X80523966Y-97802017D01*
X80523966Y-97802017D02*
X80423966Y-97802017D01*
X80423966Y-97802017D02*
X80290633Y-97835350D01*
X80290633Y-97835350D02*
X80223966Y-97868684D01*
X80223966Y-97868684D02*
X80157300Y-97935350D01*
X80157300Y-97935350D02*
X80123966Y-98035350D01*
X80123966Y-98035350D02*
X80123966Y-98102017D01*
X80123966Y-98102017D02*
X80157300Y-98202017D01*
X80157300Y-98202017D02*
X80190633Y-98235350D01*
X80190633Y-98235350D02*
X80423966Y-98235350D01*
X80423966Y-98235350D02*
X80423966Y-98102017D01*
X80123966Y-98535350D02*
X80823966Y-98535350D01*
X80823966Y-98535350D02*
X80823966Y-98802017D01*
X80823966Y-98802017D02*
X80790633Y-98868684D01*
X80790633Y-98868684D02*
X80757300Y-98902017D01*
X80757300Y-98902017D02*
X80690633Y-98935350D01*
X80690633Y-98935350D02*
X80590633Y-98935350D01*
X80590633Y-98935350D02*
X80523966Y-98902017D01*
X80523966Y-98902017D02*
X80490633Y-98868684D01*
X80490633Y-98868684D02*
X80457300Y-98802017D01*
X80457300Y-98802017D02*
X80457300Y-98535350D01*
X80123966Y-99235350D02*
X80823966Y-99235350D01*
X80823966Y-99702017D02*
X80823966Y-99835350D01*
X80823966Y-99835350D02*
X80790633Y-99902017D01*
X80790633Y-99902017D02*
X80723966Y-99968683D01*
X80723966Y-99968683D02*
X80590633Y-100002017D01*
X80590633Y-100002017D02*
X80357300Y-100002017D01*
X80357300Y-100002017D02*
X80223966Y-99968683D01*
X80223966Y-99968683D02*
X80157300Y-99902017D01*
X80157300Y-99902017D02*
X80123966Y-99835350D01*
X80123966Y-99835350D02*
X80123966Y-99702017D01*
X80123966Y-99702017D02*
X80157300Y-99635350D01*
X80157300Y-99635350D02*
X80223966Y-99568683D01*
X80223966Y-99568683D02*
X80357300Y-99535350D01*
X80357300Y-99535350D02*
X80590633Y-99535350D01*
X80590633Y-99535350D02*
X80723966Y-99568683D01*
X80723966Y-99568683D02*
X80790633Y-99635350D01*
X80790633Y-99635350D02*
X80823966Y-99702017D01*
X80757300Y-100268683D02*
X80790633Y-100302016D01*
X80790633Y-100302016D02*
X80823966Y-100368683D01*
X80823966Y-100368683D02*
X80823966Y-100535350D01*
X80823966Y-100535350D02*
X80790633Y-100602016D01*
X80790633Y-100602016D02*
X80757300Y-100635350D01*
X80757300Y-100635350D02*
X80690633Y-100668683D01*
X80690633Y-100668683D02*
X80623966Y-100668683D01*
X80623966Y-100668683D02*
X80523966Y-100635350D01*
X80523966Y-100635350D02*
X80123966Y-100235350D01*
X80123966Y-100235350D02*
X80123966Y-100668683D01*
X80823966Y-101268683D02*
X80823966Y-101135350D01*
X80823966Y-101135350D02*
X80790633Y-101068683D01*
X80790633Y-101068683D02*
X80757300Y-101035350D01*
X80757300Y-101035350D02*
X80657300Y-100968683D01*
X80657300Y-100968683D02*
X80523966Y-100935350D01*
X80523966Y-100935350D02*
X80257300Y-100935350D01*
X80257300Y-100935350D02*
X80190633Y-100968683D01*
X80190633Y-100968683D02*
X80157300Y-101002017D01*
X80157300Y-101002017D02*
X80123966Y-101068683D01*
X80123966Y-101068683D02*
X80123966Y-101202017D01*
X80123966Y-101202017D02*
X80157300Y-101268683D01*
X80157300Y-101268683D02*
X80190633Y-101302017D01*
X80190633Y-101302017D02*
X80257300Y-101335350D01*
X80257300Y-101335350D02*
X80423966Y-101335350D01*
X80423966Y-101335350D02*
X80490633Y-101302017D01*
X80490633Y-101302017D02*
X80523966Y-101268683D01*
X80523966Y-101268683D02*
X80557300Y-101202017D01*
X80557300Y-101202017D02*
X80557300Y-101068683D01*
X80557300Y-101068683D02*
X80523966Y-101002017D01*
X80523966Y-101002017D02*
X80490633Y-100968683D01*
X80490633Y-100968683D02*
X80423966Y-100935350D01*
D11*
%TO.C,J4*%
X95790000Y-66000000D02*
X95790000Y-70000000D01*
X96080000Y-64970000D02*
X96080000Y-70990000D01*
X96080000Y-70990000D02*
X101380000Y-70990000D01*
X96660000Y-64970000D02*
X96660000Y-65570000D01*
X96660000Y-65570000D02*
X98260000Y-65570000D01*
X97460000Y-69990000D02*
X97710000Y-69460000D01*
X97460000Y-69990000D02*
X100000000Y-69990000D01*
X97460000Y-70990000D02*
X97460000Y-69990000D01*
X97710000Y-69460000D02*
X99750000Y-69460000D01*
X97710000Y-70990000D02*
X97710000Y-69990000D01*
X98260000Y-65570000D02*
X98260000Y-64970000D01*
X99200000Y-64970000D02*
X99200000Y-65570000D01*
X99200000Y-65570000D02*
X100800000Y-65570000D01*
X99750000Y-69460000D02*
X100000000Y-69990000D01*
X99750000Y-70990000D02*
X99750000Y-69990000D01*
X100000000Y-69990000D02*
X100000000Y-70990000D01*
X100800000Y-65570000D02*
X100800000Y-64970000D01*
X101380000Y-64970000D02*
X96080000Y-64970000D01*
X101380000Y-70990000D02*
X101380000Y-64970000D01*
%TO.C,Q2*%
X63200000Y-64710000D02*
X66800000Y-64710000D01*
X63161522Y-64698478D02*
G75*
G02*
X65000000Y-60259999I1838478J1838478D01*
G01*
X65000000Y-60260000D02*
G75*
G02*
X66838478Y-64698478I0J-2600000D01*
G01*
%TO.C,R3*%
X58280000Y-56030000D02*
X58280000Y-65270000D01*
X58280000Y-65270000D02*
X61720000Y-65270000D01*
X60000000Y-55340000D02*
X60000000Y-56030000D01*
X60000000Y-65960000D02*
X60000000Y-65270000D01*
X61720000Y-56030000D02*
X58280000Y-56030000D01*
X61720000Y-65270000D02*
X61720000Y-56030000D01*
%TO.C,D1*%
X62280000Y-70510000D02*
X62280000Y-80250000D01*
X62280000Y-80250000D02*
X67720000Y-80250000D01*
X65000000Y-69600000D02*
X65000000Y-70510000D01*
X65000000Y-81160000D02*
X65000000Y-80250000D01*
X67720000Y-70510000D02*
X62280000Y-70510000D01*
X67720000Y-71935000D02*
X62280000Y-71935000D01*
X67720000Y-72055000D02*
X62280000Y-72055000D01*
X67720000Y-72175000D02*
X62280000Y-72175000D01*
X67720000Y-80250000D02*
X67720000Y-70510000D01*
%TO.C,Q1*%
X82730000Y-51340000D02*
X87371000Y-51340000D01*
X82730000Y-54609000D02*
X84240000Y-54609000D01*
X82730000Y-58310000D02*
X84240000Y-58310000D01*
X82730000Y-61580000D02*
X82730000Y-51340000D01*
X82730000Y-61580000D02*
X87371000Y-61580000D01*
X84240000Y-61580000D02*
X84240000Y-51340000D01*
X87371000Y-61580000D02*
X87371000Y-51340000D01*
%TO.C,R6*%
X70690000Y-74000000D02*
X71380000Y-74000000D01*
X71380000Y-72280000D02*
X71380000Y-75720000D01*
X71380000Y-75720000D02*
X80620000Y-75720000D01*
X80620000Y-72280000D02*
X71380000Y-72280000D01*
X80620000Y-75720000D02*
X80620000Y-72280000D01*
X81310000Y-74000000D02*
X80620000Y-74000000D01*
%TO.C,J3*%
X92295000Y-77695000D02*
X92295000Y-80355000D01*
X105055000Y-77695000D02*
X92295000Y-77695000D01*
X105055000Y-77695000D02*
X105055000Y-80355000D01*
X105055000Y-80355000D02*
X92295000Y-80355000D01*
X107655000Y-79025000D02*
X107655000Y-80355000D01*
X107655000Y-80355000D02*
X106325000Y-80355000D01*
%TO.C,R2*%
X74690000Y-64000000D02*
X75380000Y-64000000D01*
X75380000Y-62280000D02*
X75380000Y-65720000D01*
X75380000Y-65720000D02*
X84620000Y-65720000D01*
X84620000Y-62280000D02*
X75380000Y-62280000D01*
X84620000Y-65720000D02*
X84620000Y-62280000D01*
X85310000Y-64000000D02*
X84620000Y-64000000D01*
%TO.C,ESP32_1*%
X54590000Y-90040000D02*
X57000000Y-90040000D01*
X54590000Y-92450000D02*
X54590000Y-90040000D01*
X54890000Y-90340000D02*
X54890000Y-92870000D01*
X54890000Y-92870000D02*
X55020000Y-92870000D01*
X54890000Y-94680000D02*
X54890000Y-95660000D01*
X54890000Y-95660000D02*
X76440000Y-95660000D01*
X55020000Y-92870000D02*
X55020000Y-94680000D01*
X55020000Y-94680000D02*
X54890000Y-94680000D01*
X76440000Y-95660000D02*
X76440000Y-97160000D01*
X76440000Y-97160000D02*
X84280000Y-97160000D01*
X84280000Y-95660000D02*
X105830000Y-95660000D01*
X84280000Y-97160000D02*
X84280000Y-95660000D01*
X105700000Y-92870000D02*
X105830000Y-92870000D01*
X105700000Y-94680000D02*
X105700000Y-92870000D01*
X105830000Y-90340000D02*
X54890000Y-90340000D01*
X105830000Y-92870000D02*
X105830000Y-90340000D01*
X105830000Y-94680000D02*
X105700000Y-94680000D01*
X105830000Y-95660000D02*
X105830000Y-94680000D01*
%TO.C,R5*%
X76690000Y-80000000D02*
X77380000Y-80000000D01*
X77380000Y-78280000D02*
X77380000Y-81720000D01*
X77380000Y-81720000D02*
X86620000Y-81720000D01*
X86620000Y-78280000D02*
X77380000Y-78280000D01*
X86620000Y-81720000D02*
X86620000Y-78280000D01*
X87310000Y-80000000D02*
X86620000Y-80000000D01*
%TO.C,J5*%
X52080000Y-54010000D02*
X52080000Y-60030000D01*
X52080000Y-60030000D02*
X57380000Y-60030000D01*
X52660000Y-59430000D02*
X52660000Y-60030000D01*
X53460000Y-55010000D02*
X53460000Y-54010000D01*
X53710000Y-54010000D02*
X53710000Y-55010000D01*
X53710000Y-55540000D02*
X53460000Y-55010000D01*
X54260000Y-59430000D02*
X52660000Y-59430000D01*
X54260000Y-60030000D02*
X54260000Y-59430000D01*
X55200000Y-59430000D02*
X55200000Y-60030000D01*
X55750000Y-54010000D02*
X55750000Y-55010000D01*
X55750000Y-55540000D02*
X53710000Y-55540000D01*
X56000000Y-54010000D02*
X56000000Y-55010000D01*
X56000000Y-55010000D02*
X53460000Y-55010000D01*
X56000000Y-55010000D02*
X55750000Y-55540000D01*
X56800000Y-59430000D02*
X55200000Y-59430000D01*
X56800000Y-60030000D02*
X56800000Y-59430000D01*
X57380000Y-54010000D02*
X52080000Y-54010000D01*
X57380000Y-60030000D02*
X57380000Y-54010000D01*
X57670000Y-59000000D02*
X57670000Y-55000000D01*
%TO.C,J2*%
X89080000Y-51010000D02*
X89080000Y-57030000D01*
X89080000Y-57030000D02*
X96920000Y-57030000D01*
X89660000Y-56430000D02*
X89660000Y-57030000D01*
X90460000Y-52010000D02*
X90460000Y-51010000D01*
X90710000Y-51010000D02*
X90710000Y-52010000D01*
X90710000Y-52540000D02*
X90460000Y-52010000D01*
X91260000Y-56430000D02*
X89660000Y-56430000D01*
X91260000Y-57030000D02*
X91260000Y-56430000D01*
X92200000Y-56430000D02*
X92200000Y-57030000D01*
X93800000Y-56430000D02*
X92200000Y-56430000D01*
X93800000Y-57030000D02*
X93800000Y-56430000D01*
X94740000Y-56430000D02*
X94740000Y-57030000D01*
X95290000Y-51010000D02*
X95290000Y-52010000D01*
X95290000Y-52540000D02*
X90710000Y-52540000D01*
X95540000Y-51010000D02*
X95540000Y-52010000D01*
X95540000Y-52010000D02*
X90460000Y-52010000D01*
X95540000Y-52010000D02*
X95290000Y-52540000D01*
X96340000Y-56430000D02*
X94740000Y-56430000D01*
X96340000Y-57030000D02*
X96340000Y-56430000D01*
X96920000Y-51010000D02*
X89080000Y-51010000D01*
X96920000Y-57030000D02*
X96920000Y-51010000D01*
X97210000Y-56000000D02*
X97210000Y-52000000D01*
%TO.C,RN1*%
X93560000Y-86600000D02*
X93560000Y-89400000D01*
X93560000Y-89400000D02*
X106600000Y-89400000D01*
X103890000Y-89400000D02*
X103890000Y-86600000D01*
X106600000Y-86600000D02*
X93560000Y-86600000D01*
X106600000Y-89400000D02*
X106600000Y-86600000D01*
%TO.C,D2*%
X73720000Y-69000000D02*
X74630000Y-69000000D01*
X74630000Y-66280000D02*
X74630000Y-71720000D01*
X74630000Y-71720000D02*
X84370000Y-71720000D01*
X76055000Y-66280000D02*
X76055000Y-71720000D01*
X76175000Y-66280000D02*
X76175000Y-71720000D01*
X76295000Y-66280000D02*
X76295000Y-71720000D01*
X84370000Y-66280000D02*
X74630000Y-66280000D01*
X84370000Y-71720000D02*
X84370000Y-66280000D01*
X85280000Y-69000000D02*
X84370000Y-69000000D01*
%TO.C,R4*%
X51280000Y-64380000D02*
X51280000Y-73620000D01*
X51280000Y-73620000D02*
X54720000Y-73620000D01*
X53000000Y-63690000D02*
X53000000Y-64380000D01*
X53000000Y-74310000D02*
X53000000Y-73620000D01*
X54720000Y-64380000D02*
X51280000Y-64380000D01*
X54720000Y-73620000D02*
X54720000Y-64380000D01*
%TO.C,ESP1*%
X56480000Y-94800000D02*
X56480000Y-123199999D01*
X56480000Y-123199999D02*
X104400000Y-123200000D01*
X104400000Y-94800001D02*
X56480000Y-94800000D01*
X104400000Y-123200000D02*
X104400000Y-94800001D01*
X104420320Y-100030120D02*
X110313120Y-100030120D01*
X110313120Y-100030120D02*
X110313120Y-118013320D01*
X110313120Y-118013320D02*
X104420320Y-118013320D01*
%TO.C,R1*%
X69690000Y-84000000D02*
X70380000Y-84000000D01*
X70380000Y-82280000D02*
X70380000Y-85720000D01*
X70380000Y-85720000D02*
X79620000Y-85720000D01*
X79620000Y-82280000D02*
X70380000Y-82280000D01*
X79620000Y-85720000D02*
X79620000Y-82280000D01*
X80310000Y-84000000D02*
X79620000Y-84000000D01*
%TO.C,ESP32_2*%
X54920000Y-124340000D02*
X54920000Y-125320000D01*
X54920000Y-125320000D02*
X55050000Y-125320000D01*
X54920000Y-127130000D02*
X54920000Y-129660000D01*
X54920000Y-129660000D02*
X105860000Y-129660000D01*
X55050000Y-125320000D02*
X55050000Y-127130000D01*
X55050000Y-127130000D02*
X54920000Y-127130000D01*
X76470000Y-122840000D02*
X76470000Y-124340000D01*
X76470000Y-124340000D02*
X54920000Y-124340000D01*
X84310000Y-122840000D02*
X76470000Y-122840000D01*
X84310000Y-124340000D02*
X84310000Y-122840000D01*
X105730000Y-125320000D02*
X105860000Y-125320000D01*
X105730000Y-127130000D02*
X105730000Y-125320000D01*
X105860000Y-124340000D02*
X84310000Y-124340000D01*
X105860000Y-125320000D02*
X105860000Y-124340000D01*
X105860000Y-127130000D02*
X105730000Y-127130000D01*
X105860000Y-129660000D02*
X105860000Y-127130000D01*
X106160000Y-127550000D02*
X106160000Y-129960000D01*
X106160000Y-129960000D02*
X103750000Y-129960000D01*
%TD*%
D12*
%TO.P,J4,1,Pin_1*%
%TO.N,Net-(J3-Pin_6)*%
X97460000Y-68000000D03*
D13*
%TO.P,J4,2,Pin_2*%
%TO.N,Net-(J3-Pin_5)*%
X100000000Y-68000000D03*
%TD*%
D14*
%TO.P,Q2,1,E*%
%TO.N,GND*%
X63730000Y-62860000D03*
D15*
%TO.P,Q2,2,B*%
%TO.N,Net-(D1-K)*%
X65000000Y-62860000D03*
%TO.P,Q2,3,C*%
%TO.N,Net-(Q1-G)*%
X66270000Y-62860000D03*
%TD*%
D16*
%TO.P,R3,1*%
%TO.N,/K30*%
X60000000Y-54300000D03*
D17*
%TO.P,R3,2*%
%TO.N,Net-(Q1-G)*%
X60000000Y-67000000D03*
%TD*%
D18*
%TO.P,D1,1,K*%
%TO.N,Net-(D1-K)*%
X65000000Y-67760000D03*
D19*
%TO.P,D1,2,A*%
%TO.N,Net-(D1-A)*%
X65000000Y-83000000D03*
%TD*%
D20*
%TO.P,Q1,1,G*%
%TO.N,Net-(Q1-G)*%
X86000000Y-59000000D03*
D21*
%TO.P,Q1,2,D*%
%TO.N,/12 V out*%
X86000000Y-56460000D03*
%TO.P,Q1,3,S*%
%TO.N,/K30*%
X86000000Y-53920000D03*
%TD*%
D16*
%TO.P,R6,1*%
%TO.N,Net-(D1-K)*%
X69650000Y-74000000D03*
D17*
%TO.P,R6,2*%
%TO.N,Net-(D2-K)*%
X82350000Y-74000000D03*
%TD*%
D22*
%TO.P,J3,1,Pin_1*%
%TO.N,Net-(ESP1-3V3)*%
X106325000Y-79025000D03*
D23*
%TO.P,J3,2,Pin_2*%
%TO.N,GND*%
X103785000Y-79025000D03*
%TO.P,J3,3,Pin_3*%
%TO.N,Net-(ESP1-GPIO22)*%
X101245000Y-79025000D03*
%TO.P,J3,4,Pin_4*%
%TO.N,Net-(ESP1-GPIO21)*%
X98705000Y-79025000D03*
%TO.P,J3,5,Pin_5*%
%TO.N,Net-(J3-Pin_5)*%
X96165000Y-79025000D03*
%TO.P,J3,6,Pin_6*%
%TO.N,Net-(J3-Pin_6)*%
X93625000Y-79025000D03*
%TD*%
D16*
%TO.P,R2,1*%
%TO.N,/K15*%
X73650000Y-64000000D03*
D17*
%TO.P,R2,2*%
%TO.N,/Volt Measurement*%
X86350000Y-64000000D03*
%TD*%
D24*
%TO.P,ESP32_1,1,Pin_1*%
%TO.N,Net-(ESP1-5V)*%
X57500000Y-93000000D03*
D25*
%TO.P,ESP32_1,2,Pin_2*%
%TO.N,Net-(ESP1-CMD)*%
X60040000Y-93000000D03*
%TO.P,ESP32_1,3,Pin_3*%
%TO.N,Net-(ESP1-SD_DATA3{slash}GPIO10)*%
X62580000Y-93000000D03*
%TO.P,ESP32_1,4,Pin_4*%
%TO.N,Net-(ESP1-SD_DATA2{slash}GPIO9)*%
X65120000Y-93000000D03*
%TO.P,ESP32_1,5,Pin_5*%
%TO.N,Net-(ESP1-MTCK{slash}GPIO13{slash}ADC2_CH4)*%
X67660000Y-93000000D03*
%TO.P,ESP32_1,6,Pin_6*%
%TO.N,GND*%
X70200000Y-93000000D03*
%TO.P,ESP32_1,7,Pin_7*%
%TO.N,/Stay On*%
X72740000Y-93000000D03*
%TO.P,ESP32_1,8,Pin_8*%
%TO.N,Net-(ESP1-MTMS{slash}GPIO14{slash}ADC2_CH6)*%
X75280000Y-93000000D03*
%TO.P,ESP32_1,9,Pin_9*%
%TO.N,Net-(ESP1-ADC2_CH7{slash}GPIO27)*%
X77820000Y-93000000D03*
%TO.P,ESP32_1,10,Pin_10*%
%TO.N,Net-(ESP1-DAC_2{slash}ADC2_CH9{slash}GPIO26)*%
X80360000Y-93000000D03*
%TO.P,ESP32_1,11,Pin_11*%
%TO.N,Net-(ESP1-DAC_1{slash}ADC2_CH8{slash}GPIO25)*%
X82900000Y-93000000D03*
%TO.P,ESP32_1,12,Pin_12*%
%TO.N,Net-(ESP1-32K_XN{slash}GPIO33{slash}ADC1_CH5)*%
X85440000Y-93000000D03*
%TO.P,ESP32_1,13,Pin_13*%
%TO.N,Net-(ESP1-32K_XP{slash}GPIO32{slash}ADC1_CH4)*%
X87980000Y-93000000D03*
%TO.P,ESP32_1,14,Pin_14*%
%TO.N,Pin 22 (motor cap)*%
X90520000Y-93000000D03*
%TO.P,ESP32_1,15,Pin_15*%
%TO.N,Pin 7 (brake pad)*%
X93060000Y-93000000D03*
%TO.P,ESP32_1,16,Pin_16*%
%TO.N,/Volt Measurement*%
X95600000Y-93000000D03*
%TO.P,ESP32_1,17,Pin_17*%
%TO.N,Net-(ESP1-SENSOR_VP{slash}GPIO36{slash}ADC1_CH0)*%
X98140000Y-93000000D03*
%TO.P,ESP32_1,18,Pin_18*%
%TO.N,Net-(ESP1-RESET)*%
X100680000Y-93000000D03*
%TO.P,ESP32_1,19,Pin_19*%
%TO.N,Net-(ESP1-3V3)*%
X103220000Y-93000000D03*
%TD*%
D16*
%TO.P,R5,1*%
%TO.N,Net-(D1-K)*%
X75650000Y-80000000D03*
D17*
%TO.P,R5,2*%
%TO.N,GND*%
X88350000Y-80000000D03*
%TD*%
D26*
%TO.P,J5,1,Pin_1*%
%TO.N,/12 V out*%
X56000000Y-57000000D03*
D13*
%TO.P,J5,2,Pin_2*%
%TO.N,GND*%
X53460000Y-57000000D03*
%TD*%
D26*
%TO.P,J2,1,Pin_1*%
%TO.N,GND*%
X95540000Y-54000000D03*
D13*
%TO.P,J2,2,Pin_2*%
%TO.N,/K15*%
X93000000Y-54000000D03*
%TO.P,J2,3,Pin_3*%
%TO.N,/K30*%
X90460000Y-54000000D03*
%TD*%
D27*
%TO.P,RN1,1,common*%
%TO.N,Net-(ESP1-3V3)*%
X105160000Y-88000000D03*
D17*
%TO.P,RN1,2,R1*%
%TO.N,unconnected-(RN1-R1-Pad2)*%
X102620000Y-88000000D03*
%TO.P,RN1,3,R2*%
%TO.N,Net-(ESP1-SENSOR_VP{slash}GPIO36{slash}ADC1_CH0)*%
X100080000Y-88000000D03*
%TO.P,RN1,4,R3*%
%TO.N,Pin 7 (brake pad)*%
X97540000Y-88000000D03*
%TO.P,RN1,5,R4*%
%TO.N,Pin 22 (motor cap)*%
X95000000Y-88000000D03*
%TD*%
D18*
%TO.P,D2,1,K*%
%TO.N,Net-(D2-K)*%
X71880000Y-69000000D03*
D19*
%TO.P,D2,2,A*%
%TO.N,/Stay On*%
X87120000Y-69000000D03*
%TD*%
D16*
%TO.P,R4,1*%
%TO.N,/Volt Measurement*%
X53000000Y-75350000D03*
D17*
%TO.P,R4,2*%
%TO.N,GND*%
X53000000Y-62650000D03*
%TD*%
D28*
%TO.P,ESP1,1,3V3*%
%TO.N,Net-(ESP1-3V3)*%
X103300000Y-96300000D03*
D29*
%TO.P,ESP1,2,RESET*%
%TO.N,Net-(ESP1-RESET)*%
X100760000Y-96300000D03*
%TO.P,ESP1,3,SENSOR_VP/GPIO36/ADC1_CH0*%
%TO.N,Net-(ESP1-SENSOR_VP{slash}GPIO36{slash}ADC1_CH0)*%
X98220000Y-96300000D03*
%TO.P,ESP1,4,SENSOR_VN/GPIO39/ADC1_CH3*%
%TO.N,/Volt Measurement*%
X95680000Y-96300000D03*
%TO.P,ESP1,5,VDET_1/GPIO34/ADC1_CH6*%
%TO.N,Pin 7 (brake pad)*%
X93140000Y-96300000D03*
%TO.P,ESP1,6,VDET_2/GPIO35/ADC1_CH7*%
%TO.N,Pin 22 (motor cap)*%
X90600000Y-96300000D03*
%TO.P,ESP1,7,32K_XP/GPIO32/ADC1_CH4*%
%TO.N,Net-(ESP1-32K_XP{slash}GPIO32{slash}ADC1_CH4)*%
X88060000Y-96300000D03*
%TO.P,ESP1,8,32K_XN/GPIO33/ADC1_CH5*%
%TO.N,Net-(ESP1-32K_XN{slash}GPIO33{slash}ADC1_CH5)*%
X85520000Y-96300000D03*
%TO.P,ESP1,9,DAC_1/ADC2_CH8/GPIO25*%
%TO.N,Net-(ESP1-DAC_1{slash}ADC2_CH8{slash}GPIO25)*%
X82980000Y-96300000D03*
%TO.P,ESP1,10,DAC_2/ADC2_CH9/GPIO26*%
%TO.N,Net-(ESP1-DAC_2{slash}ADC2_CH9{slash}GPIO26)*%
X80440000Y-96300000D03*
%TO.P,ESP1,11,ADC2_CH7/GPIO27*%
%TO.N,Net-(ESP1-ADC2_CH7{slash}GPIO27)*%
X77900000Y-96300000D03*
%TO.P,ESP1,12,MTMS/GPIO14/ADC2_CH6*%
%TO.N,Net-(ESP1-MTMS{slash}GPIO14{slash}ADC2_CH6)*%
X75360000Y-96300000D03*
%TO.P,ESP1,13,MTDI/GPIO12/ADC2_CH5*%
%TO.N,/Stay On*%
X72820000Y-96300000D03*
%TO.P,ESP1,14,GND*%
%TO.N,GND*%
X70280000Y-96300000D03*
%TO.P,ESP1,15,MTCK/GPIO13/ADC2_CH4*%
%TO.N,Net-(ESP1-MTCK{slash}GPIO13{slash}ADC2_CH4)*%
X67740000Y-96300000D03*
%TO.P,ESP1,16,SD_DATA2/GPIO9*%
%TO.N,Net-(ESP1-SD_DATA2{slash}GPIO9)*%
X65200000Y-96300000D03*
%TO.P,ESP1,17,SD_DATA3/GPIO10*%
%TO.N,Net-(ESP1-SD_DATA3{slash}GPIO10)*%
X62660000Y-96300000D03*
%TO.P,ESP1,18,CMD*%
%TO.N,Net-(ESP1-CMD)*%
X60120000Y-96300000D03*
%TO.P,ESP1,19,5V*%
%TO.N,Net-(ESP1-5V)*%
X57580000Y-96300000D03*
%TO.P,ESP1,20,SD_CLK/GPIO6*%
%TO.N,Net-(ESP1-SD_CLK{slash}GPIO6)*%
X57582720Y-121696320D03*
%TO.P,ESP1,21,SD_DATA0/GPIO7*%
%TO.N,Net-(ESP1-SD_DATA0{slash}GPIO7)*%
X60122720Y-121696320D03*
%TO.P,ESP1,22,SD_DATA1/GPIO8*%
%TO.N,Net-(ESP1-SD_DATA1{slash}GPIO8)*%
X62660000Y-121700000D03*
%TO.P,ESP1,23,MTDO/GPIO15/ADC2_CH3*%
%TO.N,Net-(ESP1-MTDO{slash}GPIO15{slash}ADC2_CH3)*%
X65200000Y-121700000D03*
%TO.P,ESP1,24,ADC2_CH2/GPIO2*%
%TO.N,Net-(ESP1-ADC2_CH2{slash}GPIO2)*%
X67740000Y-121700000D03*
%TO.P,ESP1,25,GPIO0/BOOT/ADC2_CH1*%
%TO.N,Net-(ESP1-GPIO0{slash}BOOT{slash}ADC2_CH1)*%
X70280000Y-121700000D03*
%TO.P,ESP1,26,ADC2_CH0/GPIO4*%
%TO.N,Net-(ESP1-ADC2_CH0{slash}GPIO4)*%
X72820000Y-121700000D03*
%TO.P,ESP1,27,GPIO16*%
%TO.N,Net-(ESP1-GPIO16)*%
X75360000Y-121700000D03*
%TO.P,ESP1,28,GPIO17*%
%TO.N,Net-(ESP1-GPIO17)*%
X77900000Y-121700000D03*
%TO.P,ESP1,29,GPIO5*%
%TO.N,Net-(ESP1-GPIO5)*%
X80440000Y-121700000D03*
%TO.P,ESP1,30,GPIO18*%
%TO.N,Net-(ESP1-GPIO18)*%
X82980000Y-121700000D03*
%TO.P,ESP1,31,GPIO19*%
%TO.N,Net-(ESP1-GPIO19)*%
X85520000Y-121700000D03*
%TO.P,ESP1,32,GND*%
%TO.N,GND*%
X88060000Y-121700000D03*
%TO.P,ESP1,33,GPIO21*%
%TO.N,Net-(ESP1-GPIO21)*%
X90600000Y-121700000D03*
%TO.P,ESP1,34,U0RXD/GPIO3*%
%TO.N,Net-(ESP1-U0RXD{slash}GPIO3)*%
X93140000Y-121700000D03*
%TO.P,ESP1,35,U0TXD/GPIO1*%
%TO.N,Net-(ESP1-U0TXD{slash}GPIO1)*%
X95680000Y-121700000D03*
%TO.P,ESP1,36,GPIO22*%
%TO.N,Net-(ESP1-GPIO22)*%
X98220000Y-121700000D03*
%TO.P,ESP1,37,GPIO23*%
%TO.N,Net-(ESP1-GPIO23)*%
X100760000Y-121700000D03*
%TO.P,ESP1,38,GND*%
%TO.N,GND*%
X103300000Y-121700000D03*
%TD*%
D16*
%TO.P,R1,1*%
%TO.N,/K15*%
X81350000Y-84000000D03*
D17*
%TO.P,R1,2*%
%TO.N,Net-(D1-A)*%
X68650000Y-84000000D03*
%TD*%
D30*
%TO.P,ESP32_2,1,Pin_1*%
%TO.N,GND*%
X103250000Y-127000000D03*
D25*
%TO.P,ESP32_2,2,Pin_2*%
%TO.N,Net-(ESP1-GPIO23)*%
X100710000Y-127000000D03*
%TO.P,ESP32_2,3,Pin_3*%
%TO.N,Net-(ESP1-GPIO22)*%
X98170000Y-127000000D03*
%TO.P,ESP32_2,4,Pin_4*%
%TO.N,Net-(ESP1-U0TXD{slash}GPIO1)*%
X95630000Y-127000000D03*
%TO.P,ESP32_2,5,Pin_5*%
%TO.N,Net-(ESP1-U0RXD{slash}GPIO3)*%
X93090000Y-127000000D03*
%TO.P,ESP32_2,6,Pin_6*%
%TO.N,Net-(ESP1-GPIO21)*%
X90550000Y-127000000D03*
%TO.P,ESP32_2,7,Pin_7*%
%TO.N,GND*%
X88010000Y-127000000D03*
%TO.P,ESP32_2,8,Pin_8*%
%TO.N,Net-(ESP1-GPIO19)*%
X85470000Y-127000000D03*
%TO.P,ESP32_2,9,Pin_9*%
%TO.N,Net-(ESP1-GPIO18)*%
X82930000Y-127000000D03*
%TO.P,ESP32_2,10,Pin_10*%
%TO.N,Net-(ESP1-GPIO5)*%
X80390000Y-127000000D03*
%TO.P,ESP32_2,11,Pin_11*%
%TO.N,Net-(ESP1-GPIO17)*%
X77850000Y-127000000D03*
%TO.P,ESP32_2,12,Pin_12*%
%TO.N,Net-(ESP1-GPIO16)*%
X75310000Y-127000000D03*
%TO.P,ESP32_2,13,Pin_13*%
%TO.N,Net-(ESP1-ADC2_CH0{slash}GPIO4)*%
X72770000Y-127000000D03*
%TO.P,ESP32_2,14,Pin_14*%
%TO.N,Net-(ESP1-GPIO0{slash}BOOT{slash}ADC2_CH1)*%
X70230000Y-127000000D03*
%TO.P,ESP32_2,15,Pin_15*%
%TO.N,Net-(ESP1-ADC2_CH2{slash}GPIO2)*%
X67690000Y-127000000D03*
%TO.P,ESP32_2,16,Pin_16*%
%TO.N,Net-(ESP1-MTDO{slash}GPIO15{slash}ADC2_CH3)*%
X65150000Y-127000000D03*
%TO.P,ESP32_2,17,Pin_17*%
%TO.N,Net-(ESP1-SD_DATA1{slash}GPIO8)*%
X62610000Y-127000000D03*
%TO.P,ESP32_2,18,Pin_18*%
%TO.N,Net-(ESP1-SD_DATA0{slash}GPIO7)*%
X60070000Y-127000000D03*
%TO.P,ESP32_2,19,Pin_19*%
%TO.N,Net-(ESP1-SD_CLK{slash}GPIO6)*%
X57530000Y-127000000D03*
%TD*%
D31*
%TO.N,Net-(D1-A)*%
X68650000Y-84000000D02*
X66000000Y-84000000D01*
X66000000Y-84000000D02*
X65000000Y-83000000D01*
D32*
%TO.N,Net-(D1-K)*%
X72000000Y-74000000D02*
X69650000Y-74000000D01*
D31*
X75650000Y-77650000D02*
X75650000Y-80000000D01*
D33*
X65000000Y-62860000D02*
X65000000Y-67880000D01*
D32*
X67000000Y-74000000D02*
X69650000Y-74000000D01*
D31*
X65000000Y-72000000D02*
X65000000Y-67760000D01*
D32*
X67000000Y-74000000D02*
X65000000Y-72000000D01*
D31*
X72000000Y-74000000D02*
X75650000Y-77650000D01*
D33*
%TO.N,Net-(D2-K)*%
X82350000Y-74000000D02*
X82350000Y-70350000D01*
X81000000Y-69000000D02*
X71880000Y-69000000D01*
X82350000Y-70350000D02*
X81000000Y-69000000D01*
D31*
%TO.N,Net-(Q1-G)*%
X86000000Y-59000000D02*
X63000000Y-59000000D01*
D33*
X66270000Y-62860000D02*
X66270000Y-59230000D01*
D31*
X63000000Y-59000000D02*
X60000000Y-62000000D01*
X60000000Y-62000000D02*
X60000000Y-67000000D01*
D33*
%TO.N,/Stay On*%
X78000000Y-84000000D02*
X87120000Y-74880000D01*
X57500000Y-80000000D02*
X68000000Y-80000000D01*
X72540000Y-100540000D02*
X79000000Y-107000000D01*
X54000000Y-129000000D02*
X51000000Y-126000000D01*
X51000000Y-86500000D02*
X57500000Y-80000000D01*
X87120000Y-74880000D02*
X87120000Y-69000000D01*
X72000000Y-84000000D02*
X78000000Y-84000000D01*
X51000000Y-126000000D02*
X51000000Y-86500000D01*
X98000000Y-107000000D02*
X106000000Y-115000000D01*
X106000000Y-129000000D02*
X54000000Y-129000000D01*
X72540000Y-96300000D02*
X72540000Y-100540000D01*
X106000000Y-115000000D02*
X106000000Y-129000000D01*
X79000000Y-107000000D02*
X98000000Y-107000000D01*
D32*
X72740000Y-93000000D02*
X72740000Y-96500000D01*
D33*
X68000000Y-80000000D02*
X72000000Y-84000000D01*
D32*
%TO.N,Net-(ESP1-ADC2_CH7{slash}GPIO27)*%
X77820000Y-93000000D02*
X77820000Y-96500000D01*
%TO.N,Net-(ESP1-SD_DATA3{slash}GPIO10)*%
X62580000Y-93000000D02*
X62580000Y-96500000D01*
D31*
%TO.N,Net-(ESP1-MTDO{slash}GPIO15{slash}ADC2_CH3)*%
X65200000Y-121700000D02*
X65200000Y-127200000D01*
%TO.N,Net-(ESP1-GPIO16)*%
X75360000Y-121700000D02*
X75360000Y-127200000D01*
D32*
%TO.N,GND*%
X70200000Y-93000000D02*
X70200000Y-96500000D01*
X96000000Y-54000000D02*
X95540000Y-54000000D01*
D33*
X88060000Y-120060000D02*
X87000000Y-119000000D01*
X95540000Y-60460000D02*
X95540000Y-54000000D01*
X62000000Y-64590000D02*
X63730000Y-62860000D01*
X103300000Y-116300000D02*
X103300000Y-121700000D01*
X95540000Y-54000000D02*
X95540000Y-52905000D01*
X54800000Y-52200000D02*
X94835000Y-52200000D01*
X55102944Y-86000000D02*
X85000000Y-86000000D01*
X89091168Y-91000000D02*
X71000000Y-91000000D01*
X88060000Y-121700000D02*
X88060000Y-120060000D01*
D31*
X88060000Y-121700000D02*
X88060000Y-127200000D01*
D33*
X102000000Y-86000000D02*
X94091168Y-86000000D01*
X92000000Y-64000000D02*
X95540000Y-60460000D01*
X88350000Y-82650000D02*
X88350000Y-80000000D01*
X70280000Y-102280000D02*
X78000000Y-110000000D01*
X54800000Y-52200000D02*
X53460000Y-53540000D01*
X53460000Y-62190000D02*
X53000000Y-62650000D01*
X52500000Y-88902944D02*
X55102944Y-86000000D01*
X70200000Y-102280000D02*
X70200000Y-96300000D01*
X103785000Y-79025000D02*
X103785000Y-84215000D01*
X57000000Y-69000000D02*
X53000000Y-65000000D01*
X62000000Y-69000000D02*
X62000000Y-64590000D01*
X71000000Y-91000000D02*
X70000000Y-92000000D01*
X94835000Y-52200000D02*
X95000000Y-52200000D01*
X95540000Y-52905000D02*
X94835000Y-52200000D01*
X89000000Y-80000000D02*
X92000000Y-77000000D01*
X53460000Y-57000000D02*
X53460000Y-62190000D01*
X53000000Y-65000000D02*
X53000000Y-62650000D01*
X78000000Y-110000000D02*
X97000000Y-110000000D01*
X97000000Y-110000000D02*
X103300000Y-116300000D01*
X52500000Y-113200000D02*
X52500000Y-88902944D01*
X70000000Y-92000000D02*
X70000000Y-92800000D01*
D31*
X103300000Y-121700000D02*
X103300000Y-127200000D01*
D33*
X87000000Y-119000000D02*
X58000000Y-119000000D01*
X92000000Y-77000000D02*
X92000000Y-64000000D01*
X53460000Y-53540000D02*
X53460000Y-57000000D01*
D32*
X103785000Y-79025000D02*
X103785000Y-61785000D01*
D33*
X58000000Y-119000000D02*
X52500000Y-113200000D01*
X103785000Y-84215000D02*
X102000000Y-86000000D01*
X94091168Y-86000000D02*
X89091168Y-91000000D01*
D32*
X103785000Y-61785000D02*
X96000000Y-54000000D01*
D33*
X88350000Y-80000000D02*
X89000000Y-80000000D01*
X85000000Y-86000000D02*
X88350000Y-82650000D01*
X57000000Y-69000000D02*
X62000000Y-69000000D01*
D31*
%TO.N,Net-(ESP1-GPIO5)*%
X80440000Y-121700000D02*
X80440000Y-127200000D01*
D32*
%TO.N,Net-(ESP1-SD_DATA2{slash}GPIO9)*%
X65120000Y-93000000D02*
X65120000Y-96500000D01*
D31*
%TO.N,Net-(ESP1-SD_DATA1{slash}GPIO8)*%
X62660000Y-121700000D02*
X62660000Y-127200000D01*
%TO.N,Net-(ESP1-GPIO17)*%
X77900000Y-121700000D02*
X77900000Y-127200000D01*
D33*
%TO.N,Pin 22 (motor cap)*%
X95000000Y-88000000D02*
X90520000Y-92480000D01*
D32*
X90520000Y-93000000D02*
X90520000Y-96500000D01*
D33*
X90520000Y-92480000D02*
X90520000Y-93000000D01*
D31*
%TO.N,Net-(ESP1-U0TXD{slash}GPIO1)*%
X95680000Y-121700000D02*
X95680000Y-127200000D01*
%TO.N,Net-(ESP1-SD_DATA0{slash}GPIO7)*%
X60122720Y-121696320D02*
X60122720Y-127200000D01*
%TO.N,Net-(ESP1-GPIO18)*%
X82980000Y-121700000D02*
X82980000Y-127200000D01*
%TO.N,Net-(ESP1-5V)*%
X57500000Y-93000000D02*
X57500000Y-96500000D01*
D32*
%TO.N,Pin 7 (brake pad)*%
X93060000Y-93000000D02*
X93060000Y-96500000D01*
D33*
X97540000Y-88460000D02*
X96000000Y-90000000D01*
X96000000Y-90000000D02*
X95030000Y-90000000D01*
X93060000Y-91970000D02*
X93060000Y-93000000D01*
X97540000Y-88000000D02*
X97540000Y-88460000D01*
X95030000Y-90000000D02*
X93060000Y-91970000D01*
D31*
%TO.N,Net-(ESP1-GPIO0{slash}BOOT{slash}ADC2_CH1)*%
X70280000Y-121700000D02*
X70280000Y-127200000D01*
D33*
%TO.N,/Volt Measurement*%
X108875000Y-62937500D02*
X97000000Y-51062500D01*
X95680000Y-98680000D02*
X98000000Y-101000000D01*
D32*
X95600000Y-93000000D02*
X95600000Y-96500000D01*
D33*
X84000000Y-66350000D02*
X86350000Y-64000000D01*
X51000000Y-54000000D02*
X51000000Y-70000000D01*
X73000000Y-82000000D02*
X77500000Y-82000000D01*
X69000000Y-78000000D02*
X73000000Y-82000000D01*
X97000000Y-51000000D02*
X54000000Y-51000000D01*
X85000000Y-71000000D02*
X84000000Y-70000000D01*
X53000000Y-77000000D02*
X54000000Y-78000000D01*
X98000000Y-101000000D02*
X108000000Y-101000000D01*
X84000000Y-70000000D02*
X84000000Y-66350000D01*
X77500000Y-82000000D02*
X85000000Y-74500000D01*
X54000000Y-51000000D02*
X51000000Y-54000000D01*
X54000000Y-78000000D02*
X69000000Y-78000000D01*
X53000000Y-75350000D02*
X53000000Y-72000000D01*
X53000000Y-75350000D02*
X53000000Y-77000000D01*
X53000000Y-72000000D02*
X51000000Y-70000000D01*
X108875000Y-100125000D02*
X108875000Y-62875000D01*
X95680000Y-96300000D02*
X95680000Y-98680000D01*
X85000000Y-74500000D02*
X85000000Y-71000000D01*
X108000000Y-101000000D02*
X108875000Y-100125000D01*
D32*
%TO.N,Net-(ESP1-MTCK{slash}GPIO13{slash}ADC2_CH4)*%
X67660000Y-93000000D02*
X67660000Y-96500000D01*
D31*
%TO.N,Net-(ESP1-ADC2_CH2{slash}GPIO2)*%
X67740000Y-121700000D02*
X67740000Y-127200000D01*
D32*
%TO.N,Net-(ESP1-DAC_1{slash}ADC2_CH8{slash}GPIO25)*%
X82900000Y-93000000D02*
X82900000Y-96500000D01*
%TO.N,Net-(ESP1-RESET)*%
X100680000Y-93000000D02*
X100680000Y-96500000D01*
D31*
%TO.N,Net-(ESP1-GPIO19)*%
X85440001Y-121779999D02*
X85440001Y-127200000D01*
X85520000Y-121700000D02*
X85440001Y-121779999D01*
%TO.N,Net-(ESP1-SD_CLK{slash}GPIO6)*%
X57582720Y-121696320D02*
X57582720Y-127200000D01*
D32*
%TO.N,Net-(ESP1-32K_XP{slash}GPIO32{slash}ADC1_CH4)*%
X87980000Y-93000000D02*
X87980000Y-96500000D01*
D33*
%TO.N,Net-(ESP1-SENSOR_VP{slash}GPIO36{slash}ADC1_CH0)*%
X100080000Y-89920000D02*
X100080000Y-88000000D01*
D32*
X98140000Y-93000000D02*
X98140000Y-96500000D01*
D33*
X98140000Y-93000000D02*
X98140000Y-91860000D01*
X98140000Y-91860000D02*
X100080000Y-89920000D01*
D32*
%TO.N,Net-(ESP1-CMD)*%
X60040000Y-93000000D02*
X60040000Y-96500000D01*
%TO.N,Net-(ESP1-MTMS{slash}GPIO14{slash}ADC2_CH6)*%
X75280000Y-93000000D02*
X75280000Y-96500000D01*
D31*
%TO.N,Net-(ESP1-GPIO23)*%
X100760000Y-121700000D02*
X100760000Y-127200000D01*
D32*
%TO.N,Net-(ESP1-32K_XN{slash}GPIO33{slash}ADC1_CH5)*%
X85440000Y-93000000D02*
X85440000Y-96500000D01*
%TO.N,Net-(ESP1-DAC_2{slash}ADC2_CH9{slash}GPIO26)*%
X80360000Y-93000000D02*
X80360000Y-96500000D01*
D31*
%TO.N,Net-(ESP1-U0RXD{slash}GPIO3)*%
X93140000Y-121700000D02*
X93140000Y-127200000D01*
%TO.N,Net-(ESP1-ADC2_CH0{slash}GPIO4)*%
X72820000Y-121700000D02*
X72820000Y-127200000D01*
D33*
%TO.N,Net-(ESP1-3V3)*%
X105160000Y-88000000D02*
X106325000Y-86835000D01*
X106325000Y-86835000D02*
X106325000Y-79025000D01*
X105000000Y-93000000D02*
X105160000Y-92840000D01*
X103220000Y-93000000D02*
X105000000Y-93000000D01*
D32*
X103220000Y-93000000D02*
X103220000Y-96500000D01*
D33*
X105160000Y-92840000D02*
X105160000Y-88000000D01*
%TO.N,Net-(ESP1-GPIO21)*%
X98705000Y-79025000D02*
X98705000Y-81295000D01*
X54000000Y-101000000D02*
X70000000Y-117000000D01*
X56500000Y-87500000D02*
X86500000Y-87500000D01*
X90600000Y-118600000D02*
X90600000Y-121700000D01*
X98000000Y-82000000D02*
X92000000Y-82000000D01*
X54000000Y-90000000D02*
X56500000Y-87500000D01*
X70000000Y-117000000D02*
X89000000Y-117000000D01*
X54000000Y-90000000D02*
X54000000Y-101000000D01*
X92000000Y-82000000D02*
X86500000Y-87500000D01*
X89000000Y-117000000D02*
X90600000Y-118600000D01*
X98705000Y-81295000D02*
X98000000Y-82000000D01*
D31*
X90600000Y-121700000D02*
X90600000Y-127200000D01*
D33*
%TO.N,Net-(ESP1-GPIO22)*%
X93197056Y-84000000D02*
X101200000Y-84000000D01*
X101245000Y-83955000D02*
X101245000Y-79025000D01*
X98220000Y-117220000D02*
X95000000Y-114000000D01*
X98220000Y-121700000D02*
X98220000Y-117220000D01*
D31*
X98220000Y-121700000D02*
X98220000Y-127200000D01*
D33*
X101200000Y-84000000D02*
X101245000Y-83955000D01*
X70000000Y-114000000D02*
X55600000Y-99600000D01*
X88197056Y-89000000D02*
X93197056Y-84000000D01*
X55600000Y-99600000D02*
X55600000Y-91400000D01*
X95000000Y-114000000D02*
X70000000Y-114000000D01*
X55600000Y-91400000D02*
X58000000Y-89000000D01*
X58000000Y-89000000D02*
X88197056Y-89000000D01*
D31*
%TO.N,/K30*%
X83700000Y-54300000D02*
X60000000Y-54300000D01*
X84080000Y-53920000D02*
X83700000Y-54300000D01*
X86000000Y-53920000D02*
X90380000Y-53920000D01*
X86000000Y-53920000D02*
X84080000Y-53920000D01*
X90380000Y-53920000D02*
X90460000Y-54000000D01*
%TO.N,/K15*%
X93000000Y-58000000D02*
X93000000Y-54000000D01*
X89840000Y-61160000D02*
X89000000Y-62000000D01*
X89000000Y-62000000D02*
X75650000Y-62000000D01*
X75650000Y-62000000D02*
X73650000Y-64000000D01*
D33*
X89840000Y-75660000D02*
X89840000Y-61160000D01*
D31*
X89840000Y-61160000D02*
X93000000Y-58000000D01*
D33*
X89690000Y-75660000D02*
X81350000Y-84000000D01*
%TO.N,Net-(J3-Pin_6)*%
X97460000Y-71540000D02*
X97460000Y-68000000D01*
X93625000Y-79000000D02*
X93625000Y-75375000D01*
X93625000Y-75375000D02*
X97460000Y-71540000D01*
%TO.N,Net-(J3-Pin_5)*%
X96165000Y-75835000D02*
X100000000Y-72000000D01*
X100000000Y-72000000D02*
X100000000Y-68000000D01*
X96165000Y-79000000D02*
X96165000Y-75835000D01*
D31*
%TO.N,/12 V out*%
X86000000Y-56460000D02*
X56540000Y-56460000D01*
X56540000Y-56460000D02*
X56000000Y-57000000D01*
%TD*%
M02*
