<?xml version="1.0" standalone="no"?>
<!DOCTYPE svg PUBLIC "-//W3C//DTD SVG 1.1//EN"
"http://www.w3.org/Graphics/SVG/1.1/DTD/svg11.dtd">
<svg width="226.299" height="302.362" viewBox="0 0 4714.57 6299.21" version="1.1"
xmlns="http://www.w3.org/2000/svg"
xmlns:xlink="http://www.w3.org/1999/xlink">
<circle cx="1281.1" cy="1012.6" r="29.5276" style=""/>
<circle cx="1181.1" cy="1012.6" r="29.5276" style=""/>
<circle cx="1081.1" cy="1012.6" r="29.5276" style=""/>
<circle cx="4343.31" cy="2992.13" r="31.4961" style=""/>
<circle cx="4143.31" cy="2992.13" r="31.4961" style=""/>
<circle cx="3943.31" cy="2992.13" r="31.4961" style=""/>
<circle cx="3743.31" cy="2992.13" r="31.4961" style=""/>
<circle cx="3543.31" cy="2992.13" r="31.4961" style=""/>
<circle cx="3019.69" cy="2362.2" r="31.4961" style=""/>
<circle cx="2547.24" cy="1889.76" r="31.4961" style=""/>
<circle cx="2862.2" cy="1102.36" r="31.4961" style=""/>
<circle cx="1862.2" cy="1102.36" r="31.4961" style=""/>
<circle cx="787.402" cy="338.583" r="31.4961" style=""/>
<circle cx="236.22" cy="996.063" r="31.4961" style=""/>
<circle cx="236.22" cy="1996.06" r="31.4961" style=""/>
<circle cx="787.402" cy="1338.58" r="31.4961" style=""/>
<circle cx="1547.24" cy="1889.76" r="31.4961" style=""/>
<circle cx="2019.69" cy="2362.2" r="31.4961" style=""/>
<circle cx="2468.5" cy="2677.17" r="31.4961" style=""/>
<circle cx="1468.5" cy="2677.17" r="31.4961" style=""/>
<circle cx="1996.85" cy="3645.67" r="31.4961" style=""/>
<circle cx="2196.85" cy="3645.67" r="31.4961" style=""/>
<circle cx="2396.85" cy="3645.67" r="31.4961" style=""/>
<circle cx="2596.85" cy="3645.67" r="31.4961" style=""/>
<circle cx="2796.85" cy="3645.67" r="31.4961" style=""/>
<circle cx="2996.85" cy="3645.67" r="31.4961" style=""/>
<circle cx="3196.85" cy="3645.67" r="31.4961" style=""/>
<circle cx="3396.85" cy="3645.67" r="31.4961" style=""/>
<circle cx="3596.85" cy="3645.67" r="31.4961" style=""/>
<circle cx="3796.85" cy="3645.67" r="31.4961" style=""/>
<circle cx="3996.85" cy="3645.67" r="31.4961" style=""/>
<circle cx="4196.85" cy="3645.67" r="31.4961" style=""/>
<circle cx="4196.85" cy="5645.67" r="31.4961" style=""/>
<circle cx="3996.85" cy="5645.67" r="31.4961" style=""/>
<circle cx="3796.85" cy="5645.67" r="31.4961" style=""/>
<circle cx="3596.85" cy="5645.67" r="31.4961" style=""/>
<circle cx="3396.85" cy="5645.67" r="31.4961" style=""/>
<circle cx="3196.85" cy="5645.67" r="31.4961" style=""/>
<circle cx="2996.85" cy="5645.67" r="31.4961" style=""/>
<circle cx="2796.85" cy="5645.67" r="31.4961" style=""/>
<circle cx="2596.85" cy="5645.67" r="31.4961" style=""/>
<circle cx="2396.85" cy="5645.67" r="31.4961" style=""/>
<circle cx="2196.85" cy="5645.67" r="31.4961" style=""/>
<circle cx="1996.85" cy="5645.67" r="31.4961" style=""/>
<circle cx="1796.85" cy="5645.67" r="31.4961" style=""/>
<circle cx="1596.85" cy="5645.67" r="31.4961" style=""/>
<circle cx="1396.85" cy="5645.67" r="31.4961" style=""/>
<circle cx="1196.85" cy="5645.67" r="31.4961" style=""/>
<circle cx="996.85" cy="5645.67" r="31.4961" style=""/>
<circle cx="797.087" cy="5645.35" r="31.4961" style=""/>
<circle cx="597.087" cy="5645.35" r="31.4961" style=""/>
<circle cx="1796.85" cy="3645.67" r="31.4961" style=""/>
<circle cx="1596.85" cy="3645.67" r="31.4961" style=""/>
<circle cx="1396.85" cy="3645.67" r="31.4961" style=""/>
<circle cx="1196.85" cy="3645.67" r="31.4961" style=""/>
<circle cx="996.85" cy="3645.67" r="31.4961" style=""/>
<circle cx="796.85" cy="3645.67" r="31.4961" style=""/>
<circle cx="596.85" cy="3645.67" r="31.4961" style=""/>
<circle cx="4435.04" cy="2285.43" r="39.3701" style=""/>
<circle cx="4235.04" cy="2285.43" r="39.3701" style=""/>
<circle cx="4035.04" cy="2285.43" r="39.3701" style=""/>
<circle cx="3835.04" cy="2285.43" r="39.3701" style=""/>
<circle cx="3635.04" cy="2285.43" r="39.3701" style=""/>
<circle cx="3435.04" cy="2285.43" r="39.3701" style=""/>
<circle cx="4192.91" cy="6062.99" r="42.9134" style=""/>
<circle cx="3992.91" cy="6062.99" r="42.9134" style=""/>
<circle cx="3792.91" cy="6062.99" r="42.9134" style=""/>
<circle cx="3592.91" cy="6062.99" r="42.9134" style=""/>
<circle cx="3392.91" cy="6062.99" r="42.9134" style=""/>
<circle cx="3192.91" cy="6062.99" r="42.9134" style=""/>
<circle cx="2992.91" cy="6062.99" r="42.9134" style=""/>
<circle cx="2792.91" cy="6062.99" r="42.9134" style=""/>
<circle cx="2592.91" cy="6062.99" r="42.9134" style=""/>
<circle cx="2392.91" cy="6062.99" r="42.9134" style=""/>
<circle cx="2192.91" cy="6062.99" r="42.9134" style=""/>
<circle cx="1992.91" cy="6062.99" r="42.9134" style=""/>
<circle cx="1792.91" cy="6062.99" r="42.9134" style=""/>
<circle cx="1592.91" cy="6062.99" r="42.9134" style=""/>
<circle cx="1392.91" cy="6062.99" r="42.9134" style=""/>
<circle cx="1192.91" cy="6062.99" r="42.9134" style=""/>
<circle cx="992.913" cy="6062.99" r="42.9134" style=""/>
<circle cx="792.913" cy="6062.99" r="42.9134" style=""/>
<circle cx="592.913" cy="6062.99" r="42.9134" style=""/>
<circle cx="590.551" cy="3385.83" r="42.9134" style=""/>
<circle cx="790.551" cy="3385.83" r="42.9134" style=""/>
<circle cx="990.551" cy="3385.83" r="42.9134" style=""/>
<circle cx="1190.55" cy="3385.83" r="42.9134" style=""/>
<circle cx="1390.55" cy="3385.83" r="42.9134" style=""/>
<circle cx="1590.55" cy="3385.83" r="42.9134" style=""/>
<circle cx="1790.55" cy="3385.83" r="42.9134" style=""/>
<circle cx="1990.55" cy="3385.83" r="42.9134" style=""/>
<circle cx="2190.55" cy="3385.83" r="42.9134" style=""/>
<circle cx="2390.55" cy="3385.83" r="42.9134" style=""/>
<circle cx="2590.55" cy="3385.83" r="42.9134" style=""/>
<circle cx="2790.55" cy="3385.83" r="42.9134" style=""/>
<circle cx="2990.55" cy="3385.83" r="42.9134" style=""/>
<circle cx="3190.55" cy="3385.83" r="42.9134" style=""/>
<circle cx="3390.55" cy="3385.83" r="42.9134" style=""/>
<circle cx="3590.55" cy="3385.83" r="42.9134" style=""/>
<circle cx="3790.55" cy="3385.83" r="42.9134" style=""/>
<circle cx="3990.55" cy="3385.83" r="42.9134" style=""/>
<circle cx="4190.55" cy="3385.83" r="42.9134" style=""/>
<circle cx="2834.65" cy="708.661" r="43.3071" style=""/>
<circle cx="2834.65" cy="508.661" r="43.3071" style=""/>
<circle cx="2834.65" cy="308.661" r="43.3071" style=""/>
<circle cx="3737.01" cy="1417.32" r="46.8504" style=""/>
<circle cx="3937.01" cy="1417.32" r="46.8504" style=""/>
<circle cx="3585.83" cy="314.961" r="46.8504" style=""/>
<circle cx="3385.83" cy="314.961" r="46.8504" style=""/>
<circle cx="3185.83" cy="314.961" r="46.8504" style=""/>
<circle cx="472.441" cy="551.181" r="46.8504" style=""/>
<circle cx="272.441" cy="551.181" r="46.8504" style=""/>
<circle cx="2922.83" cy="1496.06" r="62.9921" style=""/>
<circle cx="1722.83" cy="1496.06" r="62.9921" style=""/>
<circle cx="1181.1" cy="1486.61" r="62.9921" style=""/>
<circle cx="1181.1" cy="2686.61" r="62.9921" style=""/>
</svg>
