M48
; DRILL file {KiCad 8.0.8-8.0.8-0~ubuntu22.04.1} date 2025-02-12T20:37:56+0100
; FORMAT={-:-/ absolute / metric / decimal}
; #@! TF.CreationDate,2025-02-12T20:37:56+01:00
; #@! TF.GenerationSoftware,Kicad,Pcbnew,8.0.8-8.0.8-0~ubuntu22.04.1
; #@! TF.FileFunction,Plated,1,2,PTH
FMAT,2
METRIC
; #@! TA.AperFunction,Plated,PTH,ComponentDrill
T1C0.800
; #@! TA.AperFunction,Plated,PTH,ComponentDrill
T2C1.100
%
G90
G05
T1
X98.555Y-92.35
X101.095Y-92.35
X101.295Y-70.75
X101.295Y-73.29
X101.295Y-75.83
X101.295Y-78.37
X101.295Y-80.91
X101.295Y-83.45
X101.295Y-85.99
X101.295Y-88.53
X101.475Y-66.35
X103.635Y-92.35
X104.015Y-66.35
X106.175Y-92.35
X106.555Y-66.35
X108.715Y-92.35
X108.915Y-70.75
X108.915Y-73.29
X108.915Y-75.83
X108.915Y-78.37
X108.915Y-80.91
X108.915Y-83.45
X108.915Y-85.99
X108.915Y-88.53
X109.095Y-66.35
X111.635Y-66.35
X116.555Y-92.35
X118.935Y-66.35
X119.095Y-92.35
X119.295Y-70.75
X119.295Y-73.29
X119.295Y-75.83
X119.295Y-78.37
X119.295Y-80.91
X119.295Y-83.45
X119.295Y-85.99
X119.295Y-88.53
X121.475Y-66.35
X121.635Y-92.35
X123.285Y-96.35
X124.015Y-66.35
X124.175Y-92.35
X126.555Y-66.35
X126.715Y-92.35
X126.915Y-70.75
X126.915Y-73.29
X126.915Y-75.83
X126.915Y-78.37
X126.915Y-80.91
X126.915Y-83.45
X126.915Y-85.99
X126.915Y-88.53
X129.095Y-66.35
X130.905Y-96.35
X135.395Y-66.35
X135.995Y-92.35
X137.935Y-66.35
X138.095Y-70.75
X138.095Y-73.29
X138.095Y-75.83
X138.095Y-78.37
X138.095Y-80.91
X138.095Y-83.45
X138.095Y-85.99
X138.095Y-88.53
X138.295Y-96.075
X138.295Y-98.615
X138.535Y-92.35
X140.475Y-66.35
X141.075Y-92.35
X143.015Y-66.35
X143.615Y-92.35
X145.555Y-66.35
X145.715Y-70.75
X145.715Y-73.29
X145.715Y-75.83
X145.715Y-78.37
X145.715Y-80.91
X145.715Y-83.45
X145.715Y-85.99
X145.715Y-88.53
X145.915Y-96.075
X145.915Y-98.615
X146.155Y-92.35
X148.095Y-66.35
T2
X98.095Y-73.35
X98.095Y-78.35
X98.095Y-83.35
X98.095Y-88.35
X98.095Y-96.35
X112.035Y-73.29
X112.095Y-78.35
X112.095Y-83.35
X112.095Y-88.35
X116.095Y-73.35
X116.095Y-78.35
X116.095Y-83.35
X116.095Y-88.35
X119.095Y-96.35
X130.095Y-73.35
X130.095Y-78.35
X130.095Y-83.35
X130.095Y-88.35
X134.095Y-98.35
X135.095Y-73.35
X135.095Y-78.35
X135.095Y-83.35
X135.095Y-88.35
X149.095Y-73.35
X149.095Y-78.35
X149.095Y-83.35
X149.095Y-88.35
X149.095Y-98.35
X150.095Y-92.35
M30
