%TF.GenerationSoftware,KiCad,Pcbnew,8.0.8-8.0.8-0~ubuntu22.04.1*%
%TF.CreationDate,2025-02-12T20:38:04+01:00*%
%TF.ProjectId,Optocopler,4f70746f-636f-4706-9c65-722e6b696361,rev?*%
%TF.SameCoordinates,Original*%
%TF.FileFunction,Legend,Top*%
%TF.FilePolarity,Positive*%
%FSLAX46Y46*%
G04 Gerber Fmt 4.6, Leading zero omitted, Abs format (unit mm)*
G04 Created by KiCad (PCBNEW 8.0.8-8.0.8-0~ubuntu22.04.1) date 2025-02-12 20:38:04*
%MOMM*%
%LPD*%
G01*
G04 APERTURE LIST*
%ADD10C,0.150000*%
%ADD11C,0.120000*%
G04 APERTURE END LIST*
D10*
X148285476Y-95554819D02*
X148285476Y-96269104D01*
X148285476Y-96269104D02*
X148237857Y-96411961D01*
X148237857Y-96411961D02*
X148142619Y-96507200D01*
X148142619Y-96507200D02*
X147999762Y-96554819D01*
X147999762Y-96554819D02*
X147904524Y-96554819D01*
X148714048Y-95650057D02*
X148761667Y-95602438D01*
X148761667Y-95602438D02*
X148856905Y-95554819D01*
X148856905Y-95554819D02*
X149095000Y-95554819D01*
X149095000Y-95554819D02*
X149190238Y-95602438D01*
X149190238Y-95602438D02*
X149237857Y-95650057D01*
X149237857Y-95650057D02*
X149285476Y-95745295D01*
X149285476Y-95745295D02*
X149285476Y-95840533D01*
X149285476Y-95840533D02*
X149237857Y-95983390D01*
X149237857Y-95983390D02*
X148666429Y-96554819D01*
X148666429Y-96554819D02*
X149285476Y-96554819D01*
X150142619Y-95888152D02*
X150142619Y-96554819D01*
X149904524Y-95507200D02*
X149666429Y-96221485D01*
X149666429Y-96221485D02*
X150285476Y-96221485D01*
X129285476Y-75554819D02*
X129285476Y-76269104D01*
X129285476Y-76269104D02*
X129237857Y-76411961D01*
X129237857Y-76411961D02*
X129142619Y-76507200D01*
X129142619Y-76507200D02*
X128999762Y-76554819D01*
X128999762Y-76554819D02*
X128904524Y-76554819D01*
X130285476Y-76554819D02*
X129714048Y-76554819D01*
X129999762Y-76554819D02*
X129999762Y-75554819D01*
X129999762Y-75554819D02*
X129904524Y-75697676D01*
X129904524Y-75697676D02*
X129809286Y-75792914D01*
X129809286Y-75792914D02*
X129714048Y-75840533D01*
X130618810Y-75554819D02*
X131285476Y-75554819D01*
X131285476Y-75554819D02*
X130856905Y-76554819D01*
X129285476Y-70554819D02*
X129285476Y-71269104D01*
X129285476Y-71269104D02*
X129237857Y-71411961D01*
X129237857Y-71411961D02*
X129142619Y-71507200D01*
X129142619Y-71507200D02*
X128999762Y-71554819D01*
X128999762Y-71554819D02*
X128904524Y-71554819D01*
X130285476Y-71554819D02*
X129714048Y-71554819D01*
X129999762Y-71554819D02*
X129999762Y-70554819D01*
X129999762Y-70554819D02*
X129904524Y-70697676D01*
X129904524Y-70697676D02*
X129809286Y-70792914D01*
X129809286Y-70792914D02*
X129714048Y-70840533D01*
X130856905Y-70983390D02*
X130761667Y-70935771D01*
X130761667Y-70935771D02*
X130714048Y-70888152D01*
X130714048Y-70888152D02*
X130666429Y-70792914D01*
X130666429Y-70792914D02*
X130666429Y-70745295D01*
X130666429Y-70745295D02*
X130714048Y-70650057D01*
X130714048Y-70650057D02*
X130761667Y-70602438D01*
X130761667Y-70602438D02*
X130856905Y-70554819D01*
X130856905Y-70554819D02*
X131047381Y-70554819D01*
X131047381Y-70554819D02*
X131142619Y-70602438D01*
X131142619Y-70602438D02*
X131190238Y-70650057D01*
X131190238Y-70650057D02*
X131237857Y-70745295D01*
X131237857Y-70745295D02*
X131237857Y-70792914D01*
X131237857Y-70792914D02*
X131190238Y-70888152D01*
X131190238Y-70888152D02*
X131142619Y-70935771D01*
X131142619Y-70935771D02*
X131047381Y-70983390D01*
X131047381Y-70983390D02*
X130856905Y-70983390D01*
X130856905Y-70983390D02*
X130761667Y-71031009D01*
X130761667Y-71031009D02*
X130714048Y-71078628D01*
X130714048Y-71078628D02*
X130666429Y-71173866D01*
X130666429Y-71173866D02*
X130666429Y-71364342D01*
X130666429Y-71364342D02*
X130714048Y-71459580D01*
X130714048Y-71459580D02*
X130761667Y-71507200D01*
X130761667Y-71507200D02*
X130856905Y-71554819D01*
X130856905Y-71554819D02*
X131047381Y-71554819D01*
X131047381Y-71554819D02*
X131142619Y-71507200D01*
X131142619Y-71507200D02*
X131190238Y-71459580D01*
X131190238Y-71459580D02*
X131237857Y-71364342D01*
X131237857Y-71364342D02*
X131237857Y-71173866D01*
X131237857Y-71173866D02*
X131190238Y-71078628D01*
X131190238Y-71078628D02*
X131142619Y-71031009D01*
X131142619Y-71031009D02*
X131047381Y-70983390D01*
X129285476Y-80554819D02*
X129285476Y-81269104D01*
X129285476Y-81269104D02*
X129237857Y-81411961D01*
X129237857Y-81411961D02*
X129142619Y-81507200D01*
X129142619Y-81507200D02*
X128999762Y-81554819D01*
X128999762Y-81554819D02*
X128904524Y-81554819D01*
X130285476Y-81554819D02*
X129714048Y-81554819D01*
X129999762Y-81554819D02*
X129999762Y-80554819D01*
X129999762Y-80554819D02*
X129904524Y-80697676D01*
X129904524Y-80697676D02*
X129809286Y-80792914D01*
X129809286Y-80792914D02*
X129714048Y-80840533D01*
X131142619Y-80554819D02*
X130952143Y-80554819D01*
X130952143Y-80554819D02*
X130856905Y-80602438D01*
X130856905Y-80602438D02*
X130809286Y-80650057D01*
X130809286Y-80650057D02*
X130714048Y-80792914D01*
X130714048Y-80792914D02*
X130666429Y-80983390D01*
X130666429Y-80983390D02*
X130666429Y-81364342D01*
X130666429Y-81364342D02*
X130714048Y-81459580D01*
X130714048Y-81459580D02*
X130761667Y-81507200D01*
X130761667Y-81507200D02*
X130856905Y-81554819D01*
X130856905Y-81554819D02*
X131047381Y-81554819D01*
X131047381Y-81554819D02*
X131142619Y-81507200D01*
X131142619Y-81507200D02*
X131190238Y-81459580D01*
X131190238Y-81459580D02*
X131237857Y-81364342D01*
X131237857Y-81364342D02*
X131237857Y-81126247D01*
X131237857Y-81126247D02*
X131190238Y-81031009D01*
X131190238Y-81031009D02*
X131142619Y-80983390D01*
X131142619Y-80983390D02*
X131047381Y-80935771D01*
X131047381Y-80935771D02*
X130856905Y-80935771D01*
X130856905Y-80935771D02*
X130761667Y-80983390D01*
X130761667Y-80983390D02*
X130714048Y-81031009D01*
X130714048Y-81031009D02*
X130666429Y-81126247D01*
X129285476Y-85554819D02*
X129285476Y-86269104D01*
X129285476Y-86269104D02*
X129237857Y-86411961D01*
X129237857Y-86411961D02*
X129142619Y-86507200D01*
X129142619Y-86507200D02*
X128999762Y-86554819D01*
X128999762Y-86554819D02*
X128904524Y-86554819D01*
X130285476Y-86554819D02*
X129714048Y-86554819D01*
X129999762Y-86554819D02*
X129999762Y-85554819D01*
X129999762Y-85554819D02*
X129904524Y-85697676D01*
X129904524Y-85697676D02*
X129809286Y-85792914D01*
X129809286Y-85792914D02*
X129714048Y-85840533D01*
X131190238Y-85554819D02*
X130714048Y-85554819D01*
X130714048Y-85554819D02*
X130666429Y-86031009D01*
X130666429Y-86031009D02*
X130714048Y-85983390D01*
X130714048Y-85983390D02*
X130809286Y-85935771D01*
X130809286Y-85935771D02*
X131047381Y-85935771D01*
X131047381Y-85935771D02*
X131142619Y-85983390D01*
X131142619Y-85983390D02*
X131190238Y-86031009D01*
X131190238Y-86031009D02*
X131237857Y-86126247D01*
X131237857Y-86126247D02*
X131237857Y-86364342D01*
X131237857Y-86364342D02*
X131190238Y-86459580D01*
X131190238Y-86459580D02*
X131142619Y-86507200D01*
X131142619Y-86507200D02*
X131047381Y-86554819D01*
X131047381Y-86554819D02*
X130809286Y-86554819D01*
X130809286Y-86554819D02*
X130714048Y-86507200D01*
X130714048Y-86507200D02*
X130666429Y-86459580D01*
X115285476Y-70554819D02*
X115285476Y-71269104D01*
X115285476Y-71269104D02*
X115237857Y-71411961D01*
X115237857Y-71411961D02*
X115142619Y-71507200D01*
X115142619Y-71507200D02*
X114999762Y-71554819D01*
X114999762Y-71554819D02*
X114904524Y-71554819D01*
X116285476Y-71554819D02*
X115714048Y-71554819D01*
X115999762Y-71554819D02*
X115999762Y-70554819D01*
X115999762Y-70554819D02*
X115904524Y-70697676D01*
X115904524Y-70697676D02*
X115809286Y-70792914D01*
X115809286Y-70792914D02*
X115714048Y-70840533D01*
X116618810Y-70554819D02*
X117237857Y-70554819D01*
X117237857Y-70554819D02*
X116904524Y-70935771D01*
X116904524Y-70935771D02*
X117047381Y-70935771D01*
X117047381Y-70935771D02*
X117142619Y-70983390D01*
X117142619Y-70983390D02*
X117190238Y-71031009D01*
X117190238Y-71031009D02*
X117237857Y-71126247D01*
X117237857Y-71126247D02*
X117237857Y-71364342D01*
X117237857Y-71364342D02*
X117190238Y-71459580D01*
X117190238Y-71459580D02*
X117142619Y-71507200D01*
X117142619Y-71507200D02*
X117047381Y-71554819D01*
X117047381Y-71554819D02*
X116761667Y-71554819D01*
X116761667Y-71554819D02*
X116666429Y-71507200D01*
X116666429Y-71507200D02*
X116618810Y-71459580D01*
X97761666Y-75554819D02*
X97761666Y-76269104D01*
X97761666Y-76269104D02*
X97714047Y-76411961D01*
X97714047Y-76411961D02*
X97618809Y-76507200D01*
X97618809Y-76507200D02*
X97475952Y-76554819D01*
X97475952Y-76554819D02*
X97380714Y-76554819D01*
X98666428Y-75888152D02*
X98666428Y-76554819D01*
X98428333Y-75507200D02*
X98190238Y-76221485D01*
X98190238Y-76221485D02*
X98809285Y-76221485D01*
X97761666Y-85554819D02*
X97761666Y-86269104D01*
X97761666Y-86269104D02*
X97714047Y-86411961D01*
X97714047Y-86411961D02*
X97618809Y-86507200D01*
X97618809Y-86507200D02*
X97475952Y-86554819D01*
X97475952Y-86554819D02*
X97380714Y-86554819D01*
X98190238Y-85650057D02*
X98237857Y-85602438D01*
X98237857Y-85602438D02*
X98333095Y-85554819D01*
X98333095Y-85554819D02*
X98571190Y-85554819D01*
X98571190Y-85554819D02*
X98666428Y-85602438D01*
X98666428Y-85602438D02*
X98714047Y-85650057D01*
X98714047Y-85650057D02*
X98761666Y-85745295D01*
X98761666Y-85745295D02*
X98761666Y-85840533D01*
X98761666Y-85840533D02*
X98714047Y-85983390D01*
X98714047Y-85983390D02*
X98142619Y-86554819D01*
X98142619Y-86554819D02*
X98761666Y-86554819D01*
X115285476Y-80554819D02*
X115285476Y-81269104D01*
X115285476Y-81269104D02*
X115237857Y-81411961D01*
X115237857Y-81411961D02*
X115142619Y-81507200D01*
X115142619Y-81507200D02*
X114999762Y-81554819D01*
X114999762Y-81554819D02*
X114904524Y-81554819D01*
X116285476Y-81554819D02*
X115714048Y-81554819D01*
X115999762Y-81554819D02*
X115999762Y-80554819D01*
X115999762Y-80554819D02*
X115904524Y-80697676D01*
X115904524Y-80697676D02*
X115809286Y-80792914D01*
X115809286Y-80792914D02*
X115714048Y-80840533D01*
X117237857Y-81554819D02*
X116666429Y-81554819D01*
X116952143Y-81554819D02*
X116952143Y-80554819D01*
X116952143Y-80554819D02*
X116856905Y-80697676D01*
X116856905Y-80697676D02*
X116761667Y-80792914D01*
X116761667Y-80792914D02*
X116666429Y-80840533D01*
X111761666Y-75554819D02*
X111761666Y-76269104D01*
X111761666Y-76269104D02*
X111714047Y-76411961D01*
X111714047Y-76411961D02*
X111618809Y-76507200D01*
X111618809Y-76507200D02*
X111475952Y-76554819D01*
X111475952Y-76554819D02*
X111380714Y-76554819D01*
X112380714Y-75983390D02*
X112285476Y-75935771D01*
X112285476Y-75935771D02*
X112237857Y-75888152D01*
X112237857Y-75888152D02*
X112190238Y-75792914D01*
X112190238Y-75792914D02*
X112190238Y-75745295D01*
X112190238Y-75745295D02*
X112237857Y-75650057D01*
X112237857Y-75650057D02*
X112285476Y-75602438D01*
X112285476Y-75602438D02*
X112380714Y-75554819D01*
X112380714Y-75554819D02*
X112571190Y-75554819D01*
X112571190Y-75554819D02*
X112666428Y-75602438D01*
X112666428Y-75602438D02*
X112714047Y-75650057D01*
X112714047Y-75650057D02*
X112761666Y-75745295D01*
X112761666Y-75745295D02*
X112761666Y-75792914D01*
X112761666Y-75792914D02*
X112714047Y-75888152D01*
X112714047Y-75888152D02*
X112666428Y-75935771D01*
X112666428Y-75935771D02*
X112571190Y-75983390D01*
X112571190Y-75983390D02*
X112380714Y-75983390D01*
X112380714Y-75983390D02*
X112285476Y-76031009D01*
X112285476Y-76031009D02*
X112237857Y-76078628D01*
X112237857Y-76078628D02*
X112190238Y-76173866D01*
X112190238Y-76173866D02*
X112190238Y-76364342D01*
X112190238Y-76364342D02*
X112237857Y-76459580D01*
X112237857Y-76459580D02*
X112285476Y-76507200D01*
X112285476Y-76507200D02*
X112380714Y-76554819D01*
X112380714Y-76554819D02*
X112571190Y-76554819D01*
X112571190Y-76554819D02*
X112666428Y-76507200D01*
X112666428Y-76507200D02*
X112714047Y-76459580D01*
X112714047Y-76459580D02*
X112761666Y-76364342D01*
X112761666Y-76364342D02*
X112761666Y-76173866D01*
X112761666Y-76173866D02*
X112714047Y-76078628D01*
X112714047Y-76078628D02*
X112666428Y-76031009D01*
X112666428Y-76031009D02*
X112571190Y-75983390D01*
X148285476Y-80554819D02*
X148285476Y-81269104D01*
X148285476Y-81269104D02*
X148237857Y-81411961D01*
X148237857Y-81411961D02*
X148142619Y-81507200D01*
X148142619Y-81507200D02*
X147999762Y-81554819D01*
X147999762Y-81554819D02*
X147904524Y-81554819D01*
X148714048Y-80650057D02*
X148761667Y-80602438D01*
X148761667Y-80602438D02*
X148856905Y-80554819D01*
X148856905Y-80554819D02*
X149095000Y-80554819D01*
X149095000Y-80554819D02*
X149190238Y-80602438D01*
X149190238Y-80602438D02*
X149237857Y-80650057D01*
X149237857Y-80650057D02*
X149285476Y-80745295D01*
X149285476Y-80745295D02*
X149285476Y-80840533D01*
X149285476Y-80840533D02*
X149237857Y-80983390D01*
X149237857Y-80983390D02*
X148666429Y-81554819D01*
X148666429Y-81554819D02*
X149285476Y-81554819D01*
X149618810Y-80554819D02*
X150285476Y-80554819D01*
X150285476Y-80554819D02*
X149856905Y-81554819D01*
X97404523Y-66804819D02*
X97071190Y-66328628D01*
X96833095Y-66804819D02*
X96833095Y-65804819D01*
X96833095Y-65804819D02*
X97214047Y-65804819D01*
X97214047Y-65804819D02*
X97309285Y-65852438D01*
X97309285Y-65852438D02*
X97356904Y-65900057D01*
X97356904Y-65900057D02*
X97404523Y-65995295D01*
X97404523Y-65995295D02*
X97404523Y-66138152D01*
X97404523Y-66138152D02*
X97356904Y-66233390D01*
X97356904Y-66233390D02*
X97309285Y-66281009D01*
X97309285Y-66281009D02*
X97214047Y-66328628D01*
X97214047Y-66328628D02*
X96833095Y-66328628D01*
X97833095Y-66804819D02*
X97833095Y-65804819D01*
X97833095Y-65804819D02*
X98404523Y-66804819D01*
X98404523Y-66804819D02*
X98404523Y-65804819D01*
X99309285Y-66138152D02*
X99309285Y-66804819D01*
X99071190Y-65757200D02*
X98833095Y-66471485D01*
X98833095Y-66471485D02*
X99452142Y-66471485D01*
X102404523Y-95804819D02*
X102071190Y-95328628D01*
X101833095Y-95804819D02*
X101833095Y-94804819D01*
X101833095Y-94804819D02*
X102214047Y-94804819D01*
X102214047Y-94804819D02*
X102309285Y-94852438D01*
X102309285Y-94852438D02*
X102356904Y-94900057D01*
X102356904Y-94900057D02*
X102404523Y-94995295D01*
X102404523Y-94995295D02*
X102404523Y-95138152D01*
X102404523Y-95138152D02*
X102356904Y-95233390D01*
X102356904Y-95233390D02*
X102309285Y-95281009D01*
X102309285Y-95281009D02*
X102214047Y-95328628D01*
X102214047Y-95328628D02*
X101833095Y-95328628D01*
X102833095Y-95804819D02*
X102833095Y-94804819D01*
X102833095Y-94804819D02*
X103404523Y-95804819D01*
X103404523Y-95804819D02*
X103404523Y-94804819D01*
X104404523Y-95804819D02*
X103833095Y-95804819D01*
X104118809Y-95804819D02*
X104118809Y-94804819D01*
X104118809Y-94804819D02*
X104023571Y-94947676D01*
X104023571Y-94947676D02*
X103928333Y-95042914D01*
X103928333Y-95042914D02*
X103833095Y-95090533D01*
X134285476Y-80554819D02*
X134285476Y-81269104D01*
X134285476Y-81269104D02*
X134237857Y-81411961D01*
X134237857Y-81411961D02*
X134142619Y-81507200D01*
X134142619Y-81507200D02*
X133999762Y-81554819D01*
X133999762Y-81554819D02*
X133904524Y-81554819D01*
X134714048Y-80650057D02*
X134761667Y-80602438D01*
X134761667Y-80602438D02*
X134856905Y-80554819D01*
X134856905Y-80554819D02*
X135095000Y-80554819D01*
X135095000Y-80554819D02*
X135190238Y-80602438D01*
X135190238Y-80602438D02*
X135237857Y-80650057D01*
X135237857Y-80650057D02*
X135285476Y-80745295D01*
X135285476Y-80745295D02*
X135285476Y-80840533D01*
X135285476Y-80840533D02*
X135237857Y-80983390D01*
X135237857Y-80983390D02*
X134666429Y-81554819D01*
X134666429Y-81554819D02*
X135285476Y-81554819D01*
X136237857Y-81554819D02*
X135666429Y-81554819D01*
X135952143Y-81554819D02*
X135952143Y-80554819D01*
X135952143Y-80554819D02*
X135856905Y-80697676D01*
X135856905Y-80697676D02*
X135761667Y-80792914D01*
X135761667Y-80792914D02*
X135666429Y-80840533D01*
X111761666Y-85554819D02*
X111761666Y-86269104D01*
X111761666Y-86269104D02*
X111714047Y-86411961D01*
X111714047Y-86411961D02*
X111618809Y-86507200D01*
X111618809Y-86507200D02*
X111475952Y-86554819D01*
X111475952Y-86554819D02*
X111380714Y-86554819D01*
X112666428Y-85554819D02*
X112475952Y-85554819D01*
X112475952Y-85554819D02*
X112380714Y-85602438D01*
X112380714Y-85602438D02*
X112333095Y-85650057D01*
X112333095Y-85650057D02*
X112237857Y-85792914D01*
X112237857Y-85792914D02*
X112190238Y-85983390D01*
X112190238Y-85983390D02*
X112190238Y-86364342D01*
X112190238Y-86364342D02*
X112237857Y-86459580D01*
X112237857Y-86459580D02*
X112285476Y-86507200D01*
X112285476Y-86507200D02*
X112380714Y-86554819D01*
X112380714Y-86554819D02*
X112571190Y-86554819D01*
X112571190Y-86554819D02*
X112666428Y-86507200D01*
X112666428Y-86507200D02*
X112714047Y-86459580D01*
X112714047Y-86459580D02*
X112761666Y-86364342D01*
X112761666Y-86364342D02*
X112761666Y-86126247D01*
X112761666Y-86126247D02*
X112714047Y-86031009D01*
X112714047Y-86031009D02*
X112666428Y-85983390D01*
X112666428Y-85983390D02*
X112571190Y-85935771D01*
X112571190Y-85935771D02*
X112380714Y-85935771D01*
X112380714Y-85935771D02*
X112285476Y-85983390D01*
X112285476Y-85983390D02*
X112237857Y-86031009D01*
X112237857Y-86031009D02*
X112190238Y-86126247D01*
X111761666Y-80554819D02*
X111761666Y-81269104D01*
X111761666Y-81269104D02*
X111714047Y-81411961D01*
X111714047Y-81411961D02*
X111618809Y-81507200D01*
X111618809Y-81507200D02*
X111475952Y-81554819D01*
X111475952Y-81554819D02*
X111380714Y-81554819D01*
X112142619Y-80554819D02*
X112809285Y-80554819D01*
X112809285Y-80554819D02*
X112380714Y-81554819D01*
X134285476Y-85554819D02*
X134285476Y-86269104D01*
X134285476Y-86269104D02*
X134237857Y-86411961D01*
X134237857Y-86411961D02*
X134142619Y-86507200D01*
X134142619Y-86507200D02*
X133999762Y-86554819D01*
X133999762Y-86554819D02*
X133904524Y-86554819D01*
X134714048Y-85650057D02*
X134761667Y-85602438D01*
X134761667Y-85602438D02*
X134856905Y-85554819D01*
X134856905Y-85554819D02*
X135095000Y-85554819D01*
X135095000Y-85554819D02*
X135190238Y-85602438D01*
X135190238Y-85602438D02*
X135237857Y-85650057D01*
X135237857Y-85650057D02*
X135285476Y-85745295D01*
X135285476Y-85745295D02*
X135285476Y-85840533D01*
X135285476Y-85840533D02*
X135237857Y-85983390D01*
X135237857Y-85983390D02*
X134666429Y-86554819D01*
X134666429Y-86554819D02*
X135285476Y-86554819D01*
X135904524Y-85554819D02*
X135999762Y-85554819D01*
X135999762Y-85554819D02*
X136095000Y-85602438D01*
X136095000Y-85602438D02*
X136142619Y-85650057D01*
X136142619Y-85650057D02*
X136190238Y-85745295D01*
X136190238Y-85745295D02*
X136237857Y-85935771D01*
X136237857Y-85935771D02*
X136237857Y-86173866D01*
X136237857Y-86173866D02*
X136190238Y-86364342D01*
X136190238Y-86364342D02*
X136142619Y-86459580D01*
X136142619Y-86459580D02*
X136095000Y-86507200D01*
X136095000Y-86507200D02*
X135999762Y-86554819D01*
X135999762Y-86554819D02*
X135904524Y-86554819D01*
X135904524Y-86554819D02*
X135809286Y-86507200D01*
X135809286Y-86507200D02*
X135761667Y-86459580D01*
X135761667Y-86459580D02*
X135714048Y-86364342D01*
X135714048Y-86364342D02*
X135666429Y-86173866D01*
X135666429Y-86173866D02*
X135666429Y-85935771D01*
X135666429Y-85935771D02*
X135714048Y-85745295D01*
X135714048Y-85745295D02*
X135761667Y-85650057D01*
X135761667Y-85650057D02*
X135809286Y-85602438D01*
X135809286Y-85602438D02*
X135904524Y-85554819D01*
X133285476Y-95554819D02*
X133285476Y-96269104D01*
X133285476Y-96269104D02*
X133237857Y-96411961D01*
X133237857Y-96411961D02*
X133142619Y-96507200D01*
X133142619Y-96507200D02*
X132999762Y-96554819D01*
X132999762Y-96554819D02*
X132904524Y-96554819D01*
X134285476Y-96554819D02*
X133714048Y-96554819D01*
X133999762Y-96554819D02*
X133999762Y-95554819D01*
X133999762Y-95554819D02*
X133904524Y-95697676D01*
X133904524Y-95697676D02*
X133809286Y-95792914D01*
X133809286Y-95792914D02*
X133714048Y-95840533D01*
X134761667Y-96554819D02*
X134952143Y-96554819D01*
X134952143Y-96554819D02*
X135047381Y-96507200D01*
X135047381Y-96507200D02*
X135095000Y-96459580D01*
X135095000Y-96459580D02*
X135190238Y-96316723D01*
X135190238Y-96316723D02*
X135237857Y-96126247D01*
X135237857Y-96126247D02*
X135237857Y-95745295D01*
X135237857Y-95745295D02*
X135190238Y-95650057D01*
X135190238Y-95650057D02*
X135142619Y-95602438D01*
X135142619Y-95602438D02*
X135047381Y-95554819D01*
X135047381Y-95554819D02*
X134856905Y-95554819D01*
X134856905Y-95554819D02*
X134761667Y-95602438D01*
X134761667Y-95602438D02*
X134714048Y-95650057D01*
X134714048Y-95650057D02*
X134666429Y-95745295D01*
X134666429Y-95745295D02*
X134666429Y-95983390D01*
X134666429Y-95983390D02*
X134714048Y-96078628D01*
X134714048Y-96078628D02*
X134761667Y-96126247D01*
X134761667Y-96126247D02*
X134856905Y-96173866D01*
X134856905Y-96173866D02*
X135047381Y-96173866D01*
X135047381Y-96173866D02*
X135142619Y-96126247D01*
X135142619Y-96126247D02*
X135190238Y-96078628D01*
X135190238Y-96078628D02*
X135237857Y-95983390D01*
X141333095Y-96804819D02*
X141333095Y-97614342D01*
X141333095Y-97614342D02*
X141380714Y-97709580D01*
X141380714Y-97709580D02*
X141428333Y-97757200D01*
X141428333Y-97757200D02*
X141523571Y-97804819D01*
X141523571Y-97804819D02*
X141714047Y-97804819D01*
X141714047Y-97804819D02*
X141809285Y-97757200D01*
X141809285Y-97757200D02*
X141856904Y-97709580D01*
X141856904Y-97709580D02*
X141904523Y-97614342D01*
X141904523Y-97614342D02*
X141904523Y-96804819D01*
X142856904Y-96804819D02*
X142380714Y-96804819D01*
X142380714Y-96804819D02*
X142333095Y-97281009D01*
X142333095Y-97281009D02*
X142380714Y-97233390D01*
X142380714Y-97233390D02*
X142475952Y-97185771D01*
X142475952Y-97185771D02*
X142714047Y-97185771D01*
X142714047Y-97185771D02*
X142809285Y-97233390D01*
X142809285Y-97233390D02*
X142856904Y-97281009D01*
X142856904Y-97281009D02*
X142904523Y-97376247D01*
X142904523Y-97376247D02*
X142904523Y-97614342D01*
X142904523Y-97614342D02*
X142856904Y-97709580D01*
X142856904Y-97709580D02*
X142809285Y-97757200D01*
X142809285Y-97757200D02*
X142714047Y-97804819D01*
X142714047Y-97804819D02*
X142475952Y-97804819D01*
X142475952Y-97804819D02*
X142380714Y-97757200D01*
X142380714Y-97757200D02*
X142333095Y-97709580D01*
X97761666Y-98804819D02*
X97761666Y-99519104D01*
X97761666Y-99519104D02*
X97714047Y-99661961D01*
X97714047Y-99661961D02*
X97618809Y-99757200D01*
X97618809Y-99757200D02*
X97475952Y-99804819D01*
X97475952Y-99804819D02*
X97380714Y-99804819D01*
X98761666Y-99804819D02*
X98190238Y-99804819D01*
X98475952Y-99804819D02*
X98475952Y-98804819D01*
X98475952Y-98804819D02*
X98380714Y-98947676D01*
X98380714Y-98947676D02*
X98285476Y-99042914D01*
X98285476Y-99042914D02*
X98190238Y-99090533D01*
X148285476Y-70554819D02*
X148285476Y-71269104D01*
X148285476Y-71269104D02*
X148237857Y-71411961D01*
X148237857Y-71411961D02*
X148142619Y-71507200D01*
X148142619Y-71507200D02*
X147999762Y-71554819D01*
X147999762Y-71554819D02*
X147904524Y-71554819D01*
X148714048Y-70650057D02*
X148761667Y-70602438D01*
X148761667Y-70602438D02*
X148856905Y-70554819D01*
X148856905Y-70554819D02*
X149095000Y-70554819D01*
X149095000Y-70554819D02*
X149190238Y-70602438D01*
X149190238Y-70602438D02*
X149237857Y-70650057D01*
X149237857Y-70650057D02*
X149285476Y-70745295D01*
X149285476Y-70745295D02*
X149285476Y-70840533D01*
X149285476Y-70840533D02*
X149237857Y-70983390D01*
X149237857Y-70983390D02*
X148666429Y-71554819D01*
X148666429Y-71554819D02*
X149285476Y-71554819D01*
X149761667Y-71554819D02*
X149952143Y-71554819D01*
X149952143Y-71554819D02*
X150047381Y-71507200D01*
X150047381Y-71507200D02*
X150095000Y-71459580D01*
X150095000Y-71459580D02*
X150190238Y-71316723D01*
X150190238Y-71316723D02*
X150237857Y-71126247D01*
X150237857Y-71126247D02*
X150237857Y-70745295D01*
X150237857Y-70745295D02*
X150190238Y-70650057D01*
X150190238Y-70650057D02*
X150142619Y-70602438D01*
X150142619Y-70602438D02*
X150047381Y-70554819D01*
X150047381Y-70554819D02*
X149856905Y-70554819D01*
X149856905Y-70554819D02*
X149761667Y-70602438D01*
X149761667Y-70602438D02*
X149714048Y-70650057D01*
X149714048Y-70650057D02*
X149666429Y-70745295D01*
X149666429Y-70745295D02*
X149666429Y-70983390D01*
X149666429Y-70983390D02*
X149714048Y-71078628D01*
X149714048Y-71078628D02*
X149761667Y-71126247D01*
X149761667Y-71126247D02*
X149856905Y-71173866D01*
X149856905Y-71173866D02*
X150047381Y-71173866D01*
X150047381Y-71173866D02*
X150142619Y-71126247D01*
X150142619Y-71126247D02*
X150190238Y-71078628D01*
X150190238Y-71078628D02*
X150237857Y-70983390D01*
X141143095Y-73804819D02*
X141143095Y-74614342D01*
X141143095Y-74614342D02*
X141190714Y-74709580D01*
X141190714Y-74709580D02*
X141238333Y-74757200D01*
X141238333Y-74757200D02*
X141333571Y-74804819D01*
X141333571Y-74804819D02*
X141524047Y-74804819D01*
X141524047Y-74804819D02*
X141619285Y-74757200D01*
X141619285Y-74757200D02*
X141666904Y-74709580D01*
X141666904Y-74709580D02*
X141714523Y-74614342D01*
X141714523Y-74614342D02*
X141714523Y-73804819D01*
X142619285Y-73804819D02*
X142428809Y-73804819D01*
X142428809Y-73804819D02*
X142333571Y-73852438D01*
X142333571Y-73852438D02*
X142285952Y-73900057D01*
X142285952Y-73900057D02*
X142190714Y-74042914D01*
X142190714Y-74042914D02*
X142143095Y-74233390D01*
X142143095Y-74233390D02*
X142143095Y-74614342D01*
X142143095Y-74614342D02*
X142190714Y-74709580D01*
X142190714Y-74709580D02*
X142238333Y-74757200D01*
X142238333Y-74757200D02*
X142333571Y-74804819D01*
X142333571Y-74804819D02*
X142524047Y-74804819D01*
X142524047Y-74804819D02*
X142619285Y-74757200D01*
X142619285Y-74757200D02*
X142666904Y-74709580D01*
X142666904Y-74709580D02*
X142714523Y-74614342D01*
X142714523Y-74614342D02*
X142714523Y-74376247D01*
X142714523Y-74376247D02*
X142666904Y-74281009D01*
X142666904Y-74281009D02*
X142619285Y-74233390D01*
X142619285Y-74233390D02*
X142524047Y-74185771D01*
X142524047Y-74185771D02*
X142333571Y-74185771D01*
X142333571Y-74185771D02*
X142238333Y-74233390D01*
X142238333Y-74233390D02*
X142190714Y-74281009D01*
X142190714Y-74281009D02*
X142143095Y-74376247D01*
X114404523Y-66804819D02*
X114071190Y-66328628D01*
X113833095Y-66804819D02*
X113833095Y-65804819D01*
X113833095Y-65804819D02*
X114214047Y-65804819D01*
X114214047Y-65804819D02*
X114309285Y-65852438D01*
X114309285Y-65852438D02*
X114356904Y-65900057D01*
X114356904Y-65900057D02*
X114404523Y-65995295D01*
X114404523Y-65995295D02*
X114404523Y-66138152D01*
X114404523Y-66138152D02*
X114356904Y-66233390D01*
X114356904Y-66233390D02*
X114309285Y-66281009D01*
X114309285Y-66281009D02*
X114214047Y-66328628D01*
X114214047Y-66328628D02*
X113833095Y-66328628D01*
X114833095Y-66804819D02*
X114833095Y-65804819D01*
X114833095Y-65804819D02*
X115404523Y-66804819D01*
X115404523Y-66804819D02*
X115404523Y-65804819D01*
X116309285Y-65804819D02*
X116118809Y-65804819D01*
X116118809Y-65804819D02*
X116023571Y-65852438D01*
X116023571Y-65852438D02*
X115975952Y-65900057D01*
X115975952Y-65900057D02*
X115880714Y-66042914D01*
X115880714Y-66042914D02*
X115833095Y-66233390D01*
X115833095Y-66233390D02*
X115833095Y-66614342D01*
X115833095Y-66614342D02*
X115880714Y-66709580D01*
X115880714Y-66709580D02*
X115928333Y-66757200D01*
X115928333Y-66757200D02*
X116023571Y-66804819D01*
X116023571Y-66804819D02*
X116214047Y-66804819D01*
X116214047Y-66804819D02*
X116309285Y-66757200D01*
X116309285Y-66757200D02*
X116356904Y-66709580D01*
X116356904Y-66709580D02*
X116404523Y-66614342D01*
X116404523Y-66614342D02*
X116404523Y-66376247D01*
X116404523Y-66376247D02*
X116356904Y-66281009D01*
X116356904Y-66281009D02*
X116309285Y-66233390D01*
X116309285Y-66233390D02*
X116214047Y-66185771D01*
X116214047Y-66185771D02*
X116023571Y-66185771D01*
X116023571Y-66185771D02*
X115928333Y-66233390D01*
X115928333Y-66233390D02*
X115880714Y-66281009D01*
X115880714Y-66281009D02*
X115833095Y-66376247D01*
X132404523Y-92804819D02*
X132071190Y-92328628D01*
X131833095Y-92804819D02*
X131833095Y-91804819D01*
X131833095Y-91804819D02*
X132214047Y-91804819D01*
X132214047Y-91804819D02*
X132309285Y-91852438D01*
X132309285Y-91852438D02*
X132356904Y-91900057D01*
X132356904Y-91900057D02*
X132404523Y-91995295D01*
X132404523Y-91995295D02*
X132404523Y-92138152D01*
X132404523Y-92138152D02*
X132356904Y-92233390D01*
X132356904Y-92233390D02*
X132309285Y-92281009D01*
X132309285Y-92281009D02*
X132214047Y-92328628D01*
X132214047Y-92328628D02*
X131833095Y-92328628D01*
X132833095Y-92804819D02*
X132833095Y-91804819D01*
X132833095Y-91804819D02*
X133404523Y-92804819D01*
X133404523Y-92804819D02*
X133404523Y-91804819D01*
X133785476Y-91804819D02*
X134404523Y-91804819D01*
X134404523Y-91804819D02*
X134071190Y-92185771D01*
X134071190Y-92185771D02*
X134214047Y-92185771D01*
X134214047Y-92185771D02*
X134309285Y-92233390D01*
X134309285Y-92233390D02*
X134356904Y-92281009D01*
X134356904Y-92281009D02*
X134404523Y-92376247D01*
X134404523Y-92376247D02*
X134404523Y-92614342D01*
X134404523Y-92614342D02*
X134356904Y-92709580D01*
X134356904Y-92709580D02*
X134309285Y-92757200D01*
X134309285Y-92757200D02*
X134214047Y-92804819D01*
X134214047Y-92804819D02*
X133928333Y-92804819D01*
X133928333Y-92804819D02*
X133833095Y-92757200D01*
X133833095Y-92757200D02*
X133785476Y-92709580D01*
X115285476Y-85554819D02*
X115285476Y-86269104D01*
X115285476Y-86269104D02*
X115237857Y-86411961D01*
X115237857Y-86411961D02*
X115142619Y-86507200D01*
X115142619Y-86507200D02*
X114999762Y-86554819D01*
X114999762Y-86554819D02*
X114904524Y-86554819D01*
X116285476Y-86554819D02*
X115714048Y-86554819D01*
X115999762Y-86554819D02*
X115999762Y-85554819D01*
X115999762Y-85554819D02*
X115904524Y-85697676D01*
X115904524Y-85697676D02*
X115809286Y-85792914D01*
X115809286Y-85792914D02*
X115714048Y-85840533D01*
X116904524Y-85554819D02*
X116999762Y-85554819D01*
X116999762Y-85554819D02*
X117095000Y-85602438D01*
X117095000Y-85602438D02*
X117142619Y-85650057D01*
X117142619Y-85650057D02*
X117190238Y-85745295D01*
X117190238Y-85745295D02*
X117237857Y-85935771D01*
X117237857Y-85935771D02*
X117237857Y-86173866D01*
X117237857Y-86173866D02*
X117190238Y-86364342D01*
X117190238Y-86364342D02*
X117142619Y-86459580D01*
X117142619Y-86459580D02*
X117095000Y-86507200D01*
X117095000Y-86507200D02*
X116999762Y-86554819D01*
X116999762Y-86554819D02*
X116904524Y-86554819D01*
X116904524Y-86554819D02*
X116809286Y-86507200D01*
X116809286Y-86507200D02*
X116761667Y-86459580D01*
X116761667Y-86459580D02*
X116714048Y-86364342D01*
X116714048Y-86364342D02*
X116666429Y-86173866D01*
X116666429Y-86173866D02*
X116666429Y-85935771D01*
X116666429Y-85935771D02*
X116714048Y-85745295D01*
X116714048Y-85745295D02*
X116761667Y-85650057D01*
X116761667Y-85650057D02*
X116809286Y-85602438D01*
X116809286Y-85602438D02*
X116904524Y-85554819D01*
X148285476Y-75554819D02*
X148285476Y-76269104D01*
X148285476Y-76269104D02*
X148237857Y-76411961D01*
X148237857Y-76411961D02*
X148142619Y-76507200D01*
X148142619Y-76507200D02*
X147999762Y-76554819D01*
X147999762Y-76554819D02*
X147904524Y-76554819D01*
X148714048Y-75650057D02*
X148761667Y-75602438D01*
X148761667Y-75602438D02*
X148856905Y-75554819D01*
X148856905Y-75554819D02*
X149095000Y-75554819D01*
X149095000Y-75554819D02*
X149190238Y-75602438D01*
X149190238Y-75602438D02*
X149237857Y-75650057D01*
X149237857Y-75650057D02*
X149285476Y-75745295D01*
X149285476Y-75745295D02*
X149285476Y-75840533D01*
X149285476Y-75840533D02*
X149237857Y-75983390D01*
X149237857Y-75983390D02*
X148666429Y-76554819D01*
X148666429Y-76554819D02*
X149285476Y-76554819D01*
X149856905Y-75983390D02*
X149761667Y-75935771D01*
X149761667Y-75935771D02*
X149714048Y-75888152D01*
X149714048Y-75888152D02*
X149666429Y-75792914D01*
X149666429Y-75792914D02*
X149666429Y-75745295D01*
X149666429Y-75745295D02*
X149714048Y-75650057D01*
X149714048Y-75650057D02*
X149761667Y-75602438D01*
X149761667Y-75602438D02*
X149856905Y-75554819D01*
X149856905Y-75554819D02*
X150047381Y-75554819D01*
X150047381Y-75554819D02*
X150142619Y-75602438D01*
X150142619Y-75602438D02*
X150190238Y-75650057D01*
X150190238Y-75650057D02*
X150237857Y-75745295D01*
X150237857Y-75745295D02*
X150237857Y-75792914D01*
X150237857Y-75792914D02*
X150190238Y-75888152D01*
X150190238Y-75888152D02*
X150142619Y-75935771D01*
X150142619Y-75935771D02*
X150047381Y-75983390D01*
X150047381Y-75983390D02*
X149856905Y-75983390D01*
X149856905Y-75983390D02*
X149761667Y-76031009D01*
X149761667Y-76031009D02*
X149714048Y-76078628D01*
X149714048Y-76078628D02*
X149666429Y-76173866D01*
X149666429Y-76173866D02*
X149666429Y-76364342D01*
X149666429Y-76364342D02*
X149714048Y-76459580D01*
X149714048Y-76459580D02*
X149761667Y-76507200D01*
X149761667Y-76507200D02*
X149856905Y-76554819D01*
X149856905Y-76554819D02*
X150047381Y-76554819D01*
X150047381Y-76554819D02*
X150142619Y-76507200D01*
X150142619Y-76507200D02*
X150190238Y-76459580D01*
X150190238Y-76459580D02*
X150237857Y-76364342D01*
X150237857Y-76364342D02*
X150237857Y-76173866D01*
X150237857Y-76173866D02*
X150190238Y-76078628D01*
X150190238Y-76078628D02*
X150142619Y-76031009D01*
X150142619Y-76031009D02*
X150047381Y-75983390D01*
X149285476Y-89554819D02*
X149285476Y-90269104D01*
X149285476Y-90269104D02*
X149237857Y-90411961D01*
X149237857Y-90411961D02*
X149142619Y-90507200D01*
X149142619Y-90507200D02*
X148999762Y-90554819D01*
X148999762Y-90554819D02*
X148904524Y-90554819D01*
X149714048Y-89650057D02*
X149761667Y-89602438D01*
X149761667Y-89602438D02*
X149856905Y-89554819D01*
X149856905Y-89554819D02*
X150095000Y-89554819D01*
X150095000Y-89554819D02*
X150190238Y-89602438D01*
X150190238Y-89602438D02*
X150237857Y-89650057D01*
X150237857Y-89650057D02*
X150285476Y-89745295D01*
X150285476Y-89745295D02*
X150285476Y-89840533D01*
X150285476Y-89840533D02*
X150237857Y-89983390D01*
X150237857Y-89983390D02*
X149666429Y-90554819D01*
X149666429Y-90554819D02*
X150285476Y-90554819D01*
X151190238Y-89554819D02*
X150714048Y-89554819D01*
X150714048Y-89554819D02*
X150666429Y-90031009D01*
X150666429Y-90031009D02*
X150714048Y-89983390D01*
X150714048Y-89983390D02*
X150809286Y-89935771D01*
X150809286Y-89935771D02*
X151047381Y-89935771D01*
X151047381Y-89935771D02*
X151142619Y-89983390D01*
X151142619Y-89983390D02*
X151190238Y-90031009D01*
X151190238Y-90031009D02*
X151237857Y-90126247D01*
X151237857Y-90126247D02*
X151237857Y-90364342D01*
X151237857Y-90364342D02*
X151190238Y-90459580D01*
X151190238Y-90459580D02*
X151142619Y-90507200D01*
X151142619Y-90507200D02*
X151047381Y-90554819D01*
X151047381Y-90554819D02*
X150809286Y-90554819D01*
X150809286Y-90554819D02*
X150714048Y-90507200D01*
X150714048Y-90507200D02*
X150666429Y-90459580D01*
X111701666Y-70494819D02*
X111701666Y-71209104D01*
X111701666Y-71209104D02*
X111654047Y-71351961D01*
X111654047Y-71351961D02*
X111558809Y-71447200D01*
X111558809Y-71447200D02*
X111415952Y-71494819D01*
X111415952Y-71494819D02*
X111320714Y-71494819D01*
X112225476Y-71494819D02*
X112415952Y-71494819D01*
X112415952Y-71494819D02*
X112511190Y-71447200D01*
X112511190Y-71447200D02*
X112558809Y-71399580D01*
X112558809Y-71399580D02*
X112654047Y-71256723D01*
X112654047Y-71256723D02*
X112701666Y-71066247D01*
X112701666Y-71066247D02*
X112701666Y-70685295D01*
X112701666Y-70685295D02*
X112654047Y-70590057D01*
X112654047Y-70590057D02*
X112606428Y-70542438D01*
X112606428Y-70542438D02*
X112511190Y-70494819D01*
X112511190Y-70494819D02*
X112320714Y-70494819D01*
X112320714Y-70494819D02*
X112225476Y-70542438D01*
X112225476Y-70542438D02*
X112177857Y-70590057D01*
X112177857Y-70590057D02*
X112130238Y-70685295D01*
X112130238Y-70685295D02*
X112130238Y-70923390D01*
X112130238Y-70923390D02*
X112177857Y-71018628D01*
X112177857Y-71018628D02*
X112225476Y-71066247D01*
X112225476Y-71066247D02*
X112320714Y-71113866D01*
X112320714Y-71113866D02*
X112511190Y-71113866D01*
X112511190Y-71113866D02*
X112606428Y-71066247D01*
X112606428Y-71066247D02*
X112654047Y-71018628D01*
X112654047Y-71018628D02*
X112701666Y-70923390D01*
X134285476Y-70554819D02*
X134285476Y-71269104D01*
X134285476Y-71269104D02*
X134237857Y-71411961D01*
X134237857Y-71411961D02*
X134142619Y-71507200D01*
X134142619Y-71507200D02*
X133999762Y-71554819D01*
X133999762Y-71554819D02*
X133904524Y-71554819D01*
X134714048Y-70650057D02*
X134761667Y-70602438D01*
X134761667Y-70602438D02*
X134856905Y-70554819D01*
X134856905Y-70554819D02*
X135095000Y-70554819D01*
X135095000Y-70554819D02*
X135190238Y-70602438D01*
X135190238Y-70602438D02*
X135237857Y-70650057D01*
X135237857Y-70650057D02*
X135285476Y-70745295D01*
X135285476Y-70745295D02*
X135285476Y-70840533D01*
X135285476Y-70840533D02*
X135237857Y-70983390D01*
X135237857Y-70983390D02*
X134666429Y-71554819D01*
X134666429Y-71554819D02*
X135285476Y-71554819D01*
X135618810Y-70554819D02*
X136237857Y-70554819D01*
X136237857Y-70554819D02*
X135904524Y-70935771D01*
X135904524Y-70935771D02*
X136047381Y-70935771D01*
X136047381Y-70935771D02*
X136142619Y-70983390D01*
X136142619Y-70983390D02*
X136190238Y-71031009D01*
X136190238Y-71031009D02*
X136237857Y-71126247D01*
X136237857Y-71126247D02*
X136237857Y-71364342D01*
X136237857Y-71364342D02*
X136190238Y-71459580D01*
X136190238Y-71459580D02*
X136142619Y-71507200D01*
X136142619Y-71507200D02*
X136047381Y-71554819D01*
X136047381Y-71554819D02*
X135761667Y-71554819D01*
X135761667Y-71554819D02*
X135666429Y-71507200D01*
X135666429Y-71507200D02*
X135618810Y-71459580D01*
X126928333Y-99804819D02*
X126595000Y-99328628D01*
X126356905Y-99804819D02*
X126356905Y-98804819D01*
X126356905Y-98804819D02*
X126737857Y-98804819D01*
X126737857Y-98804819D02*
X126833095Y-98852438D01*
X126833095Y-98852438D02*
X126880714Y-98900057D01*
X126880714Y-98900057D02*
X126928333Y-98995295D01*
X126928333Y-98995295D02*
X126928333Y-99138152D01*
X126928333Y-99138152D02*
X126880714Y-99233390D01*
X126880714Y-99233390D02*
X126833095Y-99281009D01*
X126833095Y-99281009D02*
X126737857Y-99328628D01*
X126737857Y-99328628D02*
X126356905Y-99328628D01*
X127880714Y-99804819D02*
X127309286Y-99804819D01*
X127595000Y-99804819D02*
X127595000Y-98804819D01*
X127595000Y-98804819D02*
X127499762Y-98947676D01*
X127499762Y-98947676D02*
X127404524Y-99042914D01*
X127404524Y-99042914D02*
X127309286Y-99090533D01*
X131404523Y-66804819D02*
X131071190Y-66328628D01*
X130833095Y-66804819D02*
X130833095Y-65804819D01*
X130833095Y-65804819D02*
X131214047Y-65804819D01*
X131214047Y-65804819D02*
X131309285Y-65852438D01*
X131309285Y-65852438D02*
X131356904Y-65900057D01*
X131356904Y-65900057D02*
X131404523Y-65995295D01*
X131404523Y-65995295D02*
X131404523Y-66138152D01*
X131404523Y-66138152D02*
X131356904Y-66233390D01*
X131356904Y-66233390D02*
X131309285Y-66281009D01*
X131309285Y-66281009D02*
X131214047Y-66328628D01*
X131214047Y-66328628D02*
X130833095Y-66328628D01*
X131833095Y-66804819D02*
X131833095Y-65804819D01*
X131833095Y-65804819D02*
X132404523Y-66804819D01*
X132404523Y-66804819D02*
X132404523Y-65804819D01*
X133356904Y-65804819D02*
X132880714Y-65804819D01*
X132880714Y-65804819D02*
X132833095Y-66281009D01*
X132833095Y-66281009D02*
X132880714Y-66233390D01*
X132880714Y-66233390D02*
X132975952Y-66185771D01*
X132975952Y-66185771D02*
X133214047Y-66185771D01*
X133214047Y-66185771D02*
X133309285Y-66233390D01*
X133309285Y-66233390D02*
X133356904Y-66281009D01*
X133356904Y-66281009D02*
X133404523Y-66376247D01*
X133404523Y-66376247D02*
X133404523Y-66614342D01*
X133404523Y-66614342D02*
X133356904Y-66709580D01*
X133356904Y-66709580D02*
X133309285Y-66757200D01*
X133309285Y-66757200D02*
X133214047Y-66804819D01*
X133214047Y-66804819D02*
X132975952Y-66804819D01*
X132975952Y-66804819D02*
X132880714Y-66757200D01*
X132880714Y-66757200D02*
X132833095Y-66709580D01*
X114404523Y-95804819D02*
X114071190Y-95328628D01*
X113833095Y-95804819D02*
X113833095Y-94804819D01*
X113833095Y-94804819D02*
X114214047Y-94804819D01*
X114214047Y-94804819D02*
X114309285Y-94852438D01*
X114309285Y-94852438D02*
X114356904Y-94900057D01*
X114356904Y-94900057D02*
X114404523Y-94995295D01*
X114404523Y-94995295D02*
X114404523Y-95138152D01*
X114404523Y-95138152D02*
X114356904Y-95233390D01*
X114356904Y-95233390D02*
X114309285Y-95281009D01*
X114309285Y-95281009D02*
X114214047Y-95328628D01*
X114214047Y-95328628D02*
X113833095Y-95328628D01*
X114833095Y-95804819D02*
X114833095Y-94804819D01*
X114833095Y-94804819D02*
X115404523Y-95804819D01*
X115404523Y-95804819D02*
X115404523Y-94804819D01*
X115833095Y-94900057D02*
X115880714Y-94852438D01*
X115880714Y-94852438D02*
X115975952Y-94804819D01*
X115975952Y-94804819D02*
X116214047Y-94804819D01*
X116214047Y-94804819D02*
X116309285Y-94852438D01*
X116309285Y-94852438D02*
X116356904Y-94900057D01*
X116356904Y-94900057D02*
X116404523Y-94995295D01*
X116404523Y-94995295D02*
X116404523Y-95090533D01*
X116404523Y-95090533D02*
X116356904Y-95233390D01*
X116356904Y-95233390D02*
X115785476Y-95804819D01*
X115785476Y-95804819D02*
X116404523Y-95804819D01*
X122343095Y-71804819D02*
X122343095Y-72614342D01*
X122343095Y-72614342D02*
X122390714Y-72709580D01*
X122390714Y-72709580D02*
X122438333Y-72757200D01*
X122438333Y-72757200D02*
X122533571Y-72804819D01*
X122533571Y-72804819D02*
X122724047Y-72804819D01*
X122724047Y-72804819D02*
X122819285Y-72757200D01*
X122819285Y-72757200D02*
X122866904Y-72709580D01*
X122866904Y-72709580D02*
X122914523Y-72614342D01*
X122914523Y-72614342D02*
X122914523Y-71804819D01*
X123819285Y-72138152D02*
X123819285Y-72804819D01*
X123581190Y-71757200D02*
X123343095Y-72471485D01*
X123343095Y-72471485D02*
X123962142Y-72471485D01*
X97761666Y-70554819D02*
X97761666Y-71269104D01*
X97761666Y-71269104D02*
X97714047Y-71411961D01*
X97714047Y-71411961D02*
X97618809Y-71507200D01*
X97618809Y-71507200D02*
X97475952Y-71554819D01*
X97475952Y-71554819D02*
X97380714Y-71554819D01*
X98714047Y-70554819D02*
X98237857Y-70554819D01*
X98237857Y-70554819D02*
X98190238Y-71031009D01*
X98190238Y-71031009D02*
X98237857Y-70983390D01*
X98237857Y-70983390D02*
X98333095Y-70935771D01*
X98333095Y-70935771D02*
X98571190Y-70935771D01*
X98571190Y-70935771D02*
X98666428Y-70983390D01*
X98666428Y-70983390D02*
X98714047Y-71031009D01*
X98714047Y-71031009D02*
X98761666Y-71126247D01*
X98761666Y-71126247D02*
X98761666Y-71364342D01*
X98761666Y-71364342D02*
X98714047Y-71459580D01*
X98714047Y-71459580D02*
X98666428Y-71507200D01*
X98666428Y-71507200D02*
X98571190Y-71554819D01*
X98571190Y-71554819D02*
X98333095Y-71554819D01*
X98333095Y-71554819D02*
X98237857Y-71507200D01*
X98237857Y-71507200D02*
X98190238Y-71459580D01*
X134285476Y-75554819D02*
X134285476Y-76269104D01*
X134285476Y-76269104D02*
X134237857Y-76411961D01*
X134237857Y-76411961D02*
X134142619Y-76507200D01*
X134142619Y-76507200D02*
X133999762Y-76554819D01*
X133999762Y-76554819D02*
X133904524Y-76554819D01*
X134714048Y-75650057D02*
X134761667Y-75602438D01*
X134761667Y-75602438D02*
X134856905Y-75554819D01*
X134856905Y-75554819D02*
X135095000Y-75554819D01*
X135095000Y-75554819D02*
X135190238Y-75602438D01*
X135190238Y-75602438D02*
X135237857Y-75650057D01*
X135237857Y-75650057D02*
X135285476Y-75745295D01*
X135285476Y-75745295D02*
X135285476Y-75840533D01*
X135285476Y-75840533D02*
X135237857Y-75983390D01*
X135237857Y-75983390D02*
X134666429Y-76554819D01*
X134666429Y-76554819D02*
X135285476Y-76554819D01*
X135666429Y-75650057D02*
X135714048Y-75602438D01*
X135714048Y-75602438D02*
X135809286Y-75554819D01*
X135809286Y-75554819D02*
X136047381Y-75554819D01*
X136047381Y-75554819D02*
X136142619Y-75602438D01*
X136142619Y-75602438D02*
X136190238Y-75650057D01*
X136190238Y-75650057D02*
X136237857Y-75745295D01*
X136237857Y-75745295D02*
X136237857Y-75840533D01*
X136237857Y-75840533D02*
X136190238Y-75983390D01*
X136190238Y-75983390D02*
X135618810Y-76554819D01*
X135618810Y-76554819D02*
X136237857Y-76554819D01*
X97761666Y-80554819D02*
X97761666Y-81269104D01*
X97761666Y-81269104D02*
X97714047Y-81411961D01*
X97714047Y-81411961D02*
X97618809Y-81507200D01*
X97618809Y-81507200D02*
X97475952Y-81554819D01*
X97475952Y-81554819D02*
X97380714Y-81554819D01*
X98142619Y-80554819D02*
X98761666Y-80554819D01*
X98761666Y-80554819D02*
X98428333Y-80935771D01*
X98428333Y-80935771D02*
X98571190Y-80935771D01*
X98571190Y-80935771D02*
X98666428Y-80983390D01*
X98666428Y-80983390D02*
X98714047Y-81031009D01*
X98714047Y-81031009D02*
X98761666Y-81126247D01*
X98761666Y-81126247D02*
X98761666Y-81364342D01*
X98761666Y-81364342D02*
X98714047Y-81459580D01*
X98714047Y-81459580D02*
X98666428Y-81507200D01*
X98666428Y-81507200D02*
X98571190Y-81554819D01*
X98571190Y-81554819D02*
X98285476Y-81554819D01*
X98285476Y-81554819D02*
X98190238Y-81507200D01*
X98190238Y-81507200D02*
X98142619Y-81459580D01*
X118285476Y-98804819D02*
X118285476Y-99519104D01*
X118285476Y-99519104D02*
X118237857Y-99661961D01*
X118237857Y-99661961D02*
X118142619Y-99757200D01*
X118142619Y-99757200D02*
X117999762Y-99804819D01*
X117999762Y-99804819D02*
X117904524Y-99804819D01*
X119285476Y-99804819D02*
X118714048Y-99804819D01*
X118999762Y-99804819D02*
X118999762Y-98804819D01*
X118999762Y-98804819D02*
X118904524Y-98947676D01*
X118904524Y-98947676D02*
X118809286Y-99042914D01*
X118809286Y-99042914D02*
X118714048Y-99090533D01*
X120142619Y-99138152D02*
X120142619Y-99804819D01*
X119904524Y-98757200D02*
X119666429Y-99471485D01*
X119666429Y-99471485D02*
X120285476Y-99471485D01*
X115285476Y-75554819D02*
X115285476Y-76269104D01*
X115285476Y-76269104D02*
X115237857Y-76411961D01*
X115237857Y-76411961D02*
X115142619Y-76507200D01*
X115142619Y-76507200D02*
X114999762Y-76554819D01*
X114999762Y-76554819D02*
X114904524Y-76554819D01*
X116285476Y-76554819D02*
X115714048Y-76554819D01*
X115999762Y-76554819D02*
X115999762Y-75554819D01*
X115999762Y-75554819D02*
X115904524Y-75697676D01*
X115904524Y-75697676D02*
X115809286Y-75792914D01*
X115809286Y-75792914D02*
X115714048Y-75840533D01*
X116666429Y-75650057D02*
X116714048Y-75602438D01*
X116714048Y-75602438D02*
X116809286Y-75554819D01*
X116809286Y-75554819D02*
X117047381Y-75554819D01*
X117047381Y-75554819D02*
X117142619Y-75602438D01*
X117142619Y-75602438D02*
X117190238Y-75650057D01*
X117190238Y-75650057D02*
X117237857Y-75745295D01*
X117237857Y-75745295D02*
X117237857Y-75840533D01*
X117237857Y-75840533D02*
X117190238Y-75983390D01*
X117190238Y-75983390D02*
X116618810Y-76554819D01*
X116618810Y-76554819D02*
X117237857Y-76554819D01*
X105333095Y-71804819D02*
X105333095Y-72614342D01*
X105333095Y-72614342D02*
X105380714Y-72709580D01*
X105380714Y-72709580D02*
X105428333Y-72757200D01*
X105428333Y-72757200D02*
X105523571Y-72804819D01*
X105523571Y-72804819D02*
X105714047Y-72804819D01*
X105714047Y-72804819D02*
X105809285Y-72757200D01*
X105809285Y-72757200D02*
X105856904Y-72709580D01*
X105856904Y-72709580D02*
X105904523Y-72614342D01*
X105904523Y-72614342D02*
X105904523Y-71804819D01*
X106904523Y-72804819D02*
X106333095Y-72804819D01*
X106618809Y-72804819D02*
X106618809Y-71804819D01*
X106618809Y-71804819D02*
X106523571Y-71947676D01*
X106523571Y-71947676D02*
X106428333Y-72042914D01*
X106428333Y-72042914D02*
X106333095Y-72090533D01*
X148285476Y-85554819D02*
X148285476Y-86269104D01*
X148285476Y-86269104D02*
X148237857Y-86411961D01*
X148237857Y-86411961D02*
X148142619Y-86507200D01*
X148142619Y-86507200D02*
X147999762Y-86554819D01*
X147999762Y-86554819D02*
X147904524Y-86554819D01*
X148714048Y-85650057D02*
X148761667Y-85602438D01*
X148761667Y-85602438D02*
X148856905Y-85554819D01*
X148856905Y-85554819D02*
X149095000Y-85554819D01*
X149095000Y-85554819D02*
X149190238Y-85602438D01*
X149190238Y-85602438D02*
X149237857Y-85650057D01*
X149237857Y-85650057D02*
X149285476Y-85745295D01*
X149285476Y-85745295D02*
X149285476Y-85840533D01*
X149285476Y-85840533D02*
X149237857Y-85983390D01*
X149237857Y-85983390D02*
X148666429Y-86554819D01*
X148666429Y-86554819D02*
X149285476Y-86554819D01*
X150142619Y-85554819D02*
X149952143Y-85554819D01*
X149952143Y-85554819D02*
X149856905Y-85602438D01*
X149856905Y-85602438D02*
X149809286Y-85650057D01*
X149809286Y-85650057D02*
X149714048Y-85792914D01*
X149714048Y-85792914D02*
X149666429Y-85983390D01*
X149666429Y-85983390D02*
X149666429Y-86364342D01*
X149666429Y-86364342D02*
X149714048Y-86459580D01*
X149714048Y-86459580D02*
X149761667Y-86507200D01*
X149761667Y-86507200D02*
X149856905Y-86554819D01*
X149856905Y-86554819D02*
X150047381Y-86554819D01*
X150047381Y-86554819D02*
X150142619Y-86507200D01*
X150142619Y-86507200D02*
X150190238Y-86459580D01*
X150190238Y-86459580D02*
X150237857Y-86364342D01*
X150237857Y-86364342D02*
X150237857Y-86126247D01*
X150237857Y-86126247D02*
X150190238Y-86031009D01*
X150190238Y-86031009D02*
X150142619Y-85983390D01*
X150142619Y-85983390D02*
X150047381Y-85935771D01*
X150047381Y-85935771D02*
X149856905Y-85935771D01*
X149856905Y-85935771D02*
X149761667Y-85983390D01*
X149761667Y-85983390D02*
X149714048Y-86031009D01*
X149714048Y-86031009D02*
X149666429Y-86126247D01*
D11*
%TO.C,RN4*%
X100035000Y-64950000D02*
X100035000Y-67750000D01*
X100035000Y-67750000D02*
X113075000Y-67750000D01*
X110365000Y-67750000D02*
X110365000Y-64950000D01*
X113075000Y-64950000D02*
X100035000Y-64950000D01*
X113075000Y-67750000D02*
X113075000Y-64950000D01*
%TO.C,RN1*%
X97115000Y-90950000D02*
X97115000Y-93750000D01*
X97115000Y-93750000D02*
X110155000Y-93750000D01*
X99825000Y-90950000D02*
X99825000Y-93750000D01*
X110155000Y-90950000D02*
X97115000Y-90950000D01*
X110155000Y-93750000D02*
X110155000Y-90950000D01*
%TO.C,U5*%
X139455000Y-94745000D02*
X139455000Y-99945000D01*
X139455000Y-99945000D02*
X144755000Y-99945000D01*
X141105000Y-94745000D02*
X139455000Y-94745000D01*
X144755000Y-94745000D02*
X143105000Y-94745000D01*
X144755000Y-99945000D02*
X144755000Y-94745000D01*
X143105000Y-94745000D02*
G75*
G02*
X141105000Y-94745000I-1000000J0D01*
G01*
%TO.C,U6*%
X139255000Y-69420000D02*
X139255000Y-89860000D01*
X139255000Y-89860000D02*
X144555000Y-89860000D01*
X140905000Y-69420000D02*
X139255000Y-69420000D01*
X144555000Y-69420000D02*
X142905000Y-69420000D01*
X144555000Y-89860000D02*
X144555000Y-69420000D01*
X142905000Y-69420000D02*
G75*
G02*
X140905000Y-69420000I-1000000J0D01*
G01*
%TO.C,RN6*%
X117495000Y-64950000D02*
X117495000Y-67750000D01*
X117495000Y-67750000D02*
X130535000Y-67750000D01*
X127825000Y-67750000D02*
X127825000Y-64950000D01*
X130535000Y-64950000D02*
X117495000Y-64950000D01*
X130535000Y-67750000D02*
X130535000Y-64950000D01*
%TO.C,RN3*%
X134555000Y-90950000D02*
X134555000Y-93750000D01*
X134555000Y-93750000D02*
X147595000Y-93750000D01*
X137265000Y-90950000D02*
X137265000Y-93750000D01*
X147595000Y-90950000D02*
X134555000Y-90950000D01*
X147595000Y-93750000D02*
X147595000Y-90950000D01*
%TO.C,R1*%
X123825000Y-94980000D02*
X130365000Y-94980000D01*
X123825000Y-95310000D02*
X123825000Y-94980000D01*
X123825000Y-97390000D02*
X123825000Y-97720000D01*
X123825000Y-97720000D02*
X130365000Y-97720000D01*
X130365000Y-94980000D02*
X130365000Y-95310000D01*
X130365000Y-97720000D02*
X130365000Y-97390000D01*
%TO.C,RN5*%
X133955000Y-64950000D02*
X133955000Y-67750000D01*
X133955000Y-67750000D02*
X149535000Y-67750000D01*
X146825000Y-67750000D02*
X146825000Y-64950000D01*
X149535000Y-64950000D02*
X133955000Y-64950000D01*
X149535000Y-67750000D02*
X149535000Y-64950000D01*
%TO.C,RN2*%
X115115000Y-90950000D02*
X115115000Y-93750000D01*
X115115000Y-93750000D02*
X128155000Y-93750000D01*
X117825000Y-90950000D02*
X117825000Y-93750000D01*
X128155000Y-90950000D02*
X115115000Y-90950000D01*
X128155000Y-93750000D02*
X128155000Y-90950000D01*
%TO.C,U4*%
X120455000Y-69420000D02*
X120455000Y-89860000D01*
X120455000Y-89860000D02*
X125755000Y-89860000D01*
X122105000Y-69420000D02*
X120455000Y-69420000D01*
X125755000Y-69420000D02*
X124105000Y-69420000D01*
X125755000Y-89860000D02*
X125755000Y-69420000D01*
X124105000Y-69420000D02*
G75*
G02*
X122105000Y-69420000I-1000000J0D01*
G01*
%TO.C,U1*%
X102455000Y-69420000D02*
X102455000Y-89860000D01*
X102455000Y-89860000D02*
X107755000Y-89860000D01*
X104105000Y-69420000D02*
X102455000Y-69420000D01*
X107755000Y-69420000D02*
X106105000Y-69420000D01*
X107755000Y-89860000D02*
X107755000Y-69420000D01*
X106105000Y-69420000D02*
G75*
G02*
X104105000Y-69420000I-1000000J0D01*
G01*
%TD*%
M02*
