%TF.GenerationSoftware,KiCad,Pcbnew,8.0.8-8.0.8-0~ubuntu22.04.1*%
%TF.CreationDate,2025-02-12T20:38:04+01:00*%
%TF.ProjectId,Optocopler,4f70746f-636f-4706-9c65-722e6b696361,rev?*%
%TF.SameCoordinates,Original*%
%TF.FileFunction,Copper,L2,Bot*%
%TF.FilePolarity,Positive*%
%FSLAX46Y46*%
G04 Gerber Fmt 4.6, Leading zero omitted, Abs format (unit mm)*
G04 Created by KiCad (PCBNEW 8.0.8-8.0.8-0~ubuntu22.04.1) date 2025-02-12 20:38:04*
%MOMM*%
%LPD*%
G01*
G04 APERTURE LIST*
G04 Aperture macros list*
%AMRoundRect*
0 Rectangle with rounded corners*
0 $1 Rounding radius*
0 $2 $3 $4 $5 $6 $7 $8 $9 X,Y pos of 4 corners*
0 Add a 4 corners polygon primitive as box body*
4,1,4,$2,$3,$4,$5,$6,$7,$8,$9,$2,$3,0*
0 Add four circle primitives for the rounded corners*
1,1,$1+$1,$2,$3*
1,1,$1+$1,$4,$5*
1,1,$1+$1,$6,$7*
1,1,$1+$1,$8,$9*
0 Add four rect primitives between the rounded corners*
20,1,$1+$1,$2,$3,$4,$5,0*
20,1,$1+$1,$4,$5,$6,$7,0*
20,1,$1+$1,$6,$7,$8,$9,0*
20,1,$1+$1,$8,$9,$2,$3,0*%
G04 Aperture macros list end*
%TA.AperFunction,ComponentPad*%
%ADD10RoundRect,0.250001X-0.799999X-0.799999X0.799999X-0.799999X0.799999X0.799999X-0.799999X0.799999X0*%
%TD*%
%TA.AperFunction,ComponentPad*%
%ADD11R,1.600000X1.600000*%
%TD*%
%TA.AperFunction,ComponentPad*%
%ADD12O,1.600000X1.600000*%
%TD*%
%TA.AperFunction,ComponentPad*%
%ADD13C,1.600000*%
%TD*%
%TA.AperFunction,Conductor*%
%ADD14C,1.000000*%
%TD*%
G04 APERTURE END LIST*
D10*
%TO.P,J24,1,Pin_1*%
%TO.N,Net-(J24-Pin_1)*%
X149095000Y-98350000D03*
%TD*%
%TO.P,J17,1,Pin_1*%
%TO.N,Net-(J17-Pin_1)*%
X130095000Y-78350000D03*
%TD*%
%TO.P,J18,1,Pin_1*%
%TO.N,Net-(J18-Pin_1)*%
X130095000Y-73350000D03*
%TD*%
%TO.P,J16,1,Pin_1*%
%TO.N,Net-(J16-Pin_1)*%
X130095000Y-83350000D03*
%TD*%
%TO.P,J15,1,Pin_1*%
%TO.N,Net-(J15-Pin_1)*%
X130095000Y-88350000D03*
%TD*%
%TO.P,J13,1,Pin_1*%
%TO.N,Net-(J13-Pin_1)*%
X116095000Y-73350000D03*
%TD*%
%TO.P,J4,1,Pin_1*%
%TO.N,Net-(J4-Pin_1)*%
X98095000Y-78350000D03*
%TD*%
%TO.P,J2,1,Pin_1*%
%TO.N,Net-(J2-Pin_1)*%
X98095000Y-88350000D03*
%TD*%
%TO.P,J11,1,Pin_1*%
%TO.N,Net-(J11-Pin_1)*%
X116095000Y-83350000D03*
%TD*%
%TO.P,J8,1,Pin_1*%
%TO.N,Net-(J8-Pin_1)*%
X112095000Y-78350000D03*
%TD*%
%TO.P,J27,1,Pin_1*%
%TO.N,Net-(J27-Pin_1)*%
X149095000Y-83350000D03*
%TD*%
D11*
%TO.P,RN4,1,common*%
%TO.N,Net-(J25-Pin_1)*%
X111635000Y-66350000D03*
D12*
%TO.P,RN4,2,R1*%
%TO.N,Net-(J9-Pin_1)*%
X109095000Y-66350000D03*
%TO.P,RN4,3,R2*%
%TO.N,Net-(J8-Pin_1)*%
X106555000Y-66350000D03*
%TO.P,RN4,4,R3*%
%TO.N,Net-(J7-Pin_1)*%
X104015000Y-66350000D03*
%TO.P,RN4,5,R4*%
%TO.N,Net-(J6-Pin_1)*%
X101475000Y-66350000D03*
%TD*%
D11*
%TO.P,RN1,1,common*%
%TO.N,Net-(J1-Pin_1)*%
X98555000Y-92350000D03*
D12*
%TO.P,RN1,2,R1*%
%TO.N,Net-(RN1-R1)*%
X101095000Y-92350000D03*
%TO.P,RN1,3,R2*%
%TO.N,Net-(RN1-R2)*%
X103635000Y-92350000D03*
%TO.P,RN1,4,R3*%
%TO.N,Net-(RN1-R3)*%
X106175000Y-92350000D03*
%TO.P,RN1,5,R4*%
%TO.N,Net-(RN1-R4)*%
X108715000Y-92350000D03*
%TD*%
D10*
%TO.P,J21,1,Pin_1*%
%TO.N,Net-(J21-Pin_1)*%
X135095000Y-83350000D03*
%TD*%
%TO.P,J6,1,Pin_1*%
%TO.N,Net-(J6-Pin_1)*%
X112095000Y-88350000D03*
%TD*%
%TO.P,J7,1,Pin_1*%
%TO.N,Net-(J7-Pin_1)*%
X112095000Y-83350000D03*
%TD*%
%TO.P,J20,1,Pin_1*%
%TO.N,Net-(J20-Pin_1)*%
X135095000Y-88350000D03*
%TD*%
%TO.P,J19,1,Pin_1*%
%TO.N,Net-(J19-Pin_1)*%
X134095000Y-98350000D03*
%TD*%
D11*
%TO.P,U5,1*%
%TO.N,Net-(R1-Pad2)*%
X138295000Y-96075000D03*
D12*
%TO.P,U5,2*%
%TO.N,Net-(J19-Pin_1)*%
X138295000Y-98615000D03*
%TO.P,U5,3*%
%TO.N,Net-(J24-Pin_1)*%
X145915000Y-98615000D03*
%TO.P,U5,4*%
%TO.N,Net-(J25-Pin_1)*%
X145915000Y-96075000D03*
%TD*%
D10*
%TO.P,J1,1,Pin_1*%
%TO.N,Net-(J1-Pin_1)*%
X98095000Y-96350000D03*
%TD*%
%TO.P,J29,1,Pin_1*%
%TO.N,Net-(J29-Pin_1)*%
X149095000Y-73350000D03*
%TD*%
D11*
%TO.P,U6,1*%
%TO.N,Net-(RN3-R4)*%
X138095000Y-70750000D03*
D12*
%TO.P,U6,2*%
%TO.N,Net-(J23-Pin_1)*%
X138095000Y-73290000D03*
%TO.P,U6,3*%
%TO.N,Net-(RN3-R3)*%
X138095000Y-75830000D03*
%TO.P,U6,4*%
%TO.N,Net-(J22-Pin_1)*%
X138095000Y-78370000D03*
%TO.P,U6,5*%
%TO.N,Net-(RN3-R2)*%
X138095000Y-80910000D03*
%TO.P,U6,6*%
%TO.N,Net-(J21-Pin_1)*%
X138095000Y-83450000D03*
%TO.P,U6,7*%
%TO.N,Net-(RN3-R1)*%
X138095000Y-85990000D03*
%TO.P,U6,8*%
%TO.N,Net-(J20-Pin_1)*%
X138095000Y-88530000D03*
%TO.P,U6,9*%
%TO.N,Net-(J26-Pin_1)*%
X145715000Y-88530000D03*
%TO.P,U6,10*%
%TO.N,Net-(J25-Pin_1)*%
X145715000Y-85990000D03*
%TO.P,U6,11*%
%TO.N,Net-(J27-Pin_1)*%
X145715000Y-83450000D03*
%TO.P,U6,12*%
%TO.N,Net-(J25-Pin_1)*%
X145715000Y-80910000D03*
%TO.P,U6,13*%
%TO.N,Net-(J28-Pin_1)*%
X145715000Y-78370000D03*
%TO.P,U6,14*%
%TO.N,Net-(J25-Pin_1)*%
X145715000Y-75830000D03*
%TO.P,U6,15*%
%TO.N,Net-(J29-Pin_1)*%
X145715000Y-73290000D03*
%TO.P,U6,16*%
%TO.N,Net-(J25-Pin_1)*%
X145715000Y-70750000D03*
%TD*%
D11*
%TO.P,RN6,1,common*%
%TO.N,Net-(J25-Pin_1)*%
X129095000Y-66350000D03*
D12*
%TO.P,RN6,2,R1*%
%TO.N,Net-(J18-Pin_1)*%
X126555000Y-66350000D03*
%TO.P,RN6,3,R2*%
%TO.N,Net-(J17-Pin_1)*%
X124015000Y-66350000D03*
%TO.P,RN6,4,R3*%
%TO.N,Net-(J16-Pin_1)*%
X121475000Y-66350000D03*
%TO.P,RN6,5,R4*%
%TO.N,Net-(J15-Pin_1)*%
X118935000Y-66350000D03*
%TD*%
D11*
%TO.P,RN3,1,common*%
%TO.N,Net-(J1-Pin_1)*%
X135995000Y-92350000D03*
D12*
%TO.P,RN3,2,R1*%
%TO.N,Net-(RN3-R1)*%
X138535000Y-92350000D03*
%TO.P,RN3,3,R2*%
%TO.N,Net-(RN3-R2)*%
X141075000Y-92350000D03*
%TO.P,RN3,4,R3*%
%TO.N,Net-(RN3-R3)*%
X143615000Y-92350000D03*
%TO.P,RN3,5,R4*%
%TO.N,Net-(RN3-R4)*%
X146155000Y-92350000D03*
%TD*%
D10*
%TO.P,J10,1,Pin_1*%
%TO.N,Net-(J10-Pin_1)*%
X116095000Y-88350000D03*
%TD*%
%TO.P,J28,1,Pin_1*%
%TO.N,Net-(J28-Pin_1)*%
X149095000Y-78350000D03*
%TD*%
%TO.P,J25,1,Pin_1*%
%TO.N,Net-(J25-Pin_1)*%
X150095000Y-92350000D03*
%TD*%
%TO.P,J9,1,Pin_1*%
%TO.N,Net-(J9-Pin_1)*%
X112035000Y-73290000D03*
%TD*%
%TO.P,J23,1,Pin_1*%
%TO.N,Net-(J23-Pin_1)*%
X135095000Y-73350000D03*
%TD*%
D13*
%TO.P,R1,1*%
%TO.N,Net-(J14-Pin_1)*%
X123285000Y-96350000D03*
D12*
%TO.P,R1,2*%
%TO.N,Net-(R1-Pad2)*%
X130905000Y-96350000D03*
%TD*%
D11*
%TO.P,RN5,1,common*%
%TO.N,Net-(J25-Pin_1)*%
X148095000Y-66350000D03*
D12*
%TO.P,RN5,2,R1*%
%TO.N,Net-(J29-Pin_1)*%
X145555000Y-66350000D03*
%TO.P,RN5,3,R2*%
%TO.N,Net-(J28-Pin_1)*%
X143015000Y-66350000D03*
%TO.P,RN5,4,R3*%
%TO.N,Net-(J27-Pin_1)*%
X140475000Y-66350000D03*
%TO.P,RN5,5,R4*%
%TO.N,Net-(J26-Pin_1)*%
X137935000Y-66350000D03*
%TO.P,RN5,6,R5*%
%TO.N,Net-(J24-Pin_1)*%
X135395000Y-66350000D03*
%TD*%
D11*
%TO.P,RN2,1,common*%
%TO.N,Net-(J1-Pin_1)*%
X116555000Y-92350000D03*
D12*
%TO.P,RN2,2,R1*%
%TO.N,Net-(RN2-R1)*%
X119095000Y-92350000D03*
%TO.P,RN2,3,R2*%
%TO.N,Net-(RN2-R2)*%
X121635000Y-92350000D03*
%TO.P,RN2,4,R3*%
%TO.N,Net-(RN2-R3)*%
X124175000Y-92350000D03*
%TO.P,RN2,5,R4*%
%TO.N,Net-(RN2-R4)*%
X126715000Y-92350000D03*
%TD*%
D11*
%TO.P,U4,1*%
%TO.N,Net-(RN2-R4)*%
X119295000Y-70750000D03*
D12*
%TO.P,U4,2*%
%TO.N,Net-(J13-Pin_1)*%
X119295000Y-73290000D03*
%TO.P,U4,3*%
%TO.N,Net-(RN2-R3)*%
X119295000Y-75830000D03*
%TO.P,U4,4*%
%TO.N,Net-(J12-Pin_1)*%
X119295000Y-78370000D03*
%TO.P,U4,5*%
%TO.N,Net-(RN2-R2)*%
X119295000Y-80910000D03*
%TO.P,U4,6*%
%TO.N,Net-(J11-Pin_1)*%
X119295000Y-83450000D03*
%TO.P,U4,7*%
%TO.N,Net-(RN2-R1)*%
X119295000Y-85990000D03*
%TO.P,U4,8*%
%TO.N,Net-(J10-Pin_1)*%
X119295000Y-88530000D03*
%TO.P,U4,9*%
%TO.N,Net-(J15-Pin_1)*%
X126915000Y-88530000D03*
%TO.P,U4,10*%
%TO.N,Net-(J25-Pin_1)*%
X126915000Y-85990000D03*
%TO.P,U4,11*%
%TO.N,Net-(J16-Pin_1)*%
X126915000Y-83450000D03*
%TO.P,U4,12*%
%TO.N,Net-(J25-Pin_1)*%
X126915000Y-80910000D03*
%TO.P,U4,13*%
%TO.N,Net-(J17-Pin_1)*%
X126915000Y-78370000D03*
%TO.P,U4,14*%
%TO.N,Net-(J25-Pin_1)*%
X126915000Y-75830000D03*
%TO.P,U4,15*%
%TO.N,Net-(J18-Pin_1)*%
X126915000Y-73290000D03*
%TO.P,U4,16*%
%TO.N,Net-(J25-Pin_1)*%
X126915000Y-70750000D03*
%TD*%
D10*
%TO.P,J5,1,Pin_1*%
%TO.N,Net-(J5-Pin_1)*%
X98095000Y-73350000D03*
%TD*%
%TO.P,J22,1,Pin_1*%
%TO.N,Net-(J22-Pin_1)*%
X135095000Y-78350000D03*
%TD*%
%TO.P,J3,1,Pin_1*%
%TO.N,Net-(J3-Pin_1)*%
X98095000Y-83350000D03*
%TD*%
%TO.P,J14,1,Pin_1*%
%TO.N,Net-(J14-Pin_1)*%
X119095000Y-96350000D03*
%TD*%
%TO.P,J12,1,Pin_1*%
%TO.N,Net-(J12-Pin_1)*%
X116095000Y-78350000D03*
%TD*%
D11*
%TO.P,U1,1*%
%TO.N,Net-(RN1-R4)*%
X101295000Y-70750000D03*
D12*
%TO.P,U1,2*%
%TO.N,Net-(J5-Pin_1)*%
X101295000Y-73290000D03*
%TO.P,U1,3*%
%TO.N,Net-(RN1-R3)*%
X101295000Y-75830000D03*
%TO.P,U1,4*%
%TO.N,Net-(J4-Pin_1)*%
X101295000Y-78370000D03*
%TO.P,U1,5*%
%TO.N,Net-(RN1-R2)*%
X101295000Y-80910000D03*
%TO.P,U1,6*%
%TO.N,Net-(J3-Pin_1)*%
X101295000Y-83450000D03*
%TO.P,U1,7*%
%TO.N,Net-(RN1-R1)*%
X101295000Y-85990000D03*
%TO.P,U1,8*%
%TO.N,Net-(J2-Pin_1)*%
X101295000Y-88530000D03*
%TO.P,U1,9*%
%TO.N,Net-(J6-Pin_1)*%
X108915000Y-88530000D03*
%TO.P,U1,10*%
%TO.N,Net-(J25-Pin_1)*%
X108915000Y-85990000D03*
%TO.P,U1,11*%
%TO.N,Net-(J7-Pin_1)*%
X108915000Y-83450000D03*
%TO.P,U1,12*%
%TO.N,Net-(J25-Pin_1)*%
X108915000Y-80910000D03*
%TO.P,U1,13*%
%TO.N,Net-(J8-Pin_1)*%
X108915000Y-78370000D03*
%TO.P,U1,14*%
%TO.N,Net-(J25-Pin_1)*%
X108915000Y-75830000D03*
%TO.P,U1,15*%
%TO.N,Net-(J9-Pin_1)*%
X108915000Y-73290000D03*
%TO.P,U1,16*%
%TO.N,Net-(J25-Pin_1)*%
X108915000Y-70750000D03*
%TD*%
D10*
%TO.P,J26,1,Pin_1*%
%TO.N,Net-(J26-Pin_1)*%
X149095000Y-88350000D03*
%TD*%
D14*
%TO.N,Net-(J24-Pin_1)*%
X135395000Y-66350000D02*
X136895000Y-64850000D01*
X152095000Y-67350000D02*
X152095000Y-95350000D01*
X136895000Y-64850000D02*
X149595000Y-64850000D01*
X149595000Y-64850000D02*
X152095000Y-67350000D01*
X152095000Y-95350000D02*
X149095000Y-98350000D01*
%TO.N,Net-(J25-Pin_1)*%
X149685430Y-85990000D02*
X150845000Y-87149570D01*
X150845000Y-87149570D02*
X150845000Y-91600000D01*
X150845000Y-91600000D02*
X150095000Y-92350000D01*
%TO.N,Net-(J15-Pin_1)*%
X126915000Y-88530000D02*
X129915000Y-88530000D01*
X129915000Y-88530000D02*
X130095000Y-88350000D01*
%TO.N,Net-(J14-Pin_1)*%
X123285000Y-96350000D02*
X119095000Y-96350000D01*
%TO.N,Net-(J16-Pin_1)*%
X130095000Y-83350000D02*
X127015000Y-83350000D01*
%TO.N,Net-(J2-Pin_1)*%
X98095000Y-88350000D02*
X101115000Y-88350000D01*
%TO.N,Net-(J3-Pin_1)*%
X98095000Y-83350000D02*
X101195000Y-83350000D01*
%TO.N,Net-(J4-Pin_1)*%
X98095000Y-78350000D02*
X101275000Y-78350000D01*
%TO.N,Net-(J5-Pin_1)*%
X98095000Y-73350000D02*
X101235000Y-73350000D01*
%TO.N,Net-(J6-Pin_1)*%
X108915000Y-88530000D02*
X111915000Y-88530000D01*
%TO.N,Net-(J7-Pin_1)*%
X108915000Y-83450000D02*
X111995000Y-83450000D01*
%TO.N,Net-(J8-Pin_1)*%
X108915000Y-78370000D02*
X112075000Y-78370000D01*
%TO.N,Net-(J9-Pin_1)*%
X108915000Y-73290000D02*
X112035000Y-73290000D01*
%TO.N,Net-(J10-Pin_1)*%
X116165000Y-88350000D02*
X119115000Y-88350000D01*
%TO.N,Net-(J11-Pin_1)*%
X116165000Y-83350000D02*
X119195000Y-83350000D01*
%TO.N,Net-(J12-Pin_1)*%
X116165000Y-78350000D02*
X119275000Y-78350000D01*
%TO.N,Net-(J13-Pin_1)*%
X116165000Y-73350000D02*
X119235000Y-73350000D01*
%TO.N,Net-(J24-Pin_1)*%
X145915000Y-98615000D02*
X148830000Y-98615000D01*
%TO.N,Net-(J18-Pin_1)*%
X130095000Y-73350000D02*
X126975000Y-73350000D01*
%TO.N,Net-(J19-Pin_1)*%
X134095000Y-98350000D02*
X138030000Y-98350000D01*
X138030000Y-98350000D02*
X138295000Y-98615000D01*
%TO.N,Net-(J20-Pin_1)*%
X138095000Y-88530000D02*
X134895000Y-88530000D01*
%TO.N,Net-(J21-Pin_1)*%
X138095000Y-83450000D02*
X134815000Y-83450000D01*
%TO.N,Net-(J22-Pin_1)*%
X138095000Y-78370000D02*
X134735000Y-78370000D01*
%TO.N,Net-(J23-Pin_1)*%
X138095000Y-73290000D02*
X134775000Y-73290000D01*
%TO.N,Net-(J26-Pin_1)*%
X145715000Y-88530000D02*
X148535000Y-88530000D01*
%TO.N,Net-(J27-Pin_1)*%
X145715000Y-83450000D02*
X148615000Y-83450000D01*
%TO.N,Net-(J28-Pin_1)*%
X145715000Y-78370000D02*
X148695000Y-78370000D01*
%TO.N,Net-(J29-Pin_1)*%
X145715000Y-73290000D02*
X148655000Y-73290000D01*
%TO.N,Net-(J25-Pin_1)*%
X145915000Y-96075000D02*
X146370000Y-96075000D01*
X121555000Y-68350000D02*
X114095000Y-68350000D01*
X150845000Y-82149570D02*
X149605430Y-80910000D01*
X132095000Y-75830000D02*
X132095000Y-70750000D01*
X149575000Y-75830000D02*
X150845000Y-74560000D01*
X149685430Y-85990000D02*
X145715000Y-85990000D01*
X149495000Y-70750000D02*
X148519164Y-70750000D01*
X108915000Y-70530000D02*
X111095000Y-68350000D01*
X121555000Y-68350000D02*
X129095000Y-68350000D01*
X132095000Y-85350000D02*
X131455000Y-85990000D01*
X148095000Y-66350000D02*
X148095000Y-68350000D01*
X146370000Y-96075000D02*
X150095000Y-92350000D01*
X132095000Y-68350000D02*
X143095000Y-68350000D01*
X111635000Y-66350000D02*
X111635000Y-67890000D01*
X114095000Y-68350000D02*
X112095000Y-68350000D01*
X145715000Y-70750000D02*
X148095000Y-70750000D01*
X114095000Y-75830000D02*
X114095000Y-68350000D01*
X111635000Y-67890000D02*
X112095000Y-68350000D01*
X108915000Y-80910000D02*
X114095000Y-80910000D01*
X114095000Y-80910000D02*
X114095000Y-80350000D01*
X150845000Y-72100000D02*
X149495000Y-70750000D01*
X149605430Y-80910000D02*
X150845000Y-79670430D01*
X145715000Y-75830000D02*
X149575000Y-75830000D01*
X126915000Y-75830000D02*
X132095000Y-75830000D01*
X132095000Y-75830000D02*
X132095000Y-80350000D01*
X150845000Y-79670430D02*
X150845000Y-77100000D01*
X131455000Y-85990000D02*
X126915000Y-85990000D01*
X150845000Y-84830430D02*
X150845000Y-82149570D01*
X132095000Y-70750000D02*
X132095000Y-68350000D01*
X108915000Y-85990000D02*
X113455000Y-85990000D01*
X150845000Y-77100000D02*
X149575000Y-75830000D01*
X145715000Y-80910000D02*
X149605430Y-80910000D01*
X113455000Y-85990000D02*
X114095000Y-85350000D01*
X143315000Y-68350000D02*
X143095000Y-68350000D01*
X114095000Y-75830000D02*
X108915000Y-75830000D01*
X131535000Y-80910000D02*
X132095000Y-80350000D01*
X126915000Y-80910000D02*
X131535000Y-80910000D01*
X114095000Y-80350000D02*
X114095000Y-75830000D01*
X114095000Y-85350000D02*
X114095000Y-80350000D01*
X108915000Y-70750000D02*
X108915000Y-70530000D01*
X132095000Y-80350000D02*
X132095000Y-85350000D01*
X149685430Y-85990000D02*
X150845000Y-84830430D01*
X129095000Y-66350000D02*
X129095000Y-68350000D01*
X129095000Y-68350000D02*
X132095000Y-68350000D01*
X132095000Y-70750000D02*
X126915000Y-70750000D01*
X111095000Y-68350000D02*
X112095000Y-68350000D01*
X148095000Y-68350000D02*
X148095000Y-70750000D01*
X143315000Y-68350000D02*
X148095000Y-68350000D01*
X148095000Y-70750000D02*
X148519164Y-70750000D01*
X150845000Y-74560000D02*
X150845000Y-72100000D01*
%TO.N,Net-(J17-Pin_1)*%
X130095000Y-78350000D02*
X126935000Y-78350000D01*
%TO.N,Net-(RN1-R4)*%
X107415000Y-76870000D02*
X101295000Y-70750000D01*
X107415000Y-91050000D02*
X107415000Y-76870000D01*
X108715000Y-92350000D02*
X107415000Y-91050000D01*
%TO.N,Net-(RN1-R3)*%
X106175000Y-92350000D02*
X106175000Y-80710000D01*
X106175000Y-80710000D02*
X101295000Y-75830000D01*
%TO.N,Net-(RN1-R2)*%
X103635000Y-92350000D02*
X104434999Y-91550001D01*
X104434999Y-91550001D02*
X104434999Y-84049999D01*
X104434999Y-84049999D02*
X101295000Y-80910000D01*
%TO.N,Net-(RN1-R1)*%
X101095000Y-92350000D02*
X103095000Y-90350000D01*
X103095000Y-90350000D02*
X103095000Y-87790000D01*
X103095000Y-87790000D02*
X101295000Y-85990000D01*
%TO.N,Net-(R1-Pad2)*%
X138295000Y-96075000D02*
X131180000Y-96075000D01*
X131180000Y-96075000D02*
X130905000Y-96350000D01*
%TO.N,Net-(RN2-R2)*%
X122434999Y-91550001D02*
X122434999Y-84049999D01*
X122434999Y-84049999D02*
X119295000Y-80910000D01*
X121635000Y-92350000D02*
X122434999Y-91550001D01*
%TO.N,Net-(RN2-R3)*%
X124175000Y-80710000D02*
X119295000Y-75830000D01*
X124175000Y-92350000D02*
X124175000Y-80710000D01*
%TO.N,Net-(RN2-R1)*%
X120795000Y-87490000D02*
X119295000Y-85990000D01*
X120795000Y-90650000D02*
X120795000Y-87490000D01*
X119095000Y-92350000D02*
X120795000Y-90650000D01*
%TO.N,Net-(RN2-R4)*%
X126715000Y-92350000D02*
X125415000Y-91050000D01*
X125415000Y-76870000D02*
X119295000Y-70750000D01*
X125415000Y-91050000D02*
X125415000Y-76870000D01*
%TO.N,Net-(RN3-R1)*%
X139595000Y-91290000D02*
X139595000Y-87490000D01*
X138535000Y-92350000D02*
X139595000Y-91290000D01*
X139595000Y-87490000D02*
X138095000Y-85990000D01*
%TO.N,Net-(RN3-R2)*%
X141075000Y-92350000D02*
X141075000Y-83890000D01*
X141075000Y-83890000D02*
X138095000Y-80910000D01*
%TO.N,Net-(RN3-R4)*%
X141495000Y-70750000D02*
X138095000Y-70750000D01*
X146155000Y-92350000D02*
X144095000Y-90290000D01*
X144095000Y-90290000D02*
X144095000Y-73350000D01*
X144095000Y-73350000D02*
X141495000Y-70750000D01*
%TO.N,Net-(RN3-R3)*%
X142815001Y-91550001D02*
X142815001Y-80550001D01*
X142815001Y-80550001D02*
X138095000Y-75830000D01*
X143615000Y-92350000D02*
X142815001Y-91550001D01*
%TO.N,Net-(J1-Pin_1)*%
X119095000Y-93850000D02*
X134495000Y-93850000D01*
X98095000Y-92810000D02*
X98555000Y-92350000D01*
X118055000Y-93850000D02*
X119095000Y-93850000D01*
X134495000Y-93850000D02*
X135995000Y-92350000D01*
X116555000Y-92350000D02*
X118055000Y-93850000D01*
X98555000Y-92350000D02*
X98555000Y-92810000D01*
X100595000Y-93850000D02*
X102095000Y-93850000D01*
X98555000Y-92810000D02*
X99595000Y-93850000D01*
X102095000Y-93850000D02*
X115055000Y-93850000D01*
X98095000Y-96350000D02*
X98095000Y-92810000D01*
X98095000Y-96350000D02*
X100595000Y-93850000D01*
X115055000Y-93850000D02*
X119095000Y-93850000D01*
X115055000Y-93850000D02*
X116555000Y-92350000D01*
X99595000Y-93850000D02*
X102095000Y-93850000D01*
%TD*%
M02*
