M48
; DRILL file {KiCad 8.0.9-8.0.9-0~ubuntu22.04.1} date 2025-03-06T20:20:19+0100
; FORMAT={-:-/ absolute / metric / decimal}
; #@! TF.CreationDate,2025-03-06T20:20:19+01:00
; #@! TF.GenerationSoftware,Kicad,Pcbnew,8.0.9-8.0.9-0~ubuntu22.04.1
; #@! TF.FileFunction,Plated,1,2,PTH
FMAT,2
METRIC
; #@! TA.AperFunction,Plated,PTH,ViaDrill
T1C0.300
; #@! TA.AperFunction,Plated,PTH,ComponentDrill
T2C0.800
; #@! TA.AperFunction,Plated,PTH,ComponentDrill
T3C1.000
; #@! TA.AperFunction,Plated,PTH,ComponentDrill
T4C1.100
; #@! TA.AperFunction,Plated,PTH,ComponentDrill
T5C1.300
%
G90
G05
T1
X135.789Y-105.146
X141.034Y-106.235
X142.05Y-107.597
X142.65Y-109.467
X149.02Y-119.027
X149.67Y-109.375
X152.972Y-119.027
X155.512Y-106.835
X155.766Y-111.828
X157.648Y-104.953
T2
X143.574Y-81.603
X143.574Y-84.143
X143.574Y-86.683
X143.574Y-89.223
X143.574Y-91.763
X143.574Y-94.303
X143.574Y-96.843
X143.574Y-99.383
X151.194Y-81.603
X151.194Y-84.143
X151.194Y-86.683
X151.194Y-89.223
X151.194Y-91.763
X151.194Y-94.303
X151.194Y-96.843
X151.194Y-99.383
X158.306Y-81.603
X158.306Y-84.143
X158.306Y-86.683
X158.306Y-89.223
X158.306Y-91.763
X158.306Y-94.303
X158.306Y-96.843
X158.306Y-99.383
X165.926Y-81.603
X165.926Y-84.143
X165.926Y-86.683
X165.926Y-89.223
X165.926Y-91.763
X165.926Y-94.303
X165.926Y-96.843
X165.926Y-99.383
X165.936Y-108.862
X165.936Y-111.402
X172.273Y-81.603
X172.273Y-84.143
X172.273Y-86.683
X172.273Y-89.223
X172.273Y-91.763
X172.273Y-94.303
X172.273Y-96.843
X172.273Y-99.383
X173.556Y-108.862
X173.556Y-111.402
X179.893Y-81.603
X179.893Y-84.143
X179.893Y-86.683
X179.893Y-89.223
X179.893Y-91.763
X179.893Y-94.303
X179.893Y-96.843
X179.893Y-99.383
T3
X131.128Y-117.503
X133.668Y-117.503
X136.208Y-117.503
X137.692Y-123.828
X137.692Y-149.228
X138.748Y-117.503
X140.232Y-123.828
X140.232Y-149.228
X142.772Y-123.828
X142.772Y-149.228
X145.312Y-123.828
X145.312Y-149.228
X147.852Y-123.828
X147.852Y-149.228
X150.392Y-123.828
X150.392Y-149.228
X152.932Y-123.828
X152.932Y-149.228
X155.472Y-123.828
X155.472Y-149.228
X158.012Y-123.828
X158.012Y-149.228
X160.552Y-123.828
X160.552Y-149.228
X163.092Y-123.828
X163.092Y-149.228
X165.632Y-123.828
X165.632Y-149.228
X168.172Y-123.828
X168.172Y-149.228
X170.244Y-115.725
X170.712Y-123.828
X170.712Y-149.228
X172.784Y-115.725
X173.252Y-123.828
X173.252Y-149.228
X175.324Y-115.725
X175.792Y-123.828
X175.792Y-149.228
X177.864Y-115.725
X178.332Y-123.828
X178.332Y-149.228
X180.872Y-123.828
X180.872Y-149.228
X183.412Y-123.828
X183.412Y-149.228
T4
X127.318Y-76.863
X127.318Y-80.927
X127.318Y-84.991
X127.318Y-89.055
X127.318Y-93.119
X127.318Y-97.183
X127.318Y-101.247
X127.318Y-105.311
X127.318Y-109.375
X127.318Y-113.439
X127.318Y-117.503
X127.318Y-124.107
X127.318Y-128.171
X127.318Y-132.235
X150.94Y-152.809
X155.004Y-152.809
X159.068Y-152.809
X163.132Y-152.809
X166.942Y-152.809
X171.006Y-152.809
X175.324Y-152.809
X183.706Y-87.023
X183.706Y-91.849
X183.706Y-96.675
X183.706Y-129.441
X183.706Y-133.251
T5
X128.563Y-146.21
X128.563Y-151.29
M30
