<?xml version="1.0" standalone="no"?>
<!DOCTYPE svg PUBLIC "-//W3C//DTD SVG 1.1//EN"
"http://www.w3.org/Graphics/SVG/1.1/DTD/svg11.dtd">
<svg width="226.961" height="155.15" viewBox="0 0 4728.35 3232.28" version="1.1"
xmlns="http://www.w3.org/2000/svg"
xmlns:xlink="http://www.w3.org/1999/xlink">
<circle cx="306.299" cy="2431.1" r="31.4961" style=""/>
<circle cx="506.299" cy="2431.1" r="31.4961" style=""/>
<circle cx="522.047" cy="2130.31" r="31.4961" style=""/>
<circle cx="522.047" cy="1930.31" r="31.4961" style=""/>
<circle cx="522.047" cy="1730.31" r="31.4961" style=""/>
<circle cx="522.047" cy="1530.31" r="31.4961" style=""/>
<circle cx="522.047" cy="1330.31" r="31.4961" style=""/>
<circle cx="522.047" cy="1130.31" r="31.4961" style=""/>
<circle cx="522.047" cy="930.315" r="31.4961" style=""/>
<circle cx="522.047" cy="730.315" r="31.4961" style=""/>
<circle cx="536.22" cy="383.858" r="31.4961" style=""/>
<circle cx="736.22" cy="383.858" r="31.4961" style=""/>
<circle cx="936.22" cy="383.858" r="31.4961" style=""/>
<circle cx="1136.22" cy="383.858" r="31.4961" style=""/>
<circle cx="1122.05" cy="730.315" r="31.4961" style=""/>
<circle cx="1122.05" cy="930.315" r="31.4961" style=""/>
<circle cx="1122.05" cy="1130.31" r="31.4961" style=""/>
<circle cx="1122.05" cy="1330.31" r="31.4961" style=""/>
<circle cx="1122.05" cy="1530.31" r="31.4961" style=""/>
<circle cx="1122.05" cy="1730.31" r="31.4961" style=""/>
<circle cx="1122.05" cy="1930.31" r="31.4961" style=""/>
<circle cx="706.299" cy="2431.1" r="31.4961" style=""/>
<circle cx="906.299" cy="2431.1" r="31.4961" style=""/>
<circle cx="1106.3" cy="2431.1" r="31.4961" style=""/>
<circle cx="1122.05" cy="2130.31" r="31.4961" style=""/>
<circle cx="1723.62" cy="2431.1" r="31.4961" style=""/>
<circle cx="1939.37" cy="2130.31" r="31.4961" style=""/>
<circle cx="1939.37" cy="1930.31" r="31.4961" style=""/>
<circle cx="1939.37" cy="1730.31" r="31.4961" style=""/>
<circle cx="1939.37" cy="1530.31" r="31.4961" style=""/>
<circle cx="1939.37" cy="1330.31" r="31.4961" style=""/>
<circle cx="1939.37" cy="1130.31" r="31.4961" style=""/>
<circle cx="1939.37" cy="930.315" r="31.4961" style=""/>
<circle cx="1939.37" cy="730.315" r="31.4961" style=""/>
<circle cx="1336.22" cy="383.858" r="31.4961" style=""/>
<circle cx="1911.02" cy="383.858" r="31.4961" style=""/>
<circle cx="2111.02" cy="383.858" r="31.4961" style=""/>
<circle cx="2311.02" cy="383.858" r="31.4961" style=""/>
<circle cx="2511.02" cy="383.858" r="31.4961" style=""/>
<circle cx="2711.02" cy="383.858" r="31.4961" style=""/>
<circle cx="2539.37" cy="730.315" r="31.4961" style=""/>
<circle cx="2539.37" cy="930.315" r="31.4961" style=""/>
<circle cx="2539.37" cy="1130.31" r="31.4961" style=""/>
<circle cx="2539.37" cy="1330.31" r="31.4961" style=""/>
<circle cx="2539.37" cy="1530.31" r="31.4961" style=""/>
<circle cx="2539.37" cy="1730.31" r="31.4961" style=""/>
<circle cx="2539.37" cy="1930.31" r="31.4961" style=""/>
<circle cx="2539.37" cy="2130.31" r="31.4961" style=""/>
<circle cx="2323.62" cy="2431.1" r="31.4961" style=""/>
<circle cx="2123.62" cy="2431.1" r="31.4961" style=""/>
<circle cx="1923.62" cy="2431.1" r="31.4961" style=""/>
<circle cx="2253.54" cy="2746.06" r="31.4961" style=""/>
<circle cx="2523.62" cy="2431.1" r="31.4961" style=""/>
<circle cx="2853.54" cy="2746.06" r="31.4961" style=""/>
<circle cx="3435.43" cy="2924.41" r="31.4961" style=""/>
<circle cx="3435.43" cy="2724.41" r="31.4961" style=""/>
<circle cx="3454.33" cy="2431.1" r="31.4961" style=""/>
<circle cx="3254.33" cy="2431.1" r="31.4961" style=""/>
<circle cx="3419.69" cy="2130.31" r="31.4961" style=""/>
<circle cx="3419.69" cy="1930.31" r="31.4961" style=""/>
<circle cx="3419.69" cy="1730.31" r="31.4961" style=""/>
<circle cx="3419.69" cy="1530.31" r="31.4961" style=""/>
<circle cx="3419.69" cy="1330.31" r="31.4961" style=""/>
<circle cx="3419.69" cy="1130.31" r="31.4961" style=""/>
<circle cx="3419.69" cy="930.315" r="31.4961" style=""/>
<circle cx="3419.69" cy="730.315" r="31.4961" style=""/>
<circle cx="3207.09" cy="383.858" r="31.4961" style=""/>
<circle cx="3407.09" cy="383.858" r="31.4961" style=""/>
<circle cx="3607.09" cy="383.858" r="31.4961" style=""/>
<circle cx="3807.09" cy="383.858" r="31.4961" style=""/>
<circle cx="4007.09" cy="383.858" r="31.4961" style=""/>
<circle cx="4207.09" cy="383.858" r="31.4961" style=""/>
<circle cx="4019.69" cy="730.315" r="31.4961" style=""/>
<circle cx="4019.69" cy="930.315" r="31.4961" style=""/>
<circle cx="4019.69" cy="1130.31" r="31.4961" style=""/>
<circle cx="4019.69" cy="1330.31" r="31.4961" style=""/>
<circle cx="4019.69" cy="1530.31" r="31.4961" style=""/>
<circle cx="4019.69" cy="1730.31" r="31.4961" style=""/>
<circle cx="4019.69" cy="1930.31" r="31.4961" style=""/>
<circle cx="4019.69" cy="2130.31" r="31.4961" style=""/>
<circle cx="3654.33" cy="2431.1" r="31.4961" style=""/>
<circle cx="3854.33" cy="2431.1" r="31.4961" style=""/>
<circle cx="4054.33" cy="2431.1" r="31.4961" style=""/>
<circle cx="4035.43" cy="2724.41" r="31.4961" style=""/>
<circle cx="4035.43" cy="2924.41" r="31.4961" style=""/>
<circle cx="270.079" cy="2746.06" r="43.3071" style=""/>
<circle cx="270.079" cy="2116.14" r="43.3071" style=""/>
<circle cx="270.079" cy="1722.44" r="43.3071" style=""/>
<circle cx="270.079" cy="1328.74" r="43.3071" style=""/>
<circle cx="270.079" cy="935.039" r="43.3071" style=""/>
<circle cx="1367.72" cy="930.315" r="43.3071" style=""/>
<circle cx="1687.4" cy="935.039" r="43.3071" style=""/>
<circle cx="1372.44" cy="1328.74" r="43.3071" style=""/>
<circle cx="1687.4" cy="1328.74" r="43.3071" style=""/>
<circle cx="1372.44" cy="1722.44" r="43.3071" style=""/>
<circle cx="1687.4" cy="1722.44" r="43.3071" style=""/>
<circle cx="1372.44" cy="2116.14" r="43.3071" style=""/>
<circle cx="1687.4" cy="2116.14" r="43.3071" style=""/>
<circle cx="1923.62" cy="2746.06" r="43.3071" style=""/>
<circle cx="2789.76" cy="2116.14" r="43.3071" style=""/>
<circle cx="3183.46" cy="2116.14" r="43.3071" style=""/>
<circle cx="2789.76" cy="1722.44" r="43.3071" style=""/>
<circle cx="3183.46" cy="1722.44" r="43.3071" style=""/>
<circle cx="2789.76" cy="1328.74" r="43.3071" style=""/>
<circle cx="3183.46" cy="1328.74" r="43.3071" style=""/>
<circle cx="2789.76" cy="935.039" r="43.3071" style=""/>
<circle cx="3183.46" cy="935.039" r="43.3071" style=""/>
<circle cx="4285.83" cy="935.039" r="43.3071" style=""/>
<circle cx="4285.83" cy="1328.74" r="43.3071" style=""/>
<circle cx="4285.83" cy="1722.44" r="43.3071" style=""/>
<circle cx="4285.83" cy="2116.14" r="43.3071" style=""/>
<circle cx="4364.57" cy="2431.1" r="43.3071" style=""/>
<circle cx="4285.83" cy="2903.54" r="43.3071" style=""/>
<circle cx="3104.72" cy="2903.54" r="43.3071" style=""/>
</svg>
