<?xml version="1.0" standalone="no"?>
<!DOCTYPE svg PUBLIC "-//W3C//DTD SVG 1.1//EN"
"http://www.w3.org/Graphics/SVG/1.1/DTD/svg11.dtd">
<svg width="226.961" height="155.15" viewBox="0 0 4728.35 3232.28" version="1.1"
xmlns="http://www.w3.org/2000/svg"
xmlns:xlink="http://www.w3.org/1999/xlink">
<polyline points="61.021,3112.2 62.155,3123.72 65.517,3134.8 70.973,3145.01 78.317,3153.96 87.267,3161.3 97.477,3166.76 108.555,3170.12 120.077,3171.26 4608.27,3171.26 4619.79,3170.12 4630.86,3166.76 4641.07,3161.3 4650.02,3153.96 4657.37,3145.01 4662.82,3134.8 4666.19,3123.72 4667.32,3112.2 4667.32,120.077 4666.19,108.555 4662.82,97.4768 4657.37,87.2668 4650.02,78.3168 4641.07,70.9728 4630.86,65.5168 4619.79,62.1548 4608.27,61.0208 120.077,61.0208 108.555,62.1548 97.477,65.5168 87.267,70.9728 78.317,78.3168 70.973,87.2668 65.517,97.4768 62.155,108.555 61.021,120.077 61.021,3112.2" style="stroke:rgb(103,198,105);stroke-width:118.110236;fill:none;stroke-opacity:0.5;stroke-linecap:round;stroke-linejoin:round;;fill:none"/>
<polyline points="61.021,3112.2 62.155,3123.72 65.517,3134.8 70.973,3145.01 78.317,3153.96 87.267,3161.3 97.477,3166.76 108.555,3170.12 120.077,3171.26 4608.27,3171.26 4619.79,3170.12 4630.86,3166.76 4641.07,3161.3 4650.02,3153.96 4657.37,3145.01 4662.82,3134.8 4666.19,3123.72 4667.32,3112.2 4667.32,120.077 4666.19,108.555 4662.82,97.4768 4657.37,87.2668 4650.02,78.3168 4641.07,70.9728 4630.86,65.5168 4619.79,62.1548 4608.27,61.0208 120.077,61.0208 108.555,62.1548 97.477,65.5168 87.267,70.9728 78.317,78.3168 70.973,87.2668 65.517,97.4768 62.155,108.555 61.021,120.077 61.021,3112.2" style="stroke:rgb(0,0,0);stroke-width:1px;fill:none;stroke-opacity:1;stroke-linecap:round;stroke-linejoin:round;;fill:none"/>
</svg>
