M48
; DRILL file {KiCad 8.0.8-8.0.8-0~ubuntu22.04.1} date 2025-02-12T21:26:31+0100
; FORMAT={-:-/ absolute / metric / decimal}
; #@! TF.CreationDate,2025-02-12T21:26:31+01:00
; #@! TF.GenerationSoftware,Kicad,Pcbnew,8.0.8-8.0.8-0~ubuntu22.04.1
; #@! TF.FileFunction,Plated,1,2,PTH
FMAT,2
METRIC
; #@! TA.AperFunction,Plated,PTH,ComponentDrill
T1C0.750
; #@! TA.AperFunction,Plated,PTH,ComponentDrill
T2C0.800
; #@! TA.AperFunction,Plated,PTH,ComponentDrill
T3C1.000
; #@! TA.AperFunction,Plated,PTH,ComponentDrill
T4C1.090
; #@! TA.AperFunction,Plated,PTH,ComponentDrill
T5C1.100
; #@! TA.AperFunction,Plated,PTH,ComponentDrill
T6C1.190
; #@! TA.AperFunction,Plated,PTH,ComponentDrill
T7C1.600
%
G90
G05
T1
X63.73Y-62.86
X65.0Y-62.86
X66.27Y-62.86
T2
X53.0Y-62.65
X53.0Y-75.35
X57.58Y-96.3
X57.583Y-121.696
X60.0Y-54.3
X60.0Y-67.0
X60.12Y-96.3
X60.123Y-121.696
X62.66Y-96.3
X62.66Y-121.7
X65.2Y-96.3
X65.2Y-121.7
X67.74Y-96.3
X67.74Y-121.7
X69.65Y-74.0
X69.65Y-84.0
X70.28Y-96.3
X70.28Y-121.7
X72.82Y-96.3
X72.82Y-121.7
X73.65Y-64.0
X75.36Y-96.3
X75.36Y-121.7
X75.65Y-80.0
X77.9Y-96.3
X77.9Y-121.7
X80.44Y-96.3
X80.44Y-121.7
X82.35Y-74.0
X82.35Y-84.0
X82.98Y-96.3
X82.98Y-121.7
X85.52Y-96.3
X85.52Y-121.7
X86.35Y-64.0
X88.06Y-96.3
X88.06Y-121.7
X88.35Y-80.0
X90.6Y-96.3
X90.6Y-121.7
X93.14Y-96.3
X93.14Y-121.7
X95.68Y-96.3
X95.68Y-121.7
X98.22Y-96.3
X98.22Y-121.7
X100.76Y-96.3
X100.76Y-121.7
X103.3Y-96.3
X103.3Y-121.7
T3
X93.625Y-79.025
X96.165Y-79.025
X98.705Y-79.025
X101.245Y-79.025
X103.785Y-79.025
X106.325Y-79.025
T4
X57.5Y-93.0
X57.53Y-127.0
X60.04Y-93.0
X60.07Y-127.0
X62.58Y-93.0
X62.61Y-127.0
X65.12Y-93.0
X65.15Y-127.0
X67.66Y-93.0
X67.69Y-127.0
X70.2Y-93.0
X70.23Y-127.0
X72.74Y-93.0
X72.77Y-127.0
X75.28Y-93.0
X75.31Y-127.0
X77.82Y-93.0
X77.85Y-127.0
X80.36Y-93.0
X80.39Y-127.0
X82.9Y-93.0
X82.93Y-127.0
X85.44Y-93.0
X85.47Y-127.0
X87.98Y-93.0
X88.01Y-127.0
X90.52Y-93.0
X90.55Y-127.0
X93.06Y-93.0
X93.09Y-127.0
X95.6Y-93.0
X95.63Y-127.0
X98.14Y-93.0
X98.17Y-127.0
X100.68Y-93.0
X100.71Y-127.0
X103.22Y-93.0
X103.25Y-127.0
T5
X86.0Y-53.92
X86.0Y-56.46
X86.0Y-59.0
T6
X53.46Y-57.0
X56.0Y-57.0
X90.46Y-54.0
X93.0Y-54.0
X95.54Y-54.0
X97.46Y-68.0
X100.0Y-68.0
T7
X65.0Y-67.76
X65.0Y-83.0
X71.88Y-69.0
X87.12Y-69.0
M30
