G04 #@! TF.GenerationSoftware,KiCad,Pcbnew,8.0.9-8.0.9-0~ubuntu22.04.1*
G04 #@! TF.CreationDate,2025-03-06T20:20:15+01:00*
G04 #@! TF.ProjectId,BrakeOutBoard,4272616b-654f-4757-9442-6f6172642e6b,rev?*
G04 #@! TF.SameCoordinates,Original*
G04 #@! TF.FileFunction,Copper,L1,Top*
G04 #@! TF.FilePolarity,Positive*
%FSLAX46Y46*%
G04 Gerber Fmt 4.6, Leading zero omitted, Abs format (unit mm)*
G04 Created by KiCad (PCBNEW 8.0.9-8.0.9-0~ubuntu22.04.1) date 2025-03-06 20:20:15*
%MOMM*%
%LPD*%
G01*
G04 APERTURE LIST*
G04 Aperture macros list*
%AMRoundRect*
0 Rectangle with rounded corners*
0 $1 Rounding radius*
0 $2 $3 $4 $5 $6 $7 $8 $9 X,Y pos of 4 corners*
0 Add a 4 corners polygon primitive as box body*
4,1,4,$2,$3,$4,$5,$6,$7,$8,$9,$2,$3,0*
0 Add four circle primitives for the rounded corners*
1,1,$1+$1,$2,$3*
1,1,$1+$1,$4,$5*
1,1,$1+$1,$6,$7*
1,1,$1+$1,$8,$9*
0 Add four rect primitives between the rounded corners*
20,1,$1+$1,$2,$3,$4,$5,0*
20,1,$1+$1,$4,$5,$6,$7,0*
20,1,$1+$1,$6,$7,$8,$9,0*
20,1,$1+$1,$8,$9,$2,$3,0*%
G04 Aperture macros list end*
G04 #@! TA.AperFunction,ComponentPad*
%ADD10R,1.600000X1.600000*%
G04 #@! TD*
G04 #@! TA.AperFunction,ComponentPad*
%ADD11O,1.600000X1.600000*%
G04 #@! TD*
G04 #@! TA.AperFunction,SMDPad,CuDef*
%ADD12RoundRect,0.200000X0.200000X0.275000X-0.200000X0.275000X-0.200000X-0.275000X0.200000X-0.275000X0*%
G04 #@! TD*
G04 #@! TA.AperFunction,SMDPad,CuDef*
%ADD13RoundRect,0.150000X-0.150000X0.590000X-0.150000X-0.590000X0.150000X-0.590000X0.150000X0.590000X0*%
G04 #@! TD*
G04 #@! TA.AperFunction,ComponentPad*
%ADD14RoundRect,0.250001X0.799999X-0.799999X0.799999X0.799999X-0.799999X0.799999X-0.799999X-0.799999X0*%
G04 #@! TD*
G04 #@! TA.AperFunction,ComponentPad*
%ADD15RoundRect,0.250001X0.799999X0.799999X-0.799999X0.799999X-0.799999X-0.799999X0.799999X-0.799999X0*%
G04 #@! TD*
G04 #@! TA.AperFunction,ComponentPad*
%ADD16R,1.950000X1.950000*%
G04 #@! TD*
G04 #@! TA.AperFunction,ComponentPad*
%ADD17C,1.950000*%
G04 #@! TD*
G04 #@! TA.AperFunction,SMDPad,CuDef*
%ADD18RoundRect,0.200000X-0.275000X0.200000X-0.275000X-0.200000X0.275000X-0.200000X0.275000X0.200000X0*%
G04 #@! TD*
G04 #@! TA.AperFunction,SMDPad,CuDef*
%ADD19O,0.400000X0.900000*%
G04 #@! TD*
G04 #@! TA.AperFunction,ComponentPad*
%ADD20RoundRect,0.250001X-0.799999X-0.799999X0.799999X-0.799999X0.799999X0.799999X-0.799999X0.799999X0*%
G04 #@! TD*
G04 #@! TA.AperFunction,SMDPad,CuDef*
%ADD21RoundRect,0.100000X0.100000X-0.225000X0.100000X0.225000X-0.100000X0.225000X-0.100000X-0.225000X0*%
G04 #@! TD*
G04 #@! TA.AperFunction,SMDPad,CuDef*
%ADD22RoundRect,0.200000X-0.200000X-0.275000X0.200000X-0.275000X0.200000X0.275000X-0.200000X0.275000X0*%
G04 #@! TD*
G04 #@! TA.AperFunction,ComponentPad*
%ADD23RoundRect,0.250001X-0.799999X0.799999X-0.799999X-0.799999X0.799999X-0.799999X0.799999X0.799999X0*%
G04 #@! TD*
G04 #@! TA.AperFunction,ComponentPad*
%ADD24R,1.700000X1.700000*%
G04 #@! TD*
G04 #@! TA.AperFunction,ComponentPad*
%ADD25O,1.700000X1.700000*%
G04 #@! TD*
G04 #@! TA.AperFunction,SMDPad,CuDef*
%ADD26O,2.050000X0.590000*%
G04 #@! TD*
G04 #@! TA.AperFunction,SMDPad,CuDef*
%ADD27RoundRect,0.140000X0.140000X0.170000X-0.140000X0.170000X-0.140000X-0.170000X0.140000X-0.170000X0*%
G04 #@! TD*
G04 #@! TA.AperFunction,SMDPad,CuDef*
%ADD28RoundRect,0.250000X0.900000X-1.000000X0.900000X1.000000X-0.900000X1.000000X-0.900000X-1.000000X0*%
G04 #@! TD*
G04 #@! TA.AperFunction,SMDPad,CuDef*
%ADD29RoundRect,0.140000X0.170000X-0.140000X0.170000X0.140000X-0.170000X0.140000X-0.170000X-0.140000X0*%
G04 #@! TD*
G04 #@! TA.AperFunction,SMDPad,CuDef*
%ADD30RoundRect,0.075000X0.075000X-0.437500X0.075000X0.437500X-0.075000X0.437500X-0.075000X-0.437500X0*%
G04 #@! TD*
G04 #@! TA.AperFunction,SMDPad,CuDef*
%ADD31RoundRect,0.075000X0.437500X-0.075000X0.437500X0.075000X-0.437500X0.075000X-0.437500X-0.075000X0*%
G04 #@! TD*
G04 #@! TA.AperFunction,HeatsinkPad*
%ADD32R,4.250000X4.250000*%
G04 #@! TD*
G04 #@! TA.AperFunction,ViaPad*
%ADD33C,0.600000*%
G04 #@! TD*
G04 #@! TA.AperFunction,Conductor*
%ADD34C,0.500000*%
G04 #@! TD*
G04 #@! TA.AperFunction,Conductor*
%ADD35C,0.200000*%
G04 #@! TD*
G04 APERTURE END LIST*
D10*
X158305600Y-81603200D03*
D11*
X158305600Y-84143200D03*
X158305600Y-86683200D03*
X158305600Y-89223200D03*
X158305600Y-91763200D03*
X158305600Y-94303200D03*
X158305600Y-96843200D03*
X158305600Y-99383200D03*
X165925600Y-99383200D03*
X165925600Y-96843200D03*
X165925600Y-94303200D03*
X165925600Y-91763200D03*
X165925600Y-89223200D03*
X165925600Y-86683200D03*
X165925600Y-84143200D03*
X165925600Y-81603200D03*
D12*
X150489600Y-120297200D03*
X148849600Y-120297200D03*
D13*
X145031600Y-133403200D03*
X143131600Y-133403200D03*
X144081600Y-135283200D03*
D14*
X127317600Y-109375200D03*
D15*
X171005600Y-152809200D03*
D16*
X128562600Y-146209700D03*
D17*
X128562600Y-151289700D03*
D18*
X152971600Y-115921200D03*
X152971600Y-117561200D03*
D19*
X149599600Y-77253200D03*
X148799600Y-77253200D03*
X147999600Y-77253200D03*
X147199600Y-77253200D03*
X147199600Y-78953200D03*
X147999600Y-78953200D03*
X148799600Y-78953200D03*
X149599600Y-78953200D03*
X159899600Y-104953200D03*
X160699600Y-104953200D03*
X161499600Y-104953200D03*
X162299600Y-104953200D03*
X162299600Y-103253200D03*
X161499600Y-103253200D03*
X160699600Y-103253200D03*
X159899600Y-103253200D03*
D14*
X127317600Y-101247200D03*
D12*
X144843600Y-130457200D03*
X143203600Y-130457200D03*
D20*
X150939600Y-152809200D03*
X159067600Y-152809200D03*
D21*
X143543600Y-140485200D03*
X144193600Y-140485200D03*
X144843600Y-140485200D03*
X144843600Y-138585200D03*
X144193600Y-138585200D03*
X143543600Y-138585200D03*
D22*
X146759600Y-136553200D03*
X148399600Y-136553200D03*
D23*
X183705600Y-91849200D03*
D19*
X136385600Y-99977200D03*
X137185600Y-99977200D03*
X137985600Y-99977200D03*
X138785600Y-99977200D03*
X138785600Y-98277200D03*
X137985600Y-98277200D03*
X137185600Y-98277200D03*
X136385600Y-98277200D03*
X177355600Y-77253200D03*
X176555600Y-77253200D03*
X175755600Y-77253200D03*
X174955600Y-77253200D03*
X174955600Y-78953200D03*
X175755600Y-78953200D03*
X176555600Y-78953200D03*
X177355600Y-78953200D03*
D24*
X183411800Y-149227800D03*
D25*
X180871800Y-149227800D03*
X178331800Y-149227800D03*
X175791800Y-149227800D03*
X173251800Y-149227800D03*
X170711800Y-149227800D03*
X168171800Y-149227800D03*
X165631800Y-149227800D03*
X163091800Y-149227800D03*
X160551800Y-149227800D03*
X158011800Y-149227800D03*
X155471800Y-149227800D03*
X152931800Y-149227800D03*
X150391800Y-149227800D03*
X147851800Y-149227800D03*
X145311800Y-149227800D03*
X142771800Y-149227800D03*
X140231800Y-149227800D03*
X137691800Y-149227800D03*
D26*
X166965600Y-134389200D03*
X166965600Y-135659200D03*
X166965600Y-136939200D03*
X166965600Y-138209200D03*
X172505600Y-138209200D03*
X172505600Y-136939200D03*
X172505600Y-135659200D03*
X172505600Y-134389200D03*
D20*
X155003600Y-152809200D03*
D14*
X127317600Y-105311200D03*
D24*
X137691800Y-123827800D03*
D25*
X140231800Y-123827800D03*
X142771800Y-123827800D03*
X145311800Y-123827800D03*
X147851800Y-123827800D03*
X150391800Y-123827800D03*
X152931800Y-123827800D03*
X155471800Y-123827800D03*
X158011800Y-123827800D03*
X160551800Y-123827800D03*
X163091800Y-123827800D03*
X165631800Y-123827800D03*
X168171800Y-123827800D03*
X170711800Y-123827800D03*
X173251800Y-123827800D03*
X175791800Y-123827800D03*
X178331800Y-123827800D03*
X180871800Y-123827800D03*
X183411800Y-123827800D03*
D14*
X127317600Y-132235200D03*
X127317600Y-124107200D03*
X127317600Y-84991200D03*
D27*
X147637600Y-120551200D03*
X146637600Y-120551200D03*
D24*
X177863600Y-115725200D03*
D25*
X175323600Y-115725200D03*
X172783600Y-115725200D03*
X170243600Y-115725200D03*
D28*
X152971600Y-141751200D03*
X152971600Y-137451200D03*
D23*
X183705600Y-87023200D03*
D12*
X170301600Y-132743200D03*
X168661600Y-132743200D03*
D22*
X146759600Y-133505200D03*
X148399600Y-133505200D03*
D10*
X172273100Y-81603200D03*
D11*
X172273100Y-84143200D03*
X172273100Y-86683200D03*
X172273100Y-89223200D03*
X172273100Y-91763200D03*
X172273100Y-94303200D03*
X172273100Y-96843200D03*
X172273100Y-99383200D03*
X179893100Y-99383200D03*
X179893100Y-96843200D03*
X179893100Y-94303200D03*
X179893100Y-91763200D03*
X179893100Y-89223200D03*
X179893100Y-86683200D03*
X179893100Y-84143200D03*
X179893100Y-81603200D03*
D23*
X183705600Y-133251200D03*
D10*
X143573600Y-81603200D03*
D11*
X143573600Y-84143200D03*
X143573600Y-86683200D03*
X143573600Y-89223200D03*
X143573600Y-91763200D03*
X143573600Y-94303200D03*
X143573600Y-96843200D03*
X143573600Y-99383200D03*
X151193600Y-99383200D03*
X151193600Y-96843200D03*
X151193600Y-94303200D03*
X151193600Y-91763200D03*
X151193600Y-89223200D03*
X151193600Y-86683200D03*
X151193600Y-84143200D03*
X151193600Y-81603200D03*
D14*
X127317600Y-89055200D03*
D20*
X163131600Y-152809200D03*
D24*
X131127600Y-117503200D03*
D25*
X133667600Y-117503200D03*
X136207600Y-117503200D03*
X138747600Y-117503200D03*
D22*
X146759600Y-138077200D03*
X148399600Y-138077200D03*
D14*
X127317600Y-128171200D03*
D23*
X183705600Y-129441200D03*
D22*
X146759600Y-135029200D03*
X148399600Y-135029200D03*
D18*
X157543600Y-106777200D03*
X157543600Y-108417200D03*
D14*
X127317600Y-80927200D03*
D10*
X165935600Y-108862200D03*
D11*
X165935600Y-111402200D03*
X173555600Y-111402200D03*
X173555600Y-108862200D03*
D14*
X127317600Y-97183200D03*
X127317600Y-117503200D03*
D29*
X154749600Y-113685200D03*
X154749600Y-112685200D03*
D28*
X152971600Y-134131200D03*
X152971600Y-129831200D03*
D15*
X166941600Y-152809200D03*
D12*
X158871600Y-112931200D03*
X157231600Y-112931200D03*
D14*
X127317600Y-113439200D03*
D30*
X146419600Y-117503200D03*
X147069600Y-117503200D03*
X147719600Y-117503200D03*
X148369600Y-117503200D03*
X149019600Y-117503200D03*
X149669600Y-117503200D03*
X150319600Y-117503200D03*
D31*
X151207100Y-116615700D03*
X151207100Y-115965700D03*
X151207100Y-115315700D03*
X151207100Y-114665700D03*
X151207100Y-114015700D03*
X151207100Y-113365700D03*
X151207100Y-112715700D03*
D30*
X150319600Y-111828200D03*
X149669600Y-111828200D03*
X149019600Y-111828200D03*
X148369600Y-111828200D03*
X147719600Y-111828200D03*
X147069600Y-111828200D03*
X146419600Y-111828200D03*
D31*
X145532100Y-112715700D03*
X145532100Y-113365700D03*
X145532100Y-114015700D03*
X145532100Y-114665700D03*
X145532100Y-115315700D03*
X145532100Y-115965700D03*
X145532100Y-116615700D03*
D32*
X148369600Y-114665700D03*
D14*
X127317600Y-93119200D03*
D20*
X175323600Y-152809200D03*
D19*
X163385600Y-77253200D03*
X162585600Y-77253200D03*
X161785600Y-77253200D03*
X160985600Y-77253200D03*
X160985600Y-78953200D03*
X161785600Y-78953200D03*
X162585600Y-78953200D03*
X163385600Y-78953200D03*
D23*
X183705600Y-96675200D03*
D19*
X174447600Y-104953200D03*
X175247600Y-104953200D03*
X176047600Y-104953200D03*
X176847600Y-104953200D03*
X176847600Y-103253200D03*
X176047600Y-103253200D03*
X175247600Y-103253200D03*
X174447600Y-103253200D03*
D23*
X127317600Y-76863200D03*
D12*
X148399600Y-131981200D03*
X146759600Y-131981200D03*
D33*
X135788800Y-105146400D03*
X157647600Y-104953200D03*
X155765600Y-111828000D03*
X149019600Y-119027200D03*
X152971600Y-119027200D03*
X142049600Y-107597200D03*
X149669600Y-109375200D03*
X142649600Y-109467200D03*
X141033600Y-106235200D03*
X155511600Y-106835200D03*
D34*
X154938000Y-136172000D02*
X152972000Y-134206000D01*
X148852000Y-138289000D02*
X149310000Y-138746000D01*
X154380000Y-139661000D02*
X154938000Y-139102000D01*
X148395000Y-137832000D02*
X148852000Y-138289000D01*
D35*
X148852000Y-138289000D02*
X148611000Y-138289000D01*
D34*
X150224000Y-139661000D02*
X154380000Y-139661000D01*
D35*
X149069000Y-138746000D02*
X148734000Y-138412000D01*
D34*
X154938000Y-139102000D02*
X154938000Y-136172000D01*
X149310000Y-138746000D02*
X150224000Y-139661000D01*
D35*
X149310000Y-138746000D02*
X149069000Y-138746000D01*
D34*
X152331000Y-137359000D02*
X149909000Y-134937000D01*
X149909000Y-134937000D02*
X148492000Y-134937000D01*
X167972600Y-113439200D02*
X170243600Y-113439200D01*
X164910000Y-135029000D02*
X165540000Y-135659000D01*
X146760000Y-126000600D02*
X146760000Y-130610000D01*
X181419600Y-113439200D02*
X185992000Y-118011600D01*
X185992000Y-126647200D02*
X185992000Y-127155200D01*
D35*
X156781600Y-116741200D02*
X156781600Y-116697700D01*
D34*
X165418000Y-132743000D02*
X164910000Y-133251000D01*
D35*
X147253000Y-132414000D02*
X147102000Y-132264000D01*
D34*
X148334000Y-125885000D02*
X150069000Y-124150000D01*
D35*
X146760000Y-136427000D02*
X147115000Y-136072000D01*
X149669600Y-123105600D02*
X150391800Y-123827800D01*
D34*
X168662000Y-132742800D02*
X168662000Y-130203200D01*
D35*
X147115000Y-136072000D02*
X147478000Y-135710000D01*
D34*
X168172000Y-149228000D02*
X168172000Y-149975000D01*
D35*
X154749600Y-113685200D02*
X154749600Y-114665700D01*
D34*
X163803000Y-144859000D02*
X168171800Y-149227800D01*
D35*
X151207100Y-114665700D02*
X154749600Y-114665700D01*
D34*
X143573600Y-144859000D02*
X163803000Y-144859000D01*
D35*
X161861600Y-125123200D02*
X161861600Y-121821200D01*
X149669600Y-117503200D02*
X149669600Y-123105600D01*
X147102000Y-132264000D02*
X147042000Y-132264000D01*
D34*
X145494000Y-137819000D02*
X145494000Y-139459000D01*
D35*
X146637600Y-120551200D02*
X149914200Y-123827800D01*
X150391800Y-130417400D02*
X151405600Y-131431200D01*
X146760000Y-130610000D02*
X146760000Y-131296000D01*
D34*
X164910000Y-133251000D02*
X164910000Y-135029000D01*
X128563000Y-151544000D02*
X131829000Y-148278000D01*
D35*
X147115000Y-136072000D02*
X146760000Y-136428000D01*
X151207000Y-113366000D02*
X151207000Y-113854000D01*
X147102000Y-132264000D02*
X146727000Y-131889000D01*
D34*
X175511600Y-140603200D02*
X181363600Y-134751200D01*
X185992000Y-133872800D02*
X185992000Y-127155200D01*
D35*
X151405600Y-131431200D02*
X155553600Y-131431200D01*
D34*
X168172000Y-149975000D02*
X171005900Y-152808900D01*
X143544000Y-144829400D02*
X143573600Y-144859000D01*
X185991800Y-126647000D02*
X185992000Y-126647200D01*
X165418000Y-132743000D02*
X168661800Y-132743000D01*
X170243600Y-113439200D02*
X181419600Y-113439200D01*
X185113600Y-134751200D02*
X185992000Y-133872800D01*
X127318000Y-124107000D02*
X129096000Y-125885000D01*
D35*
X155553600Y-131431200D02*
X161861600Y-125123200D01*
D34*
X165540000Y-135659000D02*
X166965000Y-135659000D01*
X181287200Y-147103200D02*
X178011600Y-147103200D01*
X178011600Y-147103200D02*
X175511600Y-144603200D01*
X175511600Y-144603200D02*
X175511600Y-140603200D01*
D35*
X151207000Y-113935000D02*
X151207000Y-114015700D01*
D34*
X146759800Y-136553200D02*
X145494000Y-137819000D01*
D35*
X156781600Y-116697700D02*
X154749600Y-114665700D01*
X150391800Y-123827800D02*
X150391800Y-130417400D01*
D34*
X185992000Y-127155200D02*
X185992000Y-127917000D01*
D35*
X161861600Y-121821200D02*
X156781600Y-116741200D01*
D34*
X145494000Y-139459000D02*
X145352000Y-139601000D01*
X146760000Y-130610000D02*
X146760000Y-131296000D01*
X168661000Y-132743000D02*
X165418000Y-132743000D01*
X145352000Y-139601000D02*
X143822000Y-139601000D01*
X183411800Y-149227800D02*
X181287200Y-147103200D01*
D35*
X131574000Y-148278000D02*
X131829000Y-148278000D01*
D34*
X185992000Y-127917000D02*
X185992000Y-118011600D01*
D35*
X151207000Y-113854000D02*
X151207000Y-113935000D01*
D34*
X181363600Y-134751200D02*
X185113600Y-134751200D01*
D35*
X147478000Y-135710000D02*
X147478000Y-132639000D01*
D34*
X146875600Y-125885000D02*
X146760000Y-126000600D01*
X183412000Y-149228000D02*
X183412000Y-149202800D01*
D35*
X128563000Y-151290000D02*
X131574000Y-148278000D01*
D34*
X143544000Y-139880000D02*
X143544000Y-144829400D01*
X131829000Y-148278000D02*
X135247000Y-144859000D01*
X146760000Y-131296000D02*
X146760000Y-131981000D01*
X165935600Y-111402200D02*
X167972600Y-113439200D01*
X170243600Y-115725200D02*
X170243600Y-113439200D01*
X168662000Y-130203200D02*
X179133800Y-130203200D01*
X143822000Y-139601000D02*
X143544000Y-139880000D01*
X129096000Y-125885000D02*
X148334000Y-125885000D01*
D35*
X151207000Y-114016000D02*
X151207000Y-114666000D01*
D34*
X182690000Y-126647000D02*
X185991800Y-126647000D01*
X179133800Y-130203200D02*
X182690000Y-126647000D01*
X135247000Y-144859000D02*
X143573600Y-144859000D01*
D35*
X147478000Y-132639000D02*
X147253000Y-132414000D01*
X148045000Y-136782000D02*
X148132000Y-136695000D01*
D34*
X148182200Y-141751200D02*
X152971600Y-141751200D01*
D35*
X144194000Y-140741000D02*
X144194000Y-140742000D01*
X148045000Y-136782000D02*
X148171000Y-136782000D01*
D34*
X146702000Y-139052000D02*
X146702000Y-138442000D01*
D35*
X146702000Y-139052000D02*
X146760000Y-138994000D01*
D34*
X146702000Y-140271000D02*
X146702000Y-139052000D01*
D35*
X146760000Y-138994000D02*
X146760000Y-138447000D01*
X145072901Y-141657899D02*
X145074000Y-141659000D01*
X145072901Y-141657899D02*
X145166202Y-141751200D01*
D34*
X146702000Y-138442000D02*
X146702000Y-137832000D01*
D35*
X145166202Y-141751200D02*
X148182200Y-141751200D01*
X144194000Y-140741000D02*
X144194000Y-140705000D01*
X144194000Y-140778000D02*
X145072901Y-141657899D01*
D34*
X146702000Y-140271000D02*
X148182200Y-141751200D01*
D35*
X144194000Y-140742000D02*
X144194000Y-140778000D01*
X148045000Y-136782000D02*
X146760000Y-138067000D01*
D34*
X170752000Y-141648000D02*
X178331800Y-149227800D01*
X170752000Y-135029000D02*
X170752000Y-141648000D01*
X166966000Y-134389000D02*
X170112000Y-134389000D01*
X170112000Y-134389000D02*
X170752000Y-135029000D01*
D35*
X167752000Y-138996000D02*
X167753000Y-138996000D01*
X166966000Y-138209000D02*
X168292000Y-138209000D01*
D34*
X166966000Y-139783000D02*
X166966000Y-145482000D01*
D35*
X166966000Y-139783000D02*
X167752000Y-138996000D01*
X168028100Y-138720600D02*
X168292000Y-138456000D01*
D34*
X166966000Y-138209000D02*
X166966000Y-139783000D01*
D35*
X167753000Y-138996000D02*
X167915000Y-138834000D01*
X168028100Y-138720600D02*
X168292300Y-138456400D01*
X168292000Y-138456000D02*
X168292000Y-138209000D01*
X168292300Y-138456400D02*
X168292300Y-138209200D01*
X167752000Y-138996000D02*
X168292000Y-138456000D01*
D34*
X166966000Y-145482000D02*
X170711800Y-149227800D01*
D35*
X167915000Y-138834000D02*
X168028100Y-138720600D01*
X166965600Y-138209200D02*
X168292300Y-138209200D01*
D34*
X180156000Y-149944000D02*
X177290000Y-152809000D01*
X180514000Y-149586000D02*
X180156000Y-149944000D01*
X177290000Y-152809000D02*
X175324000Y-152809000D01*
D35*
X180156000Y-149944000D02*
X180514000Y-149586000D01*
D34*
X145068000Y-133495300D02*
X145068000Y-132548000D01*
X145068000Y-136879000D02*
X145068000Y-133495300D01*
X144794000Y-136879000D02*
X145068000Y-136879000D01*
X145068000Y-130654000D02*
X144962000Y-130548000D01*
D35*
X145032000Y-132585000D02*
X145032000Y-132994000D01*
D34*
X143544000Y-138528000D02*
X143544000Y-138472000D01*
X143544000Y-138358000D02*
X143544000Y-138130000D01*
X143544000Y-138557000D02*
X143544000Y-138529000D01*
X145068000Y-132548000D02*
X145068000Y-130654000D01*
X143544000Y-138130000D02*
X144794000Y-136879000D01*
D35*
X145068000Y-132548000D02*
X145032000Y-132585000D01*
D34*
X143544000Y-138529000D02*
X143544000Y-138528000D01*
D35*
X143544000Y-138358000D02*
X143544000Y-138472000D01*
D34*
X143544000Y-138585000D02*
X143544000Y-138557000D01*
X143544000Y-138472000D02*
X143544000Y-138358000D01*
D35*
X159899600Y-103253200D02*
X159899600Y-98437200D01*
X159899600Y-98437200D02*
X158305600Y-96843200D01*
X162299600Y-103253200D02*
X162299600Y-101431200D01*
X162299600Y-101431200D02*
X161137600Y-100269200D01*
X161137600Y-100269200D02*
X161137600Y-84435200D01*
X161137600Y-84435200D02*
X158305600Y-81603200D01*
X160737600Y-100434886D02*
X160737600Y-89115200D01*
X161499600Y-101196886D02*
X160737600Y-100434886D01*
X160737600Y-89115200D02*
X158305600Y-86683200D01*
X161499600Y-103253200D02*
X161499600Y-101196886D01*
X160337600Y-100600572D02*
X160337600Y-93795200D01*
X160658600Y-103212200D02*
X160658600Y-100921572D01*
X160658600Y-100921572D02*
X160337600Y-100600572D01*
X160337600Y-93795200D02*
X158305600Y-91763200D01*
X174599600Y-89009700D02*
X172273100Y-86683200D01*
X174599600Y-99391828D02*
X174599600Y-89009700D01*
X176047600Y-100839828D02*
X174599600Y-99391828D01*
X176047600Y-103253200D02*
X176047600Y-100839828D01*
X174999600Y-84329700D02*
X172273100Y-81603200D01*
X176847600Y-103253200D02*
X176547600Y-102953200D01*
X176547600Y-100774142D02*
X174999600Y-99226142D01*
X176547600Y-102953200D02*
X176547600Y-100774142D01*
X174999600Y-99226142D02*
X174999600Y-84329700D01*
X173799600Y-98369700D02*
X172273100Y-96843200D01*
X174447600Y-100371200D02*
X173799600Y-99723200D01*
X174447600Y-103253200D02*
X174447600Y-100371200D01*
X173799600Y-99723200D02*
X173799600Y-98369700D01*
X175247600Y-103253200D02*
X175247600Y-100605514D01*
X175247600Y-100605514D02*
X174199600Y-99557514D01*
X174199600Y-99557514D02*
X174199600Y-93689700D01*
X174199600Y-93689700D02*
X172273100Y-91763200D01*
X158305600Y-108867200D02*
X157855600Y-108417200D01*
X158310600Y-108862200D02*
X158305600Y-108867200D01*
X165935600Y-108862200D02*
X158310600Y-108862200D01*
X172506000Y-134162000D02*
X172506000Y-134276000D01*
D34*
X172506000Y-133481000D02*
X171768000Y-132743000D01*
X171768000Y-132743000D02*
X170302000Y-132743000D01*
X172506000Y-134276000D02*
X172506000Y-134162000D01*
X172506000Y-134389000D02*
X172506000Y-134332500D01*
X172506000Y-134332500D02*
X172506000Y-134276000D01*
X172506000Y-134162000D02*
X172506000Y-133935000D01*
D35*
X172506000Y-133935000D02*
X172506000Y-134162000D01*
D34*
X172506000Y-133935000D02*
X172506000Y-133481000D01*
X139489100Y-135283200D02*
X128562600Y-146209700D01*
X144081600Y-135283200D02*
X139489100Y-135283200D01*
D35*
X129349600Y-111585600D02*
X129349600Y-119027200D01*
X159899600Y-104953200D02*
X176847600Y-104953200D01*
X157647600Y-104953200D02*
X159899600Y-104953200D01*
X135788800Y-105146400D02*
X136385600Y-104549600D01*
X129349600Y-119027200D02*
X125285600Y-123091200D01*
D34*
X145877000Y-132537000D02*
X145877000Y-129701000D01*
D35*
X136385600Y-99977200D02*
X138785600Y-99977200D01*
X125285600Y-126138600D02*
X127317900Y-128170900D01*
X136385600Y-104549600D02*
X136385600Y-99977200D01*
X135788800Y-105146400D02*
X129349600Y-111585600D01*
D34*
X146727000Y-133505000D02*
X146727000Y-134136000D01*
X145877000Y-129701000D02*
X144347000Y-128171000D01*
X144347000Y-128171000D02*
X127318000Y-128171000D01*
X145877000Y-132537000D02*
X146727000Y-133387000D01*
D35*
X146727000Y-134136000D02*
X146760000Y-134104000D01*
X125285600Y-123091200D02*
X125285600Y-126138600D01*
X146760000Y-134104000D02*
X146760000Y-133804000D01*
D34*
X146727000Y-134136000D02*
X146727000Y-134886000D01*
X143065600Y-131727200D02*
X143203600Y-131589200D01*
X143065600Y-133337200D02*
X143131600Y-133403200D01*
X143065600Y-132235200D02*
X143065600Y-133337200D01*
X143065600Y-132235200D02*
X143065600Y-131727200D01*
X127317600Y-132235200D02*
X143065600Y-132235200D01*
X143203600Y-131589200D02*
X143203600Y-130457200D01*
X175843000Y-126520000D02*
X175832000Y-126510000D01*
X175208000Y-127155000D02*
X175843000Y-126520000D01*
X148399600Y-133505200D02*
X148399600Y-131981200D01*
X148399600Y-131981200D02*
X157035800Y-131981200D01*
X157035800Y-131981200D02*
X161862000Y-127155000D01*
X175832000Y-126510000D02*
X175832000Y-123828000D01*
X161862000Y-127155000D02*
X175208000Y-127155000D01*
X152931800Y-123827800D02*
X152931800Y-129791400D01*
D35*
X155765600Y-111828000D02*
X150320000Y-111828000D01*
X150489600Y-120297200D02*
X151207100Y-119579700D01*
X151333200Y-116741200D02*
X154241600Y-116741200D01*
X158012000Y-120511600D02*
X158012000Y-123420000D01*
X151208000Y-116616000D02*
X151333200Y-116741200D01*
X154241600Y-116741200D02*
X158012000Y-120511600D01*
X151207100Y-119579700D02*
X151207100Y-116615700D01*
X150405800Y-110645200D02*
X156373248Y-110645200D01*
X156373248Y-110645200D02*
X158051600Y-112323552D01*
X149670000Y-111381000D02*
X150405800Y-110645200D01*
X158051600Y-113693200D02*
X165631800Y-121273400D01*
X149670000Y-111492000D02*
X149670000Y-111381000D01*
X165631800Y-121273400D02*
X165631800Y-123827800D01*
X158051600Y-112323552D02*
X158051600Y-113693200D01*
X179015600Y-77253200D02*
X179895600Y-78133200D01*
D34*
X166965000Y-136939000D02*
X164534000Y-136939000D01*
D35*
X163639600Y-117699200D02*
X158871600Y-112931200D01*
D34*
X165418000Y-128679000D02*
X178626000Y-128679000D01*
D35*
X177355600Y-77253200D02*
X179015600Y-77253200D01*
X151193600Y-78847200D02*
X151193600Y-81603200D01*
X163385600Y-77253200D02*
X165925600Y-77253200D01*
X147891600Y-120297200D02*
X147637600Y-120551200D01*
D34*
X163894000Y-130203000D02*
X165418000Y-128679000D01*
D35*
X175831600Y-117757200D02*
X177863600Y-115725200D01*
D34*
X178626000Y-128679000D02*
X183412000Y-123893000D01*
D35*
X152971600Y-117561200D02*
X152971600Y-119027200D01*
X179895600Y-78133200D02*
X179893100Y-78135700D01*
D34*
X183411800Y-119495400D02*
X183411800Y-123827800D01*
X164534000Y-136939000D02*
X163894000Y-136299000D01*
D35*
X163639600Y-117757200D02*
X163639600Y-117699200D01*
X149019600Y-117503200D02*
X149019600Y-120127200D01*
X147199600Y-77253200D02*
X149599600Y-77253200D01*
X148849600Y-120297200D02*
X147891600Y-120297200D01*
X179893100Y-78135700D02*
X179893100Y-81603200D01*
X163639600Y-117757200D02*
X175831600Y-117757200D01*
D34*
X177863600Y-115725200D02*
X179641600Y-115725200D01*
D35*
X149599600Y-77253200D02*
X151193600Y-78847200D01*
X165925600Y-81603200D02*
X165925600Y-77253200D01*
D34*
X179641600Y-115725200D02*
X183411800Y-119495400D01*
D35*
X149599600Y-77253200D02*
X163385600Y-77253200D01*
X165925600Y-77253200D02*
X177355600Y-77253200D01*
D34*
X163894000Y-136299000D02*
X163894000Y-130203000D01*
D35*
X151841200Y-115979200D02*
X151828000Y-115966000D01*
X160551600Y-123828000D02*
X160551600Y-122035200D01*
X154495600Y-115979200D02*
X151841200Y-115979200D01*
X160551600Y-122035200D02*
X154495600Y-115979200D01*
X151828000Y-115966000D02*
X151207400Y-115966000D01*
X177367228Y-98412963D02*
X177367228Y-82947572D01*
X179437465Y-100483200D02*
X177367228Y-98412963D01*
X183706000Y-99607828D02*
X182830628Y-100483200D01*
X169228000Y-96338100D02*
X172273100Y-99383200D01*
X177367228Y-82947572D02*
X173638856Y-79219200D01*
X173638856Y-79219200D02*
X170762542Y-79219200D01*
X170762542Y-79219200D02*
X169228000Y-80753742D01*
X169228000Y-80753742D02*
X169228000Y-96338100D01*
X183706000Y-97437200D02*
X183706000Y-99607828D01*
X182830628Y-100483200D02*
X179437465Y-100483200D01*
X182996314Y-100883200D02*
X179271779Y-100883200D01*
X169628000Y-80919428D02*
X169628000Y-91658100D01*
X185084000Y-98795514D02*
X182996314Y-100883200D01*
X183960000Y-92357200D02*
X185084000Y-93481200D01*
X169628000Y-91658100D02*
X172273100Y-94303200D01*
X179271779Y-100883200D02*
X176967228Y-98578649D01*
X170928228Y-79619200D02*
X169628000Y-80919428D01*
X176967228Y-98578649D02*
X176967228Y-83113258D01*
X185084000Y-93481200D02*
X185084000Y-98795514D01*
X176967228Y-83113258D02*
X173473170Y-79619200D01*
X173473170Y-79619200D02*
X170928228Y-79619200D01*
X170028000Y-86978100D02*
X172273100Y-89223200D01*
X176567228Y-83278944D02*
X173307484Y-80019200D01*
X185484000Y-88547200D02*
X185484000Y-98961200D01*
X179106093Y-101283200D02*
X176567228Y-98744335D01*
X183162000Y-101283200D02*
X179106093Y-101283200D01*
X171093914Y-80019200D02*
X170028000Y-81085114D01*
X173307484Y-80019200D02*
X171093914Y-80019200D01*
X185484000Y-98961200D02*
X183162000Y-101283200D01*
X183960000Y-87023200D02*
X185484000Y-88547200D01*
X176567228Y-98744335D02*
X176567228Y-83278944D01*
X170028000Y-81085114D02*
X170028000Y-86978100D01*
X181360000Y-131533000D02*
X181614000Y-131533000D01*
D34*
X172506000Y-135659000D02*
X177234000Y-135659000D01*
X177234000Y-135659000D02*
X181360000Y-131533000D01*
D35*
X181614000Y-131533000D02*
X183705600Y-129441400D01*
D34*
X181360000Y-131533000D02*
X183706000Y-129187000D01*
X181363600Y-133251200D02*
X179331800Y-135283000D01*
X172506000Y-136939000D02*
X177675800Y-136939000D01*
X183705600Y-133251200D02*
X181363600Y-133251200D01*
X177675800Y-136939000D02*
X179331800Y-135283000D01*
D35*
X148799600Y-79237200D02*
X148799600Y-86829200D01*
X153225600Y-100739200D02*
X145532100Y-108432700D01*
X145532100Y-108432700D02*
X145532100Y-112715700D01*
X148799600Y-86829200D02*
X151193600Y-89223200D01*
X153225600Y-100739200D02*
X153225600Y-91255200D01*
X153225600Y-91255200D02*
X151193600Y-89223200D01*
X151193600Y-101501200D02*
X143719600Y-108975200D01*
X147199600Y-79237200D02*
X147199600Y-95389200D01*
X143719600Y-108975200D02*
X143719600Y-114347200D01*
X147199600Y-95389200D02*
X151193600Y-99383200D01*
X144688400Y-115316000D02*
X145531800Y-115316000D01*
X143719600Y-114347200D02*
X144688400Y-115316000D01*
X151193600Y-101501200D02*
X151193600Y-99383200D01*
X144793010Y-114666000D02*
X145531800Y-114666000D01*
X152717600Y-95827200D02*
X151193600Y-94303200D01*
X147999600Y-79237200D02*
X147999600Y-91109200D01*
X144119600Y-113992590D02*
X144793010Y-114666000D01*
X144119600Y-109279514D02*
X144119600Y-113992590D01*
X152717600Y-100681514D02*
X144119600Y-109279514D01*
X147999600Y-91109200D02*
X151193600Y-94303200D01*
X152717600Y-100681514D02*
X152717600Y-95827200D01*
X146419600Y-111301400D02*
X146419600Y-111828200D01*
X153733600Y-100877828D02*
X146420000Y-108191428D01*
X146420000Y-111301000D02*
X146420000Y-111828000D01*
X149599600Y-82549200D02*
X151193600Y-84143200D01*
X153733600Y-86683200D02*
X151193600Y-84143200D01*
X146420000Y-111301000D02*
X146419600Y-111301400D01*
X146420000Y-108191428D02*
X146420000Y-111301000D01*
X153733600Y-100877828D02*
X153733600Y-86683200D01*
X149599600Y-79237200D02*
X149599600Y-82549200D01*
X164763600Y-100593200D02*
X163131600Y-98961200D01*
X164401600Y-87699200D02*
X165925600Y-89223200D01*
X156839286Y-79657200D02*
X154933600Y-81562886D01*
X162585600Y-79203200D02*
X164401600Y-81019200D01*
X163131600Y-82197200D02*
X160591600Y-79657200D01*
X148370000Y-108134800D02*
X148370000Y-111453500D01*
X163131600Y-98961200D02*
X163131600Y-82197200D01*
X165925600Y-89223200D02*
X167303600Y-90601200D01*
X154933600Y-81562886D02*
X154933600Y-101571200D01*
X167303600Y-100099514D02*
X166809914Y-100593200D01*
X164401600Y-81019200D02*
X164401600Y-87699200D01*
X166809914Y-100593200D02*
X164763600Y-100593200D01*
X160591600Y-79657200D02*
X156839286Y-79657200D01*
X154933600Y-101571200D02*
X148370000Y-108134800D01*
X167303600Y-90601200D02*
X167303600Y-100099514D01*
X164801600Y-83019200D02*
X165925600Y-84143200D01*
X155333600Y-81728572D02*
X157004972Y-80057200D01*
X157004972Y-80057200D02*
X160229600Y-80057200D01*
X160229600Y-80057200D02*
X162699600Y-82527200D01*
X155333600Y-101736886D02*
X155333600Y-81728572D01*
X162699600Y-99094886D02*
X164597914Y-100993200D01*
X149020000Y-108050486D02*
X155333600Y-101736886D01*
X149020000Y-111636000D02*
X149020000Y-108050486D01*
X164801600Y-80369200D02*
X164801600Y-83019200D01*
X162699600Y-82527200D02*
X162699600Y-99094886D01*
X166975600Y-100993200D02*
X167703600Y-100265200D01*
X164597914Y-100993200D02*
X166975600Y-100993200D01*
X167703600Y-100265200D02*
X167703600Y-85921200D01*
X163385600Y-78953200D02*
X164801600Y-80369200D01*
X167703600Y-85921200D02*
X165925600Y-84143200D01*
X147719600Y-111827600D02*
X147719600Y-108023200D01*
X157347600Y-78953200D02*
X160985600Y-78953200D01*
X161285600Y-79410307D02*
X163531600Y-81656307D01*
X154533600Y-101209200D02*
X154533600Y-81397200D01*
X163531600Y-81656307D02*
X163531600Y-96989200D01*
X147719600Y-108023200D02*
X154533600Y-101209200D01*
X163531600Y-96989200D02*
X165925600Y-99383200D01*
X157035600Y-78895200D02*
X157289600Y-78895200D01*
X157289600Y-78895200D02*
X157347600Y-78953200D01*
X160985600Y-78953200D02*
X161285600Y-79253200D01*
X161285600Y-79253200D02*
X161285600Y-79410307D01*
X154533600Y-81397200D02*
X157035600Y-78895200D01*
X161785600Y-78953200D02*
X162085600Y-79253200D01*
X161285600Y-78203200D02*
X161785600Y-78703200D01*
X147069600Y-108107514D02*
X154133600Y-101043514D01*
X163931600Y-92309200D02*
X165925600Y-94303200D01*
X154133600Y-81231514D02*
X157161914Y-78203200D01*
X154133600Y-101043514D02*
X154133600Y-81231514D01*
X147069600Y-111828200D02*
X147069600Y-108107514D01*
X162085600Y-79410307D02*
X163931600Y-81256307D01*
X157161914Y-78203200D02*
X161285600Y-78203200D01*
X162085600Y-79253200D02*
X162085600Y-79410307D01*
X163931600Y-81256307D02*
X163931600Y-92309200D01*
X146113600Y-119027200D02*
X146420000Y-118720800D01*
X175755600Y-78953200D02*
X175755600Y-80204572D01*
X142049600Y-107597200D02*
X142049600Y-117249200D01*
X178225600Y-82674572D02*
X178225600Y-92635700D01*
X142049600Y-117249200D02*
X143827600Y-119027200D01*
X143827600Y-119027200D02*
X146113600Y-119027200D01*
X146420000Y-118226000D02*
X146420000Y-117985000D01*
X146419600Y-118225600D02*
X146419600Y-117503200D01*
X178225600Y-92635700D02*
X179893100Y-94303200D01*
X146420000Y-118226000D02*
X146419600Y-118225600D01*
X175755600Y-80204572D02*
X178225600Y-82674572D01*
X146420000Y-118720800D02*
X146420000Y-118226000D01*
X142649600Y-109467200D02*
X142557600Y-109559200D01*
X184467600Y-105819200D02*
X185884000Y-104402800D01*
X178625600Y-82508886D02*
X178625600Y-87955700D01*
X182689600Y-85245200D02*
X181673600Y-86261200D01*
X185884000Y-104402800D02*
X185884000Y-86153600D01*
X176555600Y-80438886D02*
X178625600Y-82508886D01*
X149669600Y-108105200D02*
X149669600Y-109375200D01*
X143194400Y-116616000D02*
X145531800Y-116616000D01*
X142557600Y-109559200D02*
X142557600Y-115979200D01*
X181673600Y-87442700D02*
X179893100Y-89223200D01*
X176555600Y-78953200D02*
X176555600Y-80438886D01*
X178625600Y-87955700D02*
X179893100Y-89223200D01*
X142557600Y-115979200D02*
X143194400Y-116616000D01*
X149669600Y-108029200D02*
X151879600Y-105819200D01*
X185884000Y-86153600D02*
X184975600Y-85245200D01*
X181673600Y-86261200D02*
X181673600Y-87442700D01*
X151879600Y-105819200D02*
X184467600Y-105819200D01*
X184975600Y-85245200D02*
X182689600Y-85245200D01*
X175889915Y-80904572D02*
X177825600Y-82840258D01*
X174955600Y-78953200D02*
X174955600Y-79970258D01*
X174955600Y-79970258D02*
X175872071Y-80886729D01*
X177825600Y-82840258D02*
X177825600Y-97315700D01*
X141033600Y-116994600D02*
X143828000Y-119789000D01*
X141033600Y-116994600D02*
X141033600Y-106235200D01*
X147070000Y-119087000D02*
X147070000Y-117899000D01*
X175872071Y-80886729D02*
X175889915Y-80904572D01*
X143828000Y-119789000D02*
X146368000Y-119789000D01*
X146368000Y-119789000D02*
X147070000Y-119087000D01*
X177825600Y-97315700D02*
X179893100Y-99383200D01*
X177355600Y-80673200D02*
X179893100Y-83210700D01*
X181165600Y-82870700D02*
X179893100Y-84143200D01*
X145531800Y-115966000D02*
X144576400Y-115966000D01*
X178683286Y-76355200D02*
X181165600Y-78837514D01*
X146367600Y-76355200D02*
X178683286Y-76355200D01*
X181165600Y-78837514D02*
X181165600Y-82870700D01*
X143319600Y-114709200D02*
X143319600Y-108613200D01*
X145605600Y-106327200D02*
X145605600Y-77117200D01*
X143319600Y-108613200D02*
X145605600Y-106327200D01*
X179893100Y-83210700D02*
X179893100Y-84143200D01*
X145605600Y-77117200D02*
X146367600Y-76355200D01*
X144576400Y-115966000D02*
X143319600Y-114709200D01*
X177355600Y-78953200D02*
X177355600Y-80673200D01*
X151207100Y-112715700D02*
X157016100Y-112715700D01*
X138785600Y-98277200D02*
X142139600Y-98277200D01*
X142139600Y-98277200D02*
X143573600Y-96843200D01*
X136385600Y-88791200D02*
X136385600Y-89817200D01*
X136386000Y-89131700D02*
X136385600Y-89132100D01*
X143573600Y-81603200D02*
X136385600Y-88791200D01*
X136385600Y-89817200D02*
X136385600Y-98277200D01*
X136385600Y-89132100D02*
X136385600Y-89817200D01*
X137185600Y-93071200D02*
X137185600Y-98277200D01*
X143573600Y-86683200D02*
X137185600Y-93071200D01*
X142135600Y-91763200D02*
X137985600Y-95913200D01*
X143573600Y-91763200D02*
X142135600Y-91763200D01*
X137985600Y-95913200D02*
X137985600Y-98277200D01*
D34*
X160181000Y-151696000D02*
X159810000Y-152067000D01*
D35*
X160552000Y-150276000D02*
X160552000Y-149752000D01*
D34*
X160552000Y-149752000D02*
X160552000Y-150276000D01*
X160552000Y-151325000D02*
X160181000Y-151696000D01*
X160552000Y-150276000D02*
X160552000Y-151325000D01*
D35*
X160181000Y-151696000D02*
X159810000Y-152067000D01*
X163092000Y-150998000D02*
X163092000Y-150113000D01*
D34*
X163092000Y-150113000D02*
X163092000Y-150998000D01*
X163092000Y-150998000D02*
X163092000Y-151884000D01*
D35*
X163092000Y-150113000D02*
X163092000Y-149670000D01*
D34*
X163092000Y-149670000D02*
X163092000Y-150113000D01*
X163092000Y-151884000D02*
X163092000Y-152769000D01*
X147852000Y-149721000D02*
X150939600Y-152808600D01*
D35*
X155569600Y-106777200D02*
X157543600Y-106777200D01*
X155511600Y-106835200D02*
X155569600Y-106777200D01*
M02*
