%TF.GenerationSoftware,KiCad,Pcbnew,8.0.9-8.0.9-0~ubuntu22.04.1*%
%TF.CreationDate,2025-03-06T09:29:29+01:00*%
%TF.ProjectId,BrakeOutBoard,4272616b-654f-4757-9442-6f6172642e6b,rev?*%
%TF.SameCoordinates,Original*%
%TF.FileFunction,Legend,Top*%
%TF.FilePolarity,Positive*%
%FSLAX46Y46*%
G04 Gerber Fmt 4.6, Leading zero omitted, Abs format (unit mm)*
G04 Created by KiCad (PCBNEW 8.0.9-8.0.9-0~ubuntu22.04.1) date 2025-03-06 09:29:29*
%MOMM*%
%LPD*%
G01*
G04 APERTURE LIST*
G04 Aperture macros list*
%AMRoundRect*
0 Rectangle with rounded corners*
0 $1 Rounding radius*
0 $2 $3 $4 $5 $6 $7 $8 $9 X,Y pos of 4 corners*
0 Add a 4 corners polygon primitive as box body*
4,1,4,$2,$3,$4,$5,$6,$7,$8,$9,$2,$3,0*
0 Add four circle primitives for the rounded corners*
1,1,$1+$1,$2,$3*
1,1,$1+$1,$4,$5*
1,1,$1+$1,$6,$7*
1,1,$1+$1,$8,$9*
0 Add four rect primitives between the rounded corners*
20,1,$1+$1,$2,$3,$4,$5,0*
20,1,$1+$1,$4,$5,$6,$7,0*
20,1,$1+$1,$6,$7,$8,$9,0*
20,1,$1+$1,$8,$9,$2,$3,0*%
G04 Aperture macros list end*
%ADD10C,0.120000*%
%ADD11C,0.150000*%
%ADD12C,0.127000*%
%ADD13C,0.200000*%
%TA.AperFunction,ComponentPad*%
%ADD14R,1.600000X1.600000*%
%TD*%
%TA.AperFunction,ComponentPad*%
%ADD15O,1.600000X1.600000*%
%TD*%
%TA.AperFunction,ComponentPad*%
%ADD16RoundRect,0.250001X0.799999X-0.799999X0.799999X0.799999X-0.799999X0.799999X-0.799999X-0.799999X0*%
%TD*%
%TA.AperFunction,ComponentPad*%
%ADD17RoundRect,0.250001X0.799999X0.799999X-0.799999X0.799999X-0.799999X-0.799999X0.799999X-0.799999X0*%
%TD*%
%TA.AperFunction,ComponentPad*%
%ADD18R,1.950000X1.950000*%
%TD*%
%TA.AperFunction,ComponentPad*%
%ADD19C,1.950000*%
%TD*%
%TA.AperFunction,ComponentPad*%
%ADD20RoundRect,0.250001X-0.799999X-0.799999X0.799999X-0.799999X0.799999X0.799999X-0.799999X0.799999X0*%
%TD*%
%TA.AperFunction,ComponentPad*%
%ADD21RoundRect,0.250001X-0.799999X0.799999X-0.799999X-0.799999X0.799999X-0.799999X0.799999X0.799999X0*%
%TD*%
%TA.AperFunction,ComponentPad*%
%ADD22R,1.700000X1.700000*%
%TD*%
%TA.AperFunction,ComponentPad*%
%ADD23O,1.700000X1.700000*%
%TD*%
%TA.AperFunction,ViaPad*%
%ADD24C,0.600000*%
%TD*%
%TA.AperFunction,Conductor*%
%ADD25C,0.200000*%
%TD*%
G04 APERTURE END LIST*
D10*
%TO.C,U1*%
X159465600Y-80273200D02*
X159465600Y-100713200D01*
X159465600Y-100713200D02*
X164765600Y-100713200D01*
X161115600Y-80273200D02*
X159465600Y-80273200D01*
X164765600Y-80273200D02*
X163115600Y-80273200D01*
X164765600Y-100713200D02*
X164765600Y-80273200D01*
X163115600Y-80273200D02*
G75*
G02*
X161115600Y-80273200I-1000000J0D01*
G01*
D11*
%TO.C,Q2*%
X142521600Y-134343200D02*
X142521600Y-133693200D01*
X142521600Y-134343200D02*
X142521600Y-134993200D01*
X145641600Y-134343200D02*
X145641600Y-133693200D01*
X145641600Y-134343200D02*
X145641600Y-134993200D01*
D10*
X145921600Y-133420700D02*
X145591600Y-133180700D01*
X145921600Y-132940700D01*
X145921600Y-133420700D01*
G36*
X145921600Y-133420700D02*
G01*
X145591600Y-133180700D01*
X145921600Y-132940700D01*
X145921600Y-133420700D01*
G37*
D12*
%TO.C,USB_OUT_1*%
X124512600Y-143669700D02*
X124512600Y-153829700D01*
X124512600Y-153829700D02*
X132662600Y-153829700D01*
X132662600Y-143669700D02*
X124512600Y-143669700D01*
X132662600Y-153829700D02*
X132662600Y-143669700D01*
D13*
X128662600Y-142569700D02*
G75*
G02*
X128462600Y-142569700I-100000J0D01*
G01*
X128462600Y-142569700D02*
G75*
G02*
X128662600Y-142569700I100000J0D01*
G01*
D11*
%TO.C,R9*%
X146699600Y-77303200D02*
X146699600Y-78903200D01*
X150099600Y-77303200D02*
X150099600Y-78903200D01*
%TO.C,R7*%
X159399600Y-104903200D02*
X159399600Y-103303200D01*
X162799600Y-104903200D02*
X162799600Y-103303200D01*
D10*
%TO.C,Q1*%
X143033600Y-140245200D02*
X143033600Y-138835200D01*
X145353600Y-140235200D02*
X145353600Y-138835200D01*
X143083600Y-140615200D02*
X142753600Y-140855200D01*
X142753600Y-140375200D01*
X143083600Y-140615200D01*
G36*
X143083600Y-140615200D02*
G01*
X142753600Y-140855200D01*
X142753600Y-140375200D01*
X143083600Y-140615200D01*
G37*
D11*
%TO.C,R301*%
X135885600Y-99927200D02*
X135885600Y-98327200D01*
X139285600Y-99927200D02*
X139285600Y-98327200D01*
%TO.C,R13*%
X174455600Y-77303200D02*
X174455600Y-78903200D01*
X177855600Y-77303200D02*
X177855600Y-78903200D01*
D10*
%TO.C,J20*%
X136361800Y-147897800D02*
X136361800Y-150557800D01*
X182141800Y-147897800D02*
X136361800Y-147897800D01*
X182141800Y-147897800D02*
X182141800Y-150557800D01*
X182141800Y-150557800D02*
X136361800Y-150557800D01*
X184741800Y-149227800D02*
X184741800Y-150557800D01*
X184741800Y-150557800D02*
X183411800Y-150557800D01*
D11*
%TO.C,U101*%
X168215600Y-133769200D02*
X171255600Y-133769200D01*
X168215600Y-138829200D02*
X168215600Y-133769200D01*
X171255600Y-133769200D02*
X171255600Y-138829200D01*
X171255600Y-138829200D02*
X168215600Y-138829200D01*
X168015600Y-133799200D02*
G75*
G02*
X167955600Y-133799200I-30000J0D01*
G01*
X167955600Y-133799200D02*
G75*
G02*
X168015600Y-133799200I30000J0D01*
G01*
D10*
%TO.C,J5*%
X136361800Y-122497800D02*
X137691800Y-122497800D01*
X136361800Y-123827800D02*
X136361800Y-122497800D01*
X138961800Y-122497800D02*
X184741800Y-122497800D01*
X138961800Y-125157800D02*
X138961800Y-122497800D01*
X138961800Y-125157800D02*
X184741800Y-125157800D01*
X184741800Y-125157800D02*
X184741800Y-122497800D01*
%TO.C,GPS_1*%
X168913600Y-114395200D02*
X168913600Y-117055200D01*
X176593600Y-114395200D02*
X168913600Y-114395200D01*
X176593600Y-114395200D02*
X176593600Y-117055200D01*
X176593600Y-117055200D02*
X168913600Y-117055200D01*
X179193600Y-115725200D02*
X179193600Y-117055200D01*
X179193600Y-117055200D02*
X177863600Y-117055200D01*
D11*
%TO.C,D2*%
X150821600Y-143261200D02*
X150821600Y-137451200D01*
X150821600Y-143261200D02*
X155121600Y-143261200D01*
X155121600Y-143261200D02*
X155121600Y-137451200D01*
D10*
%TO.C,U4*%
X173433100Y-80273200D02*
X173433100Y-100713200D01*
X173433100Y-100713200D02*
X178733100Y-100713200D01*
X175083100Y-80273200D02*
X173433100Y-80273200D01*
X178733100Y-80273200D02*
X177083100Y-80273200D01*
X178733100Y-100713200D02*
X178733100Y-80273200D01*
X177083100Y-80273200D02*
G75*
G02*
X175083100Y-80273200I-1000000J0D01*
G01*
%TO.C,U2*%
X144733600Y-80273200D02*
X144733600Y-100713200D01*
X144733600Y-100713200D02*
X150033600Y-100713200D01*
X146383600Y-80273200D02*
X144733600Y-80273200D01*
X150033600Y-80273200D02*
X148383600Y-80273200D01*
X150033600Y-100713200D02*
X150033600Y-80273200D01*
X148383600Y-80273200D02*
G75*
G02*
X146383600Y-80273200I-1000000J0D01*
G01*
%TO.C,BME_280*%
X129797600Y-116173200D02*
X131127600Y-116173200D01*
X129797600Y-117503200D02*
X129797600Y-116173200D01*
X132397600Y-116173200D02*
X140077600Y-116173200D01*
X132397600Y-118833200D02*
X132397600Y-116173200D01*
X132397600Y-118833200D02*
X140077600Y-118833200D01*
X140077600Y-118833200D02*
X140077600Y-116173200D01*
%TO.C,U3*%
X167095600Y-107532200D02*
X167095600Y-112732200D01*
X167095600Y-112732200D02*
X172395600Y-112732200D01*
X168745600Y-107532200D02*
X167095600Y-107532200D01*
X172395600Y-107532200D02*
X170745600Y-107532200D01*
X172395600Y-112732200D02*
X172395600Y-107532200D01*
X170745600Y-107532200D02*
G75*
G02*
X168745600Y-107532200I-1000000J0D01*
G01*
D11*
%TO.C,D1*%
X150821600Y-135641200D02*
X150821600Y-129831200D01*
X150821600Y-135641200D02*
X155121600Y-135641200D01*
X155121600Y-135641200D02*
X155121600Y-129831200D01*
D10*
%TO.C,U501*%
X145259600Y-111555700D02*
X146009600Y-111555700D01*
X145259600Y-112305700D02*
X145259600Y-111555700D01*
X145259600Y-117025700D02*
X145259600Y-117475700D01*
X146009600Y-117775700D02*
X145499600Y-117775700D01*
X151479600Y-111555700D02*
X150729600Y-111555700D01*
X151479600Y-112305700D02*
X151479600Y-111555700D01*
X151479600Y-117025700D02*
X151479600Y-117775700D01*
X151479600Y-117775700D02*
X150729600Y-117775700D01*
X145259600Y-117775700D02*
X144929600Y-118015700D01*
X144929600Y-117535700D01*
X145259600Y-117775700D01*
G36*
X145259600Y-117775700D02*
G01*
X144929600Y-118015700D01*
X144929600Y-117535700D01*
X145259600Y-117775700D01*
G37*
D11*
%TO.C,R10*%
X160485600Y-77303200D02*
X160485600Y-78903200D01*
X163885600Y-77303200D02*
X163885600Y-78903200D01*
%TO.C,R11*%
X173947600Y-104903200D02*
X173947600Y-103303200D01*
X177347600Y-104903200D02*
X177347600Y-103303200D01*
%TD*%
D14*
%TO.P,U1,1*%
%TO.N,Net-(R7-Pad5)*%
X158305600Y-81603200D03*
D15*
%TO.P,U1,2*%
%TO.N,/Optocopler/BrakePads*%
X158305600Y-84143200D03*
%TO.P,U1,3*%
%TO.N,Net-(R7-Pad6)*%
X158305600Y-86683200D03*
%TO.P,U1,4*%
%TO.N,/Optocopler/MotorCap*%
X158305600Y-89223200D03*
%TO.P,U1,5*%
%TO.N,Net-(R7-Pad7)*%
X158305600Y-91763200D03*
%TO.P,U1,6*%
%TO.N,/Optocopler/WhiperWater*%
X158305600Y-94303200D03*
%TO.P,U1,7*%
%TO.N,Net-(R7-Pad8)*%
X158305600Y-96843200D03*
%TO.P,U1,8*%
%TO.N,Net-(BF_1-Pin_1)*%
X158305600Y-99383200D03*
%TO.P,U1,9*%
%TO.N,PortExpander GPA2*%
X165925600Y-99383200D03*
%TO.P,U1,10*%
%TO.N,3\u002C3 V from ESP*%
X165925600Y-96843200D03*
%TO.P,U1,11*%
%TO.N,PortExpander GPA3*%
X165925600Y-94303200D03*
%TO.P,U1,12*%
%TO.N,3\u002C3 V from ESP*%
X165925600Y-91763200D03*
%TO.P,U1,13*%
%TO.N,PortExpander GPA1*%
X165925600Y-89223200D03*
%TO.P,U1,14*%
%TO.N,3\u002C3 V from ESP*%
X165925600Y-86683200D03*
%TO.P,U1,15*%
%TO.N,PortExpander GPA0*%
X165925600Y-84143200D03*
%TO.P,U1,16*%
%TO.N,3\u002C3 V from ESP*%
X165925600Y-81603200D03*
%TD*%
D16*
%TO.P,BF_1,1,Pin_1*%
%TO.N,Net-(BF_1-Pin_1)*%
X127317600Y-109375200D03*
%TD*%
D17*
%TO.P,GND_1,1,Pin_1*%
%TO.N,GND*%
X171005600Y-152809200D03*
%TD*%
D18*
%TO.P,USB_OUT_1,1,1*%
%TO.N,/Latch_Circuit/12 V out*%
X128562600Y-146209700D03*
D19*
%TO.P,USB_OUT_1,2,2*%
%TO.N,GND*%
X128562600Y-151289700D03*
%TD*%
D16*
%TO.P,MC_1,1,Pin_1*%
%TO.N,/Optocopler/MotorCap*%
X127317600Y-101247200D03*
%TD*%
D20*
%TO.P,TFT_DC_1,1,Pin_1*%
%TO.N,Net-(J20-Pin_15)*%
X150939600Y-152809200D03*
%TD*%
%TO.P,CS_1,1,Pin_1*%
%TO.N,Net-(CS_1-Pin_1)*%
X159067600Y-152809200D03*
%TD*%
D21*
%TO.P,MEM_1,1,Pin_1*%
%TO.N,/Optocopler/MemoryButton*%
X183705600Y-91849200D03*
%TD*%
D22*
%TO.P,J20,1,Pin_1*%
%TO.N,GND*%
X183411800Y-149227800D03*
D23*
%TO.P,J20,2,Pin_2*%
%TO.N,Net-(J20-Pin_2)*%
X180871800Y-149227800D03*
%TO.P,J20,3,Pin_3*%
%TO.N,CAN Modul CTX*%
X178331800Y-149227800D03*
%TO.P,J20,4,Pin_4*%
%TO.N,unconnected-(J20-Pin_4-Pad4)*%
X175791800Y-149227800D03*
%TO.P,J20,5,Pin_5*%
%TO.N,unconnected-(J20-Pin_5-Pad5)*%
X173251800Y-149227800D03*
%TO.P,J20,6,Pin_6*%
%TO.N,CAN Modul RTX*%
X170711800Y-149227800D03*
%TO.P,J20,7,Pin_7*%
%TO.N,GND*%
X168171800Y-149227800D03*
%TO.P,J20,8,Pin_8*%
%TO.N,GPIO 19 (PIN 31)*%
X165631800Y-149227800D03*
%TO.P,J20,9,Pin_9*%
%TO.N,Net-(J20-Pin_9)*%
X163091800Y-149227800D03*
%TO.P,J20,10,Pin_10*%
%TO.N,Net-(CS_1-Pin_1)*%
X160551800Y-149227800D03*
%TO.P,J20,11,Pin_11*%
%TO.N,GPIO 17 (PIN 28)*%
X158011800Y-149227800D03*
%TO.P,J20,12,Pin_12*%
%TO.N,GPIO 16 (PIN 27)*%
X155471800Y-149227800D03*
%TO.P,J20,13,Pin_13*%
%TO.N,GPIO 4 (PIN 26)*%
X152931800Y-149227800D03*
%TO.P,J20,14,Pin_14*%
%TO.N,GPIO 0 (PIN 25)*%
X150391800Y-149227800D03*
%TO.P,J20,15,Pin_15*%
%TO.N,Net-(J20-Pin_15)*%
X147851800Y-149227800D03*
%TO.P,J20,16,Pin_16*%
%TO.N,unconnected-(J20-Pin_16-Pad16)*%
X145311800Y-149227800D03*
%TO.P,J20,17,Pin_17*%
%TO.N,unconnected-(J20-Pin_17-Pad17)*%
X142771800Y-149227800D03*
%TO.P,J20,18,Pin_18*%
%TO.N,unconnected-(J20-Pin_18-Pad18)*%
X140231800Y-149227800D03*
%TO.P,J20,19,Pin_19*%
%TO.N,unconnected-(J20-Pin_19-Pad19)*%
X137691800Y-149227800D03*
%TD*%
D20*
%TO.P,5V_1,1,Pin_1*%
%TO.N,Net-(5V_1-Pin_1)*%
X155003600Y-152809200D03*
%TD*%
D16*
%TO.P,WW_1,1,Pin_1*%
%TO.N,/Optocopler/WhiperWater*%
X127317600Y-105311200D03*
%TD*%
D22*
%TO.P,J5,1,Pin_1*%
%TO.N,Net-(5V_1-Pin_1)*%
X137691800Y-123827800D03*
D23*
%TO.P,J5,2,Pin_2*%
%TO.N,unconnected-(J5-Pin_2-Pad2)*%
X140231800Y-123827800D03*
%TO.P,J5,3,Pin_3*%
%TO.N,unconnected-(J5-Pin_3-Pad3)*%
X142771800Y-123827800D03*
%TO.P,J5,4,Pin_4*%
%TO.N,unconnected-(J5-Pin_4-Pad4)*%
X145311800Y-123827800D03*
%TO.P,J5,5,Pin_5*%
%TO.N,GPIO 13 (PIN 15)*%
X147851800Y-123827800D03*
%TO.P,J5,6,Pin_6*%
%TO.N,GND*%
X150391800Y-123827800D03*
%TO.P,J5,7,Pin_7*%
%TO.N,StayOn*%
X152931800Y-123827800D03*
%TO.P,J5,8,Pin_8*%
%TO.N,GPIO 14 (PIN 12)*%
X155471800Y-123827800D03*
%TO.P,J5,9,Pin_9*%
%TO.N,GPIO 27 (PIN 11)*%
X158011800Y-123827800D03*
%TO.P,J5,10,Pin_10*%
%TO.N,GPIO 26 (PIN 10)*%
X160551800Y-123827800D03*
%TO.P,J5,11,Pin_11*%
%TO.N,Net-(J5-Pin_11)*%
X163091800Y-123827800D03*
%TO.P,J5,12,Pin_12*%
%TO.N,GPIO 33 (PIN 8)*%
X165631800Y-123827800D03*
%TO.P,J5,13,Pin_13*%
%TO.N,GPIO 32 (PIN 7)*%
X168171800Y-123827800D03*
%TO.P,J5,14,Pin_14*%
%TO.N,GPIO 35 (PIN 6)*%
X170711800Y-123827800D03*
%TO.P,J5,15,Pin_15*%
%TO.N,GPIO 34 (PIN 5)*%
X173251800Y-123827800D03*
%TO.P,J5,16,Pin_16*%
%TO.N,VoltMeasurement*%
X175791800Y-123827800D03*
%TO.P,J5,17,Pin_17*%
%TO.N,unconnected-(J5-Pin_17-Pad17)*%
X178331800Y-123827800D03*
%TO.P,J5,18,Pin_18*%
%TO.N,Net-(J5-Pin_18)*%
X180871800Y-123827800D03*
%TO.P,J5,19,Pin_19*%
%TO.N,3\u002C3 V from ESP*%
X183411800Y-123827800D03*
%TD*%
D16*
%TO.P,K30,1,Pin_1*%
%TO.N,/Latch_Circuit/K30*%
X127317600Y-132235200D03*
%TD*%
%TO.P,K31,1,Pin_1*%
%TO.N,GND*%
X127317600Y-124107200D03*
%TD*%
%TO.P,SD_1,1,Pin_1*%
%TO.N,/Optocopler/SlidingDoor*%
X127317600Y-84991200D03*
%TD*%
D22*
%TO.P,GPS_1,1,Pin_1*%
%TO.N,3\u002C3 V from ESP*%
X177863600Y-115725200D03*
D23*
%TO.P,GPS_1,2,Pin_2*%
%TO.N,GPIO 16 (PIN 27)*%
X175323600Y-115725200D03*
%TO.P,GPS_1,3,Pin_3*%
%TO.N,GPIO 17 (PIN 28)*%
X172783600Y-115725200D03*
%TO.P,GPS_1,4,Pin_4*%
%TO.N,GND*%
X170243600Y-115725200D03*
%TD*%
D21*
%TO.P,MODE_1,1,Pin_1*%
%TO.N,/Optocopler/ModeButton*%
X183705600Y-87023200D03*
%TD*%
D14*
%TO.P,U4,1*%
%TO.N,Net-(R11-Pad5)*%
X172273100Y-81603200D03*
D15*
%TO.P,U4,2*%
%TO.N,/Optocopler/Trunk*%
X172273100Y-84143200D03*
%TO.P,U4,3*%
%TO.N,Net-(R11-Pad6)*%
X172273100Y-86683200D03*
%TO.P,U4,4*%
%TO.N,/Optocopler/ModeButton*%
X172273100Y-89223200D03*
%TO.P,U4,5*%
%TO.N,Net-(R11-Pad7)*%
X172273100Y-91763200D03*
%TO.P,U4,6*%
%TO.N,/Optocopler/MemoryButton*%
X172273100Y-94303200D03*
%TO.P,U4,7*%
%TO.N,Net-(R11-Pad8)*%
X172273100Y-96843200D03*
%TO.P,U4,8*%
%TO.N,/Optocopler/ResetButton*%
X172273100Y-99383200D03*
%TO.P,U4,9*%
%TO.N,PortExpander GPB5*%
X179893100Y-99383200D03*
%TO.P,U4,10*%
%TO.N,3\u002C3 V from ESP*%
X179893100Y-96843200D03*
%TO.P,U4,11*%
%TO.N,PortExpander GPB4*%
X179893100Y-94303200D03*
%TO.P,U4,12*%
%TO.N,3\u002C3 V from ESP*%
X179893100Y-91763200D03*
%TO.P,U4,13*%
%TO.N,PortExpander GPB3*%
X179893100Y-89223200D03*
%TO.P,U4,14*%
%TO.N,3\u002C3 V from ESP*%
X179893100Y-86683200D03*
%TO.P,U4,15*%
%TO.N,PortExpander GPB2*%
X179893100Y-84143200D03*
%TO.P,U4,16*%
%TO.N,3\u002C3 V from ESP*%
X179893100Y-81603200D03*
%TD*%
D21*
%TO.P,CAN_L_1,1,Pin_1*%
%TO.N,/CAN Modul/CAN_L*%
X183705600Y-133251200D03*
%TD*%
D14*
%TO.P,U2,1*%
%TO.N,Net-(R301-Pad8)*%
X143573600Y-81603200D03*
D15*
%TO.P,U2,2*%
%TO.N,/Optocopler/DoorRight*%
X143573600Y-84143200D03*
%TO.P,U2,3*%
%TO.N,Net-(R301-Pad7)*%
X143573600Y-86683200D03*
%TO.P,U2,4*%
%TO.N,/Optocopler/SlidingDoor*%
X143573600Y-89223200D03*
%TO.P,U2,5*%
%TO.N,Net-(R301-Pad6)*%
X143573600Y-91763200D03*
%TO.P,U2,6*%
%TO.N,/Optocopler/OilPresure*%
X143573600Y-94303200D03*
%TO.P,U2,7*%
%TO.N,Net-(R301-Pad5)*%
X143573600Y-96843200D03*
%TO.P,U2,8*%
%TO.N,/Optocopler/Coolant*%
X143573600Y-99383200D03*
%TO.P,U2,9*%
%TO.N,PortExpander GPB1*%
X151193600Y-99383200D03*
%TO.P,U2,10*%
%TO.N,3\u002C3 V from ESP*%
X151193600Y-96843200D03*
%TO.P,U2,11*%
%TO.N,PortExpander GPB0*%
X151193600Y-94303200D03*
%TO.P,U2,12*%
%TO.N,3\u002C3 V from ESP*%
X151193600Y-91763200D03*
%TO.P,U2,13*%
%TO.N,PortExpander GPA5*%
X151193600Y-89223200D03*
%TO.P,U2,14*%
%TO.N,3\u002C3 V from ESP*%
X151193600Y-86683200D03*
%TO.P,U2,15*%
%TO.N,PortExpander GPA4*%
X151193600Y-84143200D03*
%TO.P,U2,16*%
%TO.N,3\u002C3 V from ESP*%
X151193600Y-81603200D03*
%TD*%
D16*
%TO.P,OP_1,1,Pin_1*%
%TO.N,/Optocopler/OilPresure*%
X127317600Y-89055200D03*
%TD*%
D20*
%TO.P,SLK_1,1,Pin_1*%
%TO.N,Net-(J20-Pin_9)*%
X163131600Y-152809200D03*
%TD*%
D22*
%TO.P,BME_280,1,Pin_1*%
%TO.N,3\u002C3 V from ESP*%
X131127600Y-117503200D03*
D23*
%TO.P,BME_280,2,Pin_2*%
%TO.N,GND*%
X133667600Y-117503200D03*
%TO.P,BME_280,3,Pin_3*%
%TO.N,GPIO 27 (PIN 11)*%
X136207600Y-117503200D03*
%TO.P,BME_280,4,Pin_4*%
%TO.N,GPIO 26 (PIN 10)*%
X138747600Y-117503200D03*
%TD*%
D16*
%TO.P,K15,1,Pin_1*%
%TO.N,K15*%
X127317600Y-128171200D03*
%TD*%
D21*
%TO.P,CAN_H_1,1,Pin_1*%
%TO.N,/CAN Modul/CAN_H*%
X183705600Y-129441200D03*
%TD*%
D16*
%TO.P,RD_1,1,Pin_1*%
%TO.N,/Optocopler/DoorRight*%
X127317600Y-80927200D03*
%TD*%
D14*
%TO.P,U3,1*%
%TO.N,Net-(R12-Pad2)*%
X165935600Y-108862200D03*
D15*
%TO.P,U3,2*%
%TO.N,GND*%
X165935600Y-111402200D03*
%TO.P,U3,3*%
%TO.N,GPIO 19 (PIN 31)*%
X173555600Y-111402200D03*
%TO.P,U3,4*%
%TO.N,3\u002C3 V from ESP*%
X173555600Y-108862200D03*
%TD*%
D16*
%TO.P,BP_1,1,Pin_1*%
%TO.N,/Optocopler/BrakePads*%
X127317600Y-97183200D03*
%TD*%
%TO.P,OL_LED_1,1,Pin_1*%
%TO.N,Net-(J5-Pin_11)*%
X127317600Y-117503200D03*
%TD*%
D17*
%TO.P,RST_1,1,Pin_1*%
%TO.N,Net-(J5-Pin_18)*%
X166941600Y-152809200D03*
%TD*%
D16*
%TO.P,OS_1,1,Pin_1*%
%TO.N,Net-(OS_1-Pin_1)*%
X127317600Y-113439200D03*
%TD*%
%TO.P,Cool_1,1,Pin_1*%
%TO.N,/Optocopler/Coolant*%
X127317600Y-93119200D03*
%TD*%
D20*
%TO.P,MOSi_1,1,Pin_1*%
%TO.N,Net-(J20-Pin_2)*%
X175323600Y-152809200D03*
%TD*%
D21*
%TO.P,RESET_1,1,Pin_1*%
%TO.N,/Optocopler/ResetButton*%
X183705600Y-96675200D03*
%TD*%
%TO.P,TR_1,1,Pin_1*%
%TO.N,/Optocopler/Trunk*%
X127317600Y-76863200D03*
%TD*%
D24*
%TO.N,K15*%
X135788800Y-105146400D03*
X157647600Y-104953200D03*
%TO.N,GPIO 32 (PIN 7)*%
X155765600Y-111828000D03*
%TO.N,3\u002C3 V from ESP*%
X149019600Y-119027200D03*
X152971600Y-119027200D03*
%TO.N,PortExpander GPB4*%
X142049600Y-107597200D03*
%TO.N,PortExpander GPB3*%
X149669600Y-109375200D03*
X142649600Y-109467200D03*
%TO.N,PortExpander GPB5*%
X141033600Y-106235200D03*
%TO.N,Net-(OS_1-Pin_1)*%
X155511600Y-106835200D03*
%TD*%
D25*
%TO.N,GND*%
X138023600Y-121859200D02*
X148423200Y-121859200D01*
X133667600Y-117503200D02*
X138023600Y-121859200D01*
X181536400Y-151103200D02*
X172711600Y-151103200D01*
X183411800Y-149227800D02*
X181536400Y-151103200D01*
X148423200Y-121859200D02*
X150391800Y-123827800D01*
X172711600Y-151103200D02*
X171005600Y-152809200D01*
%TO.N,K15*%
X157543600Y-105057200D02*
X157647600Y-104953200D01*
X135788800Y-105146400D02*
X135878000Y-105057200D01*
X135878000Y-105057200D02*
X157543600Y-105057200D01*
%TO.N,GPIO 32 (PIN 7)*%
X168171800Y-123827800D02*
X168171800Y-118987400D01*
X168171800Y-118987400D02*
X161012400Y-111828000D01*
X161012400Y-111828000D02*
X155765600Y-111828000D01*
%TO.N,GPIO 27 (PIN 11)*%
X155643200Y-121459200D02*
X158011800Y-123827800D01*
X140163600Y-121459200D02*
X155643200Y-121459200D01*
X136207600Y-117503200D02*
X140163600Y-121459200D01*
%TO.N,3\u002C3 V from ESP*%
X179893100Y-91763200D02*
X180993100Y-92863200D01*
X152293600Y-90663200D02*
X151193600Y-91763200D01*
X151193600Y-86683200D02*
X152293600Y-87783200D01*
X152293600Y-95743200D02*
X151193600Y-96843200D01*
X172280600Y-110137200D02*
X156187071Y-110137200D01*
X152293600Y-87783200D02*
X152293600Y-90663200D01*
X156187071Y-110137200D02*
X153987600Y-112336671D01*
X179893100Y-81603200D02*
X180993100Y-82703200D01*
X180993100Y-85583200D02*
X179893100Y-86683200D01*
X180993100Y-92863200D02*
X180993100Y-95743200D01*
X178879600Y-112677200D02*
X172275600Y-112677200D01*
X179893100Y-86683200D02*
X180993100Y-87783200D01*
X181927600Y-103787200D02*
X176847600Y-108867200D01*
X153225600Y-119027200D02*
X149019600Y-119027200D01*
X170243600Y-110645200D02*
X170243600Y-110137200D01*
X165925600Y-86683200D02*
X167025600Y-87783200D01*
X165925600Y-91763200D02*
X167025600Y-92863200D01*
X151193600Y-81603200D02*
X152293600Y-82703200D01*
X131127600Y-117503200D02*
X132277600Y-116353200D01*
X153987600Y-112336671D02*
X153987600Y-118265200D01*
X142169600Y-116353200D02*
X144843600Y-119027200D01*
X152293600Y-82703200D02*
X152293600Y-85583200D01*
X165925600Y-81603200D02*
X167025600Y-82703200D01*
X132277600Y-116353200D02*
X142169600Y-116353200D01*
X167025600Y-90663200D02*
X165925600Y-91763200D01*
X144843600Y-119027200D02*
X149019600Y-119027200D01*
X184467600Y-122772000D02*
X184467600Y-118265200D01*
X172275600Y-112677200D02*
X170243600Y-110645200D01*
X167025600Y-87783200D02*
X167025600Y-90663200D01*
X184467600Y-118265200D02*
X178879600Y-112677200D01*
X180993100Y-95743200D02*
X179893100Y-96843200D01*
X153987600Y-118265200D02*
X153225600Y-119027200D01*
X176847600Y-108867200D02*
X173550600Y-108867200D01*
X151193600Y-91763200D02*
X152293600Y-92863200D01*
X167025600Y-82703200D02*
X167025600Y-85583200D01*
X152293600Y-92863200D02*
X152293600Y-95743200D01*
X152293600Y-85583200D02*
X151193600Y-86683200D01*
X179893100Y-96843200D02*
X181927600Y-98877700D01*
X167025600Y-95743200D02*
X165925600Y-96843200D01*
X180993100Y-90663200D02*
X179893100Y-91763200D01*
X183411800Y-123827800D02*
X184467600Y-122772000D01*
X180993100Y-82703200D02*
X180993100Y-85583200D01*
X167025600Y-85583200D02*
X165925600Y-86683200D01*
X172280600Y-110137200D02*
X173555600Y-108862200D01*
X180993100Y-87783200D02*
X180993100Y-90663200D01*
X167025600Y-92863200D02*
X167025600Y-95743200D01*
X173550600Y-108867200D02*
X172280600Y-110137200D01*
X181927600Y-98877700D02*
X181927600Y-103787200D01*
%TO.N,GPIO 26 (PIN 10)*%
X142303600Y-121059200D02*
X157783200Y-121059200D01*
X138747600Y-117503200D02*
X142303600Y-121059200D01*
X157783200Y-121059200D02*
X160551800Y-123827800D01*
%TO.N,/Optocopler/Coolant*%
X130873600Y-96675200D02*
X140865600Y-96675200D01*
X127317600Y-93119200D02*
X130873600Y-96675200D01*
X140865600Y-96675200D02*
X143573600Y-99383200D01*
%TO.N,/Optocopler/MotorCap*%
X153791285Y-103533200D02*
X131381600Y-103533200D01*
X131381600Y-103533200D02*
X129095600Y-101247200D01*
X129095600Y-101247200D02*
X127317600Y-101247200D01*
X156382000Y-91146800D02*
X156382000Y-100942485D01*
X158305600Y-89223200D02*
X156382000Y-91146800D01*
X156382000Y-100942485D02*
X153791285Y-103533200D01*
%TO.N,/Optocopler/WhiperWater*%
X156782000Y-95826800D02*
X158305600Y-94303200D01*
X153956971Y-103933200D02*
X156782000Y-101108171D01*
X156782000Y-101108171D02*
X156782000Y-95826800D01*
X127317600Y-105311200D02*
X128695600Y-103933200D01*
X128695600Y-103933200D02*
X153956971Y-103933200D01*
%TO.N,/Optocopler/BrakePads*%
X155982000Y-100776799D02*
X155982000Y-86466800D01*
X133267600Y-103133200D02*
X153625599Y-103133200D01*
X153625599Y-103133200D02*
X155982000Y-100776799D01*
X127317600Y-97183200D02*
X133267600Y-103133200D01*
X155982000Y-86466800D02*
X158305600Y-84143200D01*
%TO.N,/Optocopler/OilPresure*%
X127317600Y-89055200D02*
X132565600Y-94303200D01*
X132565600Y-94303200D02*
X143573600Y-94303200D01*
%TO.N,/Optocopler/SlidingDoor*%
X143573600Y-89223200D02*
X131549600Y-89223200D01*
X131549600Y-89223200D02*
X127317600Y-84991200D01*
%TO.N,GPIO 16 (PIN 27)*%
X173545600Y-113947200D02*
X168973600Y-113947200D01*
X168211600Y-114709200D02*
X168211600Y-116995200D01*
X169321800Y-125283000D02*
X155471800Y-139133000D01*
X155471800Y-139133000D02*
X155471800Y-149227800D01*
X168973600Y-113947200D02*
X168211600Y-114709200D01*
X169321800Y-118105400D02*
X169321800Y-125283000D01*
X175323600Y-115725200D02*
X173545600Y-113947200D01*
X168211600Y-116995200D02*
X169321800Y-118105400D01*
%TO.N,GPIO 17 (PIN 28)*%
X172783600Y-115725200D02*
X172021600Y-116487200D01*
X158011800Y-138879000D02*
X158011800Y-149227800D01*
X172021600Y-116487200D02*
X172021600Y-124869200D01*
X172021600Y-124869200D02*
X158011800Y-138879000D01*
%TO.N,/Optocopler/Trunk*%
X127317600Y-76863200D02*
X143319600Y-76863200D01*
X163977100Y-75847200D02*
X172273100Y-84143200D01*
X144335600Y-75847200D02*
X163977100Y-75847200D01*
X143319600Y-76863200D02*
X144335600Y-75847200D01*
%TO.N,GPIO 19 (PIN 31)*%
X185483600Y-130631200D02*
X185483600Y-116233200D01*
X184511600Y-131603200D02*
X185483600Y-130631200D01*
X182011600Y-131603200D02*
X184511600Y-131603200D01*
X185483600Y-116233200D02*
X180657600Y-111407200D01*
X165631800Y-147983000D02*
X182011600Y-131603200D01*
X180657600Y-111407200D02*
X173560600Y-111407200D01*
X165631800Y-149227800D02*
X165631800Y-147983000D01*
%TO.N,PortExpander GPB4*%
X179387600Y-98199200D02*
X178625600Y-97437200D01*
X181166000Y-98681786D02*
X180683414Y-98199200D01*
X178625600Y-97437200D02*
X178625600Y-95570700D01*
X177355600Y-107597200D02*
X181166000Y-103786800D01*
X181166000Y-103786800D02*
X181166000Y-98681786D01*
X142049600Y-107597200D02*
X177355600Y-107597200D01*
X178625600Y-95570700D02*
X179893100Y-94303200D01*
X180683414Y-98199200D02*
X179387600Y-98199200D01*
%TO.N,PortExpander GPB3*%
X149669600Y-109375200D02*
X142741600Y-109375200D01*
X142741600Y-109375200D02*
X142649600Y-109467200D01*
%TO.N,PortExpander GPB5*%
X141033600Y-106235200D02*
X141195600Y-106073200D01*
X179895600Y-103533200D02*
X179893100Y-103530700D01*
X177863600Y-106073200D02*
X179895600Y-104041200D01*
X141195600Y-106073200D02*
X177863600Y-106073200D01*
X179893100Y-103530700D02*
X179893100Y-99383200D01*
X179895600Y-104041200D02*
X179895600Y-103533200D01*
%TO.N,/Optocopler/DoorRight*%
X129603600Y-80927200D02*
X132440600Y-78090200D01*
X132440600Y-78090200D02*
X137520600Y-78090200D01*
X127317600Y-80927200D02*
X129603600Y-80927200D01*
X137520600Y-78090200D02*
X143573600Y-84143200D01*
%TO.N,Net-(5V_1-Pin_1)*%
X153297600Y-151103200D02*
X136353946Y-151103200D01*
X135699600Y-125820000D02*
X137691800Y-123827800D01*
X155003600Y-152809200D02*
X153297600Y-151103200D01*
X136353946Y-151103200D02*
X135699600Y-150448854D01*
X135699600Y-150448854D02*
X135699600Y-125820000D01*
%TO.N,Net-(BF_1-Pin_1)*%
X129641600Y-109375200D02*
X134683600Y-104333200D01*
X154710800Y-104333200D02*
X158305600Y-100738400D01*
X127317600Y-109375200D02*
X129641600Y-109375200D01*
X158305600Y-100738400D02*
X158305600Y-99383200D01*
X134683600Y-104333200D02*
X154710800Y-104333200D01*
%TO.N,Net-(J5-Pin_11)*%
X161542400Y-125377200D02*
X139763600Y-125377200D01*
X139001600Y-124615200D02*
X139001600Y-122329200D01*
X163091800Y-123827800D02*
X161542400Y-125377200D01*
X127317600Y-119535200D02*
X127317600Y-117503200D01*
X139763600Y-125377200D02*
X139001600Y-124615200D01*
X139001600Y-122329200D02*
X130111600Y-122329200D01*
X130111600Y-122329200D02*
X127317600Y-119535200D01*
%TO.N,Net-(J5-Pin_18)*%
X180871800Y-131963314D02*
X180871800Y-123827800D01*
X164401600Y-148433514D02*
X180871800Y-131963314D01*
X164401600Y-150269200D02*
X164401600Y-148433514D01*
X166941600Y-152809200D02*
X164401600Y-150269200D01*
%TO.N,Net-(OS_1-Pin_1)*%
X155511600Y-106835200D02*
X133159600Y-106835200D01*
X133159600Y-106835200D02*
X127317600Y-112677200D01*
%TD*%
M02*
