%TF.GenerationSoftware,KiCad,Pcbnew,8.0.9-8.0.9-0~ubuntu22.04.1*%
%TF.CreationDate,2025-03-11T20:39:32+01:00*%
%TF.ProjectId,BrakeOutBoard,4272616b-654f-4757-9442-6f6172642e6b,rev?*%
%TF.SameCoordinates,Original*%
%TF.FileFunction,Drillmap*%
%TF.FilePolarity,Positive*%
%FSLAX45Y45*%
G04 Gerber Fmt 4.5, Leading zero omitted, Abs format (unit mm)*
G04 Created by KiCad (PCBNEW 8.0.9-8.0.9-0~ubuntu22.04.1) date 2025-03-11 20:39:32*
%MOMM*%
%LPD*%
G01*
G04 APERTURE LIST*
%ADD10C,0.050000*%
%ADD11C,0.200000*%
%ADD12C,0.100000*%
%ADD13C,0.110000*%
%ADD14C,0.130000*%
G04 APERTURE END LIST*
D10*
X12401160Y-7460320D02*
X18701160Y-7460320D01*
X18701160Y-15460320D01*
X12401160Y-15460320D01*
X12401160Y-7460320D01*
X18201160Y-13660320D02*
X18696160Y-13660320D01*
X18696160Y-14160320D01*
X18201160Y-14160320D01*
X18201160Y-13660320D01*
D11*
D12*
X13453360Y-10490720D02*
X13483360Y-10520720D01*
X13483360Y-10490720D02*
X13453360Y-10520720D01*
X13836160Y-10550720D02*
X13866160Y-10580720D01*
X13866160Y-10550720D02*
X13836160Y-10580720D01*
X13936160Y-10605320D02*
X13966160Y-10635320D01*
X13966160Y-10605320D02*
X13936160Y-10635320D01*
X14748760Y-10236720D02*
X14778760Y-10266720D01*
X14778760Y-10236720D02*
X14748760Y-10266720D01*
X14977360Y-10211320D02*
X15007360Y-10241320D01*
X15007360Y-10211320D02*
X14977360Y-10241320D01*
X15218733Y-11627893D02*
X15248733Y-11657893D01*
X15248733Y-11627893D02*
X15218733Y-11657893D01*
X15586160Y-11395320D02*
X15616160Y-11425320D01*
X15616160Y-11395320D02*
X15586160Y-11425320D01*
X15586960Y-10662720D02*
X15616960Y-10692720D01*
X15616960Y-10662720D02*
X15586960Y-10692720D01*
X15749760Y-10480320D02*
X15779760Y-10510320D01*
X15779760Y-10480320D02*
X15749760Y-10510320D01*
X17491960Y-10744720D02*
X17521960Y-10774720D01*
X17521960Y-10744720D02*
X17491960Y-10774720D01*
X13813160Y-12385320D02*
G75*
G02*
X13733160Y-12385320I-40000J0D01*
G01*
X13733160Y-12385320D02*
G75*
G02*
X13813160Y-12385320I40000J0D01*
G01*
X13813432Y-14924952D02*
G75*
G02*
X13733432Y-14924952I-40000J0D01*
G01*
X13733432Y-14924952D02*
G75*
G02*
X13813432Y-14924952I40000J0D01*
G01*
X14067160Y-12385320D02*
G75*
G02*
X13987160Y-12385320I-40000J0D01*
G01*
X13987160Y-12385320D02*
G75*
G02*
X14067160Y-12385320I40000J0D01*
G01*
X14067432Y-14924952D02*
G75*
G02*
X13987432Y-14924952I-40000J0D01*
G01*
X13987432Y-14924952D02*
G75*
G02*
X14067432Y-14924952I40000J0D01*
G01*
X14321160Y-12385320D02*
G75*
G02*
X14241160Y-12385320I-40000J0D01*
G01*
X14241160Y-12385320D02*
G75*
G02*
X14321160Y-12385320I40000J0D01*
G01*
X14321160Y-14925320D02*
G75*
G02*
X14241160Y-14925320I-40000J0D01*
G01*
X14241160Y-14925320D02*
G75*
G02*
X14321160Y-14925320I40000J0D01*
G01*
X14397360Y-8160320D02*
G75*
G02*
X14317360Y-8160320I-40000J0D01*
G01*
X14317360Y-8160320D02*
G75*
G02*
X14397360Y-8160320I40000J0D01*
G01*
X14397360Y-8414320D02*
G75*
G02*
X14317360Y-8414320I-40000J0D01*
G01*
X14317360Y-8414320D02*
G75*
G02*
X14397360Y-8414320I40000J0D01*
G01*
X14397360Y-8668320D02*
G75*
G02*
X14317360Y-8668320I-40000J0D01*
G01*
X14317360Y-8668320D02*
G75*
G02*
X14397360Y-8668320I40000J0D01*
G01*
X14397360Y-8922320D02*
G75*
G02*
X14317360Y-8922320I-40000J0D01*
G01*
X14317360Y-8922320D02*
G75*
G02*
X14397360Y-8922320I40000J0D01*
G01*
X14397360Y-9176320D02*
G75*
G02*
X14317360Y-9176320I-40000J0D01*
G01*
X14317360Y-9176320D02*
G75*
G02*
X14397360Y-9176320I40000J0D01*
G01*
X14397360Y-9430320D02*
G75*
G02*
X14317360Y-9430320I-40000J0D01*
G01*
X14317360Y-9430320D02*
G75*
G02*
X14397360Y-9430320I40000J0D01*
G01*
X14397360Y-9684320D02*
G75*
G02*
X14317360Y-9684320I-40000J0D01*
G01*
X14317360Y-9684320D02*
G75*
G02*
X14397360Y-9684320I40000J0D01*
G01*
X14397360Y-9938320D02*
G75*
G02*
X14317360Y-9938320I-40000J0D01*
G01*
X14317360Y-9938320D02*
G75*
G02*
X14397360Y-9938320I40000J0D01*
G01*
X14575160Y-12385320D02*
G75*
G02*
X14495160Y-12385320I-40000J0D01*
G01*
X14495160Y-12385320D02*
G75*
G02*
X14575160Y-12385320I40000J0D01*
G01*
X14575160Y-14925320D02*
G75*
G02*
X14495160Y-14925320I-40000J0D01*
G01*
X14495160Y-14925320D02*
G75*
G02*
X14575160Y-14925320I40000J0D01*
G01*
X14829160Y-12385320D02*
G75*
G02*
X14749160Y-12385320I-40000J0D01*
G01*
X14749160Y-12385320D02*
G75*
G02*
X14829160Y-12385320I40000J0D01*
G01*
X14829160Y-14925320D02*
G75*
G02*
X14749160Y-14925320I-40000J0D01*
G01*
X14749160Y-14925320D02*
G75*
G02*
X14829160Y-14925320I40000J0D01*
G01*
X15083160Y-12385320D02*
G75*
G02*
X15003160Y-12385320I-40000J0D01*
G01*
X15003160Y-12385320D02*
G75*
G02*
X15083160Y-12385320I40000J0D01*
G01*
X15083160Y-14925320D02*
G75*
G02*
X15003160Y-14925320I-40000J0D01*
G01*
X15003160Y-14925320D02*
G75*
G02*
X15083160Y-14925320I40000J0D01*
G01*
X15159360Y-8160320D02*
G75*
G02*
X15079360Y-8160320I-40000J0D01*
G01*
X15079360Y-8160320D02*
G75*
G02*
X15159360Y-8160320I40000J0D01*
G01*
X15159360Y-8414320D02*
G75*
G02*
X15079360Y-8414320I-40000J0D01*
G01*
X15079360Y-8414320D02*
G75*
G02*
X15159360Y-8414320I40000J0D01*
G01*
X15159360Y-8668320D02*
G75*
G02*
X15079360Y-8668320I-40000J0D01*
G01*
X15079360Y-8668320D02*
G75*
G02*
X15159360Y-8668320I40000J0D01*
G01*
X15159360Y-8922320D02*
G75*
G02*
X15079360Y-8922320I-40000J0D01*
G01*
X15079360Y-8922320D02*
G75*
G02*
X15159360Y-8922320I40000J0D01*
G01*
X15159360Y-9176320D02*
G75*
G02*
X15079360Y-9176320I-40000J0D01*
G01*
X15079360Y-9176320D02*
G75*
G02*
X15159360Y-9176320I40000J0D01*
G01*
X15159360Y-9430320D02*
G75*
G02*
X15079360Y-9430320I-40000J0D01*
G01*
X15079360Y-9430320D02*
G75*
G02*
X15159360Y-9430320I40000J0D01*
G01*
X15159360Y-9684320D02*
G75*
G02*
X15079360Y-9684320I-40000J0D01*
G01*
X15079360Y-9684320D02*
G75*
G02*
X15159360Y-9684320I40000J0D01*
G01*
X15159360Y-9938320D02*
G75*
G02*
X15079360Y-9938320I-40000J0D01*
G01*
X15079360Y-9938320D02*
G75*
G02*
X15159360Y-9938320I40000J0D01*
G01*
X15337160Y-12385320D02*
G75*
G02*
X15257160Y-12385320I-40000J0D01*
G01*
X15257160Y-12385320D02*
G75*
G02*
X15337160Y-12385320I40000J0D01*
G01*
X15337160Y-14925320D02*
G75*
G02*
X15257160Y-14925320I-40000J0D01*
G01*
X15257160Y-14925320D02*
G75*
G02*
X15337160Y-14925320I40000J0D01*
G01*
X15591160Y-12385320D02*
G75*
G02*
X15511160Y-12385320I-40000J0D01*
G01*
X15511160Y-12385320D02*
G75*
G02*
X15591160Y-12385320I40000J0D01*
G01*
X15591160Y-14925320D02*
G75*
G02*
X15511160Y-14925320I-40000J0D01*
G01*
X15511160Y-14925320D02*
G75*
G02*
X15591160Y-14925320I40000J0D01*
G01*
X15845160Y-12385320D02*
G75*
G02*
X15765160Y-12385320I-40000J0D01*
G01*
X15765160Y-12385320D02*
G75*
G02*
X15845160Y-12385320I40000J0D01*
G01*
X15845160Y-14925320D02*
G75*
G02*
X15765160Y-14925320I-40000J0D01*
G01*
X15765160Y-14925320D02*
G75*
G02*
X15845160Y-14925320I40000J0D01*
G01*
X15870560Y-8160320D02*
G75*
G02*
X15790560Y-8160320I-40000J0D01*
G01*
X15790560Y-8160320D02*
G75*
G02*
X15870560Y-8160320I40000J0D01*
G01*
X15870560Y-8414320D02*
G75*
G02*
X15790560Y-8414320I-40000J0D01*
G01*
X15790560Y-8414320D02*
G75*
G02*
X15870560Y-8414320I40000J0D01*
G01*
X15870560Y-8668320D02*
G75*
G02*
X15790560Y-8668320I-40000J0D01*
G01*
X15790560Y-8668320D02*
G75*
G02*
X15870560Y-8668320I40000J0D01*
G01*
X15870560Y-8922320D02*
G75*
G02*
X15790560Y-8922320I-40000J0D01*
G01*
X15790560Y-8922320D02*
G75*
G02*
X15870560Y-8922320I40000J0D01*
G01*
X15870560Y-9176320D02*
G75*
G02*
X15790560Y-9176320I-40000J0D01*
G01*
X15790560Y-9176320D02*
G75*
G02*
X15870560Y-9176320I40000J0D01*
G01*
X15870560Y-9430320D02*
G75*
G02*
X15790560Y-9430320I-40000J0D01*
G01*
X15790560Y-9430320D02*
G75*
G02*
X15870560Y-9430320I40000J0D01*
G01*
X15870560Y-9684320D02*
G75*
G02*
X15790560Y-9684320I-40000J0D01*
G01*
X15790560Y-9684320D02*
G75*
G02*
X15870560Y-9684320I40000J0D01*
G01*
X15870560Y-9938320D02*
G75*
G02*
X15790560Y-9938320I-40000J0D01*
G01*
X15790560Y-9938320D02*
G75*
G02*
X15870560Y-9938320I40000J0D01*
G01*
X16099160Y-12385320D02*
G75*
G02*
X16019160Y-12385320I-40000J0D01*
G01*
X16019160Y-12385320D02*
G75*
G02*
X16099160Y-12385320I40000J0D01*
G01*
X16099160Y-14925320D02*
G75*
G02*
X16019160Y-14925320I-40000J0D01*
G01*
X16019160Y-14925320D02*
G75*
G02*
X16099160Y-14925320I40000J0D01*
G01*
X16353160Y-12385320D02*
G75*
G02*
X16273160Y-12385320I-40000J0D01*
G01*
X16273160Y-12385320D02*
G75*
G02*
X16353160Y-12385320I40000J0D01*
G01*
X16353160Y-14925320D02*
G75*
G02*
X16273160Y-14925320I-40000J0D01*
G01*
X16273160Y-14925320D02*
G75*
G02*
X16353160Y-14925320I40000J0D01*
G01*
X16607160Y-12385320D02*
G75*
G02*
X16527160Y-12385320I-40000J0D01*
G01*
X16527160Y-12385320D02*
G75*
G02*
X16607160Y-12385320I40000J0D01*
G01*
X16607160Y-14925320D02*
G75*
G02*
X16527160Y-14925320I-40000J0D01*
G01*
X16527160Y-14925320D02*
G75*
G02*
X16607160Y-14925320I40000J0D01*
G01*
X16632560Y-8160320D02*
G75*
G02*
X16552560Y-8160320I-40000J0D01*
G01*
X16552560Y-8160320D02*
G75*
G02*
X16632560Y-8160320I40000J0D01*
G01*
X16632560Y-8414320D02*
G75*
G02*
X16552560Y-8414320I-40000J0D01*
G01*
X16552560Y-8414320D02*
G75*
G02*
X16632560Y-8414320I40000J0D01*
G01*
X16632560Y-8668320D02*
G75*
G02*
X16552560Y-8668320I-40000J0D01*
G01*
X16552560Y-8668320D02*
G75*
G02*
X16632560Y-8668320I40000J0D01*
G01*
X16632560Y-8922320D02*
G75*
G02*
X16552560Y-8922320I-40000J0D01*
G01*
X16552560Y-8922320D02*
G75*
G02*
X16632560Y-8922320I40000J0D01*
G01*
X16632560Y-9176320D02*
G75*
G02*
X16552560Y-9176320I-40000J0D01*
G01*
X16552560Y-9176320D02*
G75*
G02*
X16632560Y-9176320I40000J0D01*
G01*
X16632560Y-9430320D02*
G75*
G02*
X16552560Y-9430320I-40000J0D01*
G01*
X16552560Y-9430320D02*
G75*
G02*
X16632560Y-9430320I40000J0D01*
G01*
X16632560Y-9684320D02*
G75*
G02*
X16552560Y-9684320I-40000J0D01*
G01*
X16552560Y-9684320D02*
G75*
G02*
X16632560Y-9684320I40000J0D01*
G01*
X16632560Y-9938320D02*
G75*
G02*
X16552560Y-9938320I-40000J0D01*
G01*
X16552560Y-9938320D02*
G75*
G02*
X16632560Y-9938320I40000J0D01*
G01*
X16633560Y-10886220D02*
G75*
G02*
X16553560Y-10886220I-40000J0D01*
G01*
X16553560Y-10886220D02*
G75*
G02*
X16633560Y-10886220I40000J0D01*
G01*
X16633560Y-11140220D02*
G75*
G02*
X16553560Y-11140220I-40000J0D01*
G01*
X16553560Y-11140220D02*
G75*
G02*
X16633560Y-11140220I40000J0D01*
G01*
X16861160Y-12385320D02*
G75*
G02*
X16781160Y-12385320I-40000J0D01*
G01*
X16781160Y-12385320D02*
G75*
G02*
X16861160Y-12385320I40000J0D01*
G01*
X16861160Y-14925320D02*
G75*
G02*
X16781160Y-14925320I-40000J0D01*
G01*
X16781160Y-14925320D02*
G75*
G02*
X16861160Y-14925320I40000J0D01*
G01*
X17115160Y-12385320D02*
G75*
G02*
X17035160Y-12385320I-40000J0D01*
G01*
X17035160Y-12385320D02*
G75*
G02*
X17115160Y-12385320I40000J0D01*
G01*
X17115160Y-14925320D02*
G75*
G02*
X17035160Y-14925320I-40000J0D01*
G01*
X17035160Y-14925320D02*
G75*
G02*
X17115160Y-14925320I40000J0D01*
G01*
X17267310Y-8160320D02*
G75*
G02*
X17187310Y-8160320I-40000J0D01*
G01*
X17187310Y-8160320D02*
G75*
G02*
X17267310Y-8160320I40000J0D01*
G01*
X17267310Y-8414320D02*
G75*
G02*
X17187310Y-8414320I-40000J0D01*
G01*
X17187310Y-8414320D02*
G75*
G02*
X17267310Y-8414320I40000J0D01*
G01*
X17267310Y-8668320D02*
G75*
G02*
X17187310Y-8668320I-40000J0D01*
G01*
X17187310Y-8668320D02*
G75*
G02*
X17267310Y-8668320I40000J0D01*
G01*
X17267310Y-8922320D02*
G75*
G02*
X17187310Y-8922320I-40000J0D01*
G01*
X17187310Y-8922320D02*
G75*
G02*
X17267310Y-8922320I40000J0D01*
G01*
X17267310Y-9176320D02*
G75*
G02*
X17187310Y-9176320I-40000J0D01*
G01*
X17187310Y-9176320D02*
G75*
G02*
X17267310Y-9176320I40000J0D01*
G01*
X17267310Y-9430320D02*
G75*
G02*
X17187310Y-9430320I-40000J0D01*
G01*
X17187310Y-9430320D02*
G75*
G02*
X17267310Y-9430320I40000J0D01*
G01*
X17267310Y-9684320D02*
G75*
G02*
X17187310Y-9684320I-40000J0D01*
G01*
X17187310Y-9684320D02*
G75*
G02*
X17267310Y-9684320I40000J0D01*
G01*
X17267310Y-9938320D02*
G75*
G02*
X17187310Y-9938320I-40000J0D01*
G01*
X17187310Y-9938320D02*
G75*
G02*
X17267310Y-9938320I40000J0D01*
G01*
X17369160Y-12385320D02*
G75*
G02*
X17289160Y-12385320I-40000J0D01*
G01*
X17289160Y-12385320D02*
G75*
G02*
X17369160Y-12385320I40000J0D01*
G01*
X17369160Y-14925320D02*
G75*
G02*
X17289160Y-14925320I-40000J0D01*
G01*
X17289160Y-14925320D02*
G75*
G02*
X17369160Y-14925320I40000J0D01*
G01*
X17395560Y-10886220D02*
G75*
G02*
X17315560Y-10886220I-40000J0D01*
G01*
X17315560Y-10886220D02*
G75*
G02*
X17395560Y-10886220I40000J0D01*
G01*
X17395560Y-11140220D02*
G75*
G02*
X17315560Y-11140220I-40000J0D01*
G01*
X17315560Y-11140220D02*
G75*
G02*
X17395560Y-11140220I40000J0D01*
G01*
X17623160Y-12385320D02*
G75*
G02*
X17543160Y-12385320I-40000J0D01*
G01*
X17543160Y-12385320D02*
G75*
G02*
X17623160Y-12385320I40000J0D01*
G01*
X17623160Y-14925320D02*
G75*
G02*
X17543160Y-14925320I-40000J0D01*
G01*
X17543160Y-14925320D02*
G75*
G02*
X17623160Y-14925320I40000J0D01*
G01*
X17877160Y-12385320D02*
G75*
G02*
X17797160Y-12385320I-40000J0D01*
G01*
X17797160Y-12385320D02*
G75*
G02*
X17877160Y-12385320I40000J0D01*
G01*
X17877160Y-14925320D02*
G75*
G02*
X17797160Y-14925320I-40000J0D01*
G01*
X17797160Y-14925320D02*
G75*
G02*
X17877160Y-14925320I40000J0D01*
G01*
X18029310Y-8160320D02*
G75*
G02*
X17949310Y-8160320I-40000J0D01*
G01*
X17949310Y-8160320D02*
G75*
G02*
X18029310Y-8160320I40000J0D01*
G01*
X18029310Y-8414320D02*
G75*
G02*
X17949310Y-8414320I-40000J0D01*
G01*
X17949310Y-8414320D02*
G75*
G02*
X18029310Y-8414320I40000J0D01*
G01*
X18029310Y-8668320D02*
G75*
G02*
X17949310Y-8668320I-40000J0D01*
G01*
X17949310Y-8668320D02*
G75*
G02*
X18029310Y-8668320I40000J0D01*
G01*
X18029310Y-8922320D02*
G75*
G02*
X17949310Y-8922320I-40000J0D01*
G01*
X17949310Y-8922320D02*
G75*
G02*
X18029310Y-8922320I40000J0D01*
G01*
X18029310Y-9176320D02*
G75*
G02*
X17949310Y-9176320I-40000J0D01*
G01*
X17949310Y-9176320D02*
G75*
G02*
X18029310Y-9176320I40000J0D01*
G01*
X18029310Y-9430320D02*
G75*
G02*
X17949310Y-9430320I-40000J0D01*
G01*
X17949310Y-9430320D02*
G75*
G02*
X18029310Y-9430320I40000J0D01*
G01*
X18029310Y-9684320D02*
G75*
G02*
X17949310Y-9684320I-40000J0D01*
G01*
X17949310Y-9684320D02*
G75*
G02*
X18029310Y-9684320I40000J0D01*
G01*
X18029310Y-9938320D02*
G75*
G02*
X17949310Y-9938320I-40000J0D01*
G01*
X17949310Y-9938320D02*
G75*
G02*
X18029310Y-9938320I40000J0D01*
G01*
X18131160Y-12385320D02*
G75*
G02*
X18051160Y-12385320I-40000J0D01*
G01*
X18051160Y-12385320D02*
G75*
G02*
X18131160Y-12385320I40000J0D01*
G01*
X18131160Y-14925320D02*
G75*
G02*
X18051160Y-14925320I-40000J0D01*
G01*
X18051160Y-14925320D02*
G75*
G02*
X18131160Y-14925320I40000J0D01*
G01*
X18385160Y-12385320D02*
G75*
G02*
X18305160Y-12385320I-40000J0D01*
G01*
X18305160Y-12385320D02*
G75*
G02*
X18385160Y-12385320I40000J0D01*
G01*
X18385160Y-14925320D02*
G75*
G02*
X18305160Y-14925320I-40000J0D01*
G01*
X18305160Y-14925320D02*
G75*
G02*
X18385160Y-14925320I40000J0D01*
G01*
X13112760Y-11700320D02*
X13112760Y-11800320D01*
X13062760Y-11750320D02*
X13162760Y-11750320D01*
X13366760Y-11700320D02*
X13366760Y-11800320D01*
X13316760Y-11750320D02*
X13416760Y-11750320D01*
X13620760Y-11700320D02*
X13620760Y-11800320D01*
X13570760Y-11750320D02*
X13670760Y-11750320D01*
X13769180Y-12332780D02*
X13769180Y-12432780D01*
X13719180Y-12382780D02*
X13819180Y-12382780D01*
X13769180Y-14872780D02*
X13769180Y-14972780D01*
X13719180Y-14922780D02*
X13819180Y-14922780D01*
X13874760Y-11700320D02*
X13874760Y-11800320D01*
X13824760Y-11750320D02*
X13924760Y-11750320D01*
X14023180Y-12332780D02*
X14023180Y-12432780D01*
X13973180Y-12382780D02*
X14073180Y-12382780D01*
X14023180Y-14872780D02*
X14023180Y-14972780D01*
X13973180Y-14922780D02*
X14073180Y-14922780D01*
X14277180Y-12332780D02*
X14277180Y-12432780D01*
X14227180Y-12382780D02*
X14327180Y-12382780D01*
X14277180Y-14872780D02*
X14277180Y-14972780D01*
X14227180Y-14922780D02*
X14327180Y-14922780D01*
X14531180Y-12332780D02*
X14531180Y-12432780D01*
X14481180Y-12382780D02*
X14581180Y-12382780D01*
X14531180Y-14872780D02*
X14531180Y-14972780D01*
X14481180Y-14922780D02*
X14581180Y-14922780D01*
X14785180Y-12332780D02*
X14785180Y-12432780D01*
X14735180Y-12382780D02*
X14835180Y-12382780D01*
X14785180Y-14872780D02*
X14785180Y-14972780D01*
X14735180Y-14922780D02*
X14835180Y-14922780D01*
X15039180Y-12332780D02*
X15039180Y-12432780D01*
X14989180Y-12382780D02*
X15089180Y-12382780D01*
X15039180Y-14872780D02*
X15039180Y-14972780D01*
X14989180Y-14922780D02*
X15089180Y-14922780D01*
X15293180Y-12332780D02*
X15293180Y-12432780D01*
X15243180Y-12382780D02*
X15343180Y-12382780D01*
X15293180Y-14872780D02*
X15293180Y-14972780D01*
X15243180Y-14922780D02*
X15343180Y-14922780D01*
X15547180Y-12332780D02*
X15547180Y-12432780D01*
X15497180Y-12382780D02*
X15597180Y-12382780D01*
X15547180Y-14872780D02*
X15547180Y-14972780D01*
X15497180Y-14922780D02*
X15597180Y-14922780D01*
X15801180Y-12332780D02*
X15801180Y-12432780D01*
X15751180Y-12382780D02*
X15851180Y-12382780D01*
X15801180Y-14872780D02*
X15801180Y-14972780D01*
X15751180Y-14922780D02*
X15851180Y-14922780D01*
X16055180Y-12332780D02*
X16055180Y-12432780D01*
X16005180Y-12382780D02*
X16105180Y-12382780D01*
X16055180Y-14872780D02*
X16055180Y-14972780D01*
X16005180Y-14922780D02*
X16105180Y-14922780D01*
X16309180Y-12332780D02*
X16309180Y-12432780D01*
X16259180Y-12382780D02*
X16359180Y-12382780D01*
X16309180Y-14872780D02*
X16309180Y-14972780D01*
X16259180Y-14922780D02*
X16359180Y-14922780D01*
X16563180Y-12332780D02*
X16563180Y-12432780D01*
X16513180Y-12382780D02*
X16613180Y-12382780D01*
X16563180Y-14872780D02*
X16563180Y-14972780D01*
X16513180Y-14922780D02*
X16613180Y-14922780D01*
X16817180Y-12332780D02*
X16817180Y-12432780D01*
X16767180Y-12382780D02*
X16867180Y-12382780D01*
X16817180Y-14872780D02*
X16817180Y-14972780D01*
X16767180Y-14922780D02*
X16867180Y-14922780D01*
X17024360Y-11522520D02*
X17024360Y-11622520D01*
X16974360Y-11572520D02*
X17074360Y-11572520D01*
X17071180Y-12332780D02*
X17071180Y-12432780D01*
X17021180Y-12382780D02*
X17121180Y-12382780D01*
X17071180Y-14872780D02*
X17071180Y-14972780D01*
X17021180Y-14922780D02*
X17121180Y-14922780D01*
X17278360Y-11522520D02*
X17278360Y-11622520D01*
X17228360Y-11572520D02*
X17328360Y-11572520D01*
X17325180Y-12332780D02*
X17325180Y-12432780D01*
X17275180Y-12382780D02*
X17375180Y-12382780D01*
X17325180Y-14872780D02*
X17325180Y-14972780D01*
X17275180Y-14922780D02*
X17375180Y-14922780D01*
X17532360Y-11522520D02*
X17532360Y-11622520D01*
X17482360Y-11572520D02*
X17582360Y-11572520D01*
X17579180Y-12332780D02*
X17579180Y-12432780D01*
X17529180Y-12382780D02*
X17629180Y-12382780D01*
X17579180Y-14872780D02*
X17579180Y-14972780D01*
X17529180Y-14922780D02*
X17629180Y-14922780D01*
X17786360Y-11522520D02*
X17786360Y-11622520D01*
X17736360Y-11572520D02*
X17836360Y-11572520D01*
X17833180Y-12332780D02*
X17833180Y-12432780D01*
X17783180Y-12382780D02*
X17883180Y-12382780D01*
X17833180Y-14872780D02*
X17833180Y-14972780D01*
X17783180Y-14922780D02*
X17883180Y-14922780D01*
X18087180Y-12332780D02*
X18087180Y-12432780D01*
X18037180Y-12382780D02*
X18137180Y-12382780D01*
X18087180Y-14872780D02*
X18087180Y-14972780D01*
X18037180Y-14922780D02*
X18137180Y-14922780D01*
X18341180Y-12332780D02*
X18341180Y-12432780D01*
X18291180Y-12382780D02*
X18391180Y-12382780D01*
X18341180Y-14872780D02*
X18341180Y-14972780D01*
X18291180Y-14922780D02*
X18391180Y-14922780D01*
D13*
X12770651Y-7725211D02*
X12770651Y-7647429D01*
X12692869Y-7647429D01*
X12692869Y-7725211D01*
X12770651Y-7725211D01*
X12770651Y-8131611D02*
X12770651Y-8053829D01*
X12692869Y-8053829D01*
X12692869Y-8131611D01*
X12770651Y-8131611D01*
X12770651Y-8538011D02*
X12770651Y-8460229D01*
X12692869Y-8460229D01*
X12692869Y-8538011D01*
X12770651Y-8538011D01*
X12770651Y-8944411D02*
X12770651Y-8866629D01*
X12692869Y-8866629D01*
X12692869Y-8944411D01*
X12770651Y-8944411D01*
X12770651Y-9350811D02*
X12770651Y-9273029D01*
X12692869Y-9273029D01*
X12692869Y-9350811D01*
X12770651Y-9350811D01*
X12770651Y-9757211D02*
X12770651Y-9679429D01*
X12692869Y-9679429D01*
X12692869Y-9757211D01*
X12770651Y-9757211D01*
X12770651Y-10163611D02*
X12770651Y-10085829D01*
X12692869Y-10085829D01*
X12692869Y-10163611D01*
X12770651Y-10163611D01*
X12770651Y-10570011D02*
X12770651Y-10492229D01*
X12692869Y-10492229D01*
X12692869Y-10570011D01*
X12770651Y-10570011D01*
X12770651Y-10976411D02*
X12770651Y-10898629D01*
X12692869Y-10898629D01*
X12692869Y-10976411D01*
X12770651Y-10976411D01*
X12770651Y-11382811D02*
X12770651Y-11305029D01*
X12692869Y-11305029D01*
X12692869Y-11382811D01*
X12770651Y-11382811D01*
X12770651Y-11789211D02*
X12770651Y-11711429D01*
X12692869Y-11711429D01*
X12692869Y-11789211D01*
X12770651Y-11789211D01*
X12770651Y-12449611D02*
X12770651Y-12371829D01*
X12692869Y-12371829D01*
X12692869Y-12449611D01*
X12770651Y-12449611D01*
X12770651Y-12856011D02*
X12770651Y-12778229D01*
X12692869Y-12778229D01*
X12692869Y-12856011D01*
X12770651Y-12856011D01*
X12770651Y-13262411D02*
X12770651Y-13184629D01*
X12692869Y-13184629D01*
X12692869Y-13262411D01*
X12770651Y-13262411D01*
X13304051Y-9960411D02*
X13304051Y-9882629D01*
X13226269Y-9882629D01*
X13226269Y-9960411D01*
X13304051Y-9960411D01*
X13304051Y-10697011D02*
X13304051Y-10619229D01*
X13226269Y-10619229D01*
X13226269Y-10697011D01*
X13304051Y-10697011D01*
X13685051Y-9960411D02*
X13685051Y-9882629D01*
X13607269Y-9882629D01*
X13607269Y-9960411D01*
X13685051Y-9960411D01*
X13685051Y-10697011D02*
X13685051Y-10619229D01*
X13607269Y-10619229D01*
X13607269Y-10697011D01*
X13685051Y-10697011D01*
X15132851Y-15319811D02*
X15132851Y-15242029D01*
X15055069Y-15242029D01*
X15055069Y-15319811D01*
X15132851Y-15319811D01*
X15539251Y-15319811D02*
X15539251Y-15242029D01*
X15461469Y-15242029D01*
X15461469Y-15319811D01*
X15539251Y-15319811D01*
X15945651Y-15319811D02*
X15945651Y-15242029D01*
X15867869Y-15242029D01*
X15867869Y-15319811D01*
X15945651Y-15319811D01*
X16352051Y-15319811D02*
X16352051Y-15242029D01*
X16274269Y-15242029D01*
X16274269Y-15319811D01*
X16352051Y-15319811D01*
X16733051Y-15319811D02*
X16733051Y-15242029D01*
X16655269Y-15242029D01*
X16655269Y-15319811D01*
X16733051Y-15319811D01*
X17139451Y-15319811D02*
X17139451Y-15242029D01*
X17061669Y-15242029D01*
X17061669Y-15319811D01*
X17139451Y-15319811D01*
X17571251Y-15319811D02*
X17571251Y-15242029D01*
X17493469Y-15242029D01*
X17493469Y-15319811D01*
X17571251Y-15319811D01*
X18409451Y-8741211D02*
X18409451Y-8663429D01*
X18331669Y-8663429D01*
X18331669Y-8741211D01*
X18409451Y-8741211D01*
X18409451Y-9223811D02*
X18409451Y-9146029D01*
X18331669Y-9146029D01*
X18331669Y-9223811D01*
X18409451Y-9223811D01*
X18409451Y-9706411D02*
X18409451Y-9628629D01*
X18331669Y-9628629D01*
X18331669Y-9706411D01*
X18409451Y-9706411D01*
X18409451Y-12983011D02*
X18409451Y-12905229D01*
X18331669Y-12905229D01*
X18331669Y-12983011D01*
X18409451Y-12983011D01*
X18409451Y-13364011D02*
X18409451Y-13286229D01*
X18331669Y-13286229D01*
X18331669Y-13364011D01*
X18409451Y-13364011D01*
D14*
X12856260Y-14685970D02*
X12921260Y-14620970D01*
X12856260Y-14555970D01*
X12791260Y-14620970D01*
X12856260Y-14685970D01*
X12856260Y-15193970D02*
X12921260Y-15128970D01*
X12856260Y-15063970D01*
X12791260Y-15128970D01*
X12856260Y-15193970D01*
D11*
X12659437Y-15774304D02*
X12659437Y-15574304D01*
X12659437Y-15574304D02*
X12707056Y-15574304D01*
X12707056Y-15574304D02*
X12735627Y-15583828D01*
X12735627Y-15583828D02*
X12754675Y-15602875D01*
X12754675Y-15602875D02*
X12764199Y-15621923D01*
X12764199Y-15621923D02*
X12773722Y-15660018D01*
X12773722Y-15660018D02*
X12773722Y-15688589D01*
X12773722Y-15688589D02*
X12764199Y-15726685D01*
X12764199Y-15726685D02*
X12754675Y-15745732D01*
X12754675Y-15745732D02*
X12735627Y-15764780D01*
X12735627Y-15764780D02*
X12707056Y-15774304D01*
X12707056Y-15774304D02*
X12659437Y-15774304D01*
X12859437Y-15774304D02*
X12859437Y-15640970D01*
X12859437Y-15679066D02*
X12868961Y-15660018D01*
X12868961Y-15660018D02*
X12878484Y-15650494D01*
X12878484Y-15650494D02*
X12897532Y-15640970D01*
X12897532Y-15640970D02*
X12916580Y-15640970D01*
X12983246Y-15774304D02*
X12983246Y-15640970D01*
X12983246Y-15574304D02*
X12973722Y-15583828D01*
X12973722Y-15583828D02*
X12983246Y-15593351D01*
X12983246Y-15593351D02*
X12992770Y-15583828D01*
X12992770Y-15583828D02*
X12983246Y-15574304D01*
X12983246Y-15574304D02*
X12983246Y-15593351D01*
X13107056Y-15774304D02*
X13088008Y-15764780D01*
X13088008Y-15764780D02*
X13078484Y-15745732D01*
X13078484Y-15745732D02*
X13078484Y-15574304D01*
X13211818Y-15774304D02*
X13192770Y-15764780D01*
X13192770Y-15764780D02*
X13183246Y-15745732D01*
X13183246Y-15745732D02*
X13183246Y-15574304D01*
X13440389Y-15774304D02*
X13440389Y-15574304D01*
X13440389Y-15574304D02*
X13507056Y-15717161D01*
X13507056Y-15717161D02*
X13573722Y-15574304D01*
X13573722Y-15574304D02*
X13573722Y-15774304D01*
X13754675Y-15774304D02*
X13754675Y-15669542D01*
X13754675Y-15669542D02*
X13745151Y-15650494D01*
X13745151Y-15650494D02*
X13726103Y-15640970D01*
X13726103Y-15640970D02*
X13688008Y-15640970D01*
X13688008Y-15640970D02*
X13668961Y-15650494D01*
X13754675Y-15764780D02*
X13735627Y-15774304D01*
X13735627Y-15774304D02*
X13688008Y-15774304D01*
X13688008Y-15774304D02*
X13668961Y-15764780D01*
X13668961Y-15764780D02*
X13659437Y-15745732D01*
X13659437Y-15745732D02*
X13659437Y-15726685D01*
X13659437Y-15726685D02*
X13668961Y-15707637D01*
X13668961Y-15707637D02*
X13688008Y-15698113D01*
X13688008Y-15698113D02*
X13735627Y-15698113D01*
X13735627Y-15698113D02*
X13754675Y-15688589D01*
X13849913Y-15640970D02*
X13849913Y-15840970D01*
X13849913Y-15650494D02*
X13868961Y-15640970D01*
X13868961Y-15640970D02*
X13907056Y-15640970D01*
X13907056Y-15640970D02*
X13926103Y-15650494D01*
X13926103Y-15650494D02*
X13935627Y-15660018D01*
X13935627Y-15660018D02*
X13945151Y-15679066D01*
X13945151Y-15679066D02*
X13945151Y-15736208D01*
X13945151Y-15736208D02*
X13935627Y-15755256D01*
X13935627Y-15755256D02*
X13926103Y-15764780D01*
X13926103Y-15764780D02*
X13907056Y-15774304D01*
X13907056Y-15774304D02*
X13868961Y-15774304D01*
X13868961Y-15774304D02*
X13849913Y-15764780D01*
X14030865Y-15755256D02*
X14040389Y-15764780D01*
X14040389Y-15764780D02*
X14030865Y-15774304D01*
X14030865Y-15774304D02*
X14021342Y-15764780D01*
X14021342Y-15764780D02*
X14030865Y-15755256D01*
X14030865Y-15755256D02*
X14030865Y-15774304D01*
X14030865Y-15650494D02*
X14040389Y-15660018D01*
X14040389Y-15660018D02*
X14030865Y-15669542D01*
X14030865Y-15669542D02*
X14021342Y-15660018D01*
X14021342Y-15660018D02*
X14030865Y-15650494D01*
X14030865Y-15650494D02*
X14030865Y-15669542D01*
D12*
X12368660Y-16087820D02*
X12398660Y-16117820D01*
X12398660Y-16087820D02*
X12368660Y-16117820D01*
D11*
X12697532Y-15994304D02*
X12716580Y-15994304D01*
X12716580Y-15994304D02*
X12735627Y-16003828D01*
X12735627Y-16003828D02*
X12745151Y-16013351D01*
X12745151Y-16013351D02*
X12754675Y-16032399D01*
X12754675Y-16032399D02*
X12764199Y-16070494D01*
X12764199Y-16070494D02*
X12764199Y-16118113D01*
X12764199Y-16118113D02*
X12754675Y-16156208D01*
X12754675Y-16156208D02*
X12745151Y-16175256D01*
X12745151Y-16175256D02*
X12735627Y-16184780D01*
X12735627Y-16184780D02*
X12716580Y-16194304D01*
X12716580Y-16194304D02*
X12697532Y-16194304D01*
X12697532Y-16194304D02*
X12678484Y-16184780D01*
X12678484Y-16184780D02*
X12668961Y-16175256D01*
X12668961Y-16175256D02*
X12659437Y-16156208D01*
X12659437Y-16156208D02*
X12649913Y-16118113D01*
X12649913Y-16118113D02*
X12649913Y-16070494D01*
X12649913Y-16070494D02*
X12659437Y-16032399D01*
X12659437Y-16032399D02*
X12668961Y-16013351D01*
X12668961Y-16013351D02*
X12678484Y-16003828D01*
X12678484Y-16003828D02*
X12697532Y-15994304D01*
X12849913Y-16175256D02*
X12859437Y-16184780D01*
X12859437Y-16184780D02*
X12849913Y-16194304D01*
X12849913Y-16194304D02*
X12840389Y-16184780D01*
X12840389Y-16184780D02*
X12849913Y-16175256D01*
X12849913Y-16175256D02*
X12849913Y-16194304D01*
X12926103Y-15994304D02*
X13049913Y-15994304D01*
X13049913Y-15994304D02*
X12983246Y-16070494D01*
X12983246Y-16070494D02*
X13011818Y-16070494D01*
X13011818Y-16070494D02*
X13030865Y-16080018D01*
X13030865Y-16080018D02*
X13040389Y-16089542D01*
X13040389Y-16089542D02*
X13049913Y-16108589D01*
X13049913Y-16108589D02*
X13049913Y-16156208D01*
X13049913Y-16156208D02*
X13040389Y-16175256D01*
X13040389Y-16175256D02*
X13030865Y-16184780D01*
X13030865Y-16184780D02*
X13011818Y-16194304D01*
X13011818Y-16194304D02*
X12954675Y-16194304D01*
X12954675Y-16194304D02*
X12935627Y-16184780D01*
X12935627Y-16184780D02*
X12926103Y-16175256D01*
X13173722Y-15994304D02*
X13192770Y-15994304D01*
X13192770Y-15994304D02*
X13211818Y-16003828D01*
X13211818Y-16003828D02*
X13221342Y-16013351D01*
X13221342Y-16013351D02*
X13230865Y-16032399D01*
X13230865Y-16032399D02*
X13240389Y-16070494D01*
X13240389Y-16070494D02*
X13240389Y-16118113D01*
X13240389Y-16118113D02*
X13230865Y-16156208D01*
X13230865Y-16156208D02*
X13221342Y-16175256D01*
X13221342Y-16175256D02*
X13211818Y-16184780D01*
X13211818Y-16184780D02*
X13192770Y-16194304D01*
X13192770Y-16194304D02*
X13173722Y-16194304D01*
X13173722Y-16194304D02*
X13154675Y-16184780D01*
X13154675Y-16184780D02*
X13145151Y-16175256D01*
X13145151Y-16175256D02*
X13135627Y-16156208D01*
X13135627Y-16156208D02*
X13126103Y-16118113D01*
X13126103Y-16118113D02*
X13126103Y-16070494D01*
X13126103Y-16070494D02*
X13135627Y-16032399D01*
X13135627Y-16032399D02*
X13145151Y-16013351D01*
X13145151Y-16013351D02*
X13154675Y-16003828D01*
X13154675Y-16003828D02*
X13173722Y-15994304D01*
X13364199Y-15994304D02*
X13383246Y-15994304D01*
X13383246Y-15994304D02*
X13402294Y-16003828D01*
X13402294Y-16003828D02*
X13411818Y-16013351D01*
X13411818Y-16013351D02*
X13421342Y-16032399D01*
X13421342Y-16032399D02*
X13430865Y-16070494D01*
X13430865Y-16070494D02*
X13430865Y-16118113D01*
X13430865Y-16118113D02*
X13421342Y-16156208D01*
X13421342Y-16156208D02*
X13411818Y-16175256D01*
X13411818Y-16175256D02*
X13402294Y-16184780D01*
X13402294Y-16184780D02*
X13383246Y-16194304D01*
X13383246Y-16194304D02*
X13364199Y-16194304D01*
X13364199Y-16194304D02*
X13345151Y-16184780D01*
X13345151Y-16184780D02*
X13335627Y-16175256D01*
X13335627Y-16175256D02*
X13326103Y-16156208D01*
X13326103Y-16156208D02*
X13316580Y-16118113D01*
X13316580Y-16118113D02*
X13316580Y-16070494D01*
X13316580Y-16070494D02*
X13326103Y-16032399D01*
X13326103Y-16032399D02*
X13335627Y-16013351D01*
X13335627Y-16013351D02*
X13345151Y-16003828D01*
X13345151Y-16003828D02*
X13364199Y-15994304D01*
X13516580Y-16194304D02*
X13516580Y-16060970D01*
X13516580Y-16080018D02*
X13526103Y-16070494D01*
X13526103Y-16070494D02*
X13545151Y-16060970D01*
X13545151Y-16060970D02*
X13573723Y-16060970D01*
X13573723Y-16060970D02*
X13592770Y-16070494D01*
X13592770Y-16070494D02*
X13602294Y-16089542D01*
X13602294Y-16089542D02*
X13602294Y-16194304D01*
X13602294Y-16089542D02*
X13611818Y-16070494D01*
X13611818Y-16070494D02*
X13630865Y-16060970D01*
X13630865Y-16060970D02*
X13659437Y-16060970D01*
X13659437Y-16060970D02*
X13678484Y-16070494D01*
X13678484Y-16070494D02*
X13688008Y-16089542D01*
X13688008Y-16089542D02*
X13688008Y-16194304D01*
X13783246Y-16194304D02*
X13783246Y-16060970D01*
X13783246Y-16080018D02*
X13792770Y-16070494D01*
X13792770Y-16070494D02*
X13811818Y-16060970D01*
X13811818Y-16060970D02*
X13840389Y-16060970D01*
X13840389Y-16060970D02*
X13859437Y-16070494D01*
X13859437Y-16070494D02*
X13868961Y-16089542D01*
X13868961Y-16089542D02*
X13868961Y-16194304D01*
X13868961Y-16089542D02*
X13878484Y-16070494D01*
X13878484Y-16070494D02*
X13897532Y-16060970D01*
X13897532Y-16060970D02*
X13926103Y-16060970D01*
X13926103Y-16060970D02*
X13945151Y-16070494D01*
X13945151Y-16070494D02*
X13954675Y-16089542D01*
X13954675Y-16089542D02*
X13954675Y-16194304D01*
X14345151Y-15984780D02*
X14173723Y-16241923D01*
X14602294Y-15994304D02*
X14621342Y-15994304D01*
X14621342Y-15994304D02*
X14640389Y-16003828D01*
X14640389Y-16003828D02*
X14649913Y-16013351D01*
X14649913Y-16013351D02*
X14659437Y-16032399D01*
X14659437Y-16032399D02*
X14668961Y-16070494D01*
X14668961Y-16070494D02*
X14668961Y-16118113D01*
X14668961Y-16118113D02*
X14659437Y-16156208D01*
X14659437Y-16156208D02*
X14649913Y-16175256D01*
X14649913Y-16175256D02*
X14640389Y-16184780D01*
X14640389Y-16184780D02*
X14621342Y-16194304D01*
X14621342Y-16194304D02*
X14602294Y-16194304D01*
X14602294Y-16194304D02*
X14583246Y-16184780D01*
X14583246Y-16184780D02*
X14573723Y-16175256D01*
X14573723Y-16175256D02*
X14564199Y-16156208D01*
X14564199Y-16156208D02*
X14554675Y-16118113D01*
X14554675Y-16118113D02*
X14554675Y-16070494D01*
X14554675Y-16070494D02*
X14564199Y-16032399D01*
X14564199Y-16032399D02*
X14573723Y-16013351D01*
X14573723Y-16013351D02*
X14583246Y-16003828D01*
X14583246Y-16003828D02*
X14602294Y-15994304D01*
X14754675Y-16175256D02*
X14764199Y-16184780D01*
X14764199Y-16184780D02*
X14754675Y-16194304D01*
X14754675Y-16194304D02*
X14745151Y-16184780D01*
X14745151Y-16184780D02*
X14754675Y-16175256D01*
X14754675Y-16175256D02*
X14754675Y-16194304D01*
X14888008Y-15994304D02*
X14907056Y-15994304D01*
X14907056Y-15994304D02*
X14926104Y-16003828D01*
X14926104Y-16003828D02*
X14935627Y-16013351D01*
X14935627Y-16013351D02*
X14945151Y-16032399D01*
X14945151Y-16032399D02*
X14954675Y-16070494D01*
X14954675Y-16070494D02*
X14954675Y-16118113D01*
X14954675Y-16118113D02*
X14945151Y-16156208D01*
X14945151Y-16156208D02*
X14935627Y-16175256D01*
X14935627Y-16175256D02*
X14926104Y-16184780D01*
X14926104Y-16184780D02*
X14907056Y-16194304D01*
X14907056Y-16194304D02*
X14888008Y-16194304D01*
X14888008Y-16194304D02*
X14868961Y-16184780D01*
X14868961Y-16184780D02*
X14859437Y-16175256D01*
X14859437Y-16175256D02*
X14849913Y-16156208D01*
X14849913Y-16156208D02*
X14840389Y-16118113D01*
X14840389Y-16118113D02*
X14840389Y-16070494D01*
X14840389Y-16070494D02*
X14849913Y-16032399D01*
X14849913Y-16032399D02*
X14859437Y-16013351D01*
X14859437Y-16013351D02*
X14868961Y-16003828D01*
X14868961Y-16003828D02*
X14888008Y-15994304D01*
X15145151Y-16194304D02*
X15030866Y-16194304D01*
X15088008Y-16194304D02*
X15088008Y-15994304D01*
X15088008Y-15994304D02*
X15068961Y-16022875D01*
X15068961Y-16022875D02*
X15049913Y-16041923D01*
X15049913Y-16041923D02*
X15030866Y-16051447D01*
X15335627Y-16194304D02*
X15221342Y-16194304D01*
X15278485Y-16194304D02*
X15278485Y-15994304D01*
X15278485Y-15994304D02*
X15259437Y-16022875D01*
X15259437Y-16022875D02*
X15240389Y-16041923D01*
X15240389Y-16041923D02*
X15221342Y-16051447D01*
X15449913Y-16080018D02*
X15430866Y-16070494D01*
X15430866Y-16070494D02*
X15421342Y-16060970D01*
X15421342Y-16060970D02*
X15411818Y-16041923D01*
X15411818Y-16041923D02*
X15411818Y-16032399D01*
X15411818Y-16032399D02*
X15421342Y-16013351D01*
X15421342Y-16013351D02*
X15430866Y-16003828D01*
X15430866Y-16003828D02*
X15449913Y-15994304D01*
X15449913Y-15994304D02*
X15488008Y-15994304D01*
X15488008Y-15994304D02*
X15507056Y-16003828D01*
X15507056Y-16003828D02*
X15516580Y-16013351D01*
X15516580Y-16013351D02*
X15526104Y-16032399D01*
X15526104Y-16032399D02*
X15526104Y-16041923D01*
X15526104Y-16041923D02*
X15516580Y-16060970D01*
X15516580Y-16060970D02*
X15507056Y-16070494D01*
X15507056Y-16070494D02*
X15488008Y-16080018D01*
X15488008Y-16080018D02*
X15449913Y-16080018D01*
X15449913Y-16080018D02*
X15430866Y-16089542D01*
X15430866Y-16089542D02*
X15421342Y-16099066D01*
X15421342Y-16099066D02*
X15411818Y-16118113D01*
X15411818Y-16118113D02*
X15411818Y-16156208D01*
X15411818Y-16156208D02*
X15421342Y-16175256D01*
X15421342Y-16175256D02*
X15430866Y-16184780D01*
X15430866Y-16184780D02*
X15449913Y-16194304D01*
X15449913Y-16194304D02*
X15488008Y-16194304D01*
X15488008Y-16194304D02*
X15507056Y-16184780D01*
X15507056Y-16184780D02*
X15516580Y-16175256D01*
X15516580Y-16175256D02*
X15526104Y-16156208D01*
X15526104Y-16156208D02*
X15526104Y-16118113D01*
X15526104Y-16118113D02*
X15516580Y-16099066D01*
X15516580Y-16099066D02*
X15507056Y-16089542D01*
X15507056Y-16089542D02*
X15488008Y-16080018D01*
X15602294Y-15994304D02*
X15602294Y-16032399D01*
X15678485Y-15994304D02*
X15678485Y-16032399D01*
X15973723Y-16270494D02*
X15964199Y-16260970D01*
X15964199Y-16260970D02*
X15945151Y-16232399D01*
X15945151Y-16232399D02*
X15935628Y-16213351D01*
X15935628Y-16213351D02*
X15926104Y-16184780D01*
X15926104Y-16184780D02*
X15916580Y-16137161D01*
X15916580Y-16137161D02*
X15916580Y-16099066D01*
X15916580Y-16099066D02*
X15926104Y-16051447D01*
X15926104Y-16051447D02*
X15935628Y-16022875D01*
X15935628Y-16022875D02*
X15945151Y-16003828D01*
X15945151Y-16003828D02*
X15964199Y-15975256D01*
X15964199Y-15975256D02*
X15973723Y-15965732D01*
X16154675Y-16194304D02*
X16040389Y-16194304D01*
X16097532Y-16194304D02*
X16097532Y-15994304D01*
X16097532Y-15994304D02*
X16078485Y-16022875D01*
X16078485Y-16022875D02*
X16059437Y-16041923D01*
X16059437Y-16041923D02*
X16040389Y-16051447D01*
X16278485Y-15994304D02*
X16297532Y-15994304D01*
X16297532Y-15994304D02*
X16316580Y-16003828D01*
X16316580Y-16003828D02*
X16326104Y-16013351D01*
X16326104Y-16013351D02*
X16335628Y-16032399D01*
X16335628Y-16032399D02*
X16345151Y-16070494D01*
X16345151Y-16070494D02*
X16345151Y-16118113D01*
X16345151Y-16118113D02*
X16335628Y-16156208D01*
X16335628Y-16156208D02*
X16326104Y-16175256D01*
X16326104Y-16175256D02*
X16316580Y-16184780D01*
X16316580Y-16184780D02*
X16297532Y-16194304D01*
X16297532Y-16194304D02*
X16278485Y-16194304D01*
X16278485Y-16194304D02*
X16259437Y-16184780D01*
X16259437Y-16184780D02*
X16249913Y-16175256D01*
X16249913Y-16175256D02*
X16240389Y-16156208D01*
X16240389Y-16156208D02*
X16230866Y-16118113D01*
X16230866Y-16118113D02*
X16230866Y-16070494D01*
X16230866Y-16070494D02*
X16240389Y-16032399D01*
X16240389Y-16032399D02*
X16249913Y-16013351D01*
X16249913Y-16013351D02*
X16259437Y-16003828D01*
X16259437Y-16003828D02*
X16278485Y-15994304D01*
X16583247Y-16194304D02*
X16583247Y-15994304D01*
X16668961Y-16194304D02*
X16668961Y-16089542D01*
X16668961Y-16089542D02*
X16659437Y-16070494D01*
X16659437Y-16070494D02*
X16640390Y-16060970D01*
X16640390Y-16060970D02*
X16611818Y-16060970D01*
X16611818Y-16060970D02*
X16592770Y-16070494D01*
X16592770Y-16070494D02*
X16583247Y-16080018D01*
X16792771Y-16194304D02*
X16773723Y-16184780D01*
X16773723Y-16184780D02*
X16764199Y-16175256D01*
X16764199Y-16175256D02*
X16754675Y-16156208D01*
X16754675Y-16156208D02*
X16754675Y-16099066D01*
X16754675Y-16099066D02*
X16764199Y-16080018D01*
X16764199Y-16080018D02*
X16773723Y-16070494D01*
X16773723Y-16070494D02*
X16792771Y-16060970D01*
X16792771Y-16060970D02*
X16821342Y-16060970D01*
X16821342Y-16060970D02*
X16840390Y-16070494D01*
X16840390Y-16070494D02*
X16849913Y-16080018D01*
X16849913Y-16080018D02*
X16859437Y-16099066D01*
X16859437Y-16099066D02*
X16859437Y-16156208D01*
X16859437Y-16156208D02*
X16849913Y-16175256D01*
X16849913Y-16175256D02*
X16840390Y-16184780D01*
X16840390Y-16184780D02*
X16821342Y-16194304D01*
X16821342Y-16194304D02*
X16792771Y-16194304D01*
X16973723Y-16194304D02*
X16954675Y-16184780D01*
X16954675Y-16184780D02*
X16945152Y-16165732D01*
X16945152Y-16165732D02*
X16945152Y-15994304D01*
X17126104Y-16184780D02*
X17107056Y-16194304D01*
X17107056Y-16194304D02*
X17068961Y-16194304D01*
X17068961Y-16194304D02*
X17049913Y-16184780D01*
X17049913Y-16184780D02*
X17040390Y-16165732D01*
X17040390Y-16165732D02*
X17040390Y-16089542D01*
X17040390Y-16089542D02*
X17049913Y-16070494D01*
X17049913Y-16070494D02*
X17068961Y-16060970D01*
X17068961Y-16060970D02*
X17107056Y-16060970D01*
X17107056Y-16060970D02*
X17126104Y-16070494D01*
X17126104Y-16070494D02*
X17135628Y-16089542D01*
X17135628Y-16089542D02*
X17135628Y-16108589D01*
X17135628Y-16108589D02*
X17040390Y-16127637D01*
X17211818Y-16184780D02*
X17230866Y-16194304D01*
X17230866Y-16194304D02*
X17268961Y-16194304D01*
X17268961Y-16194304D02*
X17288009Y-16184780D01*
X17288009Y-16184780D02*
X17297533Y-16165732D01*
X17297533Y-16165732D02*
X17297533Y-16156208D01*
X17297533Y-16156208D02*
X17288009Y-16137161D01*
X17288009Y-16137161D02*
X17268961Y-16127637D01*
X17268961Y-16127637D02*
X17240390Y-16127637D01*
X17240390Y-16127637D02*
X17221342Y-16118113D01*
X17221342Y-16118113D02*
X17211818Y-16099066D01*
X17211818Y-16099066D02*
X17211818Y-16089542D01*
X17211818Y-16089542D02*
X17221342Y-16070494D01*
X17221342Y-16070494D02*
X17240390Y-16060970D01*
X17240390Y-16060970D02*
X17268961Y-16060970D01*
X17268961Y-16060970D02*
X17288009Y-16070494D01*
X17364199Y-16270494D02*
X17373723Y-16260970D01*
X17373723Y-16260970D02*
X17392771Y-16232399D01*
X17392771Y-16232399D02*
X17402294Y-16213351D01*
X17402294Y-16213351D02*
X17411818Y-16184780D01*
X17411818Y-16184780D02*
X17421342Y-16137161D01*
X17421342Y-16137161D02*
X17421342Y-16099066D01*
X17421342Y-16099066D02*
X17411818Y-16051447D01*
X17411818Y-16051447D02*
X17402294Y-16022875D01*
X17402294Y-16022875D02*
X17392771Y-16003828D01*
X17392771Y-16003828D02*
X17373723Y-15975256D01*
X17373723Y-15975256D02*
X17364199Y-15965732D01*
D12*
X12398660Y-16366820D02*
G75*
G02*
X12318660Y-16366820I-40000J0D01*
G01*
X12318660Y-16366820D02*
G75*
G02*
X12398660Y-16366820I40000J0D01*
G01*
D11*
X12697532Y-16258304D02*
X12716580Y-16258304D01*
X12716580Y-16258304D02*
X12735627Y-16267828D01*
X12735627Y-16267828D02*
X12745151Y-16277351D01*
X12745151Y-16277351D02*
X12754675Y-16296399D01*
X12754675Y-16296399D02*
X12764199Y-16334494D01*
X12764199Y-16334494D02*
X12764199Y-16382113D01*
X12764199Y-16382113D02*
X12754675Y-16420208D01*
X12754675Y-16420208D02*
X12745151Y-16439256D01*
X12745151Y-16439256D02*
X12735627Y-16448780D01*
X12735627Y-16448780D02*
X12716580Y-16458304D01*
X12716580Y-16458304D02*
X12697532Y-16458304D01*
X12697532Y-16458304D02*
X12678484Y-16448780D01*
X12678484Y-16448780D02*
X12668961Y-16439256D01*
X12668961Y-16439256D02*
X12659437Y-16420208D01*
X12659437Y-16420208D02*
X12649913Y-16382113D01*
X12649913Y-16382113D02*
X12649913Y-16334494D01*
X12649913Y-16334494D02*
X12659437Y-16296399D01*
X12659437Y-16296399D02*
X12668961Y-16277351D01*
X12668961Y-16277351D02*
X12678484Y-16267828D01*
X12678484Y-16267828D02*
X12697532Y-16258304D01*
X12849913Y-16439256D02*
X12859437Y-16448780D01*
X12859437Y-16448780D02*
X12849913Y-16458304D01*
X12849913Y-16458304D02*
X12840389Y-16448780D01*
X12840389Y-16448780D02*
X12849913Y-16439256D01*
X12849913Y-16439256D02*
X12849913Y-16458304D01*
X12973722Y-16344018D02*
X12954675Y-16334494D01*
X12954675Y-16334494D02*
X12945151Y-16324970D01*
X12945151Y-16324970D02*
X12935627Y-16305923D01*
X12935627Y-16305923D02*
X12935627Y-16296399D01*
X12935627Y-16296399D02*
X12945151Y-16277351D01*
X12945151Y-16277351D02*
X12954675Y-16267828D01*
X12954675Y-16267828D02*
X12973722Y-16258304D01*
X12973722Y-16258304D02*
X13011818Y-16258304D01*
X13011818Y-16258304D02*
X13030865Y-16267828D01*
X13030865Y-16267828D02*
X13040389Y-16277351D01*
X13040389Y-16277351D02*
X13049913Y-16296399D01*
X13049913Y-16296399D02*
X13049913Y-16305923D01*
X13049913Y-16305923D02*
X13040389Y-16324970D01*
X13040389Y-16324970D02*
X13030865Y-16334494D01*
X13030865Y-16334494D02*
X13011818Y-16344018D01*
X13011818Y-16344018D02*
X12973722Y-16344018D01*
X12973722Y-16344018D02*
X12954675Y-16353542D01*
X12954675Y-16353542D02*
X12945151Y-16363066D01*
X12945151Y-16363066D02*
X12935627Y-16382113D01*
X12935627Y-16382113D02*
X12935627Y-16420208D01*
X12935627Y-16420208D02*
X12945151Y-16439256D01*
X12945151Y-16439256D02*
X12954675Y-16448780D01*
X12954675Y-16448780D02*
X12973722Y-16458304D01*
X12973722Y-16458304D02*
X13011818Y-16458304D01*
X13011818Y-16458304D02*
X13030865Y-16448780D01*
X13030865Y-16448780D02*
X13040389Y-16439256D01*
X13040389Y-16439256D02*
X13049913Y-16420208D01*
X13049913Y-16420208D02*
X13049913Y-16382113D01*
X13049913Y-16382113D02*
X13040389Y-16363066D01*
X13040389Y-16363066D02*
X13030865Y-16353542D01*
X13030865Y-16353542D02*
X13011818Y-16344018D01*
X13173722Y-16258304D02*
X13192770Y-16258304D01*
X13192770Y-16258304D02*
X13211818Y-16267828D01*
X13211818Y-16267828D02*
X13221342Y-16277351D01*
X13221342Y-16277351D02*
X13230865Y-16296399D01*
X13230865Y-16296399D02*
X13240389Y-16334494D01*
X13240389Y-16334494D02*
X13240389Y-16382113D01*
X13240389Y-16382113D02*
X13230865Y-16420208D01*
X13230865Y-16420208D02*
X13221342Y-16439256D01*
X13221342Y-16439256D02*
X13211818Y-16448780D01*
X13211818Y-16448780D02*
X13192770Y-16458304D01*
X13192770Y-16458304D02*
X13173722Y-16458304D01*
X13173722Y-16458304D02*
X13154675Y-16448780D01*
X13154675Y-16448780D02*
X13145151Y-16439256D01*
X13145151Y-16439256D02*
X13135627Y-16420208D01*
X13135627Y-16420208D02*
X13126103Y-16382113D01*
X13126103Y-16382113D02*
X13126103Y-16334494D01*
X13126103Y-16334494D02*
X13135627Y-16296399D01*
X13135627Y-16296399D02*
X13145151Y-16277351D01*
X13145151Y-16277351D02*
X13154675Y-16267828D01*
X13154675Y-16267828D02*
X13173722Y-16258304D01*
X13364199Y-16258304D02*
X13383246Y-16258304D01*
X13383246Y-16258304D02*
X13402294Y-16267828D01*
X13402294Y-16267828D02*
X13411818Y-16277351D01*
X13411818Y-16277351D02*
X13421342Y-16296399D01*
X13421342Y-16296399D02*
X13430865Y-16334494D01*
X13430865Y-16334494D02*
X13430865Y-16382113D01*
X13430865Y-16382113D02*
X13421342Y-16420208D01*
X13421342Y-16420208D02*
X13411818Y-16439256D01*
X13411818Y-16439256D02*
X13402294Y-16448780D01*
X13402294Y-16448780D02*
X13383246Y-16458304D01*
X13383246Y-16458304D02*
X13364199Y-16458304D01*
X13364199Y-16458304D02*
X13345151Y-16448780D01*
X13345151Y-16448780D02*
X13335627Y-16439256D01*
X13335627Y-16439256D02*
X13326103Y-16420208D01*
X13326103Y-16420208D02*
X13316580Y-16382113D01*
X13316580Y-16382113D02*
X13316580Y-16334494D01*
X13316580Y-16334494D02*
X13326103Y-16296399D01*
X13326103Y-16296399D02*
X13335627Y-16277351D01*
X13335627Y-16277351D02*
X13345151Y-16267828D01*
X13345151Y-16267828D02*
X13364199Y-16258304D01*
X13516580Y-16458304D02*
X13516580Y-16324970D01*
X13516580Y-16344018D02*
X13526103Y-16334494D01*
X13526103Y-16334494D02*
X13545151Y-16324970D01*
X13545151Y-16324970D02*
X13573723Y-16324970D01*
X13573723Y-16324970D02*
X13592770Y-16334494D01*
X13592770Y-16334494D02*
X13602294Y-16353542D01*
X13602294Y-16353542D02*
X13602294Y-16458304D01*
X13602294Y-16353542D02*
X13611818Y-16334494D01*
X13611818Y-16334494D02*
X13630865Y-16324970D01*
X13630865Y-16324970D02*
X13659437Y-16324970D01*
X13659437Y-16324970D02*
X13678484Y-16334494D01*
X13678484Y-16334494D02*
X13688008Y-16353542D01*
X13688008Y-16353542D02*
X13688008Y-16458304D01*
X13783246Y-16458304D02*
X13783246Y-16324970D01*
X13783246Y-16344018D02*
X13792770Y-16334494D01*
X13792770Y-16334494D02*
X13811818Y-16324970D01*
X13811818Y-16324970D02*
X13840389Y-16324970D01*
X13840389Y-16324970D02*
X13859437Y-16334494D01*
X13859437Y-16334494D02*
X13868961Y-16353542D01*
X13868961Y-16353542D02*
X13868961Y-16458304D01*
X13868961Y-16353542D02*
X13878484Y-16334494D01*
X13878484Y-16334494D02*
X13897532Y-16324970D01*
X13897532Y-16324970D02*
X13926103Y-16324970D01*
X13926103Y-16324970D02*
X13945151Y-16334494D01*
X13945151Y-16334494D02*
X13954675Y-16353542D01*
X13954675Y-16353542D02*
X13954675Y-16458304D01*
X14345151Y-16248780D02*
X14173723Y-16505923D01*
X14602294Y-16258304D02*
X14621342Y-16258304D01*
X14621342Y-16258304D02*
X14640389Y-16267828D01*
X14640389Y-16267828D02*
X14649913Y-16277351D01*
X14649913Y-16277351D02*
X14659437Y-16296399D01*
X14659437Y-16296399D02*
X14668961Y-16334494D01*
X14668961Y-16334494D02*
X14668961Y-16382113D01*
X14668961Y-16382113D02*
X14659437Y-16420208D01*
X14659437Y-16420208D02*
X14649913Y-16439256D01*
X14649913Y-16439256D02*
X14640389Y-16448780D01*
X14640389Y-16448780D02*
X14621342Y-16458304D01*
X14621342Y-16458304D02*
X14602294Y-16458304D01*
X14602294Y-16458304D02*
X14583246Y-16448780D01*
X14583246Y-16448780D02*
X14573723Y-16439256D01*
X14573723Y-16439256D02*
X14564199Y-16420208D01*
X14564199Y-16420208D02*
X14554675Y-16382113D01*
X14554675Y-16382113D02*
X14554675Y-16334494D01*
X14554675Y-16334494D02*
X14564199Y-16296399D01*
X14564199Y-16296399D02*
X14573723Y-16277351D01*
X14573723Y-16277351D02*
X14583246Y-16267828D01*
X14583246Y-16267828D02*
X14602294Y-16258304D01*
X14754675Y-16439256D02*
X14764199Y-16448780D01*
X14764199Y-16448780D02*
X14754675Y-16458304D01*
X14754675Y-16458304D02*
X14745151Y-16448780D01*
X14745151Y-16448780D02*
X14754675Y-16439256D01*
X14754675Y-16439256D02*
X14754675Y-16458304D01*
X14888008Y-16258304D02*
X14907056Y-16258304D01*
X14907056Y-16258304D02*
X14926104Y-16267828D01*
X14926104Y-16267828D02*
X14935627Y-16277351D01*
X14935627Y-16277351D02*
X14945151Y-16296399D01*
X14945151Y-16296399D02*
X14954675Y-16334494D01*
X14954675Y-16334494D02*
X14954675Y-16382113D01*
X14954675Y-16382113D02*
X14945151Y-16420208D01*
X14945151Y-16420208D02*
X14935627Y-16439256D01*
X14935627Y-16439256D02*
X14926104Y-16448780D01*
X14926104Y-16448780D02*
X14907056Y-16458304D01*
X14907056Y-16458304D02*
X14888008Y-16458304D01*
X14888008Y-16458304D02*
X14868961Y-16448780D01*
X14868961Y-16448780D02*
X14859437Y-16439256D01*
X14859437Y-16439256D02*
X14849913Y-16420208D01*
X14849913Y-16420208D02*
X14840389Y-16382113D01*
X14840389Y-16382113D02*
X14840389Y-16334494D01*
X14840389Y-16334494D02*
X14849913Y-16296399D01*
X14849913Y-16296399D02*
X14859437Y-16277351D01*
X14859437Y-16277351D02*
X14868961Y-16267828D01*
X14868961Y-16267828D02*
X14888008Y-16258304D01*
X15021342Y-16258304D02*
X15145151Y-16258304D01*
X15145151Y-16258304D02*
X15078485Y-16334494D01*
X15078485Y-16334494D02*
X15107056Y-16334494D01*
X15107056Y-16334494D02*
X15126104Y-16344018D01*
X15126104Y-16344018D02*
X15135627Y-16353542D01*
X15135627Y-16353542D02*
X15145151Y-16372589D01*
X15145151Y-16372589D02*
X15145151Y-16420208D01*
X15145151Y-16420208D02*
X15135627Y-16439256D01*
X15135627Y-16439256D02*
X15126104Y-16448780D01*
X15126104Y-16448780D02*
X15107056Y-16458304D01*
X15107056Y-16458304D02*
X15049913Y-16458304D01*
X15049913Y-16458304D02*
X15030866Y-16448780D01*
X15030866Y-16448780D02*
X15021342Y-16439256D01*
X15335627Y-16458304D02*
X15221342Y-16458304D01*
X15278485Y-16458304D02*
X15278485Y-16258304D01*
X15278485Y-16258304D02*
X15259437Y-16286875D01*
X15259437Y-16286875D02*
X15240389Y-16305923D01*
X15240389Y-16305923D02*
X15221342Y-16315447D01*
X15516580Y-16258304D02*
X15421342Y-16258304D01*
X15421342Y-16258304D02*
X15411818Y-16353542D01*
X15411818Y-16353542D02*
X15421342Y-16344018D01*
X15421342Y-16344018D02*
X15440389Y-16334494D01*
X15440389Y-16334494D02*
X15488008Y-16334494D01*
X15488008Y-16334494D02*
X15507056Y-16344018D01*
X15507056Y-16344018D02*
X15516580Y-16353542D01*
X15516580Y-16353542D02*
X15526104Y-16372589D01*
X15526104Y-16372589D02*
X15526104Y-16420208D01*
X15526104Y-16420208D02*
X15516580Y-16439256D01*
X15516580Y-16439256D02*
X15507056Y-16448780D01*
X15507056Y-16448780D02*
X15488008Y-16458304D01*
X15488008Y-16458304D02*
X15440389Y-16458304D01*
X15440389Y-16458304D02*
X15421342Y-16448780D01*
X15421342Y-16448780D02*
X15411818Y-16439256D01*
X15602294Y-16258304D02*
X15602294Y-16296399D01*
X15678485Y-16258304D02*
X15678485Y-16296399D01*
X15973723Y-16534494D02*
X15964199Y-16524970D01*
X15964199Y-16524970D02*
X15945151Y-16496399D01*
X15945151Y-16496399D02*
X15935628Y-16477351D01*
X15935628Y-16477351D02*
X15926104Y-16448780D01*
X15926104Y-16448780D02*
X15916580Y-16401161D01*
X15916580Y-16401161D02*
X15916580Y-16363066D01*
X15916580Y-16363066D02*
X15926104Y-16315447D01*
X15926104Y-16315447D02*
X15935628Y-16286875D01*
X15935628Y-16286875D02*
X15945151Y-16267828D01*
X15945151Y-16267828D02*
X15964199Y-16239256D01*
X15964199Y-16239256D02*
X15973723Y-16229732D01*
X16059437Y-16458304D02*
X16097532Y-16458304D01*
X16097532Y-16458304D02*
X16116580Y-16448780D01*
X16116580Y-16448780D02*
X16126104Y-16439256D01*
X16126104Y-16439256D02*
X16145151Y-16410685D01*
X16145151Y-16410685D02*
X16154675Y-16372589D01*
X16154675Y-16372589D02*
X16154675Y-16296399D01*
X16154675Y-16296399D02*
X16145151Y-16277351D01*
X16145151Y-16277351D02*
X16135628Y-16267828D01*
X16135628Y-16267828D02*
X16116580Y-16258304D01*
X16116580Y-16258304D02*
X16078485Y-16258304D01*
X16078485Y-16258304D02*
X16059437Y-16267828D01*
X16059437Y-16267828D02*
X16049913Y-16277351D01*
X16049913Y-16277351D02*
X16040389Y-16296399D01*
X16040389Y-16296399D02*
X16040389Y-16344018D01*
X16040389Y-16344018D02*
X16049913Y-16363066D01*
X16049913Y-16363066D02*
X16059437Y-16372589D01*
X16059437Y-16372589D02*
X16078485Y-16382113D01*
X16078485Y-16382113D02*
X16116580Y-16382113D01*
X16116580Y-16382113D02*
X16135628Y-16372589D01*
X16135628Y-16372589D02*
X16145151Y-16363066D01*
X16145151Y-16363066D02*
X16154675Y-16344018D01*
X16278485Y-16258304D02*
X16297532Y-16258304D01*
X16297532Y-16258304D02*
X16316580Y-16267828D01*
X16316580Y-16267828D02*
X16326104Y-16277351D01*
X16326104Y-16277351D02*
X16335628Y-16296399D01*
X16335628Y-16296399D02*
X16345151Y-16334494D01*
X16345151Y-16334494D02*
X16345151Y-16382113D01*
X16345151Y-16382113D02*
X16335628Y-16420208D01*
X16335628Y-16420208D02*
X16326104Y-16439256D01*
X16326104Y-16439256D02*
X16316580Y-16448780D01*
X16316580Y-16448780D02*
X16297532Y-16458304D01*
X16297532Y-16458304D02*
X16278485Y-16458304D01*
X16278485Y-16458304D02*
X16259437Y-16448780D01*
X16259437Y-16448780D02*
X16249913Y-16439256D01*
X16249913Y-16439256D02*
X16240389Y-16420208D01*
X16240389Y-16420208D02*
X16230866Y-16382113D01*
X16230866Y-16382113D02*
X16230866Y-16334494D01*
X16230866Y-16334494D02*
X16240389Y-16296399D01*
X16240389Y-16296399D02*
X16249913Y-16277351D01*
X16249913Y-16277351D02*
X16259437Y-16267828D01*
X16259437Y-16267828D02*
X16278485Y-16258304D01*
X16583247Y-16458304D02*
X16583247Y-16258304D01*
X16668961Y-16458304D02*
X16668961Y-16353542D01*
X16668961Y-16353542D02*
X16659437Y-16334494D01*
X16659437Y-16334494D02*
X16640390Y-16324970D01*
X16640390Y-16324970D02*
X16611818Y-16324970D01*
X16611818Y-16324970D02*
X16592770Y-16334494D01*
X16592770Y-16334494D02*
X16583247Y-16344018D01*
X16792771Y-16458304D02*
X16773723Y-16448780D01*
X16773723Y-16448780D02*
X16764199Y-16439256D01*
X16764199Y-16439256D02*
X16754675Y-16420208D01*
X16754675Y-16420208D02*
X16754675Y-16363066D01*
X16754675Y-16363066D02*
X16764199Y-16344018D01*
X16764199Y-16344018D02*
X16773723Y-16334494D01*
X16773723Y-16334494D02*
X16792771Y-16324970D01*
X16792771Y-16324970D02*
X16821342Y-16324970D01*
X16821342Y-16324970D02*
X16840390Y-16334494D01*
X16840390Y-16334494D02*
X16849913Y-16344018D01*
X16849913Y-16344018D02*
X16859437Y-16363066D01*
X16859437Y-16363066D02*
X16859437Y-16420208D01*
X16859437Y-16420208D02*
X16849913Y-16439256D01*
X16849913Y-16439256D02*
X16840390Y-16448780D01*
X16840390Y-16448780D02*
X16821342Y-16458304D01*
X16821342Y-16458304D02*
X16792771Y-16458304D01*
X16973723Y-16458304D02*
X16954675Y-16448780D01*
X16954675Y-16448780D02*
X16945152Y-16429732D01*
X16945152Y-16429732D02*
X16945152Y-16258304D01*
X17126104Y-16448780D02*
X17107056Y-16458304D01*
X17107056Y-16458304D02*
X17068961Y-16458304D01*
X17068961Y-16458304D02*
X17049913Y-16448780D01*
X17049913Y-16448780D02*
X17040390Y-16429732D01*
X17040390Y-16429732D02*
X17040390Y-16353542D01*
X17040390Y-16353542D02*
X17049913Y-16334494D01*
X17049913Y-16334494D02*
X17068961Y-16324970D01*
X17068961Y-16324970D02*
X17107056Y-16324970D01*
X17107056Y-16324970D02*
X17126104Y-16334494D01*
X17126104Y-16334494D02*
X17135628Y-16353542D01*
X17135628Y-16353542D02*
X17135628Y-16372589D01*
X17135628Y-16372589D02*
X17040390Y-16391637D01*
X17211818Y-16448780D02*
X17230866Y-16458304D01*
X17230866Y-16458304D02*
X17268961Y-16458304D01*
X17268961Y-16458304D02*
X17288009Y-16448780D01*
X17288009Y-16448780D02*
X17297533Y-16429732D01*
X17297533Y-16429732D02*
X17297533Y-16420208D01*
X17297533Y-16420208D02*
X17288009Y-16401161D01*
X17288009Y-16401161D02*
X17268961Y-16391637D01*
X17268961Y-16391637D02*
X17240390Y-16391637D01*
X17240390Y-16391637D02*
X17221342Y-16382113D01*
X17221342Y-16382113D02*
X17211818Y-16363066D01*
X17211818Y-16363066D02*
X17211818Y-16353542D01*
X17211818Y-16353542D02*
X17221342Y-16334494D01*
X17221342Y-16334494D02*
X17240390Y-16324970D01*
X17240390Y-16324970D02*
X17268961Y-16324970D01*
X17268961Y-16324970D02*
X17288009Y-16334494D01*
X17364199Y-16534494D02*
X17373723Y-16524970D01*
X17373723Y-16524970D02*
X17392771Y-16496399D01*
X17392771Y-16496399D02*
X17402294Y-16477351D01*
X17402294Y-16477351D02*
X17411818Y-16448780D01*
X17411818Y-16448780D02*
X17421342Y-16401161D01*
X17421342Y-16401161D02*
X17421342Y-16363066D01*
X17421342Y-16363066D02*
X17411818Y-16315447D01*
X17411818Y-16315447D02*
X17402294Y-16286875D01*
X17402294Y-16286875D02*
X17392771Y-16267828D01*
X17392771Y-16267828D02*
X17373723Y-16239256D01*
X17373723Y-16239256D02*
X17364199Y-16229732D01*
D12*
X12348660Y-16580820D02*
X12348660Y-16680820D01*
X12298660Y-16630820D02*
X12398660Y-16630820D01*
D11*
X12764199Y-16722304D02*
X12649913Y-16722304D01*
X12707056Y-16722304D02*
X12707056Y-16522304D01*
X12707056Y-16522304D02*
X12688008Y-16550875D01*
X12688008Y-16550875D02*
X12668961Y-16569923D01*
X12668961Y-16569923D02*
X12649913Y-16579447D01*
X12849913Y-16703256D02*
X12859437Y-16712780D01*
X12859437Y-16712780D02*
X12849913Y-16722304D01*
X12849913Y-16722304D02*
X12840389Y-16712780D01*
X12840389Y-16712780D02*
X12849913Y-16703256D01*
X12849913Y-16703256D02*
X12849913Y-16722304D01*
X12983246Y-16522304D02*
X13002294Y-16522304D01*
X13002294Y-16522304D02*
X13021342Y-16531828D01*
X13021342Y-16531828D02*
X13030865Y-16541351D01*
X13030865Y-16541351D02*
X13040389Y-16560399D01*
X13040389Y-16560399D02*
X13049913Y-16598494D01*
X13049913Y-16598494D02*
X13049913Y-16646113D01*
X13049913Y-16646113D02*
X13040389Y-16684208D01*
X13040389Y-16684208D02*
X13030865Y-16703256D01*
X13030865Y-16703256D02*
X13021342Y-16712780D01*
X13021342Y-16712780D02*
X13002294Y-16722304D01*
X13002294Y-16722304D02*
X12983246Y-16722304D01*
X12983246Y-16722304D02*
X12964199Y-16712780D01*
X12964199Y-16712780D02*
X12954675Y-16703256D01*
X12954675Y-16703256D02*
X12945151Y-16684208D01*
X12945151Y-16684208D02*
X12935627Y-16646113D01*
X12935627Y-16646113D02*
X12935627Y-16598494D01*
X12935627Y-16598494D02*
X12945151Y-16560399D01*
X12945151Y-16560399D02*
X12954675Y-16541351D01*
X12954675Y-16541351D02*
X12964199Y-16531828D01*
X12964199Y-16531828D02*
X12983246Y-16522304D01*
X13173722Y-16522304D02*
X13192770Y-16522304D01*
X13192770Y-16522304D02*
X13211818Y-16531828D01*
X13211818Y-16531828D02*
X13221342Y-16541351D01*
X13221342Y-16541351D02*
X13230865Y-16560399D01*
X13230865Y-16560399D02*
X13240389Y-16598494D01*
X13240389Y-16598494D02*
X13240389Y-16646113D01*
X13240389Y-16646113D02*
X13230865Y-16684208D01*
X13230865Y-16684208D02*
X13221342Y-16703256D01*
X13221342Y-16703256D02*
X13211818Y-16712780D01*
X13211818Y-16712780D02*
X13192770Y-16722304D01*
X13192770Y-16722304D02*
X13173722Y-16722304D01*
X13173722Y-16722304D02*
X13154675Y-16712780D01*
X13154675Y-16712780D02*
X13145151Y-16703256D01*
X13145151Y-16703256D02*
X13135627Y-16684208D01*
X13135627Y-16684208D02*
X13126103Y-16646113D01*
X13126103Y-16646113D02*
X13126103Y-16598494D01*
X13126103Y-16598494D02*
X13135627Y-16560399D01*
X13135627Y-16560399D02*
X13145151Y-16541351D01*
X13145151Y-16541351D02*
X13154675Y-16531828D01*
X13154675Y-16531828D02*
X13173722Y-16522304D01*
X13364199Y-16522304D02*
X13383246Y-16522304D01*
X13383246Y-16522304D02*
X13402294Y-16531828D01*
X13402294Y-16531828D02*
X13411818Y-16541351D01*
X13411818Y-16541351D02*
X13421342Y-16560399D01*
X13421342Y-16560399D02*
X13430865Y-16598494D01*
X13430865Y-16598494D02*
X13430865Y-16646113D01*
X13430865Y-16646113D02*
X13421342Y-16684208D01*
X13421342Y-16684208D02*
X13411818Y-16703256D01*
X13411818Y-16703256D02*
X13402294Y-16712780D01*
X13402294Y-16712780D02*
X13383246Y-16722304D01*
X13383246Y-16722304D02*
X13364199Y-16722304D01*
X13364199Y-16722304D02*
X13345151Y-16712780D01*
X13345151Y-16712780D02*
X13335627Y-16703256D01*
X13335627Y-16703256D02*
X13326103Y-16684208D01*
X13326103Y-16684208D02*
X13316580Y-16646113D01*
X13316580Y-16646113D02*
X13316580Y-16598494D01*
X13316580Y-16598494D02*
X13326103Y-16560399D01*
X13326103Y-16560399D02*
X13335627Y-16541351D01*
X13335627Y-16541351D02*
X13345151Y-16531828D01*
X13345151Y-16531828D02*
X13364199Y-16522304D01*
X13516580Y-16722304D02*
X13516580Y-16588970D01*
X13516580Y-16608018D02*
X13526103Y-16598494D01*
X13526103Y-16598494D02*
X13545151Y-16588970D01*
X13545151Y-16588970D02*
X13573723Y-16588970D01*
X13573723Y-16588970D02*
X13592770Y-16598494D01*
X13592770Y-16598494D02*
X13602294Y-16617542D01*
X13602294Y-16617542D02*
X13602294Y-16722304D01*
X13602294Y-16617542D02*
X13611818Y-16598494D01*
X13611818Y-16598494D02*
X13630865Y-16588970D01*
X13630865Y-16588970D02*
X13659437Y-16588970D01*
X13659437Y-16588970D02*
X13678484Y-16598494D01*
X13678484Y-16598494D02*
X13688008Y-16617542D01*
X13688008Y-16617542D02*
X13688008Y-16722304D01*
X13783246Y-16722304D02*
X13783246Y-16588970D01*
X13783246Y-16608018D02*
X13792770Y-16598494D01*
X13792770Y-16598494D02*
X13811818Y-16588970D01*
X13811818Y-16588970D02*
X13840389Y-16588970D01*
X13840389Y-16588970D02*
X13859437Y-16598494D01*
X13859437Y-16598494D02*
X13868961Y-16617542D01*
X13868961Y-16617542D02*
X13868961Y-16722304D01*
X13868961Y-16617542D02*
X13878484Y-16598494D01*
X13878484Y-16598494D02*
X13897532Y-16588970D01*
X13897532Y-16588970D02*
X13926103Y-16588970D01*
X13926103Y-16588970D02*
X13945151Y-16598494D01*
X13945151Y-16598494D02*
X13954675Y-16617542D01*
X13954675Y-16617542D02*
X13954675Y-16722304D01*
X14345151Y-16512780D02*
X14173723Y-16769923D01*
X14602294Y-16522304D02*
X14621342Y-16522304D01*
X14621342Y-16522304D02*
X14640389Y-16531828D01*
X14640389Y-16531828D02*
X14649913Y-16541351D01*
X14649913Y-16541351D02*
X14659437Y-16560399D01*
X14659437Y-16560399D02*
X14668961Y-16598494D01*
X14668961Y-16598494D02*
X14668961Y-16646113D01*
X14668961Y-16646113D02*
X14659437Y-16684208D01*
X14659437Y-16684208D02*
X14649913Y-16703256D01*
X14649913Y-16703256D02*
X14640389Y-16712780D01*
X14640389Y-16712780D02*
X14621342Y-16722304D01*
X14621342Y-16722304D02*
X14602294Y-16722304D01*
X14602294Y-16722304D02*
X14583246Y-16712780D01*
X14583246Y-16712780D02*
X14573723Y-16703256D01*
X14573723Y-16703256D02*
X14564199Y-16684208D01*
X14564199Y-16684208D02*
X14554675Y-16646113D01*
X14554675Y-16646113D02*
X14554675Y-16598494D01*
X14554675Y-16598494D02*
X14564199Y-16560399D01*
X14564199Y-16560399D02*
X14573723Y-16541351D01*
X14573723Y-16541351D02*
X14583246Y-16531828D01*
X14583246Y-16531828D02*
X14602294Y-16522304D01*
X14754675Y-16703256D02*
X14764199Y-16712780D01*
X14764199Y-16712780D02*
X14754675Y-16722304D01*
X14754675Y-16722304D02*
X14745151Y-16712780D01*
X14745151Y-16712780D02*
X14754675Y-16703256D01*
X14754675Y-16703256D02*
X14754675Y-16722304D01*
X14888008Y-16522304D02*
X14907056Y-16522304D01*
X14907056Y-16522304D02*
X14926104Y-16531828D01*
X14926104Y-16531828D02*
X14935627Y-16541351D01*
X14935627Y-16541351D02*
X14945151Y-16560399D01*
X14945151Y-16560399D02*
X14954675Y-16598494D01*
X14954675Y-16598494D02*
X14954675Y-16646113D01*
X14954675Y-16646113D02*
X14945151Y-16684208D01*
X14945151Y-16684208D02*
X14935627Y-16703256D01*
X14935627Y-16703256D02*
X14926104Y-16712780D01*
X14926104Y-16712780D02*
X14907056Y-16722304D01*
X14907056Y-16722304D02*
X14888008Y-16722304D01*
X14888008Y-16722304D02*
X14868961Y-16712780D01*
X14868961Y-16712780D02*
X14859437Y-16703256D01*
X14859437Y-16703256D02*
X14849913Y-16684208D01*
X14849913Y-16684208D02*
X14840389Y-16646113D01*
X14840389Y-16646113D02*
X14840389Y-16598494D01*
X14840389Y-16598494D02*
X14849913Y-16560399D01*
X14849913Y-16560399D02*
X14859437Y-16541351D01*
X14859437Y-16541351D02*
X14868961Y-16531828D01*
X14868961Y-16531828D02*
X14888008Y-16522304D01*
X15021342Y-16522304D02*
X15145151Y-16522304D01*
X15145151Y-16522304D02*
X15078485Y-16598494D01*
X15078485Y-16598494D02*
X15107056Y-16598494D01*
X15107056Y-16598494D02*
X15126104Y-16608018D01*
X15126104Y-16608018D02*
X15135627Y-16617542D01*
X15135627Y-16617542D02*
X15145151Y-16636589D01*
X15145151Y-16636589D02*
X15145151Y-16684208D01*
X15145151Y-16684208D02*
X15135627Y-16703256D01*
X15135627Y-16703256D02*
X15126104Y-16712780D01*
X15126104Y-16712780D02*
X15107056Y-16722304D01*
X15107056Y-16722304D02*
X15049913Y-16722304D01*
X15049913Y-16722304D02*
X15030866Y-16712780D01*
X15030866Y-16712780D02*
X15021342Y-16703256D01*
X15240389Y-16722304D02*
X15278485Y-16722304D01*
X15278485Y-16722304D02*
X15297532Y-16712780D01*
X15297532Y-16712780D02*
X15307056Y-16703256D01*
X15307056Y-16703256D02*
X15326104Y-16674685D01*
X15326104Y-16674685D02*
X15335627Y-16636589D01*
X15335627Y-16636589D02*
X15335627Y-16560399D01*
X15335627Y-16560399D02*
X15326104Y-16541351D01*
X15326104Y-16541351D02*
X15316580Y-16531828D01*
X15316580Y-16531828D02*
X15297532Y-16522304D01*
X15297532Y-16522304D02*
X15259437Y-16522304D01*
X15259437Y-16522304D02*
X15240389Y-16531828D01*
X15240389Y-16531828D02*
X15230866Y-16541351D01*
X15230866Y-16541351D02*
X15221342Y-16560399D01*
X15221342Y-16560399D02*
X15221342Y-16608018D01*
X15221342Y-16608018D02*
X15230866Y-16627066D01*
X15230866Y-16627066D02*
X15240389Y-16636589D01*
X15240389Y-16636589D02*
X15259437Y-16646113D01*
X15259437Y-16646113D02*
X15297532Y-16646113D01*
X15297532Y-16646113D02*
X15316580Y-16636589D01*
X15316580Y-16636589D02*
X15326104Y-16627066D01*
X15326104Y-16627066D02*
X15335627Y-16608018D01*
X15507056Y-16588970D02*
X15507056Y-16722304D01*
X15459437Y-16512780D02*
X15411818Y-16655637D01*
X15411818Y-16655637D02*
X15535627Y-16655637D01*
X15602294Y-16522304D02*
X15602294Y-16560399D01*
X15678485Y-16522304D02*
X15678485Y-16560399D01*
X15973723Y-16798494D02*
X15964199Y-16788970D01*
X15964199Y-16788970D02*
X15945151Y-16760399D01*
X15945151Y-16760399D02*
X15935628Y-16741351D01*
X15935628Y-16741351D02*
X15926104Y-16712780D01*
X15926104Y-16712780D02*
X15916580Y-16665161D01*
X15916580Y-16665161D02*
X15916580Y-16627066D01*
X15916580Y-16627066D02*
X15926104Y-16579447D01*
X15926104Y-16579447D02*
X15935628Y-16550875D01*
X15935628Y-16550875D02*
X15945151Y-16531828D01*
X15945151Y-16531828D02*
X15964199Y-16503256D01*
X15964199Y-16503256D02*
X15973723Y-16493732D01*
X16135628Y-16588970D02*
X16135628Y-16722304D01*
X16088008Y-16512780D02*
X16040389Y-16655637D01*
X16040389Y-16655637D02*
X16164199Y-16655637D01*
X16326104Y-16522304D02*
X16288008Y-16522304D01*
X16288008Y-16522304D02*
X16268961Y-16531828D01*
X16268961Y-16531828D02*
X16259437Y-16541351D01*
X16259437Y-16541351D02*
X16240389Y-16569923D01*
X16240389Y-16569923D02*
X16230866Y-16608018D01*
X16230866Y-16608018D02*
X16230866Y-16684208D01*
X16230866Y-16684208D02*
X16240389Y-16703256D01*
X16240389Y-16703256D02*
X16249913Y-16712780D01*
X16249913Y-16712780D02*
X16268961Y-16722304D01*
X16268961Y-16722304D02*
X16307056Y-16722304D01*
X16307056Y-16722304D02*
X16326104Y-16712780D01*
X16326104Y-16712780D02*
X16335628Y-16703256D01*
X16335628Y-16703256D02*
X16345151Y-16684208D01*
X16345151Y-16684208D02*
X16345151Y-16636589D01*
X16345151Y-16636589D02*
X16335628Y-16617542D01*
X16335628Y-16617542D02*
X16326104Y-16608018D01*
X16326104Y-16608018D02*
X16307056Y-16598494D01*
X16307056Y-16598494D02*
X16268961Y-16598494D01*
X16268961Y-16598494D02*
X16249913Y-16608018D01*
X16249913Y-16608018D02*
X16240389Y-16617542D01*
X16240389Y-16617542D02*
X16230866Y-16636589D01*
X16583247Y-16722304D02*
X16583247Y-16522304D01*
X16668961Y-16722304D02*
X16668961Y-16617542D01*
X16668961Y-16617542D02*
X16659437Y-16598494D01*
X16659437Y-16598494D02*
X16640390Y-16588970D01*
X16640390Y-16588970D02*
X16611818Y-16588970D01*
X16611818Y-16588970D02*
X16592770Y-16598494D01*
X16592770Y-16598494D02*
X16583247Y-16608018D01*
X16792771Y-16722304D02*
X16773723Y-16712780D01*
X16773723Y-16712780D02*
X16764199Y-16703256D01*
X16764199Y-16703256D02*
X16754675Y-16684208D01*
X16754675Y-16684208D02*
X16754675Y-16627066D01*
X16754675Y-16627066D02*
X16764199Y-16608018D01*
X16764199Y-16608018D02*
X16773723Y-16598494D01*
X16773723Y-16598494D02*
X16792771Y-16588970D01*
X16792771Y-16588970D02*
X16821342Y-16588970D01*
X16821342Y-16588970D02*
X16840390Y-16598494D01*
X16840390Y-16598494D02*
X16849913Y-16608018D01*
X16849913Y-16608018D02*
X16859437Y-16627066D01*
X16859437Y-16627066D02*
X16859437Y-16684208D01*
X16859437Y-16684208D02*
X16849913Y-16703256D01*
X16849913Y-16703256D02*
X16840390Y-16712780D01*
X16840390Y-16712780D02*
X16821342Y-16722304D01*
X16821342Y-16722304D02*
X16792771Y-16722304D01*
X16973723Y-16722304D02*
X16954675Y-16712780D01*
X16954675Y-16712780D02*
X16945152Y-16693732D01*
X16945152Y-16693732D02*
X16945152Y-16522304D01*
X17126104Y-16712780D02*
X17107056Y-16722304D01*
X17107056Y-16722304D02*
X17068961Y-16722304D01*
X17068961Y-16722304D02*
X17049913Y-16712780D01*
X17049913Y-16712780D02*
X17040390Y-16693732D01*
X17040390Y-16693732D02*
X17040390Y-16617542D01*
X17040390Y-16617542D02*
X17049913Y-16598494D01*
X17049913Y-16598494D02*
X17068961Y-16588970D01*
X17068961Y-16588970D02*
X17107056Y-16588970D01*
X17107056Y-16588970D02*
X17126104Y-16598494D01*
X17126104Y-16598494D02*
X17135628Y-16617542D01*
X17135628Y-16617542D02*
X17135628Y-16636589D01*
X17135628Y-16636589D02*
X17040390Y-16655637D01*
X17211818Y-16712780D02*
X17230866Y-16722304D01*
X17230866Y-16722304D02*
X17268961Y-16722304D01*
X17268961Y-16722304D02*
X17288009Y-16712780D01*
X17288009Y-16712780D02*
X17297533Y-16693732D01*
X17297533Y-16693732D02*
X17297533Y-16684208D01*
X17297533Y-16684208D02*
X17288009Y-16665161D01*
X17288009Y-16665161D02*
X17268961Y-16655637D01*
X17268961Y-16655637D02*
X17240390Y-16655637D01*
X17240390Y-16655637D02*
X17221342Y-16646113D01*
X17221342Y-16646113D02*
X17211818Y-16627066D01*
X17211818Y-16627066D02*
X17211818Y-16617542D01*
X17211818Y-16617542D02*
X17221342Y-16598494D01*
X17221342Y-16598494D02*
X17240390Y-16588970D01*
X17240390Y-16588970D02*
X17268961Y-16588970D01*
X17268961Y-16588970D02*
X17288009Y-16598494D01*
X17364199Y-16798494D02*
X17373723Y-16788970D01*
X17373723Y-16788970D02*
X17392771Y-16760399D01*
X17392771Y-16760399D02*
X17402294Y-16741351D01*
X17402294Y-16741351D02*
X17411818Y-16712780D01*
X17411818Y-16712780D02*
X17421342Y-16665161D01*
X17421342Y-16665161D02*
X17421342Y-16627066D01*
X17421342Y-16627066D02*
X17411818Y-16579447D01*
X17411818Y-16579447D02*
X17402294Y-16550875D01*
X17402294Y-16550875D02*
X17392771Y-16531828D01*
X17392771Y-16531828D02*
X17373723Y-16503256D01*
X17373723Y-16503256D02*
X17364199Y-16493732D01*
D13*
X12382551Y-16933711D02*
X12382551Y-16855929D01*
X12304769Y-16855929D01*
X12304769Y-16933711D01*
X12382551Y-16933711D01*
D11*
X12764199Y-16986304D02*
X12649913Y-16986304D01*
X12707056Y-16986304D02*
X12707056Y-16786304D01*
X12707056Y-16786304D02*
X12688008Y-16814875D01*
X12688008Y-16814875D02*
X12668961Y-16833923D01*
X12668961Y-16833923D02*
X12649913Y-16843447D01*
X12849913Y-16967256D02*
X12859437Y-16976780D01*
X12859437Y-16976780D02*
X12849913Y-16986304D01*
X12849913Y-16986304D02*
X12840389Y-16976780D01*
X12840389Y-16976780D02*
X12849913Y-16967256D01*
X12849913Y-16967256D02*
X12849913Y-16986304D01*
X13049913Y-16986304D02*
X12935627Y-16986304D01*
X12992770Y-16986304D02*
X12992770Y-16786304D01*
X12992770Y-16786304D02*
X12973722Y-16814875D01*
X12973722Y-16814875D02*
X12954675Y-16833923D01*
X12954675Y-16833923D02*
X12935627Y-16843447D01*
X13173722Y-16786304D02*
X13192770Y-16786304D01*
X13192770Y-16786304D02*
X13211818Y-16795828D01*
X13211818Y-16795828D02*
X13221342Y-16805351D01*
X13221342Y-16805351D02*
X13230865Y-16824399D01*
X13230865Y-16824399D02*
X13240389Y-16862494D01*
X13240389Y-16862494D02*
X13240389Y-16910113D01*
X13240389Y-16910113D02*
X13230865Y-16948209D01*
X13230865Y-16948209D02*
X13221342Y-16967256D01*
X13221342Y-16967256D02*
X13211818Y-16976780D01*
X13211818Y-16976780D02*
X13192770Y-16986304D01*
X13192770Y-16986304D02*
X13173722Y-16986304D01*
X13173722Y-16986304D02*
X13154675Y-16976780D01*
X13154675Y-16976780D02*
X13145151Y-16967256D01*
X13145151Y-16967256D02*
X13135627Y-16948209D01*
X13135627Y-16948209D02*
X13126103Y-16910113D01*
X13126103Y-16910113D02*
X13126103Y-16862494D01*
X13126103Y-16862494D02*
X13135627Y-16824399D01*
X13135627Y-16824399D02*
X13145151Y-16805351D01*
X13145151Y-16805351D02*
X13154675Y-16795828D01*
X13154675Y-16795828D02*
X13173722Y-16786304D01*
X13364199Y-16786304D02*
X13383246Y-16786304D01*
X13383246Y-16786304D02*
X13402294Y-16795828D01*
X13402294Y-16795828D02*
X13411818Y-16805351D01*
X13411818Y-16805351D02*
X13421342Y-16824399D01*
X13421342Y-16824399D02*
X13430865Y-16862494D01*
X13430865Y-16862494D02*
X13430865Y-16910113D01*
X13430865Y-16910113D02*
X13421342Y-16948209D01*
X13421342Y-16948209D02*
X13411818Y-16967256D01*
X13411818Y-16967256D02*
X13402294Y-16976780D01*
X13402294Y-16976780D02*
X13383246Y-16986304D01*
X13383246Y-16986304D02*
X13364199Y-16986304D01*
X13364199Y-16986304D02*
X13345151Y-16976780D01*
X13345151Y-16976780D02*
X13335627Y-16967256D01*
X13335627Y-16967256D02*
X13326103Y-16948209D01*
X13326103Y-16948209D02*
X13316580Y-16910113D01*
X13316580Y-16910113D02*
X13316580Y-16862494D01*
X13316580Y-16862494D02*
X13326103Y-16824399D01*
X13326103Y-16824399D02*
X13335627Y-16805351D01*
X13335627Y-16805351D02*
X13345151Y-16795828D01*
X13345151Y-16795828D02*
X13364199Y-16786304D01*
X13516580Y-16986304D02*
X13516580Y-16852970D01*
X13516580Y-16872018D02*
X13526103Y-16862494D01*
X13526103Y-16862494D02*
X13545151Y-16852970D01*
X13545151Y-16852970D02*
X13573723Y-16852970D01*
X13573723Y-16852970D02*
X13592770Y-16862494D01*
X13592770Y-16862494D02*
X13602294Y-16881542D01*
X13602294Y-16881542D02*
X13602294Y-16986304D01*
X13602294Y-16881542D02*
X13611818Y-16862494D01*
X13611818Y-16862494D02*
X13630865Y-16852970D01*
X13630865Y-16852970D02*
X13659437Y-16852970D01*
X13659437Y-16852970D02*
X13678484Y-16862494D01*
X13678484Y-16862494D02*
X13688008Y-16881542D01*
X13688008Y-16881542D02*
X13688008Y-16986304D01*
X13783246Y-16986304D02*
X13783246Y-16852970D01*
X13783246Y-16872018D02*
X13792770Y-16862494D01*
X13792770Y-16862494D02*
X13811818Y-16852970D01*
X13811818Y-16852970D02*
X13840389Y-16852970D01*
X13840389Y-16852970D02*
X13859437Y-16862494D01*
X13859437Y-16862494D02*
X13868961Y-16881542D01*
X13868961Y-16881542D02*
X13868961Y-16986304D01*
X13868961Y-16881542D02*
X13878484Y-16862494D01*
X13878484Y-16862494D02*
X13897532Y-16852970D01*
X13897532Y-16852970D02*
X13926103Y-16852970D01*
X13926103Y-16852970D02*
X13945151Y-16862494D01*
X13945151Y-16862494D02*
X13954675Y-16881542D01*
X13954675Y-16881542D02*
X13954675Y-16986304D01*
X14345151Y-16776780D02*
X14173723Y-17033923D01*
X14602294Y-16786304D02*
X14621342Y-16786304D01*
X14621342Y-16786304D02*
X14640389Y-16795828D01*
X14640389Y-16795828D02*
X14649913Y-16805351D01*
X14649913Y-16805351D02*
X14659437Y-16824399D01*
X14659437Y-16824399D02*
X14668961Y-16862494D01*
X14668961Y-16862494D02*
X14668961Y-16910113D01*
X14668961Y-16910113D02*
X14659437Y-16948209D01*
X14659437Y-16948209D02*
X14649913Y-16967256D01*
X14649913Y-16967256D02*
X14640389Y-16976780D01*
X14640389Y-16976780D02*
X14621342Y-16986304D01*
X14621342Y-16986304D02*
X14602294Y-16986304D01*
X14602294Y-16986304D02*
X14583246Y-16976780D01*
X14583246Y-16976780D02*
X14573723Y-16967256D01*
X14573723Y-16967256D02*
X14564199Y-16948209D01*
X14564199Y-16948209D02*
X14554675Y-16910113D01*
X14554675Y-16910113D02*
X14554675Y-16862494D01*
X14554675Y-16862494D02*
X14564199Y-16824399D01*
X14564199Y-16824399D02*
X14573723Y-16805351D01*
X14573723Y-16805351D02*
X14583246Y-16795828D01*
X14583246Y-16795828D02*
X14602294Y-16786304D01*
X14754675Y-16967256D02*
X14764199Y-16976780D01*
X14764199Y-16976780D02*
X14754675Y-16986304D01*
X14754675Y-16986304D02*
X14745151Y-16976780D01*
X14745151Y-16976780D02*
X14754675Y-16967256D01*
X14754675Y-16967256D02*
X14754675Y-16986304D01*
X14888008Y-16786304D02*
X14907056Y-16786304D01*
X14907056Y-16786304D02*
X14926104Y-16795828D01*
X14926104Y-16795828D02*
X14935627Y-16805351D01*
X14935627Y-16805351D02*
X14945151Y-16824399D01*
X14945151Y-16824399D02*
X14954675Y-16862494D01*
X14954675Y-16862494D02*
X14954675Y-16910113D01*
X14954675Y-16910113D02*
X14945151Y-16948209D01*
X14945151Y-16948209D02*
X14935627Y-16967256D01*
X14935627Y-16967256D02*
X14926104Y-16976780D01*
X14926104Y-16976780D02*
X14907056Y-16986304D01*
X14907056Y-16986304D02*
X14888008Y-16986304D01*
X14888008Y-16986304D02*
X14868961Y-16976780D01*
X14868961Y-16976780D02*
X14859437Y-16967256D01*
X14859437Y-16967256D02*
X14849913Y-16948209D01*
X14849913Y-16948209D02*
X14840389Y-16910113D01*
X14840389Y-16910113D02*
X14840389Y-16862494D01*
X14840389Y-16862494D02*
X14849913Y-16824399D01*
X14849913Y-16824399D02*
X14859437Y-16805351D01*
X14859437Y-16805351D02*
X14868961Y-16795828D01*
X14868961Y-16795828D02*
X14888008Y-16786304D01*
X15126104Y-16852970D02*
X15126104Y-16986304D01*
X15078485Y-16776780D02*
X15030866Y-16919637D01*
X15030866Y-16919637D02*
X15154675Y-16919637D01*
X15211818Y-16786304D02*
X15335627Y-16786304D01*
X15335627Y-16786304D02*
X15268961Y-16862494D01*
X15268961Y-16862494D02*
X15297532Y-16862494D01*
X15297532Y-16862494D02*
X15316580Y-16872018D01*
X15316580Y-16872018D02*
X15326104Y-16881542D01*
X15326104Y-16881542D02*
X15335627Y-16900590D01*
X15335627Y-16900590D02*
X15335627Y-16948209D01*
X15335627Y-16948209D02*
X15326104Y-16967256D01*
X15326104Y-16967256D02*
X15316580Y-16976780D01*
X15316580Y-16976780D02*
X15297532Y-16986304D01*
X15297532Y-16986304D02*
X15240389Y-16986304D01*
X15240389Y-16986304D02*
X15221342Y-16976780D01*
X15221342Y-16976780D02*
X15211818Y-16967256D01*
X15402294Y-16786304D02*
X15526104Y-16786304D01*
X15526104Y-16786304D02*
X15459437Y-16862494D01*
X15459437Y-16862494D02*
X15488008Y-16862494D01*
X15488008Y-16862494D02*
X15507056Y-16872018D01*
X15507056Y-16872018D02*
X15516580Y-16881542D01*
X15516580Y-16881542D02*
X15526104Y-16900590D01*
X15526104Y-16900590D02*
X15526104Y-16948209D01*
X15526104Y-16948209D02*
X15516580Y-16967256D01*
X15516580Y-16967256D02*
X15507056Y-16976780D01*
X15507056Y-16976780D02*
X15488008Y-16986304D01*
X15488008Y-16986304D02*
X15430866Y-16986304D01*
X15430866Y-16986304D02*
X15411818Y-16976780D01*
X15411818Y-16976780D02*
X15402294Y-16967256D01*
X15602294Y-16786304D02*
X15602294Y-16824399D01*
X15678485Y-16786304D02*
X15678485Y-16824399D01*
X15973723Y-17062494D02*
X15964199Y-17052970D01*
X15964199Y-17052970D02*
X15945151Y-17024399D01*
X15945151Y-17024399D02*
X15935628Y-17005351D01*
X15935628Y-17005351D02*
X15926104Y-16976780D01*
X15926104Y-16976780D02*
X15916580Y-16929161D01*
X15916580Y-16929161D02*
X15916580Y-16891066D01*
X15916580Y-16891066D02*
X15926104Y-16843447D01*
X15926104Y-16843447D02*
X15935628Y-16814875D01*
X15935628Y-16814875D02*
X15945151Y-16795828D01*
X15945151Y-16795828D02*
X15964199Y-16767256D01*
X15964199Y-16767256D02*
X15973723Y-16757732D01*
X16030866Y-16786304D02*
X16154675Y-16786304D01*
X16154675Y-16786304D02*
X16088008Y-16862494D01*
X16088008Y-16862494D02*
X16116580Y-16862494D01*
X16116580Y-16862494D02*
X16135628Y-16872018D01*
X16135628Y-16872018D02*
X16145151Y-16881542D01*
X16145151Y-16881542D02*
X16154675Y-16900590D01*
X16154675Y-16900590D02*
X16154675Y-16948209D01*
X16154675Y-16948209D02*
X16145151Y-16967256D01*
X16145151Y-16967256D02*
X16135628Y-16976780D01*
X16135628Y-16976780D02*
X16116580Y-16986304D01*
X16116580Y-16986304D02*
X16059437Y-16986304D01*
X16059437Y-16986304D02*
X16040389Y-16976780D01*
X16040389Y-16976780D02*
X16030866Y-16967256D01*
X16278485Y-16786304D02*
X16297532Y-16786304D01*
X16297532Y-16786304D02*
X16316580Y-16795828D01*
X16316580Y-16795828D02*
X16326104Y-16805351D01*
X16326104Y-16805351D02*
X16335628Y-16824399D01*
X16335628Y-16824399D02*
X16345151Y-16862494D01*
X16345151Y-16862494D02*
X16345151Y-16910113D01*
X16345151Y-16910113D02*
X16335628Y-16948209D01*
X16335628Y-16948209D02*
X16326104Y-16967256D01*
X16326104Y-16967256D02*
X16316580Y-16976780D01*
X16316580Y-16976780D02*
X16297532Y-16986304D01*
X16297532Y-16986304D02*
X16278485Y-16986304D01*
X16278485Y-16986304D02*
X16259437Y-16976780D01*
X16259437Y-16976780D02*
X16249913Y-16967256D01*
X16249913Y-16967256D02*
X16240389Y-16948209D01*
X16240389Y-16948209D02*
X16230866Y-16910113D01*
X16230866Y-16910113D02*
X16230866Y-16862494D01*
X16230866Y-16862494D02*
X16240389Y-16824399D01*
X16240389Y-16824399D02*
X16249913Y-16805351D01*
X16249913Y-16805351D02*
X16259437Y-16795828D01*
X16259437Y-16795828D02*
X16278485Y-16786304D01*
X16583247Y-16986304D02*
X16583247Y-16786304D01*
X16668961Y-16986304D02*
X16668961Y-16881542D01*
X16668961Y-16881542D02*
X16659437Y-16862494D01*
X16659437Y-16862494D02*
X16640390Y-16852970D01*
X16640390Y-16852970D02*
X16611818Y-16852970D01*
X16611818Y-16852970D02*
X16592770Y-16862494D01*
X16592770Y-16862494D02*
X16583247Y-16872018D01*
X16792771Y-16986304D02*
X16773723Y-16976780D01*
X16773723Y-16976780D02*
X16764199Y-16967256D01*
X16764199Y-16967256D02*
X16754675Y-16948209D01*
X16754675Y-16948209D02*
X16754675Y-16891066D01*
X16754675Y-16891066D02*
X16764199Y-16872018D01*
X16764199Y-16872018D02*
X16773723Y-16862494D01*
X16773723Y-16862494D02*
X16792771Y-16852970D01*
X16792771Y-16852970D02*
X16821342Y-16852970D01*
X16821342Y-16852970D02*
X16840390Y-16862494D01*
X16840390Y-16862494D02*
X16849913Y-16872018D01*
X16849913Y-16872018D02*
X16859437Y-16891066D01*
X16859437Y-16891066D02*
X16859437Y-16948209D01*
X16859437Y-16948209D02*
X16849913Y-16967256D01*
X16849913Y-16967256D02*
X16840390Y-16976780D01*
X16840390Y-16976780D02*
X16821342Y-16986304D01*
X16821342Y-16986304D02*
X16792771Y-16986304D01*
X16973723Y-16986304D02*
X16954675Y-16976780D01*
X16954675Y-16976780D02*
X16945152Y-16957732D01*
X16945152Y-16957732D02*
X16945152Y-16786304D01*
X17126104Y-16976780D02*
X17107056Y-16986304D01*
X17107056Y-16986304D02*
X17068961Y-16986304D01*
X17068961Y-16986304D02*
X17049913Y-16976780D01*
X17049913Y-16976780D02*
X17040390Y-16957732D01*
X17040390Y-16957732D02*
X17040390Y-16881542D01*
X17040390Y-16881542D02*
X17049913Y-16862494D01*
X17049913Y-16862494D02*
X17068961Y-16852970D01*
X17068961Y-16852970D02*
X17107056Y-16852970D01*
X17107056Y-16852970D02*
X17126104Y-16862494D01*
X17126104Y-16862494D02*
X17135628Y-16881542D01*
X17135628Y-16881542D02*
X17135628Y-16900590D01*
X17135628Y-16900590D02*
X17040390Y-16919637D01*
X17211818Y-16976780D02*
X17230866Y-16986304D01*
X17230866Y-16986304D02*
X17268961Y-16986304D01*
X17268961Y-16986304D02*
X17288009Y-16976780D01*
X17288009Y-16976780D02*
X17297533Y-16957732D01*
X17297533Y-16957732D02*
X17297533Y-16948209D01*
X17297533Y-16948209D02*
X17288009Y-16929161D01*
X17288009Y-16929161D02*
X17268961Y-16919637D01*
X17268961Y-16919637D02*
X17240390Y-16919637D01*
X17240390Y-16919637D02*
X17221342Y-16910113D01*
X17221342Y-16910113D02*
X17211818Y-16891066D01*
X17211818Y-16891066D02*
X17211818Y-16881542D01*
X17211818Y-16881542D02*
X17221342Y-16862494D01*
X17221342Y-16862494D02*
X17240390Y-16852970D01*
X17240390Y-16852970D02*
X17268961Y-16852970D01*
X17268961Y-16852970D02*
X17288009Y-16862494D01*
X17364199Y-17062494D02*
X17373723Y-17052970D01*
X17373723Y-17052970D02*
X17392771Y-17024399D01*
X17392771Y-17024399D02*
X17402294Y-17005351D01*
X17402294Y-17005351D02*
X17411818Y-16976780D01*
X17411818Y-16976780D02*
X17421342Y-16929161D01*
X17421342Y-16929161D02*
X17421342Y-16891066D01*
X17421342Y-16891066D02*
X17411818Y-16843447D01*
X17411818Y-16843447D02*
X17402294Y-16814875D01*
X17402294Y-16814875D02*
X17392771Y-16795828D01*
X17392771Y-16795828D02*
X17373723Y-16767256D01*
X17373723Y-16767256D02*
X17364199Y-16757732D01*
D14*
X12333660Y-17223820D02*
X12398660Y-17158820D01*
X12333660Y-17093820D01*
X12268660Y-17158820D01*
X12333660Y-17223820D01*
D11*
X12764199Y-17250304D02*
X12649913Y-17250304D01*
X12707056Y-17250304D02*
X12707056Y-17050304D01*
X12707056Y-17050304D02*
X12688008Y-17078875D01*
X12688008Y-17078875D02*
X12668961Y-17097923D01*
X12668961Y-17097923D02*
X12649913Y-17107447D01*
X12849913Y-17231256D02*
X12859437Y-17240780D01*
X12859437Y-17240780D02*
X12849913Y-17250304D01*
X12849913Y-17250304D02*
X12840389Y-17240780D01*
X12840389Y-17240780D02*
X12849913Y-17231256D01*
X12849913Y-17231256D02*
X12849913Y-17250304D01*
X12926103Y-17050304D02*
X13049913Y-17050304D01*
X13049913Y-17050304D02*
X12983246Y-17126494D01*
X12983246Y-17126494D02*
X13011818Y-17126494D01*
X13011818Y-17126494D02*
X13030865Y-17136018D01*
X13030865Y-17136018D02*
X13040389Y-17145542D01*
X13040389Y-17145542D02*
X13049913Y-17164590D01*
X13049913Y-17164590D02*
X13049913Y-17212209D01*
X13049913Y-17212209D02*
X13040389Y-17231256D01*
X13040389Y-17231256D02*
X13030865Y-17240780D01*
X13030865Y-17240780D02*
X13011818Y-17250304D01*
X13011818Y-17250304D02*
X12954675Y-17250304D01*
X12954675Y-17250304D02*
X12935627Y-17240780D01*
X12935627Y-17240780D02*
X12926103Y-17231256D01*
X13173722Y-17050304D02*
X13192770Y-17050304D01*
X13192770Y-17050304D02*
X13211818Y-17059828D01*
X13211818Y-17059828D02*
X13221342Y-17069351D01*
X13221342Y-17069351D02*
X13230865Y-17088399D01*
X13230865Y-17088399D02*
X13240389Y-17126494D01*
X13240389Y-17126494D02*
X13240389Y-17174113D01*
X13240389Y-17174113D02*
X13230865Y-17212209D01*
X13230865Y-17212209D02*
X13221342Y-17231256D01*
X13221342Y-17231256D02*
X13211818Y-17240780D01*
X13211818Y-17240780D02*
X13192770Y-17250304D01*
X13192770Y-17250304D02*
X13173722Y-17250304D01*
X13173722Y-17250304D02*
X13154675Y-17240780D01*
X13154675Y-17240780D02*
X13145151Y-17231256D01*
X13145151Y-17231256D02*
X13135627Y-17212209D01*
X13135627Y-17212209D02*
X13126103Y-17174113D01*
X13126103Y-17174113D02*
X13126103Y-17126494D01*
X13126103Y-17126494D02*
X13135627Y-17088399D01*
X13135627Y-17088399D02*
X13145151Y-17069351D01*
X13145151Y-17069351D02*
X13154675Y-17059828D01*
X13154675Y-17059828D02*
X13173722Y-17050304D01*
X13364199Y-17050304D02*
X13383246Y-17050304D01*
X13383246Y-17050304D02*
X13402294Y-17059828D01*
X13402294Y-17059828D02*
X13411818Y-17069351D01*
X13411818Y-17069351D02*
X13421342Y-17088399D01*
X13421342Y-17088399D02*
X13430865Y-17126494D01*
X13430865Y-17126494D02*
X13430865Y-17174113D01*
X13430865Y-17174113D02*
X13421342Y-17212209D01*
X13421342Y-17212209D02*
X13411818Y-17231256D01*
X13411818Y-17231256D02*
X13402294Y-17240780D01*
X13402294Y-17240780D02*
X13383246Y-17250304D01*
X13383246Y-17250304D02*
X13364199Y-17250304D01*
X13364199Y-17250304D02*
X13345151Y-17240780D01*
X13345151Y-17240780D02*
X13335627Y-17231256D01*
X13335627Y-17231256D02*
X13326103Y-17212209D01*
X13326103Y-17212209D02*
X13316580Y-17174113D01*
X13316580Y-17174113D02*
X13316580Y-17126494D01*
X13316580Y-17126494D02*
X13326103Y-17088399D01*
X13326103Y-17088399D02*
X13335627Y-17069351D01*
X13335627Y-17069351D02*
X13345151Y-17059828D01*
X13345151Y-17059828D02*
X13364199Y-17050304D01*
X13516580Y-17250304D02*
X13516580Y-17116970D01*
X13516580Y-17136018D02*
X13526103Y-17126494D01*
X13526103Y-17126494D02*
X13545151Y-17116970D01*
X13545151Y-17116970D02*
X13573723Y-17116970D01*
X13573723Y-17116970D02*
X13592770Y-17126494D01*
X13592770Y-17126494D02*
X13602294Y-17145542D01*
X13602294Y-17145542D02*
X13602294Y-17250304D01*
X13602294Y-17145542D02*
X13611818Y-17126494D01*
X13611818Y-17126494D02*
X13630865Y-17116970D01*
X13630865Y-17116970D02*
X13659437Y-17116970D01*
X13659437Y-17116970D02*
X13678484Y-17126494D01*
X13678484Y-17126494D02*
X13688008Y-17145542D01*
X13688008Y-17145542D02*
X13688008Y-17250304D01*
X13783246Y-17250304D02*
X13783246Y-17116970D01*
X13783246Y-17136018D02*
X13792770Y-17126494D01*
X13792770Y-17126494D02*
X13811818Y-17116970D01*
X13811818Y-17116970D02*
X13840389Y-17116970D01*
X13840389Y-17116970D02*
X13859437Y-17126494D01*
X13859437Y-17126494D02*
X13868961Y-17145542D01*
X13868961Y-17145542D02*
X13868961Y-17250304D01*
X13868961Y-17145542D02*
X13878484Y-17126494D01*
X13878484Y-17126494D02*
X13897532Y-17116970D01*
X13897532Y-17116970D02*
X13926103Y-17116970D01*
X13926103Y-17116970D02*
X13945151Y-17126494D01*
X13945151Y-17126494D02*
X13954675Y-17145542D01*
X13954675Y-17145542D02*
X13954675Y-17250304D01*
X14345151Y-17040780D02*
X14173723Y-17297923D01*
X14602294Y-17050304D02*
X14621342Y-17050304D01*
X14621342Y-17050304D02*
X14640389Y-17059828D01*
X14640389Y-17059828D02*
X14649913Y-17069351D01*
X14649913Y-17069351D02*
X14659437Y-17088399D01*
X14659437Y-17088399D02*
X14668961Y-17126494D01*
X14668961Y-17126494D02*
X14668961Y-17174113D01*
X14668961Y-17174113D02*
X14659437Y-17212209D01*
X14659437Y-17212209D02*
X14649913Y-17231256D01*
X14649913Y-17231256D02*
X14640389Y-17240780D01*
X14640389Y-17240780D02*
X14621342Y-17250304D01*
X14621342Y-17250304D02*
X14602294Y-17250304D01*
X14602294Y-17250304D02*
X14583246Y-17240780D01*
X14583246Y-17240780D02*
X14573723Y-17231256D01*
X14573723Y-17231256D02*
X14564199Y-17212209D01*
X14564199Y-17212209D02*
X14554675Y-17174113D01*
X14554675Y-17174113D02*
X14554675Y-17126494D01*
X14554675Y-17126494D02*
X14564199Y-17088399D01*
X14564199Y-17088399D02*
X14573723Y-17069351D01*
X14573723Y-17069351D02*
X14583246Y-17059828D01*
X14583246Y-17059828D02*
X14602294Y-17050304D01*
X14754675Y-17231256D02*
X14764199Y-17240780D01*
X14764199Y-17240780D02*
X14754675Y-17250304D01*
X14754675Y-17250304D02*
X14745151Y-17240780D01*
X14745151Y-17240780D02*
X14754675Y-17231256D01*
X14754675Y-17231256D02*
X14754675Y-17250304D01*
X14888008Y-17050304D02*
X14907056Y-17050304D01*
X14907056Y-17050304D02*
X14926104Y-17059828D01*
X14926104Y-17059828D02*
X14935627Y-17069351D01*
X14935627Y-17069351D02*
X14945151Y-17088399D01*
X14945151Y-17088399D02*
X14954675Y-17126494D01*
X14954675Y-17126494D02*
X14954675Y-17174113D01*
X14954675Y-17174113D02*
X14945151Y-17212209D01*
X14945151Y-17212209D02*
X14935627Y-17231256D01*
X14935627Y-17231256D02*
X14926104Y-17240780D01*
X14926104Y-17240780D02*
X14907056Y-17250304D01*
X14907056Y-17250304D02*
X14888008Y-17250304D01*
X14888008Y-17250304D02*
X14868961Y-17240780D01*
X14868961Y-17240780D02*
X14859437Y-17231256D01*
X14859437Y-17231256D02*
X14849913Y-17212209D01*
X14849913Y-17212209D02*
X14840389Y-17174113D01*
X14840389Y-17174113D02*
X14840389Y-17126494D01*
X14840389Y-17126494D02*
X14849913Y-17088399D01*
X14849913Y-17088399D02*
X14859437Y-17069351D01*
X14859437Y-17069351D02*
X14868961Y-17059828D01*
X14868961Y-17059828D02*
X14888008Y-17050304D01*
X15135627Y-17050304D02*
X15040389Y-17050304D01*
X15040389Y-17050304D02*
X15030866Y-17145542D01*
X15030866Y-17145542D02*
X15040389Y-17136018D01*
X15040389Y-17136018D02*
X15059437Y-17126494D01*
X15059437Y-17126494D02*
X15107056Y-17126494D01*
X15107056Y-17126494D02*
X15126104Y-17136018D01*
X15126104Y-17136018D02*
X15135627Y-17145542D01*
X15135627Y-17145542D02*
X15145151Y-17164590D01*
X15145151Y-17164590D02*
X15145151Y-17212209D01*
X15145151Y-17212209D02*
X15135627Y-17231256D01*
X15135627Y-17231256D02*
X15126104Y-17240780D01*
X15126104Y-17240780D02*
X15107056Y-17250304D01*
X15107056Y-17250304D02*
X15059437Y-17250304D01*
X15059437Y-17250304D02*
X15040389Y-17240780D01*
X15040389Y-17240780D02*
X15030866Y-17231256D01*
X15335627Y-17250304D02*
X15221342Y-17250304D01*
X15278485Y-17250304D02*
X15278485Y-17050304D01*
X15278485Y-17050304D02*
X15259437Y-17078875D01*
X15259437Y-17078875D02*
X15240389Y-17097923D01*
X15240389Y-17097923D02*
X15221342Y-17107447D01*
X15411818Y-17069351D02*
X15421342Y-17059828D01*
X15421342Y-17059828D02*
X15440389Y-17050304D01*
X15440389Y-17050304D02*
X15488008Y-17050304D01*
X15488008Y-17050304D02*
X15507056Y-17059828D01*
X15507056Y-17059828D02*
X15516580Y-17069351D01*
X15516580Y-17069351D02*
X15526104Y-17088399D01*
X15526104Y-17088399D02*
X15526104Y-17107447D01*
X15526104Y-17107447D02*
X15516580Y-17136018D01*
X15516580Y-17136018D02*
X15402294Y-17250304D01*
X15402294Y-17250304D02*
X15526104Y-17250304D01*
X15602294Y-17050304D02*
X15602294Y-17088399D01*
X15678485Y-17050304D02*
X15678485Y-17088399D01*
X15973723Y-17326494D02*
X15964199Y-17316970D01*
X15964199Y-17316970D02*
X15945151Y-17288399D01*
X15945151Y-17288399D02*
X15935628Y-17269351D01*
X15935628Y-17269351D02*
X15926104Y-17240780D01*
X15926104Y-17240780D02*
X15916580Y-17193161D01*
X15916580Y-17193161D02*
X15916580Y-17155066D01*
X15916580Y-17155066D02*
X15926104Y-17107447D01*
X15926104Y-17107447D02*
X15935628Y-17078875D01*
X15935628Y-17078875D02*
X15945151Y-17059828D01*
X15945151Y-17059828D02*
X15964199Y-17031256D01*
X15964199Y-17031256D02*
X15973723Y-17021732D01*
X16040389Y-17069351D02*
X16049913Y-17059828D01*
X16049913Y-17059828D02*
X16068961Y-17050304D01*
X16068961Y-17050304D02*
X16116580Y-17050304D01*
X16116580Y-17050304D02*
X16135628Y-17059828D01*
X16135628Y-17059828D02*
X16145151Y-17069351D01*
X16145151Y-17069351D02*
X16154675Y-17088399D01*
X16154675Y-17088399D02*
X16154675Y-17107447D01*
X16154675Y-17107447D02*
X16145151Y-17136018D01*
X16145151Y-17136018D02*
X16030866Y-17250304D01*
X16030866Y-17250304D02*
X16154675Y-17250304D01*
X16392770Y-17250304D02*
X16392770Y-17050304D01*
X16478485Y-17250304D02*
X16478485Y-17145542D01*
X16478485Y-17145542D02*
X16468961Y-17126494D01*
X16468961Y-17126494D02*
X16449913Y-17116970D01*
X16449913Y-17116970D02*
X16421342Y-17116970D01*
X16421342Y-17116970D02*
X16402294Y-17126494D01*
X16402294Y-17126494D02*
X16392770Y-17136018D01*
X16602294Y-17250304D02*
X16583247Y-17240780D01*
X16583247Y-17240780D02*
X16573723Y-17231256D01*
X16573723Y-17231256D02*
X16564199Y-17212209D01*
X16564199Y-17212209D02*
X16564199Y-17155066D01*
X16564199Y-17155066D02*
X16573723Y-17136018D01*
X16573723Y-17136018D02*
X16583247Y-17126494D01*
X16583247Y-17126494D02*
X16602294Y-17116970D01*
X16602294Y-17116970D02*
X16630866Y-17116970D01*
X16630866Y-17116970D02*
X16649913Y-17126494D01*
X16649913Y-17126494D02*
X16659437Y-17136018D01*
X16659437Y-17136018D02*
X16668961Y-17155066D01*
X16668961Y-17155066D02*
X16668961Y-17212209D01*
X16668961Y-17212209D02*
X16659437Y-17231256D01*
X16659437Y-17231256D02*
X16649913Y-17240780D01*
X16649913Y-17240780D02*
X16630866Y-17250304D01*
X16630866Y-17250304D02*
X16602294Y-17250304D01*
X16783247Y-17250304D02*
X16764199Y-17240780D01*
X16764199Y-17240780D02*
X16754675Y-17221732D01*
X16754675Y-17221732D02*
X16754675Y-17050304D01*
X16935628Y-17240780D02*
X16916580Y-17250304D01*
X16916580Y-17250304D02*
X16878485Y-17250304D01*
X16878485Y-17250304D02*
X16859437Y-17240780D01*
X16859437Y-17240780D02*
X16849913Y-17221732D01*
X16849913Y-17221732D02*
X16849913Y-17145542D01*
X16849913Y-17145542D02*
X16859437Y-17126494D01*
X16859437Y-17126494D02*
X16878485Y-17116970D01*
X16878485Y-17116970D02*
X16916580Y-17116970D01*
X16916580Y-17116970D02*
X16935628Y-17126494D01*
X16935628Y-17126494D02*
X16945152Y-17145542D01*
X16945152Y-17145542D02*
X16945152Y-17164590D01*
X16945152Y-17164590D02*
X16849913Y-17183637D01*
X17021342Y-17240780D02*
X17040390Y-17250304D01*
X17040390Y-17250304D02*
X17078485Y-17250304D01*
X17078485Y-17250304D02*
X17097533Y-17240780D01*
X17097533Y-17240780D02*
X17107056Y-17221732D01*
X17107056Y-17221732D02*
X17107056Y-17212209D01*
X17107056Y-17212209D02*
X17097533Y-17193161D01*
X17097533Y-17193161D02*
X17078485Y-17183637D01*
X17078485Y-17183637D02*
X17049913Y-17183637D01*
X17049913Y-17183637D02*
X17030866Y-17174113D01*
X17030866Y-17174113D02*
X17021342Y-17155066D01*
X17021342Y-17155066D02*
X17021342Y-17145542D01*
X17021342Y-17145542D02*
X17030866Y-17126494D01*
X17030866Y-17126494D02*
X17049913Y-17116970D01*
X17049913Y-17116970D02*
X17078485Y-17116970D01*
X17078485Y-17116970D02*
X17097533Y-17126494D01*
X17173723Y-17326494D02*
X17183247Y-17316970D01*
X17183247Y-17316970D02*
X17202294Y-17288399D01*
X17202294Y-17288399D02*
X17211818Y-17269351D01*
X17211818Y-17269351D02*
X17221342Y-17240780D01*
X17221342Y-17240780D02*
X17230866Y-17193161D01*
X17230866Y-17193161D02*
X17230866Y-17155066D01*
X17230866Y-17155066D02*
X17221342Y-17107447D01*
X17221342Y-17107447D02*
X17211818Y-17078875D01*
X17211818Y-17078875D02*
X17202294Y-17059828D01*
X17202294Y-17059828D02*
X17183247Y-17031256D01*
X17183247Y-17031256D02*
X17173723Y-17021732D01*
M02*
