G04 #@! TF.GenerationSoftware,KiCad,Pcbnew,8.0.9-8.0.9-0~ubuntu22.04.1*
G04 #@! TF.CreationDate,2025-03-11T21:38:10+01:00*
G04 #@! TF.ProjectId,BrakeOutBoard,4272616b-654f-4757-9442-6f6172642e6b,rev?*
G04 #@! TF.SameCoordinates,Original*
G04 #@! TF.FileFunction,Soldermask,Bot*
G04 #@! TF.FilePolarity,Negative*
%FSLAX46Y46*%
G04 Gerber Fmt 4.6, Leading zero omitted, Abs format (unit mm)*
G04 Created by KiCad (PCBNEW 8.0.9-8.0.9-0~ubuntu22.04.1) date 2025-03-11 21:38:10*
%MOMM*%
%LPD*%
G01*
G04 APERTURE LIST*
G04 Aperture macros list*
%AMRoundRect*
0 Rectangle with rounded corners*
0 $1 Rounding radius*
0 $2 $3 $4 $5 $6 $7 $8 $9 X,Y pos of 4 corners*
0 Add a 4 corners polygon primitive as box body*
4,1,4,$2,$3,$4,$5,$6,$7,$8,$9,$2,$3,0*
0 Add four circle primitives for the rounded corners*
1,1,$1+$1,$2,$3*
1,1,$1+$1,$4,$5*
1,1,$1+$1,$6,$7*
1,1,$1+$1,$8,$9*
0 Add four rect primitives between the rounded corners*
20,1,$1+$1,$2,$3,$4,$5,0*
20,1,$1+$1,$4,$5,$6,$7,0*
20,1,$1+$1,$6,$7,$8,$9,0*
20,1,$1+$1,$8,$9,$2,$3,0*%
G04 Aperture macros list end*
%ADD10R,1.600000X1.600000*%
%ADD11O,1.600000X1.600000*%
%ADD12RoundRect,0.250001X0.799999X-0.799999X0.799999X0.799999X-0.799999X0.799999X-0.799999X-0.799999X0*%
%ADD13RoundRect,0.250001X0.799999X0.799999X-0.799999X0.799999X-0.799999X-0.799999X0.799999X-0.799999X0*%
%ADD14RoundRect,0.102000X-0.975000X0.975000X-0.975000X-0.975000X0.975000X-0.975000X0.975000X0.975000X0*%
%ADD15C,2.154000*%
%ADD16RoundRect,0.250001X-0.799999X-0.799999X0.799999X-0.799999X0.799999X0.799999X-0.799999X0.799999X0*%
%ADD17RoundRect,0.250001X-0.799999X0.799999X-0.799999X-0.799999X0.799999X-0.799999X0.799999X0.799999X0*%
%ADD18C,3.200000*%
%ADD19R,1.700000X1.700000*%
%ADD20O,1.700000X1.700000*%
G04 APERTURE END LIST*
D10*
X158305600Y-81603200D03*
D11*
X158305600Y-84143200D03*
X158305600Y-86683200D03*
X158305600Y-89223200D03*
X158305600Y-91763200D03*
X158305600Y-94303200D03*
X158305600Y-96843200D03*
X158305600Y-99383200D03*
X165925600Y-99383200D03*
X165925600Y-96843200D03*
X165925600Y-94303200D03*
X165925600Y-91763200D03*
X165925600Y-89223200D03*
X165925600Y-86683200D03*
X165925600Y-84143200D03*
X165925600Y-81603200D03*
D12*
X127317600Y-112169200D03*
D13*
X171005600Y-152809200D03*
D14*
X128562600Y-146209700D03*
D15*
X128562600Y-151289700D03*
D12*
X127317600Y-104549200D03*
D16*
X150939600Y-152809200D03*
X159067600Y-152809200D03*
D17*
X183705600Y-91849200D03*
D16*
X132651600Y-99215200D03*
X136461600Y-99215200D03*
X155003600Y-152809200D03*
D18*
X179661600Y-142803200D03*
D12*
X127317600Y-108359200D03*
D19*
X137691800Y-123827800D03*
D20*
X140231800Y-123827800D03*
X142771800Y-123827800D03*
X145311800Y-123827800D03*
X147851800Y-123827800D03*
X150391800Y-123827800D03*
X152931800Y-123827800D03*
X155471800Y-123827800D03*
X158011800Y-123827800D03*
X160551800Y-123827800D03*
X163091800Y-123827800D03*
X165631800Y-123827800D03*
X168171800Y-123827800D03*
X170711800Y-123827800D03*
X173251800Y-123827800D03*
X175791800Y-123827800D03*
X178331800Y-123827800D03*
X180871800Y-123827800D03*
X183411800Y-123827800D03*
D12*
X127317600Y-132235200D03*
X127317600Y-124107200D03*
X127317600Y-89309200D03*
D19*
X177863600Y-115725200D03*
D20*
X175323600Y-115725200D03*
X172783600Y-115725200D03*
X170243600Y-115725200D03*
D17*
X183705600Y-87023200D03*
D10*
X172273100Y-81603200D03*
D11*
X172273100Y-84143200D03*
X172273100Y-86683200D03*
X172273100Y-89223200D03*
X172273100Y-91763200D03*
X172273100Y-94303200D03*
X172273100Y-96843200D03*
X172273100Y-99383200D03*
X179893100Y-99383200D03*
X179893100Y-96843200D03*
X179893100Y-94303200D03*
X179893100Y-91763200D03*
X179893100Y-89223200D03*
X179893100Y-86683200D03*
X179893100Y-84143200D03*
X179893100Y-81603200D03*
D18*
X135711600Y-111903200D03*
D17*
X183705600Y-133251200D03*
D10*
X143573600Y-81603200D03*
D11*
X143573600Y-84143200D03*
X143573600Y-86683200D03*
X143573600Y-89223200D03*
X143573600Y-91763200D03*
X143573600Y-94303200D03*
X143573600Y-96843200D03*
X143573600Y-99383200D03*
X151193600Y-99383200D03*
X151193600Y-96843200D03*
X151193600Y-94303200D03*
X151193600Y-91763200D03*
X151193600Y-89223200D03*
X151193600Y-86683200D03*
X151193600Y-84143200D03*
X151193600Y-81603200D03*
D16*
X132651600Y-106581200D03*
D12*
X127317600Y-93119200D03*
D16*
X163131600Y-152809200D03*
D19*
X131127600Y-117503200D03*
D20*
X133667600Y-117503200D03*
X136207600Y-117503200D03*
X138747600Y-117503200D03*
D18*
X125511600Y-138203200D03*
D12*
X127317600Y-128171200D03*
D17*
X183705600Y-129441200D03*
D12*
X127317600Y-85499200D03*
D10*
X165935600Y-108862200D03*
D11*
X165935600Y-111402200D03*
X173555600Y-111402200D03*
X173555600Y-108862200D03*
D18*
X135211600Y-82103200D03*
D12*
X127317600Y-100739200D03*
X127317600Y-119789200D03*
D19*
X137691800Y-149227800D03*
D20*
X140231800Y-149227800D03*
X142771800Y-149227800D03*
X145311800Y-149227800D03*
X147851800Y-149227800D03*
X150391800Y-149227800D03*
X152931800Y-149227800D03*
X155471800Y-149227800D03*
X158011800Y-149227800D03*
X160551800Y-149227800D03*
X163091800Y-149227800D03*
X165631800Y-149227800D03*
X168171800Y-149227800D03*
X170711800Y-149227800D03*
X173251800Y-149227800D03*
X175791800Y-149227800D03*
X178331800Y-149227800D03*
X180871800Y-149227800D03*
X183411800Y-149227800D03*
D13*
X166941600Y-152809200D03*
D12*
X127317600Y-115979200D03*
X127317600Y-96929200D03*
D16*
X175323600Y-152809200D03*
D17*
X183705600Y-96675200D03*
D16*
X136461600Y-106581200D03*
D17*
X127317600Y-81689200D03*
M02*
