G04 #@! TF.GenerationSoftware,KiCad,Pcbnew,8.0.9-8.0.9-0~ubuntu22.04.1*
G04 #@! TF.CreationDate,2025-03-11T21:38:10+01:00*
G04 #@! TF.ProjectId,BrakeOutBoard,4272616b-654f-4757-9442-6f6172642e6b,rev?*
G04 #@! TF.SameCoordinates,Original*
G04 #@! TF.FileFunction,Legend,Top*
G04 #@! TF.FilePolarity,Positive*
%FSLAX46Y46*%
G04 Gerber Fmt 4.6, Leading zero omitted, Abs format (unit mm)*
G04 Created by KiCad (PCBNEW 8.0.9-8.0.9-0~ubuntu22.04.1) date 2025-03-11 21:38:10*
%MOMM*%
%LPD*%
G01*
G04 APERTURE LIST*
G04 Aperture macros list*
%AMRoundRect*
0 Rectangle with rounded corners*
0 $1 Rounding radius*
0 $2 $3 $4 $5 $6 $7 $8 $9 X,Y pos of 4 corners*
0 Add a 4 corners polygon primitive as box body*
4,1,4,$2,$3,$4,$5,$6,$7,$8,$9,$2,$3,0*
0 Add four circle primitives for the rounded corners*
1,1,$1+$1,$2,$3*
1,1,$1+$1,$4,$5*
1,1,$1+$1,$6,$7*
1,1,$1+$1,$8,$9*
0 Add four rect primitives between the rounded corners*
20,1,$1+$1,$2,$3,$4,$5,0*
20,1,$1+$1,$4,$5,$6,$7,0*
20,1,$1+$1,$6,$7,$8,$9,0*
20,1,$1+$1,$8,$9,$2,$3,0*%
G04 Aperture macros list end*
%ADD10C,0.150000*%
%ADD11C,0.120000*%
%ADD12C,0.127000*%
%ADD13C,0.200000*%
%ADD14R,1.600000X1.600000*%
%ADD15O,1.600000X1.600000*%
%ADD16RoundRect,0.219000X0.219000X0.294000X-0.219000X0.294000X-0.219000X-0.294000X0.219000X-0.294000X0*%
%ADD17RoundRect,0.150000X-0.150000X0.590000X-0.150000X-0.590000X0.150000X-0.590000X0.150000X0.590000X0*%
%ADD18RoundRect,0.250001X0.799999X-0.799999X0.799999X0.799999X-0.799999X0.799999X-0.799999X-0.799999X0*%
%ADD19RoundRect,0.250001X0.799999X0.799999X-0.799999X0.799999X-0.799999X-0.799999X0.799999X-0.799999X0*%
%ADD20RoundRect,0.102000X-0.975000X0.975000X-0.975000X-0.975000X0.975000X-0.975000X0.975000X0.975000X0*%
%ADD21C,2.154000*%
%ADD22O,0.476000X0.976000*%
%ADD23RoundRect,0.250001X-0.799999X-0.799999X0.799999X-0.799999X0.799999X0.799999X-0.799999X0.799999X0*%
%ADD24RoundRect,0.100000X0.100000X-0.225000X0.100000X0.225000X-0.100000X0.225000X-0.100000X-0.225000X0*%
%ADD25RoundRect,0.219000X-0.219000X-0.294000X0.219000X-0.294000X0.219000X0.294000X-0.219000X0.294000X0*%
%ADD26RoundRect,0.250001X-0.799999X0.799999X-0.799999X-0.799999X0.799999X-0.799999X0.799999X0.799999X0*%
%ADD27O,0.976000X0.476000*%
%ADD28O,2.050000X0.590000*%
%ADD29C,3.200000*%
%ADD30R,1.700000X1.700000*%
%ADD31O,1.700000X1.700000*%
%ADD32RoundRect,0.159000X-0.159000X-0.189000X0.159000X-0.189000X0.159000X0.189000X-0.159000X0.189000X0*%
%ADD33RoundRect,0.258261X0.929739X-1.029739X0.929739X1.029739X-0.929739X1.029739X-0.929739X-1.029739X0*%
%ADD34RoundRect,0.219000X-0.294000X0.219000X-0.294000X-0.219000X0.294000X-0.219000X0.294000X0.219000X0*%
%ADD35RoundRect,0.159000X0.189000X-0.159000X0.189000X0.159000X-0.189000X0.159000X-0.189000X-0.159000X0*%
%ADD36R,1.750000X0.450000*%
G04 APERTURE END LIST*
D10*
X157289695Y-78728019D02*
X157289695Y-79537542D01*
X157289695Y-79537542D02*
X157337314Y-79632780D01*
X157337314Y-79632780D02*
X157384933Y-79680400D01*
X157384933Y-79680400D02*
X157480171Y-79728019D01*
X157480171Y-79728019D02*
X157670647Y-79728019D01*
X157670647Y-79728019D02*
X157765885Y-79680400D01*
X157765885Y-79680400D02*
X157813504Y-79632780D01*
X157813504Y-79632780D02*
X157861123Y-79537542D01*
X157861123Y-79537542D02*
X157861123Y-78728019D01*
X158861123Y-79728019D02*
X158289695Y-79728019D01*
X158575409Y-79728019D02*
X158575409Y-78728019D01*
X158575409Y-78728019D02*
X158480171Y-78870876D01*
X158480171Y-78870876D02*
X158384933Y-78966114D01*
X158384933Y-78966114D02*
X158289695Y-79013733D01*
X151910552Y-120498019D02*
X151577219Y-120021828D01*
X151339124Y-120498019D02*
X151339124Y-119498019D01*
X151339124Y-119498019D02*
X151720076Y-119498019D01*
X151720076Y-119498019D02*
X151815314Y-119545638D01*
X151815314Y-119545638D02*
X151862933Y-119593257D01*
X151862933Y-119593257D02*
X151910552Y-119688495D01*
X151910552Y-119688495D02*
X151910552Y-119831352D01*
X151910552Y-119831352D02*
X151862933Y-119926590D01*
X151862933Y-119926590D02*
X151815314Y-119974209D01*
X151815314Y-119974209D02*
X151720076Y-120021828D01*
X151720076Y-120021828D02*
X151339124Y-120021828D01*
X152815314Y-119498019D02*
X152339124Y-119498019D01*
X152339124Y-119498019D02*
X152291505Y-119974209D01*
X152291505Y-119974209D02*
X152339124Y-119926590D01*
X152339124Y-119926590D02*
X152434362Y-119878971D01*
X152434362Y-119878971D02*
X152672457Y-119878971D01*
X152672457Y-119878971D02*
X152767695Y-119926590D01*
X152767695Y-119926590D02*
X152815314Y-119974209D01*
X152815314Y-119974209D02*
X152862933Y-120069447D01*
X152862933Y-120069447D02*
X152862933Y-120307542D01*
X152862933Y-120307542D02*
X152815314Y-120402780D01*
X152815314Y-120402780D02*
X152767695Y-120450400D01*
X152767695Y-120450400D02*
X152672457Y-120498019D01*
X152672457Y-120498019D02*
X152434362Y-120498019D01*
X152434362Y-120498019D02*
X152339124Y-120450400D01*
X152339124Y-120450400D02*
X152291505Y-120402780D01*
X153481981Y-119498019D02*
X153577219Y-119498019D01*
X153577219Y-119498019D02*
X153672457Y-119545638D01*
X153672457Y-119545638D02*
X153720076Y-119593257D01*
X153720076Y-119593257D02*
X153767695Y-119688495D01*
X153767695Y-119688495D02*
X153815314Y-119878971D01*
X153815314Y-119878971D02*
X153815314Y-120117066D01*
X153815314Y-120117066D02*
X153767695Y-120307542D01*
X153767695Y-120307542D02*
X153720076Y-120402780D01*
X153720076Y-120402780D02*
X153672457Y-120450400D01*
X153672457Y-120450400D02*
X153577219Y-120498019D01*
X153577219Y-120498019D02*
X153481981Y-120498019D01*
X153481981Y-120498019D02*
X153386743Y-120450400D01*
X153386743Y-120450400D02*
X153339124Y-120402780D01*
X153339124Y-120402780D02*
X153291505Y-120307542D01*
X153291505Y-120307542D02*
X153243886Y-120117066D01*
X153243886Y-120117066D02*
X153243886Y-119878971D01*
X153243886Y-119878971D02*
X153291505Y-119688495D01*
X153291505Y-119688495D02*
X153339124Y-119593257D01*
X153339124Y-119593257D02*
X153386743Y-119545638D01*
X153386743Y-119545638D02*
X153481981Y-119498019D01*
X154148648Y-119498019D02*
X154767695Y-119498019D01*
X154767695Y-119498019D02*
X154434362Y-119878971D01*
X154434362Y-119878971D02*
X154577219Y-119878971D01*
X154577219Y-119878971D02*
X154672457Y-119926590D01*
X154672457Y-119926590D02*
X154720076Y-119974209D01*
X154720076Y-119974209D02*
X154767695Y-120069447D01*
X154767695Y-120069447D02*
X154767695Y-120307542D01*
X154767695Y-120307542D02*
X154720076Y-120402780D01*
X154720076Y-120402780D02*
X154672457Y-120450400D01*
X154672457Y-120450400D02*
X154577219Y-120498019D01*
X154577219Y-120498019D02*
X154291505Y-120498019D01*
X154291505Y-120498019D02*
X154196267Y-120450400D01*
X154196267Y-120450400D02*
X154148648Y-120402780D01*
X142091657Y-134362438D02*
X142044038Y-134457676D01*
X142044038Y-134457676D02*
X141948800Y-134552914D01*
X141948800Y-134552914D02*
X141805942Y-134695771D01*
X141805942Y-134695771D02*
X141758323Y-134791009D01*
X141758323Y-134791009D02*
X141758323Y-134886247D01*
X141996419Y-134838628D02*
X141948800Y-134933866D01*
X141948800Y-134933866D02*
X141853561Y-135029104D01*
X141853561Y-135029104D02*
X141663085Y-135076723D01*
X141663085Y-135076723D02*
X141329752Y-135076723D01*
X141329752Y-135076723D02*
X141139276Y-135029104D01*
X141139276Y-135029104D02*
X141044038Y-134933866D01*
X141044038Y-134933866D02*
X140996419Y-134838628D01*
X140996419Y-134838628D02*
X140996419Y-134648152D01*
X140996419Y-134648152D02*
X141044038Y-134552914D01*
X141044038Y-134552914D02*
X141139276Y-134457676D01*
X141139276Y-134457676D02*
X141329752Y-134410057D01*
X141329752Y-134410057D02*
X141663085Y-134410057D01*
X141663085Y-134410057D02*
X141853561Y-134457676D01*
X141853561Y-134457676D02*
X141948800Y-134552914D01*
X141948800Y-134552914D02*
X141996419Y-134648152D01*
X141996419Y-134648152D02*
X141996419Y-134838628D01*
X141091657Y-134029104D02*
X141044038Y-133981485D01*
X141044038Y-133981485D02*
X140996419Y-133886247D01*
X140996419Y-133886247D02*
X140996419Y-133648152D01*
X140996419Y-133648152D02*
X141044038Y-133552914D01*
X141044038Y-133552914D02*
X141091657Y-133505295D01*
X141091657Y-133505295D02*
X141186895Y-133457676D01*
X141186895Y-133457676D02*
X141282133Y-133457676D01*
X141282133Y-133457676D02*
X141424990Y-133505295D01*
X141424990Y-133505295D02*
X141996419Y-134076723D01*
X141996419Y-134076723D02*
X141996419Y-133457676D01*
X124998609Y-113383485D02*
X125046228Y-113240628D01*
X125046228Y-113240628D02*
X125093847Y-113193009D01*
X125093847Y-113193009D02*
X125189085Y-113145390D01*
X125189085Y-113145390D02*
X125331942Y-113145390D01*
X125331942Y-113145390D02*
X125427180Y-113193009D01*
X125427180Y-113193009D02*
X125474800Y-113240628D01*
X125474800Y-113240628D02*
X125522419Y-113335866D01*
X125522419Y-113335866D02*
X125522419Y-113716818D01*
X125522419Y-113716818D02*
X124522419Y-113716818D01*
X124522419Y-113716818D02*
X124522419Y-113383485D01*
X124522419Y-113383485D02*
X124570038Y-113288247D01*
X124570038Y-113288247D02*
X124617657Y-113240628D01*
X124617657Y-113240628D02*
X124712895Y-113193009D01*
X124712895Y-113193009D02*
X124808133Y-113193009D01*
X124808133Y-113193009D02*
X124903371Y-113240628D01*
X124903371Y-113240628D02*
X124950990Y-113288247D01*
X124950990Y-113288247D02*
X124998609Y-113383485D01*
X124998609Y-113383485D02*
X124998609Y-113716818D01*
X124998609Y-112383485D02*
X124998609Y-112716818D01*
X125522419Y-112716818D02*
X124522419Y-112716818D01*
X124522419Y-112716818D02*
X124522419Y-112240628D01*
X125617657Y-112097771D02*
X125617657Y-111335866D01*
X125522419Y-110573961D02*
X125522419Y-111145389D01*
X125522419Y-110859675D02*
X124522419Y-110859675D01*
X124522419Y-110859675D02*
X124665276Y-110954913D01*
X124665276Y-110954913D02*
X124760514Y-111050151D01*
X124760514Y-111050151D02*
X124808133Y-111145389D01*
X170656552Y-146215638D02*
X170561314Y-146168019D01*
X170561314Y-146168019D02*
X170418457Y-146168019D01*
X170418457Y-146168019D02*
X170275600Y-146215638D01*
X170275600Y-146215638D02*
X170180362Y-146310876D01*
X170180362Y-146310876D02*
X170132743Y-146406114D01*
X170132743Y-146406114D02*
X170085124Y-146596590D01*
X170085124Y-146596590D02*
X170085124Y-146739447D01*
X170085124Y-146739447D02*
X170132743Y-146929923D01*
X170132743Y-146929923D02*
X170180362Y-147025161D01*
X170180362Y-147025161D02*
X170275600Y-147120400D01*
X170275600Y-147120400D02*
X170418457Y-147168019D01*
X170418457Y-147168019D02*
X170513695Y-147168019D01*
X170513695Y-147168019D02*
X170656552Y-147120400D01*
X170656552Y-147120400D02*
X170704171Y-147072780D01*
X170704171Y-147072780D02*
X170704171Y-146739447D01*
X170704171Y-146739447D02*
X170513695Y-146739447D01*
X171132743Y-147168019D02*
X171132743Y-146168019D01*
X171132743Y-146168019D02*
X171704171Y-147168019D01*
X171704171Y-147168019D02*
X171704171Y-146168019D01*
X172180362Y-147168019D02*
X172180362Y-146168019D01*
X172180362Y-146168019D02*
X172418457Y-146168019D01*
X172418457Y-146168019D02*
X172561314Y-146215638D01*
X172561314Y-146215638D02*
X172656552Y-146310876D01*
X172656552Y-146310876D02*
X172704171Y-146406114D01*
X172704171Y-146406114D02*
X172751790Y-146596590D01*
X172751790Y-146596590D02*
X172751790Y-146739447D01*
X172751790Y-146739447D02*
X172704171Y-146929923D01*
X172704171Y-146929923D02*
X172656552Y-147025161D01*
X172656552Y-147025161D02*
X172561314Y-147120400D01*
X172561314Y-147120400D02*
X172418457Y-147168019D01*
X172418457Y-147168019D02*
X172180362Y-147168019D01*
X172942267Y-147263257D02*
X173704171Y-147263257D01*
X174466076Y-147168019D02*
X173894648Y-147168019D01*
X174180362Y-147168019D02*
X174180362Y-146168019D01*
X174180362Y-146168019D02*
X174085124Y-146310876D01*
X174085124Y-146310876D02*
X173989886Y-146406114D01*
X173989886Y-146406114D02*
X173894648Y-146453733D01*
X133122419Y-152419771D02*
X133931942Y-152419771D01*
X133931942Y-152419771D02*
X134027180Y-152372152D01*
X134027180Y-152372152D02*
X134074800Y-152324533D01*
X134074800Y-152324533D02*
X134122419Y-152229295D01*
X134122419Y-152229295D02*
X134122419Y-152038819D01*
X134122419Y-152038819D02*
X134074800Y-151943581D01*
X134074800Y-151943581D02*
X134027180Y-151895962D01*
X134027180Y-151895962D02*
X133931942Y-151848343D01*
X133931942Y-151848343D02*
X133122419Y-151848343D01*
X134074800Y-151419771D02*
X134122419Y-151276914D01*
X134122419Y-151276914D02*
X134122419Y-151038819D01*
X134122419Y-151038819D02*
X134074800Y-150943581D01*
X134074800Y-150943581D02*
X134027180Y-150895962D01*
X134027180Y-150895962D02*
X133931942Y-150848343D01*
X133931942Y-150848343D02*
X133836704Y-150848343D01*
X133836704Y-150848343D02*
X133741466Y-150895962D01*
X133741466Y-150895962D02*
X133693847Y-150943581D01*
X133693847Y-150943581D02*
X133646228Y-151038819D01*
X133646228Y-151038819D02*
X133598609Y-151229295D01*
X133598609Y-151229295D02*
X133550990Y-151324533D01*
X133550990Y-151324533D02*
X133503371Y-151372152D01*
X133503371Y-151372152D02*
X133408133Y-151419771D01*
X133408133Y-151419771D02*
X133312895Y-151419771D01*
X133312895Y-151419771D02*
X133217657Y-151372152D01*
X133217657Y-151372152D02*
X133170038Y-151324533D01*
X133170038Y-151324533D02*
X133122419Y-151229295D01*
X133122419Y-151229295D02*
X133122419Y-150991200D01*
X133122419Y-150991200D02*
X133170038Y-150848343D01*
X133598609Y-150086438D02*
X133646228Y-149943581D01*
X133646228Y-149943581D02*
X133693847Y-149895962D01*
X133693847Y-149895962D02*
X133789085Y-149848343D01*
X133789085Y-149848343D02*
X133931942Y-149848343D01*
X133931942Y-149848343D02*
X134027180Y-149895962D01*
X134027180Y-149895962D02*
X134074800Y-149943581D01*
X134074800Y-149943581D02*
X134122419Y-150038819D01*
X134122419Y-150038819D02*
X134122419Y-150419771D01*
X134122419Y-150419771D02*
X133122419Y-150419771D01*
X133122419Y-150419771D02*
X133122419Y-150086438D01*
X133122419Y-150086438D02*
X133170038Y-149991200D01*
X133170038Y-149991200D02*
X133217657Y-149943581D01*
X133217657Y-149943581D02*
X133312895Y-149895962D01*
X133312895Y-149895962D02*
X133408133Y-149895962D01*
X133408133Y-149895962D02*
X133503371Y-149943581D01*
X133503371Y-149943581D02*
X133550990Y-149991200D01*
X133550990Y-149991200D02*
X133598609Y-150086438D01*
X133598609Y-150086438D02*
X133598609Y-150419771D01*
X134217657Y-149657867D02*
X134217657Y-148895962D01*
X133122419Y-148467390D02*
X133122419Y-148276914D01*
X133122419Y-148276914D02*
X133170038Y-148181676D01*
X133170038Y-148181676D02*
X133265276Y-148086438D01*
X133265276Y-148086438D02*
X133455752Y-148038819D01*
X133455752Y-148038819D02*
X133789085Y-148038819D01*
X133789085Y-148038819D02*
X133979561Y-148086438D01*
X133979561Y-148086438D02*
X134074800Y-148181676D01*
X134074800Y-148181676D02*
X134122419Y-148276914D01*
X134122419Y-148276914D02*
X134122419Y-148467390D01*
X134122419Y-148467390D02*
X134074800Y-148562628D01*
X134074800Y-148562628D02*
X133979561Y-148657866D01*
X133979561Y-148657866D02*
X133789085Y-148705485D01*
X133789085Y-148705485D02*
X133455752Y-148705485D01*
X133455752Y-148705485D02*
X133265276Y-148657866D01*
X133265276Y-148657866D02*
X133170038Y-148562628D01*
X133170038Y-148562628D02*
X133122419Y-148467390D01*
X133122419Y-147610247D02*
X133931942Y-147610247D01*
X133931942Y-147610247D02*
X134027180Y-147562628D01*
X134027180Y-147562628D02*
X134074800Y-147515009D01*
X134074800Y-147515009D02*
X134122419Y-147419771D01*
X134122419Y-147419771D02*
X134122419Y-147229295D01*
X134122419Y-147229295D02*
X134074800Y-147134057D01*
X134074800Y-147134057D02*
X134027180Y-147086438D01*
X134027180Y-147086438D02*
X133931942Y-147038819D01*
X133931942Y-147038819D02*
X133122419Y-147038819D01*
X133122419Y-146705485D02*
X133122419Y-146134057D01*
X134122419Y-146419771D02*
X133122419Y-146419771D01*
X134217657Y-146038819D02*
X134217657Y-145276914D01*
X134122419Y-144515009D02*
X134122419Y-145086437D01*
X134122419Y-144800723D02*
X133122419Y-144800723D01*
X133122419Y-144800723D02*
X133265276Y-144895961D01*
X133265276Y-144895961D02*
X133360514Y-144991199D01*
X133360514Y-144991199D02*
X133408133Y-145086437D01*
X155662552Y-117450019D02*
X155329219Y-116973828D01*
X155091124Y-117450019D02*
X155091124Y-116450019D01*
X155091124Y-116450019D02*
X155472076Y-116450019D01*
X155472076Y-116450019D02*
X155567314Y-116497638D01*
X155567314Y-116497638D02*
X155614933Y-116545257D01*
X155614933Y-116545257D02*
X155662552Y-116640495D01*
X155662552Y-116640495D02*
X155662552Y-116783352D01*
X155662552Y-116783352D02*
X155614933Y-116878590D01*
X155614933Y-116878590D02*
X155567314Y-116926209D01*
X155567314Y-116926209D02*
X155472076Y-116973828D01*
X155472076Y-116973828D02*
X155091124Y-116973828D01*
X156567314Y-116450019D02*
X156091124Y-116450019D01*
X156091124Y-116450019D02*
X156043505Y-116926209D01*
X156043505Y-116926209D02*
X156091124Y-116878590D01*
X156091124Y-116878590D02*
X156186362Y-116830971D01*
X156186362Y-116830971D02*
X156424457Y-116830971D01*
X156424457Y-116830971D02*
X156519695Y-116878590D01*
X156519695Y-116878590D02*
X156567314Y-116926209D01*
X156567314Y-116926209D02*
X156614933Y-117021447D01*
X156614933Y-117021447D02*
X156614933Y-117259542D01*
X156614933Y-117259542D02*
X156567314Y-117354780D01*
X156567314Y-117354780D02*
X156519695Y-117402400D01*
X156519695Y-117402400D02*
X156424457Y-117450019D01*
X156424457Y-117450019D02*
X156186362Y-117450019D01*
X156186362Y-117450019D02*
X156091124Y-117402400D01*
X156091124Y-117402400D02*
X156043505Y-117354780D01*
X157233981Y-116450019D02*
X157329219Y-116450019D01*
X157329219Y-116450019D02*
X157424457Y-116497638D01*
X157424457Y-116497638D02*
X157472076Y-116545257D01*
X157472076Y-116545257D02*
X157519695Y-116640495D01*
X157519695Y-116640495D02*
X157567314Y-116830971D01*
X157567314Y-116830971D02*
X157567314Y-117069066D01*
X157567314Y-117069066D02*
X157519695Y-117259542D01*
X157519695Y-117259542D02*
X157472076Y-117354780D01*
X157472076Y-117354780D02*
X157424457Y-117402400D01*
X157424457Y-117402400D02*
X157329219Y-117450019D01*
X157329219Y-117450019D02*
X157233981Y-117450019D01*
X157233981Y-117450019D02*
X157138743Y-117402400D01*
X157138743Y-117402400D02*
X157091124Y-117354780D01*
X157091124Y-117354780D02*
X157043505Y-117259542D01*
X157043505Y-117259542D02*
X156995886Y-117069066D01*
X156995886Y-117069066D02*
X156995886Y-116830971D01*
X156995886Y-116830971D02*
X157043505Y-116640495D01*
X157043505Y-116640495D02*
X157091124Y-116545257D01*
X157091124Y-116545257D02*
X157138743Y-116497638D01*
X157138743Y-116497638D02*
X157233981Y-116450019D01*
X157948267Y-116545257D02*
X157995886Y-116497638D01*
X157995886Y-116497638D02*
X158091124Y-116450019D01*
X158091124Y-116450019D02*
X158329219Y-116450019D01*
X158329219Y-116450019D02*
X158424457Y-116497638D01*
X158424457Y-116497638D02*
X158472076Y-116545257D01*
X158472076Y-116545257D02*
X158519695Y-116640495D01*
X158519695Y-116640495D02*
X158519695Y-116735733D01*
X158519695Y-116735733D02*
X158472076Y-116878590D01*
X158472076Y-116878590D02*
X157900648Y-117450019D01*
X157900648Y-117450019D02*
X158519695Y-117450019D01*
X151454419Y-78269866D02*
X150978228Y-78603199D01*
X151454419Y-78841294D02*
X150454419Y-78841294D01*
X150454419Y-78841294D02*
X150454419Y-78460342D01*
X150454419Y-78460342D02*
X150502038Y-78365104D01*
X150502038Y-78365104D02*
X150549657Y-78317485D01*
X150549657Y-78317485D02*
X150644895Y-78269866D01*
X150644895Y-78269866D02*
X150787752Y-78269866D01*
X150787752Y-78269866D02*
X150882990Y-78317485D01*
X150882990Y-78317485D02*
X150930609Y-78365104D01*
X150930609Y-78365104D02*
X150978228Y-78460342D01*
X150978228Y-78460342D02*
X150978228Y-78841294D01*
X151454419Y-77793675D02*
X151454419Y-77603199D01*
X151454419Y-77603199D02*
X151406800Y-77507961D01*
X151406800Y-77507961D02*
X151359180Y-77460342D01*
X151359180Y-77460342D02*
X151216323Y-77365104D01*
X151216323Y-77365104D02*
X151025847Y-77317485D01*
X151025847Y-77317485D02*
X150644895Y-77317485D01*
X150644895Y-77317485D02*
X150549657Y-77365104D01*
X150549657Y-77365104D02*
X150502038Y-77412723D01*
X150502038Y-77412723D02*
X150454419Y-77507961D01*
X150454419Y-77507961D02*
X150454419Y-77698437D01*
X150454419Y-77698437D02*
X150502038Y-77793675D01*
X150502038Y-77793675D02*
X150549657Y-77841294D01*
X150549657Y-77841294D02*
X150644895Y-77888913D01*
X150644895Y-77888913D02*
X150882990Y-77888913D01*
X150882990Y-77888913D02*
X150978228Y-77841294D01*
X150978228Y-77841294D02*
X151025847Y-77793675D01*
X151025847Y-77793675D02*
X151073466Y-77698437D01*
X151073466Y-77698437D02*
X151073466Y-77507961D01*
X151073466Y-77507961D02*
X151025847Y-77412723D01*
X151025847Y-77412723D02*
X150978228Y-77365104D01*
X150978228Y-77365104D02*
X150882990Y-77317485D01*
X158954419Y-104269866D02*
X158478228Y-104603199D01*
X158954419Y-104841294D02*
X157954419Y-104841294D01*
X157954419Y-104841294D02*
X157954419Y-104460342D01*
X157954419Y-104460342D02*
X158002038Y-104365104D01*
X158002038Y-104365104D02*
X158049657Y-104317485D01*
X158049657Y-104317485D02*
X158144895Y-104269866D01*
X158144895Y-104269866D02*
X158287752Y-104269866D01*
X158287752Y-104269866D02*
X158382990Y-104317485D01*
X158382990Y-104317485D02*
X158430609Y-104365104D01*
X158430609Y-104365104D02*
X158478228Y-104460342D01*
X158478228Y-104460342D02*
X158478228Y-104841294D01*
X157954419Y-103936532D02*
X157954419Y-103269866D01*
X157954419Y-103269866D02*
X158954419Y-103698437D01*
X125522419Y-106239675D02*
X124522419Y-106239675D01*
X124522419Y-106239675D02*
X125236704Y-105906342D01*
X125236704Y-105906342D02*
X124522419Y-105573009D01*
X124522419Y-105573009D02*
X125522419Y-105573009D01*
X125427180Y-104525390D02*
X125474800Y-104573009D01*
X125474800Y-104573009D02*
X125522419Y-104715866D01*
X125522419Y-104715866D02*
X125522419Y-104811104D01*
X125522419Y-104811104D02*
X125474800Y-104953961D01*
X125474800Y-104953961D02*
X125379561Y-105049199D01*
X125379561Y-105049199D02*
X125284323Y-105096818D01*
X125284323Y-105096818D02*
X125093847Y-105144437D01*
X125093847Y-105144437D02*
X124950990Y-105144437D01*
X124950990Y-105144437D02*
X124760514Y-105096818D01*
X124760514Y-105096818D02*
X124665276Y-105049199D01*
X124665276Y-105049199D02*
X124570038Y-104953961D01*
X124570038Y-104953961D02*
X124522419Y-104811104D01*
X124522419Y-104811104D02*
X124522419Y-104715866D01*
X124522419Y-104715866D02*
X124570038Y-104573009D01*
X124570038Y-104573009D02*
X124617657Y-104525390D01*
X125617657Y-104334914D02*
X125617657Y-103573009D01*
X125522419Y-102811104D02*
X125522419Y-103382532D01*
X125522419Y-103096818D02*
X124522419Y-103096818D01*
X124522419Y-103096818D02*
X124665276Y-103192056D01*
X124665276Y-103192056D02*
X124760514Y-103287294D01*
X124760514Y-103287294D02*
X124808133Y-103382532D01*
X143856933Y-132212019D02*
X143523600Y-131735828D01*
X143285505Y-132212019D02*
X143285505Y-131212019D01*
X143285505Y-131212019D02*
X143666457Y-131212019D01*
X143666457Y-131212019D02*
X143761695Y-131259638D01*
X143761695Y-131259638D02*
X143809314Y-131307257D01*
X143809314Y-131307257D02*
X143856933Y-131402495D01*
X143856933Y-131402495D02*
X143856933Y-131545352D01*
X143856933Y-131545352D02*
X143809314Y-131640590D01*
X143809314Y-131640590D02*
X143761695Y-131688209D01*
X143761695Y-131688209D02*
X143666457Y-131735828D01*
X143666457Y-131735828D02*
X143285505Y-131735828D01*
X144809314Y-132212019D02*
X144237886Y-132212019D01*
X144523600Y-132212019D02*
X144523600Y-131212019D01*
X144523600Y-131212019D02*
X144428362Y-131354876D01*
X144428362Y-131354876D02*
X144333124Y-131450114D01*
X144333124Y-131450114D02*
X144237886Y-131497733D01*
X145320266Y-146168019D02*
X145891694Y-146168019D01*
X145605980Y-147168019D02*
X145605980Y-146168019D01*
X146558361Y-146644209D02*
X146225028Y-146644209D01*
X146225028Y-147168019D02*
X146225028Y-146168019D01*
X146225028Y-146168019D02*
X146701218Y-146168019D01*
X146939314Y-146168019D02*
X147510742Y-146168019D01*
X147225028Y-147168019D02*
X147225028Y-146168019D01*
X147605981Y-147263257D02*
X148367885Y-147263257D01*
X148605981Y-147168019D02*
X148605981Y-146168019D01*
X148605981Y-146168019D02*
X148844076Y-146168019D01*
X148844076Y-146168019D02*
X148986933Y-146215638D01*
X148986933Y-146215638D02*
X149082171Y-146310876D01*
X149082171Y-146310876D02*
X149129790Y-146406114D01*
X149129790Y-146406114D02*
X149177409Y-146596590D01*
X149177409Y-146596590D02*
X149177409Y-146739447D01*
X149177409Y-146739447D02*
X149129790Y-146929923D01*
X149129790Y-146929923D02*
X149082171Y-147025161D01*
X149082171Y-147025161D02*
X148986933Y-147120400D01*
X148986933Y-147120400D02*
X148844076Y-147168019D01*
X148844076Y-147168019D02*
X148605981Y-147168019D01*
X150177409Y-147072780D02*
X150129790Y-147120400D01*
X150129790Y-147120400D02*
X149986933Y-147168019D01*
X149986933Y-147168019D02*
X149891695Y-147168019D01*
X149891695Y-147168019D02*
X149748838Y-147120400D01*
X149748838Y-147120400D02*
X149653600Y-147025161D01*
X149653600Y-147025161D02*
X149605981Y-146929923D01*
X149605981Y-146929923D02*
X149558362Y-146739447D01*
X149558362Y-146739447D02*
X149558362Y-146596590D01*
X149558362Y-146596590D02*
X149605981Y-146406114D01*
X149605981Y-146406114D02*
X149653600Y-146310876D01*
X149653600Y-146310876D02*
X149748838Y-146215638D01*
X149748838Y-146215638D02*
X149891695Y-146168019D01*
X149891695Y-146168019D02*
X149986933Y-146168019D01*
X149986933Y-146168019D02*
X150129790Y-146215638D01*
X150129790Y-146215638D02*
X150177409Y-146263257D01*
X150367886Y-147263257D02*
X151129790Y-147263257D01*
X151891695Y-147168019D02*
X151320267Y-147168019D01*
X151605981Y-147168019D02*
X151605981Y-146168019D01*
X151605981Y-146168019D02*
X151510743Y-146310876D01*
X151510743Y-146310876D02*
X151415505Y-146406114D01*
X151415505Y-146406114D02*
X151320267Y-146453733D01*
X157535790Y-147072780D02*
X157488171Y-147120400D01*
X157488171Y-147120400D02*
X157345314Y-147168019D01*
X157345314Y-147168019D02*
X157250076Y-147168019D01*
X157250076Y-147168019D02*
X157107219Y-147120400D01*
X157107219Y-147120400D02*
X157011981Y-147025161D01*
X157011981Y-147025161D02*
X156964362Y-146929923D01*
X156964362Y-146929923D02*
X156916743Y-146739447D01*
X156916743Y-146739447D02*
X156916743Y-146596590D01*
X156916743Y-146596590D02*
X156964362Y-146406114D01*
X156964362Y-146406114D02*
X157011981Y-146310876D01*
X157011981Y-146310876D02*
X157107219Y-146215638D01*
X157107219Y-146215638D02*
X157250076Y-146168019D01*
X157250076Y-146168019D02*
X157345314Y-146168019D01*
X157345314Y-146168019D02*
X157488171Y-146215638D01*
X157488171Y-146215638D02*
X157535790Y-146263257D01*
X157916743Y-147120400D02*
X158059600Y-147168019D01*
X158059600Y-147168019D02*
X158297695Y-147168019D01*
X158297695Y-147168019D02*
X158392933Y-147120400D01*
X158392933Y-147120400D02*
X158440552Y-147072780D01*
X158440552Y-147072780D02*
X158488171Y-146977542D01*
X158488171Y-146977542D02*
X158488171Y-146882304D01*
X158488171Y-146882304D02*
X158440552Y-146787066D01*
X158440552Y-146787066D02*
X158392933Y-146739447D01*
X158392933Y-146739447D02*
X158297695Y-146691828D01*
X158297695Y-146691828D02*
X158107219Y-146644209D01*
X158107219Y-146644209D02*
X158011981Y-146596590D01*
X158011981Y-146596590D02*
X157964362Y-146548971D01*
X157964362Y-146548971D02*
X157916743Y-146453733D01*
X157916743Y-146453733D02*
X157916743Y-146358495D01*
X157916743Y-146358495D02*
X157964362Y-146263257D01*
X157964362Y-146263257D02*
X158011981Y-146215638D01*
X158011981Y-146215638D02*
X158107219Y-146168019D01*
X158107219Y-146168019D02*
X158345314Y-146168019D01*
X158345314Y-146168019D02*
X158488171Y-146215638D01*
X158678648Y-147263257D02*
X159440552Y-147263257D01*
X160202457Y-147168019D02*
X159631029Y-147168019D01*
X159916743Y-147168019D02*
X159916743Y-146168019D01*
X159916743Y-146168019D02*
X159821505Y-146310876D01*
X159821505Y-146310876D02*
X159726267Y-146406114D01*
X159726267Y-146406114D02*
X159631029Y-146453733D01*
X142493657Y-139630438D02*
X142446038Y-139725676D01*
X142446038Y-139725676D02*
X142350800Y-139820914D01*
X142350800Y-139820914D02*
X142207942Y-139963771D01*
X142207942Y-139963771D02*
X142160323Y-140059009D01*
X142160323Y-140059009D02*
X142160323Y-140154247D01*
X142398419Y-140106628D02*
X142350800Y-140201866D01*
X142350800Y-140201866D02*
X142255561Y-140297104D01*
X142255561Y-140297104D02*
X142065085Y-140344723D01*
X142065085Y-140344723D02*
X141731752Y-140344723D01*
X141731752Y-140344723D02*
X141541276Y-140297104D01*
X141541276Y-140297104D02*
X141446038Y-140201866D01*
X141446038Y-140201866D02*
X141398419Y-140106628D01*
X141398419Y-140106628D02*
X141398419Y-139916152D01*
X141398419Y-139916152D02*
X141446038Y-139820914D01*
X141446038Y-139820914D02*
X141541276Y-139725676D01*
X141541276Y-139725676D02*
X141731752Y-139678057D01*
X141731752Y-139678057D02*
X142065085Y-139678057D01*
X142065085Y-139678057D02*
X142255561Y-139725676D01*
X142255561Y-139725676D02*
X142350800Y-139820914D01*
X142350800Y-139820914D02*
X142398419Y-139916152D01*
X142398419Y-139916152D02*
X142398419Y-140106628D01*
X142398419Y-138725676D02*
X142398419Y-139297104D01*
X142398419Y-139011390D02*
X141398419Y-139011390D01*
X141398419Y-139011390D02*
X141541276Y-139106628D01*
X141541276Y-139106628D02*
X141636514Y-139201866D01*
X141636514Y-139201866D02*
X141684133Y-139297104D01*
X149612933Y-137008019D02*
X149279600Y-136531828D01*
X149041505Y-137008019D02*
X149041505Y-136008019D01*
X149041505Y-136008019D02*
X149422457Y-136008019D01*
X149422457Y-136008019D02*
X149517695Y-136055638D01*
X149517695Y-136055638D02*
X149565314Y-136103257D01*
X149565314Y-136103257D02*
X149612933Y-136198495D01*
X149612933Y-136198495D02*
X149612933Y-136341352D01*
X149612933Y-136341352D02*
X149565314Y-136436590D01*
X149565314Y-136436590D02*
X149517695Y-136484209D01*
X149517695Y-136484209D02*
X149422457Y-136531828D01*
X149422457Y-136531828D02*
X149041505Y-136531828D01*
X150517695Y-136008019D02*
X150041505Y-136008019D01*
X150041505Y-136008019D02*
X149993886Y-136484209D01*
X149993886Y-136484209D02*
X150041505Y-136436590D01*
X150041505Y-136436590D02*
X150136743Y-136388971D01*
X150136743Y-136388971D02*
X150374838Y-136388971D01*
X150374838Y-136388971D02*
X150470076Y-136436590D01*
X150470076Y-136436590D02*
X150517695Y-136484209D01*
X150517695Y-136484209D02*
X150565314Y-136579447D01*
X150565314Y-136579447D02*
X150565314Y-136817542D01*
X150565314Y-136817542D02*
X150517695Y-136912780D01*
X150517695Y-136912780D02*
X150470076Y-136960400D01*
X150470076Y-136960400D02*
X150374838Y-137008019D01*
X150374838Y-137008019D02*
X150136743Y-137008019D01*
X150136743Y-137008019D02*
X150041505Y-136960400D01*
X150041505Y-136960400D02*
X149993886Y-136912780D01*
X186410419Y-94571485D02*
X185410419Y-94571485D01*
X185410419Y-94571485D02*
X186124704Y-94238152D01*
X186124704Y-94238152D02*
X185410419Y-93904819D01*
X185410419Y-93904819D02*
X186410419Y-93904819D01*
X185886609Y-93428628D02*
X185886609Y-93095295D01*
X186410419Y-92952438D02*
X186410419Y-93428628D01*
X186410419Y-93428628D02*
X185410419Y-93428628D01*
X185410419Y-93428628D02*
X185410419Y-92952438D01*
X186410419Y-92523866D02*
X185410419Y-92523866D01*
X185410419Y-92523866D02*
X186124704Y-92190533D01*
X186124704Y-92190533D02*
X185410419Y-91857200D01*
X185410419Y-91857200D02*
X186410419Y-91857200D01*
X186505657Y-91619105D02*
X186505657Y-90857200D01*
X186410419Y-90095295D02*
X186410419Y-90666723D01*
X186410419Y-90381009D02*
X185410419Y-90381009D01*
X185410419Y-90381009D02*
X185553276Y-90476247D01*
X185553276Y-90476247D02*
X185648514Y-90571485D01*
X185648514Y-90571485D02*
X185696133Y-90666723D01*
X130961124Y-97420019D02*
X130961124Y-96420019D01*
X131532552Y-97420019D02*
X131103981Y-96848590D01*
X131532552Y-96420019D02*
X130961124Y-96991447D01*
X132437314Y-96420019D02*
X131961124Y-96420019D01*
X131961124Y-96420019D02*
X131913505Y-96896209D01*
X131913505Y-96896209D02*
X131961124Y-96848590D01*
X131961124Y-96848590D02*
X132056362Y-96800971D01*
X132056362Y-96800971D02*
X132294457Y-96800971D01*
X132294457Y-96800971D02*
X132389695Y-96848590D01*
X132389695Y-96848590D02*
X132437314Y-96896209D01*
X132437314Y-96896209D02*
X132484933Y-96991447D01*
X132484933Y-96991447D02*
X132484933Y-97229542D01*
X132484933Y-97229542D02*
X132437314Y-97324780D01*
X132437314Y-97324780D02*
X132389695Y-97372400D01*
X132389695Y-97372400D02*
X132294457Y-97420019D01*
X132294457Y-97420019D02*
X132056362Y-97420019D01*
X132056362Y-97420019D02*
X131961124Y-97372400D01*
X131961124Y-97372400D02*
X131913505Y-97324780D01*
X133103981Y-96420019D02*
X133199219Y-96420019D01*
X133199219Y-96420019D02*
X133294457Y-96467638D01*
X133294457Y-96467638D02*
X133342076Y-96515257D01*
X133342076Y-96515257D02*
X133389695Y-96610495D01*
X133389695Y-96610495D02*
X133437314Y-96800971D01*
X133437314Y-96800971D02*
X133437314Y-97039066D01*
X133437314Y-97039066D02*
X133389695Y-97229542D01*
X133389695Y-97229542D02*
X133342076Y-97324780D01*
X133342076Y-97324780D02*
X133294457Y-97372400D01*
X133294457Y-97372400D02*
X133199219Y-97420019D01*
X133199219Y-97420019D02*
X133103981Y-97420019D01*
X133103981Y-97420019D02*
X133008743Y-97372400D01*
X133008743Y-97372400D02*
X132961124Y-97324780D01*
X132961124Y-97324780D02*
X132913505Y-97229542D01*
X132913505Y-97229542D02*
X132865886Y-97039066D01*
X132865886Y-97039066D02*
X132865886Y-96800971D01*
X132865886Y-96800971D02*
X132913505Y-96610495D01*
X132913505Y-96610495D02*
X132961124Y-96515257D01*
X132961124Y-96515257D02*
X133008743Y-96467638D01*
X133008743Y-96467638D02*
X133103981Y-96420019D01*
X133770648Y-96420019D02*
X134389695Y-96420019D01*
X134389695Y-96420019D02*
X134056362Y-96800971D01*
X134056362Y-96800971D02*
X134199219Y-96800971D01*
X134199219Y-96800971D02*
X134294457Y-96848590D01*
X134294457Y-96848590D02*
X134342076Y-96896209D01*
X134342076Y-96896209D02*
X134389695Y-96991447D01*
X134389695Y-96991447D02*
X134389695Y-97229542D01*
X134389695Y-97229542D02*
X134342076Y-97324780D01*
X134342076Y-97324780D02*
X134294457Y-97372400D01*
X134294457Y-97372400D02*
X134199219Y-97420019D01*
X134199219Y-97420019D02*
X133913505Y-97420019D01*
X133913505Y-97420019D02*
X133818267Y-97372400D01*
X133818267Y-97372400D02*
X133770648Y-97324780D01*
X138048552Y-87310019D02*
X137715219Y-86833828D01*
X137477124Y-87310019D02*
X137477124Y-86310019D01*
X137477124Y-86310019D02*
X137858076Y-86310019D01*
X137858076Y-86310019D02*
X137953314Y-86357638D01*
X137953314Y-86357638D02*
X138000933Y-86405257D01*
X138000933Y-86405257D02*
X138048552Y-86500495D01*
X138048552Y-86500495D02*
X138048552Y-86643352D01*
X138048552Y-86643352D02*
X138000933Y-86738590D01*
X138000933Y-86738590D02*
X137953314Y-86786209D01*
X137953314Y-86786209D02*
X137858076Y-86833828D01*
X137858076Y-86833828D02*
X137477124Y-86833828D01*
X138381886Y-86310019D02*
X139000933Y-86310019D01*
X139000933Y-86310019D02*
X138667600Y-86690971D01*
X138667600Y-86690971D02*
X138810457Y-86690971D01*
X138810457Y-86690971D02*
X138905695Y-86738590D01*
X138905695Y-86738590D02*
X138953314Y-86786209D01*
X138953314Y-86786209D02*
X139000933Y-86881447D01*
X139000933Y-86881447D02*
X139000933Y-87119542D01*
X139000933Y-87119542D02*
X138953314Y-87214780D01*
X138953314Y-87214780D02*
X138905695Y-87262400D01*
X138905695Y-87262400D02*
X138810457Y-87310019D01*
X138810457Y-87310019D02*
X138524743Y-87310019D01*
X138524743Y-87310019D02*
X138429505Y-87262400D01*
X138429505Y-87262400D02*
X138381886Y-87214780D01*
X139619981Y-86310019D02*
X139715219Y-86310019D01*
X139715219Y-86310019D02*
X139810457Y-86357638D01*
X139810457Y-86357638D02*
X139858076Y-86405257D01*
X139858076Y-86405257D02*
X139905695Y-86500495D01*
X139905695Y-86500495D02*
X139953314Y-86690971D01*
X139953314Y-86690971D02*
X139953314Y-86929066D01*
X139953314Y-86929066D02*
X139905695Y-87119542D01*
X139905695Y-87119542D02*
X139858076Y-87214780D01*
X139858076Y-87214780D02*
X139810457Y-87262400D01*
X139810457Y-87262400D02*
X139715219Y-87310019D01*
X139715219Y-87310019D02*
X139619981Y-87310019D01*
X139619981Y-87310019D02*
X139524743Y-87262400D01*
X139524743Y-87262400D02*
X139477124Y-87214780D01*
X139477124Y-87214780D02*
X139429505Y-87119542D01*
X139429505Y-87119542D02*
X139381886Y-86929066D01*
X139381886Y-86929066D02*
X139381886Y-86690971D01*
X139381886Y-86690971D02*
X139429505Y-86500495D01*
X139429505Y-86500495D02*
X139477124Y-86405257D01*
X139477124Y-86405257D02*
X139524743Y-86357638D01*
X139524743Y-86357638D02*
X139619981Y-86310019D01*
X140905695Y-87310019D02*
X140334267Y-87310019D01*
X140619981Y-87310019D02*
X140619981Y-86310019D01*
X140619981Y-86310019D02*
X140524743Y-86452876D01*
X140524743Y-86452876D02*
X140429505Y-86548114D01*
X140429505Y-86548114D02*
X140334267Y-86595733D01*
X179210419Y-78746057D02*
X178734228Y-79079390D01*
X179210419Y-79317485D02*
X178210419Y-79317485D01*
X178210419Y-79317485D02*
X178210419Y-78936533D01*
X178210419Y-78936533D02*
X178258038Y-78841295D01*
X178258038Y-78841295D02*
X178305657Y-78793676D01*
X178305657Y-78793676D02*
X178400895Y-78746057D01*
X178400895Y-78746057D02*
X178543752Y-78746057D01*
X178543752Y-78746057D02*
X178638990Y-78793676D01*
X178638990Y-78793676D02*
X178686609Y-78841295D01*
X178686609Y-78841295D02*
X178734228Y-78936533D01*
X178734228Y-78936533D02*
X178734228Y-79317485D01*
X179210419Y-77793676D02*
X179210419Y-78365104D01*
X179210419Y-78079390D02*
X178210419Y-78079390D01*
X178210419Y-78079390D02*
X178353276Y-78174628D01*
X178353276Y-78174628D02*
X178448514Y-78269866D01*
X178448514Y-78269866D02*
X178496133Y-78365104D01*
X178210419Y-77460342D02*
X178210419Y-76841295D01*
X178210419Y-76841295D02*
X178591371Y-77174628D01*
X178591371Y-77174628D02*
X178591371Y-77031771D01*
X178591371Y-77031771D02*
X178638990Y-76936533D01*
X178638990Y-76936533D02*
X178686609Y-76888914D01*
X178686609Y-76888914D02*
X178781847Y-76841295D01*
X178781847Y-76841295D02*
X179019942Y-76841295D01*
X179019942Y-76841295D02*
X179115180Y-76888914D01*
X179115180Y-76888914D02*
X179162800Y-76936533D01*
X179162800Y-76936533D02*
X179210419Y-77031771D01*
X179210419Y-77031771D02*
X179210419Y-77317485D01*
X179210419Y-77317485D02*
X179162800Y-77412723D01*
X179162800Y-77412723D02*
X179115180Y-77460342D01*
X173960419Y-138013485D02*
X174769942Y-138013485D01*
X174769942Y-138013485D02*
X174865180Y-137965866D01*
X174865180Y-137965866D02*
X174912800Y-137918247D01*
X174912800Y-137918247D02*
X174960419Y-137823009D01*
X174960419Y-137823009D02*
X174960419Y-137632533D01*
X174960419Y-137632533D02*
X174912800Y-137537295D01*
X174912800Y-137537295D02*
X174865180Y-137489676D01*
X174865180Y-137489676D02*
X174769942Y-137442057D01*
X174769942Y-137442057D02*
X173960419Y-137442057D01*
X174960419Y-136442057D02*
X174960419Y-137013485D01*
X174960419Y-136727771D02*
X173960419Y-136727771D01*
X173960419Y-136727771D02*
X174103276Y-136823009D01*
X174103276Y-136823009D02*
X174198514Y-136918247D01*
X174198514Y-136918247D02*
X174246133Y-137013485D01*
X173960419Y-135823009D02*
X173960419Y-135727771D01*
X173960419Y-135727771D02*
X174008038Y-135632533D01*
X174008038Y-135632533D02*
X174055657Y-135584914D01*
X174055657Y-135584914D02*
X174150895Y-135537295D01*
X174150895Y-135537295D02*
X174341371Y-135489676D01*
X174341371Y-135489676D02*
X174579466Y-135489676D01*
X174579466Y-135489676D02*
X174769942Y-135537295D01*
X174769942Y-135537295D02*
X174865180Y-135584914D01*
X174865180Y-135584914D02*
X174912800Y-135632533D01*
X174912800Y-135632533D02*
X174960419Y-135727771D01*
X174960419Y-135727771D02*
X174960419Y-135823009D01*
X174960419Y-135823009D02*
X174912800Y-135918247D01*
X174912800Y-135918247D02*
X174865180Y-135965866D01*
X174865180Y-135965866D02*
X174769942Y-136013485D01*
X174769942Y-136013485D02*
X174579466Y-136061104D01*
X174579466Y-136061104D02*
X174341371Y-136061104D01*
X174341371Y-136061104D02*
X174150895Y-136013485D01*
X174150895Y-136013485D02*
X174055657Y-135965866D01*
X174055657Y-135965866D02*
X174008038Y-135918247D01*
X174008038Y-135918247D02*
X173960419Y-135823009D01*
X174960419Y-134537295D02*
X174960419Y-135108723D01*
X174960419Y-134823009D02*
X173960419Y-134823009D01*
X173960419Y-134823009D02*
X174103276Y-134918247D01*
X174103276Y-134918247D02*
X174198514Y-135013485D01*
X174198514Y-135013485D02*
X174246133Y-135108723D01*
X134771124Y-97420019D02*
X134771124Y-96420019D01*
X135342552Y-97420019D02*
X134913981Y-96848590D01*
X135342552Y-96420019D02*
X134771124Y-96991447D01*
X136247314Y-96420019D02*
X135771124Y-96420019D01*
X135771124Y-96420019D02*
X135723505Y-96896209D01*
X135723505Y-96896209D02*
X135771124Y-96848590D01*
X135771124Y-96848590D02*
X135866362Y-96800971D01*
X135866362Y-96800971D02*
X136104457Y-96800971D01*
X136104457Y-96800971D02*
X136199695Y-96848590D01*
X136199695Y-96848590D02*
X136247314Y-96896209D01*
X136247314Y-96896209D02*
X136294933Y-96991447D01*
X136294933Y-96991447D02*
X136294933Y-97229542D01*
X136294933Y-97229542D02*
X136247314Y-97324780D01*
X136247314Y-97324780D02*
X136199695Y-97372400D01*
X136199695Y-97372400D02*
X136104457Y-97420019D01*
X136104457Y-97420019D02*
X135866362Y-97420019D01*
X135866362Y-97420019D02*
X135771124Y-97372400D01*
X135771124Y-97372400D02*
X135723505Y-97324780D01*
X136913981Y-96420019D02*
X137009219Y-96420019D01*
X137009219Y-96420019D02*
X137104457Y-96467638D01*
X137104457Y-96467638D02*
X137152076Y-96515257D01*
X137152076Y-96515257D02*
X137199695Y-96610495D01*
X137199695Y-96610495D02*
X137247314Y-96800971D01*
X137247314Y-96800971D02*
X137247314Y-97039066D01*
X137247314Y-97039066D02*
X137199695Y-97229542D01*
X137199695Y-97229542D02*
X137152076Y-97324780D01*
X137152076Y-97324780D02*
X137104457Y-97372400D01*
X137104457Y-97372400D02*
X137009219Y-97420019D01*
X137009219Y-97420019D02*
X136913981Y-97420019D01*
X136913981Y-97420019D02*
X136818743Y-97372400D01*
X136818743Y-97372400D02*
X136771124Y-97324780D01*
X136771124Y-97324780D02*
X136723505Y-97229542D01*
X136723505Y-97229542D02*
X136675886Y-97039066D01*
X136675886Y-97039066D02*
X136675886Y-96800971D01*
X136675886Y-96800971D02*
X136723505Y-96610495D01*
X136723505Y-96610495D02*
X136771124Y-96515257D01*
X136771124Y-96515257D02*
X136818743Y-96467638D01*
X136818743Y-96467638D02*
X136913981Y-96420019D01*
X138104457Y-96753352D02*
X138104457Y-97420019D01*
X137866362Y-96372400D02*
X137628267Y-97086685D01*
X137628267Y-97086685D02*
X138247314Y-97086685D01*
X153701980Y-146168019D02*
X153225790Y-146168019D01*
X153225790Y-146168019D02*
X153178171Y-146644209D01*
X153178171Y-146644209D02*
X153225790Y-146596590D01*
X153225790Y-146596590D02*
X153321028Y-146548971D01*
X153321028Y-146548971D02*
X153559123Y-146548971D01*
X153559123Y-146548971D02*
X153654361Y-146596590D01*
X153654361Y-146596590D02*
X153701980Y-146644209D01*
X153701980Y-146644209D02*
X153749599Y-146739447D01*
X153749599Y-146739447D02*
X153749599Y-146977542D01*
X153749599Y-146977542D02*
X153701980Y-147072780D01*
X153701980Y-147072780D02*
X153654361Y-147120400D01*
X153654361Y-147120400D02*
X153559123Y-147168019D01*
X153559123Y-147168019D02*
X153321028Y-147168019D01*
X153321028Y-147168019D02*
X153225790Y-147120400D01*
X153225790Y-147120400D02*
X153178171Y-147072780D01*
X154035314Y-146168019D02*
X154368647Y-147168019D01*
X154368647Y-147168019D02*
X154701980Y-146168019D01*
X154797219Y-147263257D02*
X155559123Y-147263257D01*
X156321028Y-147168019D02*
X155749600Y-147168019D01*
X156035314Y-147168019D02*
X156035314Y-146168019D01*
X156035314Y-146168019D02*
X155940076Y-146310876D01*
X155940076Y-146310876D02*
X155844838Y-146406114D01*
X155844838Y-146406114D02*
X155749600Y-146453733D01*
X124522419Y-110216342D02*
X125522419Y-109978247D01*
X125522419Y-109978247D02*
X124808133Y-109787771D01*
X124808133Y-109787771D02*
X125522419Y-109597295D01*
X125522419Y-109597295D02*
X124522419Y-109359200D01*
X124522419Y-109073485D02*
X125522419Y-108835390D01*
X125522419Y-108835390D02*
X124808133Y-108644914D01*
X124808133Y-108644914D02*
X125522419Y-108454438D01*
X125522419Y-108454438D02*
X124522419Y-108216343D01*
X125617657Y-108073486D02*
X125617657Y-107311581D01*
X125522419Y-106549676D02*
X125522419Y-107121104D01*
X125522419Y-106835390D02*
X124522419Y-106835390D01*
X124522419Y-106835390D02*
X124665276Y-106930628D01*
X124665276Y-106930628D02*
X124760514Y-107025866D01*
X124760514Y-107025866D02*
X124808133Y-107121104D01*
X134376619Y-124161133D02*
X135090904Y-124161133D01*
X135090904Y-124161133D02*
X135233761Y-124208752D01*
X135233761Y-124208752D02*
X135329000Y-124303990D01*
X135329000Y-124303990D02*
X135376619Y-124446847D01*
X135376619Y-124446847D02*
X135376619Y-124542085D01*
X134376619Y-123208752D02*
X134376619Y-123684942D01*
X134376619Y-123684942D02*
X134852809Y-123732561D01*
X134852809Y-123732561D02*
X134805190Y-123684942D01*
X134805190Y-123684942D02*
X134757571Y-123589704D01*
X134757571Y-123589704D02*
X134757571Y-123351609D01*
X134757571Y-123351609D02*
X134805190Y-123256371D01*
X134805190Y-123256371D02*
X134852809Y-123208752D01*
X134852809Y-123208752D02*
X134948047Y-123161133D01*
X134948047Y-123161133D02*
X135186142Y-123161133D01*
X135186142Y-123161133D02*
X135281380Y-123208752D01*
X135281380Y-123208752D02*
X135329000Y-123256371D01*
X135329000Y-123256371D02*
X135376619Y-123351609D01*
X135376619Y-123351609D02*
X135376619Y-123589704D01*
X135376619Y-123589704D02*
X135329000Y-123684942D01*
X135329000Y-123684942D02*
X135281380Y-123732561D01*
X129804419Y-133449485D02*
X128804419Y-133449485D01*
X129804419Y-132878057D02*
X129232990Y-133306628D01*
X128804419Y-132878057D02*
X129375847Y-133449485D01*
X128804419Y-132544723D02*
X128804419Y-131925676D01*
X128804419Y-131925676D02*
X129185371Y-132259009D01*
X129185371Y-132259009D02*
X129185371Y-132116152D01*
X129185371Y-132116152D02*
X129232990Y-132020914D01*
X129232990Y-132020914D02*
X129280609Y-131973295D01*
X129280609Y-131973295D02*
X129375847Y-131925676D01*
X129375847Y-131925676D02*
X129613942Y-131925676D01*
X129613942Y-131925676D02*
X129709180Y-131973295D01*
X129709180Y-131973295D02*
X129756800Y-132020914D01*
X129756800Y-132020914D02*
X129804419Y-132116152D01*
X129804419Y-132116152D02*
X129804419Y-132401866D01*
X129804419Y-132401866D02*
X129756800Y-132497104D01*
X129756800Y-132497104D02*
X129709180Y-132544723D01*
X128804419Y-131306628D02*
X128804419Y-131211390D01*
X128804419Y-131211390D02*
X128852038Y-131116152D01*
X128852038Y-131116152D02*
X128899657Y-131068533D01*
X128899657Y-131068533D02*
X128994895Y-131020914D01*
X128994895Y-131020914D02*
X129185371Y-130973295D01*
X129185371Y-130973295D02*
X129423466Y-130973295D01*
X129423466Y-130973295D02*
X129613942Y-131020914D01*
X129613942Y-131020914D02*
X129709180Y-131068533D01*
X129709180Y-131068533D02*
X129756800Y-131116152D01*
X129756800Y-131116152D02*
X129804419Y-131211390D01*
X129804419Y-131211390D02*
X129804419Y-131306628D01*
X129804419Y-131306628D02*
X129756800Y-131401866D01*
X129756800Y-131401866D02*
X129709180Y-131449485D01*
X129709180Y-131449485D02*
X129613942Y-131497104D01*
X129613942Y-131497104D02*
X129423466Y-131544723D01*
X129423466Y-131544723D02*
X129185371Y-131544723D01*
X129185371Y-131544723D02*
X128994895Y-131497104D01*
X128994895Y-131497104D02*
X128899657Y-131449485D01*
X128899657Y-131449485D02*
X128852038Y-131401866D01*
X128852038Y-131401866D02*
X128804419Y-131306628D01*
X129804419Y-125321485D02*
X128804419Y-125321485D01*
X129804419Y-124750057D02*
X129232990Y-125178628D01*
X128804419Y-124750057D02*
X129375847Y-125321485D01*
X128804419Y-124416723D02*
X128804419Y-123797676D01*
X128804419Y-123797676D02*
X129185371Y-124131009D01*
X129185371Y-124131009D02*
X129185371Y-123988152D01*
X129185371Y-123988152D02*
X129232990Y-123892914D01*
X129232990Y-123892914D02*
X129280609Y-123845295D01*
X129280609Y-123845295D02*
X129375847Y-123797676D01*
X129375847Y-123797676D02*
X129613942Y-123797676D01*
X129613942Y-123797676D02*
X129709180Y-123845295D01*
X129709180Y-123845295D02*
X129756800Y-123892914D01*
X129756800Y-123892914D02*
X129804419Y-123988152D01*
X129804419Y-123988152D02*
X129804419Y-124273866D01*
X129804419Y-124273866D02*
X129756800Y-124369104D01*
X129756800Y-124369104D02*
X129709180Y-124416723D01*
X129804419Y-122845295D02*
X129804419Y-123416723D01*
X129804419Y-123131009D02*
X128804419Y-123131009D01*
X128804419Y-123131009D02*
X128947276Y-123226247D01*
X128947276Y-123226247D02*
X129042514Y-123321485D01*
X129042514Y-123321485D02*
X129090133Y-123416723D01*
X125474800Y-90952056D02*
X125522419Y-90809199D01*
X125522419Y-90809199D02*
X125522419Y-90571104D01*
X125522419Y-90571104D02*
X125474800Y-90475866D01*
X125474800Y-90475866D02*
X125427180Y-90428247D01*
X125427180Y-90428247D02*
X125331942Y-90380628D01*
X125331942Y-90380628D02*
X125236704Y-90380628D01*
X125236704Y-90380628D02*
X125141466Y-90428247D01*
X125141466Y-90428247D02*
X125093847Y-90475866D01*
X125093847Y-90475866D02*
X125046228Y-90571104D01*
X125046228Y-90571104D02*
X124998609Y-90761580D01*
X124998609Y-90761580D02*
X124950990Y-90856818D01*
X124950990Y-90856818D02*
X124903371Y-90904437D01*
X124903371Y-90904437D02*
X124808133Y-90952056D01*
X124808133Y-90952056D02*
X124712895Y-90952056D01*
X124712895Y-90952056D02*
X124617657Y-90904437D01*
X124617657Y-90904437D02*
X124570038Y-90856818D01*
X124570038Y-90856818D02*
X124522419Y-90761580D01*
X124522419Y-90761580D02*
X124522419Y-90523485D01*
X124522419Y-90523485D02*
X124570038Y-90380628D01*
X125522419Y-89952056D02*
X124522419Y-89952056D01*
X124522419Y-89952056D02*
X124522419Y-89713961D01*
X124522419Y-89713961D02*
X124570038Y-89571104D01*
X124570038Y-89571104D02*
X124665276Y-89475866D01*
X124665276Y-89475866D02*
X124760514Y-89428247D01*
X124760514Y-89428247D02*
X124950990Y-89380628D01*
X124950990Y-89380628D02*
X125093847Y-89380628D01*
X125093847Y-89380628D02*
X125284323Y-89428247D01*
X125284323Y-89428247D02*
X125379561Y-89475866D01*
X125379561Y-89475866D02*
X125474800Y-89571104D01*
X125474800Y-89571104D02*
X125522419Y-89713961D01*
X125522419Y-89713961D02*
X125522419Y-89952056D01*
X125617657Y-89190152D02*
X125617657Y-88428247D01*
X125522419Y-87666342D02*
X125522419Y-88237770D01*
X125522419Y-87952056D02*
X124522419Y-87952056D01*
X124522419Y-87952056D02*
X124665276Y-88047294D01*
X124665276Y-88047294D02*
X124760514Y-88142532D01*
X124760514Y-88142532D02*
X124808133Y-88237770D01*
X151598552Y-121926780D02*
X151550933Y-121974400D01*
X151550933Y-121974400D02*
X151408076Y-122022019D01*
X151408076Y-122022019D02*
X151312838Y-122022019D01*
X151312838Y-122022019D02*
X151169981Y-121974400D01*
X151169981Y-121974400D02*
X151074743Y-121879161D01*
X151074743Y-121879161D02*
X151027124Y-121783923D01*
X151027124Y-121783923D02*
X150979505Y-121593447D01*
X150979505Y-121593447D02*
X150979505Y-121450590D01*
X150979505Y-121450590D02*
X151027124Y-121260114D01*
X151027124Y-121260114D02*
X151074743Y-121164876D01*
X151074743Y-121164876D02*
X151169981Y-121069638D01*
X151169981Y-121069638D02*
X151312838Y-121022019D01*
X151312838Y-121022019D02*
X151408076Y-121022019D01*
X151408076Y-121022019D02*
X151550933Y-121069638D01*
X151550933Y-121069638D02*
X151598552Y-121117257D01*
X152503314Y-121022019D02*
X152027124Y-121022019D01*
X152027124Y-121022019D02*
X151979505Y-121498209D01*
X151979505Y-121498209D02*
X152027124Y-121450590D01*
X152027124Y-121450590D02*
X152122362Y-121402971D01*
X152122362Y-121402971D02*
X152360457Y-121402971D01*
X152360457Y-121402971D02*
X152455695Y-121450590D01*
X152455695Y-121450590D02*
X152503314Y-121498209D01*
X152503314Y-121498209D02*
X152550933Y-121593447D01*
X152550933Y-121593447D02*
X152550933Y-121831542D01*
X152550933Y-121831542D02*
X152503314Y-121926780D01*
X152503314Y-121926780D02*
X152455695Y-121974400D01*
X152455695Y-121974400D02*
X152360457Y-122022019D01*
X152360457Y-122022019D02*
X152122362Y-122022019D01*
X152122362Y-122022019D02*
X152027124Y-121974400D01*
X152027124Y-121974400D02*
X151979505Y-121926780D01*
X153169981Y-121022019D02*
X153265219Y-121022019D01*
X153265219Y-121022019D02*
X153360457Y-121069638D01*
X153360457Y-121069638D02*
X153408076Y-121117257D01*
X153408076Y-121117257D02*
X153455695Y-121212495D01*
X153455695Y-121212495D02*
X153503314Y-121402971D01*
X153503314Y-121402971D02*
X153503314Y-121641066D01*
X153503314Y-121641066D02*
X153455695Y-121831542D01*
X153455695Y-121831542D02*
X153408076Y-121926780D01*
X153408076Y-121926780D02*
X153360457Y-121974400D01*
X153360457Y-121974400D02*
X153265219Y-122022019D01*
X153265219Y-122022019D02*
X153169981Y-122022019D01*
X153169981Y-122022019D02*
X153074743Y-121974400D01*
X153074743Y-121974400D02*
X153027124Y-121926780D01*
X153027124Y-121926780D02*
X152979505Y-121831542D01*
X152979505Y-121831542D02*
X152931886Y-121641066D01*
X152931886Y-121641066D02*
X152931886Y-121402971D01*
X152931886Y-121402971D02*
X152979505Y-121212495D01*
X152979505Y-121212495D02*
X153027124Y-121117257D01*
X153027124Y-121117257D02*
X153074743Y-121069638D01*
X153074743Y-121069638D02*
X153169981Y-121022019D01*
X154455695Y-122022019D02*
X153884267Y-122022019D01*
X154169981Y-122022019D02*
X154169981Y-121022019D01*
X154169981Y-121022019D02*
X154074743Y-121164876D01*
X154074743Y-121164876D02*
X153979505Y-121260114D01*
X153979505Y-121260114D02*
X153884267Y-121307733D01*
X180136038Y-117296628D02*
X180088419Y-117391866D01*
X180088419Y-117391866D02*
X180088419Y-117534723D01*
X180088419Y-117534723D02*
X180136038Y-117677580D01*
X180136038Y-117677580D02*
X180231276Y-117772818D01*
X180231276Y-117772818D02*
X180326514Y-117820437D01*
X180326514Y-117820437D02*
X180516990Y-117868056D01*
X180516990Y-117868056D02*
X180659847Y-117868056D01*
X180659847Y-117868056D02*
X180850323Y-117820437D01*
X180850323Y-117820437D02*
X180945561Y-117772818D01*
X180945561Y-117772818D02*
X181040800Y-117677580D01*
X181040800Y-117677580D02*
X181088419Y-117534723D01*
X181088419Y-117534723D02*
X181088419Y-117439485D01*
X181088419Y-117439485D02*
X181040800Y-117296628D01*
X181040800Y-117296628D02*
X180993180Y-117249009D01*
X180993180Y-117249009D02*
X180659847Y-117249009D01*
X180659847Y-117249009D02*
X180659847Y-117439485D01*
X181088419Y-116820437D02*
X180088419Y-116820437D01*
X180088419Y-116820437D02*
X180088419Y-116439485D01*
X180088419Y-116439485D02*
X180136038Y-116344247D01*
X180136038Y-116344247D02*
X180183657Y-116296628D01*
X180183657Y-116296628D02*
X180278895Y-116249009D01*
X180278895Y-116249009D02*
X180421752Y-116249009D01*
X180421752Y-116249009D02*
X180516990Y-116296628D01*
X180516990Y-116296628D02*
X180564609Y-116344247D01*
X180564609Y-116344247D02*
X180612228Y-116439485D01*
X180612228Y-116439485D02*
X180612228Y-116820437D01*
X181040800Y-115868056D02*
X181088419Y-115725199D01*
X181088419Y-115725199D02*
X181088419Y-115487104D01*
X181088419Y-115487104D02*
X181040800Y-115391866D01*
X181040800Y-115391866D02*
X180993180Y-115344247D01*
X180993180Y-115344247D02*
X180897942Y-115296628D01*
X180897942Y-115296628D02*
X180802704Y-115296628D01*
X180802704Y-115296628D02*
X180707466Y-115344247D01*
X180707466Y-115344247D02*
X180659847Y-115391866D01*
X180659847Y-115391866D02*
X180612228Y-115487104D01*
X180612228Y-115487104D02*
X180564609Y-115677580D01*
X180564609Y-115677580D02*
X180516990Y-115772818D01*
X180516990Y-115772818D02*
X180469371Y-115820437D01*
X180469371Y-115820437D02*
X180374133Y-115868056D01*
X180374133Y-115868056D02*
X180278895Y-115868056D01*
X180278895Y-115868056D02*
X180183657Y-115820437D01*
X180183657Y-115820437D02*
X180136038Y-115772818D01*
X180136038Y-115772818D02*
X180088419Y-115677580D01*
X180088419Y-115677580D02*
X180088419Y-115439485D01*
X180088419Y-115439485D02*
X180136038Y-115296628D01*
X181183657Y-115106152D02*
X181183657Y-114344247D01*
X181088419Y-113582342D02*
X181088419Y-114153770D01*
X181088419Y-113868056D02*
X180088419Y-113868056D01*
X180088419Y-113868056D02*
X180231276Y-113963294D01*
X180231276Y-113963294D02*
X180326514Y-114058532D01*
X180326514Y-114058532D02*
X180374133Y-114153770D01*
X156474419Y-140593294D02*
X155474419Y-140593294D01*
X155474419Y-140593294D02*
X155474419Y-140355199D01*
X155474419Y-140355199D02*
X155522038Y-140212342D01*
X155522038Y-140212342D02*
X155617276Y-140117104D01*
X155617276Y-140117104D02*
X155712514Y-140069485D01*
X155712514Y-140069485D02*
X155902990Y-140021866D01*
X155902990Y-140021866D02*
X156045847Y-140021866D01*
X156045847Y-140021866D02*
X156236323Y-140069485D01*
X156236323Y-140069485D02*
X156331561Y-140117104D01*
X156331561Y-140117104D02*
X156426800Y-140212342D01*
X156426800Y-140212342D02*
X156474419Y-140355199D01*
X156474419Y-140355199D02*
X156474419Y-140593294D01*
X155569657Y-139640913D02*
X155522038Y-139593294D01*
X155522038Y-139593294D02*
X155474419Y-139498056D01*
X155474419Y-139498056D02*
X155474419Y-139259961D01*
X155474419Y-139259961D02*
X155522038Y-139164723D01*
X155522038Y-139164723D02*
X155569657Y-139117104D01*
X155569657Y-139117104D02*
X155664895Y-139069485D01*
X155664895Y-139069485D02*
X155760133Y-139069485D01*
X155760133Y-139069485D02*
X155902990Y-139117104D01*
X155902990Y-139117104D02*
X156474419Y-139688532D01*
X156474419Y-139688532D02*
X156474419Y-139069485D01*
X186410419Y-89689866D02*
X185410419Y-89689866D01*
X185410419Y-89689866D02*
X186124704Y-89356533D01*
X186124704Y-89356533D02*
X185410419Y-89023200D01*
X185410419Y-89023200D02*
X186410419Y-89023200D01*
X185410419Y-88356533D02*
X185410419Y-88166057D01*
X185410419Y-88166057D02*
X185458038Y-88070819D01*
X185458038Y-88070819D02*
X185553276Y-87975581D01*
X185553276Y-87975581D02*
X185743752Y-87927962D01*
X185743752Y-87927962D02*
X186077085Y-87927962D01*
X186077085Y-87927962D02*
X186267561Y-87975581D01*
X186267561Y-87975581D02*
X186362800Y-88070819D01*
X186362800Y-88070819D02*
X186410419Y-88166057D01*
X186410419Y-88166057D02*
X186410419Y-88356533D01*
X186410419Y-88356533D02*
X186362800Y-88451771D01*
X186362800Y-88451771D02*
X186267561Y-88547009D01*
X186267561Y-88547009D02*
X186077085Y-88594628D01*
X186077085Y-88594628D02*
X185743752Y-88594628D01*
X185743752Y-88594628D02*
X185553276Y-88547009D01*
X185553276Y-88547009D02*
X185458038Y-88451771D01*
X185458038Y-88451771D02*
X185410419Y-88356533D01*
X186410419Y-87499390D02*
X185410419Y-87499390D01*
X185410419Y-87499390D02*
X185410419Y-87261295D01*
X185410419Y-87261295D02*
X185458038Y-87118438D01*
X185458038Y-87118438D02*
X185553276Y-87023200D01*
X185553276Y-87023200D02*
X185648514Y-86975581D01*
X185648514Y-86975581D02*
X185838990Y-86927962D01*
X185838990Y-86927962D02*
X185981847Y-86927962D01*
X185981847Y-86927962D02*
X186172323Y-86975581D01*
X186172323Y-86975581D02*
X186267561Y-87023200D01*
X186267561Y-87023200D02*
X186362800Y-87118438D01*
X186362800Y-87118438D02*
X186410419Y-87261295D01*
X186410419Y-87261295D02*
X186410419Y-87499390D01*
X185886609Y-86499390D02*
X185886609Y-86166057D01*
X186410419Y-86023200D02*
X186410419Y-86499390D01*
X186410419Y-86499390D02*
X185410419Y-86499390D01*
X185410419Y-86499390D02*
X185410419Y-86023200D01*
X186505657Y-85832724D02*
X186505657Y-85070819D01*
X186410419Y-84308914D02*
X186410419Y-84880342D01*
X186410419Y-84594628D02*
X185410419Y-84594628D01*
X185410419Y-84594628D02*
X185553276Y-84689866D01*
X185553276Y-84689866D02*
X185648514Y-84785104D01*
X185648514Y-84785104D02*
X185696133Y-84880342D01*
X168362552Y-131928019D02*
X168029219Y-131451828D01*
X167791124Y-131928019D02*
X167791124Y-130928019D01*
X167791124Y-130928019D02*
X168172076Y-130928019D01*
X168172076Y-130928019D02*
X168267314Y-130975638D01*
X168267314Y-130975638D02*
X168314933Y-131023257D01*
X168314933Y-131023257D02*
X168362552Y-131118495D01*
X168362552Y-131118495D02*
X168362552Y-131261352D01*
X168362552Y-131261352D02*
X168314933Y-131356590D01*
X168314933Y-131356590D02*
X168267314Y-131404209D01*
X168267314Y-131404209D02*
X168172076Y-131451828D01*
X168172076Y-131451828D02*
X167791124Y-131451828D01*
X169314933Y-131928019D02*
X168743505Y-131928019D01*
X169029219Y-131928019D02*
X169029219Y-130928019D01*
X169029219Y-130928019D02*
X168933981Y-131070876D01*
X168933981Y-131070876D02*
X168838743Y-131166114D01*
X168838743Y-131166114D02*
X168743505Y-131213733D01*
X169933981Y-130928019D02*
X170029219Y-130928019D01*
X170029219Y-130928019D02*
X170124457Y-130975638D01*
X170124457Y-130975638D02*
X170172076Y-131023257D01*
X170172076Y-131023257D02*
X170219695Y-131118495D01*
X170219695Y-131118495D02*
X170267314Y-131308971D01*
X170267314Y-131308971D02*
X170267314Y-131547066D01*
X170267314Y-131547066D02*
X170219695Y-131737542D01*
X170219695Y-131737542D02*
X170172076Y-131832780D01*
X170172076Y-131832780D02*
X170124457Y-131880400D01*
X170124457Y-131880400D02*
X170029219Y-131928019D01*
X170029219Y-131928019D02*
X169933981Y-131928019D01*
X169933981Y-131928019D02*
X169838743Y-131880400D01*
X169838743Y-131880400D02*
X169791124Y-131832780D01*
X169791124Y-131832780D02*
X169743505Y-131737542D01*
X169743505Y-131737542D02*
X169695886Y-131547066D01*
X169695886Y-131547066D02*
X169695886Y-131308971D01*
X169695886Y-131308971D02*
X169743505Y-131118495D01*
X169743505Y-131118495D02*
X169791124Y-131023257D01*
X169791124Y-131023257D02*
X169838743Y-130975638D01*
X169838743Y-130975638D02*
X169933981Y-130928019D01*
X171219695Y-131928019D02*
X170648267Y-131928019D01*
X170933981Y-131928019D02*
X170933981Y-130928019D01*
X170933981Y-130928019D02*
X170838743Y-131070876D01*
X170838743Y-131070876D02*
X170743505Y-131166114D01*
X170743505Y-131166114D02*
X170648267Y-131213733D01*
X149612933Y-133960019D02*
X149279600Y-133483828D01*
X149041505Y-133960019D02*
X149041505Y-132960019D01*
X149041505Y-132960019D02*
X149422457Y-132960019D01*
X149422457Y-132960019D02*
X149517695Y-133007638D01*
X149517695Y-133007638D02*
X149565314Y-133055257D01*
X149565314Y-133055257D02*
X149612933Y-133150495D01*
X149612933Y-133150495D02*
X149612933Y-133293352D01*
X149612933Y-133293352D02*
X149565314Y-133388590D01*
X149565314Y-133388590D02*
X149517695Y-133436209D01*
X149517695Y-133436209D02*
X149422457Y-133483828D01*
X149422457Y-133483828D02*
X149041505Y-133483828D01*
X149993886Y-133055257D02*
X150041505Y-133007638D01*
X150041505Y-133007638D02*
X150136743Y-132960019D01*
X150136743Y-132960019D02*
X150374838Y-132960019D01*
X150374838Y-132960019D02*
X150470076Y-133007638D01*
X150470076Y-133007638D02*
X150517695Y-133055257D01*
X150517695Y-133055257D02*
X150565314Y-133150495D01*
X150565314Y-133150495D02*
X150565314Y-133245733D01*
X150565314Y-133245733D02*
X150517695Y-133388590D01*
X150517695Y-133388590D02*
X149946267Y-133960019D01*
X149946267Y-133960019D02*
X150565314Y-133960019D01*
X171259695Y-78728019D02*
X171259695Y-79537542D01*
X171259695Y-79537542D02*
X171307314Y-79632780D01*
X171307314Y-79632780D02*
X171354933Y-79680400D01*
X171354933Y-79680400D02*
X171450171Y-79728019D01*
X171450171Y-79728019D02*
X171640647Y-79728019D01*
X171640647Y-79728019D02*
X171735885Y-79680400D01*
X171735885Y-79680400D02*
X171783504Y-79632780D01*
X171783504Y-79632780D02*
X171831123Y-79537542D01*
X171831123Y-79537542D02*
X171831123Y-78728019D01*
X172735885Y-79061352D02*
X172735885Y-79728019D01*
X172497790Y-78680400D02*
X172259695Y-79394685D01*
X172259695Y-79394685D02*
X172878742Y-79394685D01*
X186315180Y-135790914D02*
X186362800Y-135838533D01*
X186362800Y-135838533D02*
X186410419Y-135981390D01*
X186410419Y-135981390D02*
X186410419Y-136076628D01*
X186410419Y-136076628D02*
X186362800Y-136219485D01*
X186362800Y-136219485D02*
X186267561Y-136314723D01*
X186267561Y-136314723D02*
X186172323Y-136362342D01*
X186172323Y-136362342D02*
X185981847Y-136409961D01*
X185981847Y-136409961D02*
X185838990Y-136409961D01*
X185838990Y-136409961D02*
X185648514Y-136362342D01*
X185648514Y-136362342D02*
X185553276Y-136314723D01*
X185553276Y-136314723D02*
X185458038Y-136219485D01*
X185458038Y-136219485D02*
X185410419Y-136076628D01*
X185410419Y-136076628D02*
X185410419Y-135981390D01*
X185410419Y-135981390D02*
X185458038Y-135838533D01*
X185458038Y-135838533D02*
X185505657Y-135790914D01*
X186124704Y-135409961D02*
X186124704Y-134933771D01*
X186410419Y-135505199D02*
X185410419Y-135171866D01*
X185410419Y-135171866D02*
X186410419Y-134838533D01*
X186410419Y-134505199D02*
X185410419Y-134505199D01*
X185410419Y-134505199D02*
X186410419Y-133933771D01*
X186410419Y-133933771D02*
X185410419Y-133933771D01*
X186505657Y-133695676D02*
X186505657Y-132933771D01*
X186410419Y-132219485D02*
X186410419Y-132695675D01*
X186410419Y-132695675D02*
X185410419Y-132695675D01*
X186505657Y-132124247D02*
X186505657Y-131362342D01*
X186410419Y-130600437D02*
X186410419Y-131171865D01*
X186410419Y-130886151D02*
X185410419Y-130886151D01*
X185410419Y-130886151D02*
X185553276Y-130981389D01*
X185553276Y-130981389D02*
X185648514Y-131076627D01*
X185648514Y-131076627D02*
X185696133Y-131171865D01*
X143573695Y-78772019D02*
X143573695Y-79581542D01*
X143573695Y-79581542D02*
X143621314Y-79676780D01*
X143621314Y-79676780D02*
X143668933Y-79724400D01*
X143668933Y-79724400D02*
X143764171Y-79772019D01*
X143764171Y-79772019D02*
X143954647Y-79772019D01*
X143954647Y-79772019D02*
X144049885Y-79724400D01*
X144049885Y-79724400D02*
X144097504Y-79676780D01*
X144097504Y-79676780D02*
X144145123Y-79581542D01*
X144145123Y-79581542D02*
X144145123Y-78772019D01*
X144573695Y-78867257D02*
X144621314Y-78819638D01*
X144621314Y-78819638D02*
X144716552Y-78772019D01*
X144716552Y-78772019D02*
X144954647Y-78772019D01*
X144954647Y-78772019D02*
X145049885Y-78819638D01*
X145049885Y-78819638D02*
X145097504Y-78867257D01*
X145097504Y-78867257D02*
X145145123Y-78962495D01*
X145145123Y-78962495D02*
X145145123Y-79057733D01*
X145145123Y-79057733D02*
X145097504Y-79200590D01*
X145097504Y-79200590D02*
X144526076Y-79772019D01*
X144526076Y-79772019D02*
X145145123Y-79772019D01*
X130707124Y-104786019D02*
X130707124Y-103786019D01*
X131278552Y-104786019D02*
X130849981Y-104214590D01*
X131278552Y-103786019D02*
X130707124Y-104357447D01*
X132183314Y-103786019D02*
X131707124Y-103786019D01*
X131707124Y-103786019D02*
X131659505Y-104262209D01*
X131659505Y-104262209D02*
X131707124Y-104214590D01*
X131707124Y-104214590D02*
X131802362Y-104166971D01*
X131802362Y-104166971D02*
X132040457Y-104166971D01*
X132040457Y-104166971D02*
X132135695Y-104214590D01*
X132135695Y-104214590D02*
X132183314Y-104262209D01*
X132183314Y-104262209D02*
X132230933Y-104357447D01*
X132230933Y-104357447D02*
X132230933Y-104595542D01*
X132230933Y-104595542D02*
X132183314Y-104690780D01*
X132183314Y-104690780D02*
X132135695Y-104738400D01*
X132135695Y-104738400D02*
X132040457Y-104786019D01*
X132040457Y-104786019D02*
X131802362Y-104786019D01*
X131802362Y-104786019D02*
X131707124Y-104738400D01*
X131707124Y-104738400D02*
X131659505Y-104690780D01*
X132849981Y-103786019D02*
X132945219Y-103786019D01*
X132945219Y-103786019D02*
X133040457Y-103833638D01*
X133040457Y-103833638D02*
X133088076Y-103881257D01*
X133088076Y-103881257D02*
X133135695Y-103976495D01*
X133135695Y-103976495D02*
X133183314Y-104166971D01*
X133183314Y-104166971D02*
X133183314Y-104405066D01*
X133183314Y-104405066D02*
X133135695Y-104595542D01*
X133135695Y-104595542D02*
X133088076Y-104690780D01*
X133088076Y-104690780D02*
X133040457Y-104738400D01*
X133040457Y-104738400D02*
X132945219Y-104786019D01*
X132945219Y-104786019D02*
X132849981Y-104786019D01*
X132849981Y-104786019D02*
X132754743Y-104738400D01*
X132754743Y-104738400D02*
X132707124Y-104690780D01*
X132707124Y-104690780D02*
X132659505Y-104595542D01*
X132659505Y-104595542D02*
X132611886Y-104405066D01*
X132611886Y-104405066D02*
X132611886Y-104166971D01*
X132611886Y-104166971D02*
X132659505Y-103976495D01*
X132659505Y-103976495D02*
X132707124Y-103881257D01*
X132707124Y-103881257D02*
X132754743Y-103833638D01*
X132754743Y-103833638D02*
X132849981Y-103786019D01*
X133564267Y-103881257D02*
X133611886Y-103833638D01*
X133611886Y-103833638D02*
X133707124Y-103786019D01*
X133707124Y-103786019D02*
X133945219Y-103786019D01*
X133945219Y-103786019D02*
X134040457Y-103833638D01*
X134040457Y-103833638D02*
X134088076Y-103881257D01*
X134088076Y-103881257D02*
X134135695Y-103976495D01*
X134135695Y-103976495D02*
X134135695Y-104071733D01*
X134135695Y-104071733D02*
X134088076Y-104214590D01*
X134088076Y-104214590D02*
X133516648Y-104786019D01*
X133516648Y-104786019D02*
X134135695Y-104786019D01*
X124486419Y-94317580D02*
X124486419Y-94127104D01*
X124486419Y-94127104D02*
X124534038Y-94031866D01*
X124534038Y-94031866D02*
X124629276Y-93936628D01*
X124629276Y-93936628D02*
X124819752Y-93889009D01*
X124819752Y-93889009D02*
X125153085Y-93889009D01*
X125153085Y-93889009D02*
X125343561Y-93936628D01*
X125343561Y-93936628D02*
X125438800Y-94031866D01*
X125438800Y-94031866D02*
X125486419Y-94127104D01*
X125486419Y-94127104D02*
X125486419Y-94317580D01*
X125486419Y-94317580D02*
X125438800Y-94412818D01*
X125438800Y-94412818D02*
X125343561Y-94508056D01*
X125343561Y-94508056D02*
X125153085Y-94555675D01*
X125153085Y-94555675D02*
X124819752Y-94555675D01*
X124819752Y-94555675D02*
X124629276Y-94508056D01*
X124629276Y-94508056D02*
X124534038Y-94412818D01*
X124534038Y-94412818D02*
X124486419Y-94317580D01*
X125486419Y-93460437D02*
X124486419Y-93460437D01*
X124486419Y-93460437D02*
X124486419Y-93079485D01*
X124486419Y-93079485D02*
X124534038Y-92984247D01*
X124534038Y-92984247D02*
X124581657Y-92936628D01*
X124581657Y-92936628D02*
X124676895Y-92889009D01*
X124676895Y-92889009D02*
X124819752Y-92889009D01*
X124819752Y-92889009D02*
X124914990Y-92936628D01*
X124914990Y-92936628D02*
X124962609Y-92984247D01*
X124962609Y-92984247D02*
X125010228Y-93079485D01*
X125010228Y-93079485D02*
X125010228Y-93460437D01*
X125581657Y-92698533D02*
X125581657Y-91936628D01*
X125486419Y-91174723D02*
X125486419Y-91746151D01*
X125486419Y-91460437D02*
X124486419Y-91460437D01*
X124486419Y-91460437D02*
X124629276Y-91555675D01*
X124629276Y-91555675D02*
X124724514Y-91650913D01*
X124724514Y-91650913D02*
X124772133Y-91746151D01*
X161083981Y-147120400D02*
X161226838Y-147168019D01*
X161226838Y-147168019D02*
X161464933Y-147168019D01*
X161464933Y-147168019D02*
X161560171Y-147120400D01*
X161560171Y-147120400D02*
X161607790Y-147072780D01*
X161607790Y-147072780D02*
X161655409Y-146977542D01*
X161655409Y-146977542D02*
X161655409Y-146882304D01*
X161655409Y-146882304D02*
X161607790Y-146787066D01*
X161607790Y-146787066D02*
X161560171Y-146739447D01*
X161560171Y-146739447D02*
X161464933Y-146691828D01*
X161464933Y-146691828D02*
X161274457Y-146644209D01*
X161274457Y-146644209D02*
X161179219Y-146596590D01*
X161179219Y-146596590D02*
X161131600Y-146548971D01*
X161131600Y-146548971D02*
X161083981Y-146453733D01*
X161083981Y-146453733D02*
X161083981Y-146358495D01*
X161083981Y-146358495D02*
X161131600Y-146263257D01*
X161131600Y-146263257D02*
X161179219Y-146215638D01*
X161179219Y-146215638D02*
X161274457Y-146168019D01*
X161274457Y-146168019D02*
X161512552Y-146168019D01*
X161512552Y-146168019D02*
X161655409Y-146215638D01*
X162560171Y-147168019D02*
X162083981Y-147168019D01*
X162083981Y-147168019D02*
X162083981Y-146168019D01*
X162893505Y-147168019D02*
X162893505Y-146168019D01*
X163464933Y-147168019D02*
X163036362Y-146596590D01*
X163464933Y-146168019D02*
X162893505Y-146739447D01*
X163655410Y-147263257D02*
X164417314Y-147263257D01*
X165179219Y-147168019D02*
X164607791Y-147168019D01*
X164893505Y-147168019D02*
X164893505Y-146168019D01*
X164893505Y-146168019D02*
X164798267Y-146310876D01*
X164798267Y-146310876D02*
X164703029Y-146406114D01*
X164703029Y-146406114D02*
X164607791Y-146453733D01*
X132429695Y-119974209D02*
X132572552Y-120021828D01*
X132572552Y-120021828D02*
X132620171Y-120069447D01*
X132620171Y-120069447D02*
X132667790Y-120164685D01*
X132667790Y-120164685D02*
X132667790Y-120307542D01*
X132667790Y-120307542D02*
X132620171Y-120402780D01*
X132620171Y-120402780D02*
X132572552Y-120450400D01*
X132572552Y-120450400D02*
X132477314Y-120498019D01*
X132477314Y-120498019D02*
X132096362Y-120498019D01*
X132096362Y-120498019D02*
X132096362Y-119498019D01*
X132096362Y-119498019D02*
X132429695Y-119498019D01*
X132429695Y-119498019D02*
X132524933Y-119545638D01*
X132524933Y-119545638D02*
X132572552Y-119593257D01*
X132572552Y-119593257D02*
X132620171Y-119688495D01*
X132620171Y-119688495D02*
X132620171Y-119783733D01*
X132620171Y-119783733D02*
X132572552Y-119878971D01*
X132572552Y-119878971D02*
X132524933Y-119926590D01*
X132524933Y-119926590D02*
X132429695Y-119974209D01*
X132429695Y-119974209D02*
X132096362Y-119974209D01*
X133096362Y-120498019D02*
X133096362Y-119498019D01*
X133096362Y-119498019D02*
X133429695Y-120212304D01*
X133429695Y-120212304D02*
X133763028Y-119498019D01*
X133763028Y-119498019D02*
X133763028Y-120498019D01*
X134239219Y-119974209D02*
X134572552Y-119974209D01*
X134715409Y-120498019D02*
X134239219Y-120498019D01*
X134239219Y-120498019D02*
X134239219Y-119498019D01*
X134239219Y-119498019D02*
X134715409Y-119498019D01*
X134905886Y-120593257D02*
X135667790Y-120593257D01*
X135858267Y-119593257D02*
X135905886Y-119545638D01*
X135905886Y-119545638D02*
X136001124Y-119498019D01*
X136001124Y-119498019D02*
X136239219Y-119498019D01*
X136239219Y-119498019D02*
X136334457Y-119545638D01*
X136334457Y-119545638D02*
X136382076Y-119593257D01*
X136382076Y-119593257D02*
X136429695Y-119688495D01*
X136429695Y-119688495D02*
X136429695Y-119783733D01*
X136429695Y-119783733D02*
X136382076Y-119926590D01*
X136382076Y-119926590D02*
X135810648Y-120498019D01*
X135810648Y-120498019D02*
X136429695Y-120498019D01*
X137001124Y-119926590D02*
X136905886Y-119878971D01*
X136905886Y-119878971D02*
X136858267Y-119831352D01*
X136858267Y-119831352D02*
X136810648Y-119736114D01*
X136810648Y-119736114D02*
X136810648Y-119688495D01*
X136810648Y-119688495D02*
X136858267Y-119593257D01*
X136858267Y-119593257D02*
X136905886Y-119545638D01*
X136905886Y-119545638D02*
X137001124Y-119498019D01*
X137001124Y-119498019D02*
X137191600Y-119498019D01*
X137191600Y-119498019D02*
X137286838Y-119545638D01*
X137286838Y-119545638D02*
X137334457Y-119593257D01*
X137334457Y-119593257D02*
X137382076Y-119688495D01*
X137382076Y-119688495D02*
X137382076Y-119736114D01*
X137382076Y-119736114D02*
X137334457Y-119831352D01*
X137334457Y-119831352D02*
X137286838Y-119878971D01*
X137286838Y-119878971D02*
X137191600Y-119926590D01*
X137191600Y-119926590D02*
X137001124Y-119926590D01*
X137001124Y-119926590D02*
X136905886Y-119974209D01*
X136905886Y-119974209D02*
X136858267Y-120021828D01*
X136858267Y-120021828D02*
X136810648Y-120117066D01*
X136810648Y-120117066D02*
X136810648Y-120307542D01*
X136810648Y-120307542D02*
X136858267Y-120402780D01*
X136858267Y-120402780D02*
X136905886Y-120450400D01*
X136905886Y-120450400D02*
X137001124Y-120498019D01*
X137001124Y-120498019D02*
X137191600Y-120498019D01*
X137191600Y-120498019D02*
X137286838Y-120450400D01*
X137286838Y-120450400D02*
X137334457Y-120402780D01*
X137334457Y-120402780D02*
X137382076Y-120307542D01*
X137382076Y-120307542D02*
X137382076Y-120117066D01*
X137382076Y-120117066D02*
X137334457Y-120021828D01*
X137334457Y-120021828D02*
X137286838Y-119974209D01*
X137286838Y-119974209D02*
X137191600Y-119926590D01*
X138001124Y-119498019D02*
X138096362Y-119498019D01*
X138096362Y-119498019D02*
X138191600Y-119545638D01*
X138191600Y-119545638D02*
X138239219Y-119593257D01*
X138239219Y-119593257D02*
X138286838Y-119688495D01*
X138286838Y-119688495D02*
X138334457Y-119878971D01*
X138334457Y-119878971D02*
X138334457Y-120117066D01*
X138334457Y-120117066D02*
X138286838Y-120307542D01*
X138286838Y-120307542D02*
X138239219Y-120402780D01*
X138239219Y-120402780D02*
X138191600Y-120450400D01*
X138191600Y-120450400D02*
X138096362Y-120498019D01*
X138096362Y-120498019D02*
X138001124Y-120498019D01*
X138001124Y-120498019D02*
X137905886Y-120450400D01*
X137905886Y-120450400D02*
X137858267Y-120402780D01*
X137858267Y-120402780D02*
X137810648Y-120307542D01*
X137810648Y-120307542D02*
X137763029Y-120117066D01*
X137763029Y-120117066D02*
X137763029Y-119878971D01*
X137763029Y-119878971D02*
X137810648Y-119688495D01*
X137810648Y-119688495D02*
X137858267Y-119593257D01*
X137858267Y-119593257D02*
X137905886Y-119545638D01*
X137905886Y-119545638D02*
X138001124Y-119498019D01*
X149612933Y-138532019D02*
X149279600Y-138055828D01*
X149041505Y-138532019D02*
X149041505Y-137532019D01*
X149041505Y-137532019D02*
X149422457Y-137532019D01*
X149422457Y-137532019D02*
X149517695Y-137579638D01*
X149517695Y-137579638D02*
X149565314Y-137627257D01*
X149565314Y-137627257D02*
X149612933Y-137722495D01*
X149612933Y-137722495D02*
X149612933Y-137865352D01*
X149612933Y-137865352D02*
X149565314Y-137960590D01*
X149565314Y-137960590D02*
X149517695Y-138008209D01*
X149517695Y-138008209D02*
X149422457Y-138055828D01*
X149422457Y-138055828D02*
X149041505Y-138055828D01*
X150470076Y-137865352D02*
X150470076Y-138532019D01*
X150231981Y-137484400D02*
X149993886Y-138198685D01*
X149993886Y-138198685D02*
X150612933Y-138198685D01*
X129804419Y-129385485D02*
X128804419Y-129385485D01*
X129804419Y-128814057D02*
X129232990Y-129242628D01*
X128804419Y-128814057D02*
X129375847Y-129385485D01*
X129804419Y-127861676D02*
X129804419Y-128433104D01*
X129804419Y-128147390D02*
X128804419Y-128147390D01*
X128804419Y-128147390D02*
X128947276Y-128242628D01*
X128947276Y-128242628D02*
X129042514Y-128337866D01*
X129042514Y-128337866D02*
X129090133Y-128433104D01*
X128804419Y-126956914D02*
X128804419Y-127433104D01*
X128804419Y-127433104D02*
X129280609Y-127480723D01*
X129280609Y-127480723D02*
X129232990Y-127433104D01*
X129232990Y-127433104D02*
X129185371Y-127337866D01*
X129185371Y-127337866D02*
X129185371Y-127099771D01*
X129185371Y-127099771D02*
X129232990Y-127004533D01*
X129232990Y-127004533D02*
X129280609Y-126956914D01*
X129280609Y-126956914D02*
X129375847Y-126909295D01*
X129375847Y-126909295D02*
X129613942Y-126909295D01*
X129613942Y-126909295D02*
X129709180Y-126956914D01*
X129709180Y-126956914D02*
X129756800Y-127004533D01*
X129756800Y-127004533D02*
X129804419Y-127099771D01*
X129804419Y-127099771D02*
X129804419Y-127337866D01*
X129804419Y-127337866D02*
X129756800Y-127433104D01*
X129756800Y-127433104D02*
X129709180Y-127480723D01*
X186351180Y-129559962D02*
X186398800Y-129607581D01*
X186398800Y-129607581D02*
X186446419Y-129750438D01*
X186446419Y-129750438D02*
X186446419Y-129845676D01*
X186446419Y-129845676D02*
X186398800Y-129988533D01*
X186398800Y-129988533D02*
X186303561Y-130083771D01*
X186303561Y-130083771D02*
X186208323Y-130131390D01*
X186208323Y-130131390D02*
X186017847Y-130179009D01*
X186017847Y-130179009D02*
X185874990Y-130179009D01*
X185874990Y-130179009D02*
X185684514Y-130131390D01*
X185684514Y-130131390D02*
X185589276Y-130083771D01*
X185589276Y-130083771D02*
X185494038Y-129988533D01*
X185494038Y-129988533D02*
X185446419Y-129845676D01*
X185446419Y-129845676D02*
X185446419Y-129750438D01*
X185446419Y-129750438D02*
X185494038Y-129607581D01*
X185494038Y-129607581D02*
X185541657Y-129559962D01*
X186160704Y-129179009D02*
X186160704Y-128702819D01*
X186446419Y-129274247D02*
X185446419Y-128940914D01*
X185446419Y-128940914D02*
X186446419Y-128607581D01*
X186446419Y-128274247D02*
X185446419Y-128274247D01*
X185446419Y-128274247D02*
X186446419Y-127702819D01*
X186446419Y-127702819D02*
X185446419Y-127702819D01*
X186541657Y-127464724D02*
X186541657Y-126702819D01*
X186446419Y-126464723D02*
X185446419Y-126464723D01*
X185922609Y-126464723D02*
X185922609Y-125893295D01*
X186446419Y-125893295D02*
X185446419Y-125893295D01*
X186541657Y-125655200D02*
X186541657Y-124893295D01*
X186446419Y-124131390D02*
X186446419Y-124702818D01*
X186446419Y-124417104D02*
X185446419Y-124417104D01*
X185446419Y-124417104D02*
X185589276Y-124512342D01*
X185589276Y-124512342D02*
X185684514Y-124607580D01*
X185684514Y-124607580D02*
X185732133Y-124702818D01*
X149612933Y-135484019D02*
X149279600Y-135007828D01*
X149041505Y-135484019D02*
X149041505Y-134484019D01*
X149041505Y-134484019D02*
X149422457Y-134484019D01*
X149422457Y-134484019D02*
X149517695Y-134531638D01*
X149517695Y-134531638D02*
X149565314Y-134579257D01*
X149565314Y-134579257D02*
X149612933Y-134674495D01*
X149612933Y-134674495D02*
X149612933Y-134817352D01*
X149612933Y-134817352D02*
X149565314Y-134912590D01*
X149565314Y-134912590D02*
X149517695Y-134960209D01*
X149517695Y-134960209D02*
X149422457Y-135007828D01*
X149422457Y-135007828D02*
X149041505Y-135007828D01*
X150470076Y-134484019D02*
X150279600Y-134484019D01*
X150279600Y-134484019D02*
X150184362Y-134531638D01*
X150184362Y-134531638D02*
X150136743Y-134579257D01*
X150136743Y-134579257D02*
X150041505Y-134722114D01*
X150041505Y-134722114D02*
X149993886Y-134912590D01*
X149993886Y-134912590D02*
X149993886Y-135293542D01*
X149993886Y-135293542D02*
X150041505Y-135388780D01*
X150041505Y-135388780D02*
X150089124Y-135436400D01*
X150089124Y-135436400D02*
X150184362Y-135484019D01*
X150184362Y-135484019D02*
X150374838Y-135484019D01*
X150374838Y-135484019D02*
X150470076Y-135436400D01*
X150470076Y-135436400D02*
X150517695Y-135388780D01*
X150517695Y-135388780D02*
X150565314Y-135293542D01*
X150565314Y-135293542D02*
X150565314Y-135055447D01*
X150565314Y-135055447D02*
X150517695Y-134960209D01*
X150517695Y-134960209D02*
X150470076Y-134912590D01*
X150470076Y-134912590D02*
X150374838Y-134864971D01*
X150374838Y-134864971D02*
X150184362Y-134864971D01*
X150184362Y-134864971D02*
X150089124Y-134912590D01*
X150089124Y-134912590D02*
X150041505Y-134960209D01*
X150041505Y-134960209D02*
X149993886Y-135055447D01*
X159298419Y-108240057D02*
X158822228Y-108573390D01*
X159298419Y-108811485D02*
X158298419Y-108811485D01*
X158298419Y-108811485D02*
X158298419Y-108430533D01*
X158298419Y-108430533D02*
X158346038Y-108335295D01*
X158346038Y-108335295D02*
X158393657Y-108287676D01*
X158393657Y-108287676D02*
X158488895Y-108240057D01*
X158488895Y-108240057D02*
X158631752Y-108240057D01*
X158631752Y-108240057D02*
X158726990Y-108287676D01*
X158726990Y-108287676D02*
X158774609Y-108335295D01*
X158774609Y-108335295D02*
X158822228Y-108430533D01*
X158822228Y-108430533D02*
X158822228Y-108811485D01*
X159298419Y-107287676D02*
X159298419Y-107859104D01*
X159298419Y-107573390D02*
X158298419Y-107573390D01*
X158298419Y-107573390D02*
X158441276Y-107668628D01*
X158441276Y-107668628D02*
X158536514Y-107763866D01*
X158536514Y-107763866D02*
X158584133Y-107859104D01*
X158393657Y-106906723D02*
X158346038Y-106859104D01*
X158346038Y-106859104D02*
X158298419Y-106763866D01*
X158298419Y-106763866D02*
X158298419Y-106525771D01*
X158298419Y-106525771D02*
X158346038Y-106430533D01*
X158346038Y-106430533D02*
X158393657Y-106382914D01*
X158393657Y-106382914D02*
X158488895Y-106335295D01*
X158488895Y-106335295D02*
X158584133Y-106335295D01*
X158584133Y-106335295D02*
X158726990Y-106382914D01*
X158726990Y-106382914D02*
X159298419Y-106954342D01*
X159298419Y-106954342D02*
X159298419Y-106335295D01*
X125522419Y-86546819D02*
X125046228Y-86880152D01*
X125522419Y-87118247D02*
X124522419Y-87118247D01*
X124522419Y-87118247D02*
X124522419Y-86737295D01*
X124522419Y-86737295D02*
X124570038Y-86642057D01*
X124570038Y-86642057D02*
X124617657Y-86594438D01*
X124617657Y-86594438D02*
X124712895Y-86546819D01*
X124712895Y-86546819D02*
X124855752Y-86546819D01*
X124855752Y-86546819D02*
X124950990Y-86594438D01*
X124950990Y-86594438D02*
X124998609Y-86642057D01*
X124998609Y-86642057D02*
X125046228Y-86737295D01*
X125046228Y-86737295D02*
X125046228Y-87118247D01*
X125522419Y-86118247D02*
X124522419Y-86118247D01*
X124522419Y-86118247D02*
X124522419Y-85880152D01*
X124522419Y-85880152D02*
X124570038Y-85737295D01*
X124570038Y-85737295D02*
X124665276Y-85642057D01*
X124665276Y-85642057D02*
X124760514Y-85594438D01*
X124760514Y-85594438D02*
X124950990Y-85546819D01*
X124950990Y-85546819D02*
X125093847Y-85546819D01*
X125093847Y-85546819D02*
X125284323Y-85594438D01*
X125284323Y-85594438D02*
X125379561Y-85642057D01*
X125379561Y-85642057D02*
X125474800Y-85737295D01*
X125474800Y-85737295D02*
X125522419Y-85880152D01*
X125522419Y-85880152D02*
X125522419Y-86118247D01*
X125617657Y-85356343D02*
X125617657Y-84594438D01*
X125522419Y-83832533D02*
X125522419Y-84403961D01*
X125522419Y-84118247D02*
X124522419Y-84118247D01*
X124522419Y-84118247D02*
X124665276Y-84213485D01*
X124665276Y-84213485D02*
X124760514Y-84308723D01*
X124760514Y-84308723D02*
X124808133Y-84403961D01*
X168983695Y-105987019D02*
X168983695Y-106796542D01*
X168983695Y-106796542D02*
X169031314Y-106891780D01*
X169031314Y-106891780D02*
X169078933Y-106939400D01*
X169078933Y-106939400D02*
X169174171Y-106987019D01*
X169174171Y-106987019D02*
X169364647Y-106987019D01*
X169364647Y-106987019D02*
X169459885Y-106939400D01*
X169459885Y-106939400D02*
X169507504Y-106891780D01*
X169507504Y-106891780D02*
X169555123Y-106796542D01*
X169555123Y-106796542D02*
X169555123Y-105987019D01*
X169936076Y-105987019D02*
X170555123Y-105987019D01*
X170555123Y-105987019D02*
X170221790Y-106367971D01*
X170221790Y-106367971D02*
X170364647Y-106367971D01*
X170364647Y-106367971D02*
X170459885Y-106415590D01*
X170459885Y-106415590D02*
X170507504Y-106463209D01*
X170507504Y-106463209D02*
X170555123Y-106558447D01*
X170555123Y-106558447D02*
X170555123Y-106796542D01*
X170555123Y-106796542D02*
X170507504Y-106891780D01*
X170507504Y-106891780D02*
X170459885Y-106939400D01*
X170459885Y-106939400D02*
X170364647Y-106987019D01*
X170364647Y-106987019D02*
X170078933Y-106987019D01*
X170078933Y-106987019D02*
X169983695Y-106939400D01*
X169983695Y-106939400D02*
X169936076Y-106891780D01*
X124998609Y-102278914D02*
X125046228Y-102136057D01*
X125046228Y-102136057D02*
X125093847Y-102088438D01*
X125093847Y-102088438D02*
X125189085Y-102040819D01*
X125189085Y-102040819D02*
X125331942Y-102040819D01*
X125331942Y-102040819D02*
X125427180Y-102088438D01*
X125427180Y-102088438D02*
X125474800Y-102136057D01*
X125474800Y-102136057D02*
X125522419Y-102231295D01*
X125522419Y-102231295D02*
X125522419Y-102612247D01*
X125522419Y-102612247D02*
X124522419Y-102612247D01*
X124522419Y-102612247D02*
X124522419Y-102278914D01*
X124522419Y-102278914D02*
X124570038Y-102183676D01*
X124570038Y-102183676D02*
X124617657Y-102136057D01*
X124617657Y-102136057D02*
X124712895Y-102088438D01*
X124712895Y-102088438D02*
X124808133Y-102088438D01*
X124808133Y-102088438D02*
X124903371Y-102136057D01*
X124903371Y-102136057D02*
X124950990Y-102183676D01*
X124950990Y-102183676D02*
X124998609Y-102278914D01*
X124998609Y-102278914D02*
X124998609Y-102612247D01*
X125522419Y-101612247D02*
X124522419Y-101612247D01*
X124522419Y-101612247D02*
X124522419Y-101231295D01*
X124522419Y-101231295D02*
X124570038Y-101136057D01*
X124570038Y-101136057D02*
X124617657Y-101088438D01*
X124617657Y-101088438D02*
X124712895Y-101040819D01*
X124712895Y-101040819D02*
X124855752Y-101040819D01*
X124855752Y-101040819D02*
X124950990Y-101088438D01*
X124950990Y-101088438D02*
X124998609Y-101136057D01*
X124998609Y-101136057D02*
X125046228Y-101231295D01*
X125046228Y-101231295D02*
X125046228Y-101612247D01*
X125617657Y-100850343D02*
X125617657Y-100088438D01*
X125522419Y-99326533D02*
X125522419Y-99897961D01*
X125522419Y-99612247D02*
X124522419Y-99612247D01*
X124522419Y-99612247D02*
X124665276Y-99707485D01*
X124665276Y-99707485D02*
X124760514Y-99802723D01*
X124760514Y-99802723D02*
X124808133Y-99897961D01*
X128550419Y-122376438D02*
X128550419Y-122185962D01*
X128550419Y-122185962D02*
X128598038Y-122090724D01*
X128598038Y-122090724D02*
X128693276Y-121995486D01*
X128693276Y-121995486D02*
X128883752Y-121947867D01*
X128883752Y-121947867D02*
X129217085Y-121947867D01*
X129217085Y-121947867D02*
X129407561Y-121995486D01*
X129407561Y-121995486D02*
X129502800Y-122090724D01*
X129502800Y-122090724D02*
X129550419Y-122185962D01*
X129550419Y-122185962D02*
X129550419Y-122376438D01*
X129550419Y-122376438D02*
X129502800Y-122471676D01*
X129502800Y-122471676D02*
X129407561Y-122566914D01*
X129407561Y-122566914D02*
X129217085Y-122614533D01*
X129217085Y-122614533D02*
X128883752Y-122614533D01*
X128883752Y-122614533D02*
X128693276Y-122566914D01*
X128693276Y-122566914D02*
X128598038Y-122471676D01*
X128598038Y-122471676D02*
X128550419Y-122376438D01*
X129550419Y-121043105D02*
X129550419Y-121519295D01*
X129550419Y-121519295D02*
X128550419Y-121519295D01*
X129645657Y-120947867D02*
X129645657Y-120185962D01*
X129550419Y-119471676D02*
X129550419Y-119947866D01*
X129550419Y-119947866D02*
X128550419Y-119947866D01*
X129026609Y-119138342D02*
X129026609Y-118805009D01*
X129550419Y-118662152D02*
X129550419Y-119138342D01*
X129550419Y-119138342D02*
X128550419Y-119138342D01*
X128550419Y-119138342D02*
X128550419Y-118662152D01*
X129550419Y-118233580D02*
X128550419Y-118233580D01*
X128550419Y-118233580D02*
X128550419Y-117995485D01*
X128550419Y-117995485D02*
X128598038Y-117852628D01*
X128598038Y-117852628D02*
X128693276Y-117757390D01*
X128693276Y-117757390D02*
X128788514Y-117709771D01*
X128788514Y-117709771D02*
X128978990Y-117662152D01*
X128978990Y-117662152D02*
X129121847Y-117662152D01*
X129121847Y-117662152D02*
X129312323Y-117709771D01*
X129312323Y-117709771D02*
X129407561Y-117757390D01*
X129407561Y-117757390D02*
X129502800Y-117852628D01*
X129502800Y-117852628D02*
X129550419Y-117995485D01*
X129550419Y-117995485D02*
X129550419Y-118233580D01*
X129645657Y-117471676D02*
X129645657Y-116709771D01*
X129550419Y-115947866D02*
X129550419Y-116519294D01*
X129550419Y-116233580D02*
X128550419Y-116233580D01*
X128550419Y-116233580D02*
X128693276Y-116328818D01*
X128693276Y-116328818D02*
X128788514Y-116424056D01*
X128788514Y-116424056D02*
X128836133Y-116519294D01*
X153949180Y-116344247D02*
X153996800Y-116391866D01*
X153996800Y-116391866D02*
X154044419Y-116534723D01*
X154044419Y-116534723D02*
X154044419Y-116629961D01*
X154044419Y-116629961D02*
X153996800Y-116772818D01*
X153996800Y-116772818D02*
X153901561Y-116868056D01*
X153901561Y-116868056D02*
X153806323Y-116915675D01*
X153806323Y-116915675D02*
X153615847Y-116963294D01*
X153615847Y-116963294D02*
X153472990Y-116963294D01*
X153472990Y-116963294D02*
X153282514Y-116915675D01*
X153282514Y-116915675D02*
X153187276Y-116868056D01*
X153187276Y-116868056D02*
X153092038Y-116772818D01*
X153092038Y-116772818D02*
X153044419Y-116629961D01*
X153044419Y-116629961D02*
X153044419Y-116534723D01*
X153044419Y-116534723D02*
X153092038Y-116391866D01*
X153092038Y-116391866D02*
X153139657Y-116344247D01*
X153044419Y-115439485D02*
X153044419Y-115915675D01*
X153044419Y-115915675D02*
X153520609Y-115963294D01*
X153520609Y-115963294D02*
X153472990Y-115915675D01*
X153472990Y-115915675D02*
X153425371Y-115820437D01*
X153425371Y-115820437D02*
X153425371Y-115582342D01*
X153425371Y-115582342D02*
X153472990Y-115487104D01*
X153472990Y-115487104D02*
X153520609Y-115439485D01*
X153520609Y-115439485D02*
X153615847Y-115391866D01*
X153615847Y-115391866D02*
X153853942Y-115391866D01*
X153853942Y-115391866D02*
X153949180Y-115439485D01*
X153949180Y-115439485D02*
X153996800Y-115487104D01*
X153996800Y-115487104D02*
X154044419Y-115582342D01*
X154044419Y-115582342D02*
X154044419Y-115820437D01*
X154044419Y-115820437D02*
X153996800Y-115915675D01*
X153996800Y-115915675D02*
X153949180Y-115963294D01*
X153044419Y-114772818D02*
X153044419Y-114677580D01*
X153044419Y-114677580D02*
X153092038Y-114582342D01*
X153092038Y-114582342D02*
X153139657Y-114534723D01*
X153139657Y-114534723D02*
X153234895Y-114487104D01*
X153234895Y-114487104D02*
X153425371Y-114439485D01*
X153425371Y-114439485D02*
X153663466Y-114439485D01*
X153663466Y-114439485D02*
X153853942Y-114487104D01*
X153853942Y-114487104D02*
X153949180Y-114534723D01*
X153949180Y-114534723D02*
X153996800Y-114582342D01*
X153996800Y-114582342D02*
X154044419Y-114677580D01*
X154044419Y-114677580D02*
X154044419Y-114772818D01*
X154044419Y-114772818D02*
X153996800Y-114868056D01*
X153996800Y-114868056D02*
X153949180Y-114915675D01*
X153949180Y-114915675D02*
X153853942Y-114963294D01*
X153853942Y-114963294D02*
X153663466Y-115010913D01*
X153663466Y-115010913D02*
X153425371Y-115010913D01*
X153425371Y-115010913D02*
X153234895Y-114963294D01*
X153234895Y-114963294D02*
X153139657Y-114915675D01*
X153139657Y-114915675D02*
X153092038Y-114868056D01*
X153092038Y-114868056D02*
X153044419Y-114772818D01*
X153139657Y-114058532D02*
X153092038Y-114010913D01*
X153092038Y-114010913D02*
X153044419Y-113915675D01*
X153044419Y-113915675D02*
X153044419Y-113677580D01*
X153044419Y-113677580D02*
X153092038Y-113582342D01*
X153092038Y-113582342D02*
X153139657Y-113534723D01*
X153139657Y-113534723D02*
X153234895Y-113487104D01*
X153234895Y-113487104D02*
X153330133Y-113487104D01*
X153330133Y-113487104D02*
X153472990Y-113534723D01*
X153472990Y-113534723D02*
X154044419Y-114106151D01*
X154044419Y-114106151D02*
X154044419Y-113487104D01*
X156474419Y-133227294D02*
X155474419Y-133227294D01*
X155474419Y-133227294D02*
X155474419Y-132989199D01*
X155474419Y-132989199D02*
X155522038Y-132846342D01*
X155522038Y-132846342D02*
X155617276Y-132751104D01*
X155617276Y-132751104D02*
X155712514Y-132703485D01*
X155712514Y-132703485D02*
X155902990Y-132655866D01*
X155902990Y-132655866D02*
X156045847Y-132655866D01*
X156045847Y-132655866D02*
X156236323Y-132703485D01*
X156236323Y-132703485D02*
X156331561Y-132751104D01*
X156331561Y-132751104D02*
X156426800Y-132846342D01*
X156426800Y-132846342D02*
X156474419Y-132989199D01*
X156474419Y-132989199D02*
X156474419Y-133227294D01*
X156474419Y-131703485D02*
X156474419Y-132274913D01*
X156474419Y-131989199D02*
X155474419Y-131989199D01*
X155474419Y-131989199D02*
X155617276Y-132084437D01*
X155617276Y-132084437D02*
X155712514Y-132179675D01*
X155712514Y-132179675D02*
X155760133Y-132274913D01*
X134376619Y-150037323D02*
X135090904Y-150037323D01*
X135090904Y-150037323D02*
X135233761Y-150084942D01*
X135233761Y-150084942D02*
X135329000Y-150180180D01*
X135329000Y-150180180D02*
X135376619Y-150323037D01*
X135376619Y-150323037D02*
X135376619Y-150418275D01*
X134471857Y-149608751D02*
X134424238Y-149561132D01*
X134424238Y-149561132D02*
X134376619Y-149465894D01*
X134376619Y-149465894D02*
X134376619Y-149227799D01*
X134376619Y-149227799D02*
X134424238Y-149132561D01*
X134424238Y-149132561D02*
X134471857Y-149084942D01*
X134471857Y-149084942D02*
X134567095Y-149037323D01*
X134567095Y-149037323D02*
X134662333Y-149037323D01*
X134662333Y-149037323D02*
X134805190Y-149084942D01*
X134805190Y-149084942D02*
X135376619Y-149656370D01*
X135376619Y-149656370D02*
X135376619Y-149037323D01*
X134376619Y-148418275D02*
X134376619Y-148323037D01*
X134376619Y-148323037D02*
X134424238Y-148227799D01*
X134424238Y-148227799D02*
X134471857Y-148180180D01*
X134471857Y-148180180D02*
X134567095Y-148132561D01*
X134567095Y-148132561D02*
X134757571Y-148084942D01*
X134757571Y-148084942D02*
X134995666Y-148084942D01*
X134995666Y-148084942D02*
X135186142Y-148132561D01*
X135186142Y-148132561D02*
X135281380Y-148180180D01*
X135281380Y-148180180D02*
X135329000Y-148227799D01*
X135329000Y-148227799D02*
X135376619Y-148323037D01*
X135376619Y-148323037D02*
X135376619Y-148418275D01*
X135376619Y-148418275D02*
X135329000Y-148513513D01*
X135329000Y-148513513D02*
X135281380Y-148561132D01*
X135281380Y-148561132D02*
X135186142Y-148608751D01*
X135186142Y-148608751D02*
X134995666Y-148656370D01*
X134995666Y-148656370D02*
X134757571Y-148656370D01*
X134757571Y-148656370D02*
X134567095Y-148608751D01*
X134567095Y-148608751D02*
X134471857Y-148561132D01*
X134471857Y-148561132D02*
X134424238Y-148513513D01*
X134424238Y-148513513D02*
X134376619Y-148418275D01*
X166298837Y-147168019D02*
X165965504Y-146691828D01*
X165727409Y-147168019D02*
X165727409Y-146168019D01*
X165727409Y-146168019D02*
X166108361Y-146168019D01*
X166108361Y-146168019D02*
X166203599Y-146215638D01*
X166203599Y-146215638D02*
X166251218Y-146263257D01*
X166251218Y-146263257D02*
X166298837Y-146358495D01*
X166298837Y-146358495D02*
X166298837Y-146501352D01*
X166298837Y-146501352D02*
X166251218Y-146596590D01*
X166251218Y-146596590D02*
X166203599Y-146644209D01*
X166203599Y-146644209D02*
X166108361Y-146691828D01*
X166108361Y-146691828D02*
X165727409Y-146691828D01*
X166679790Y-147120400D02*
X166822647Y-147168019D01*
X166822647Y-147168019D02*
X167060742Y-147168019D01*
X167060742Y-147168019D02*
X167155980Y-147120400D01*
X167155980Y-147120400D02*
X167203599Y-147072780D01*
X167203599Y-147072780D02*
X167251218Y-146977542D01*
X167251218Y-146977542D02*
X167251218Y-146882304D01*
X167251218Y-146882304D02*
X167203599Y-146787066D01*
X167203599Y-146787066D02*
X167155980Y-146739447D01*
X167155980Y-146739447D02*
X167060742Y-146691828D01*
X167060742Y-146691828D02*
X166870266Y-146644209D01*
X166870266Y-146644209D02*
X166775028Y-146596590D01*
X166775028Y-146596590D02*
X166727409Y-146548971D01*
X166727409Y-146548971D02*
X166679790Y-146453733D01*
X166679790Y-146453733D02*
X166679790Y-146358495D01*
X166679790Y-146358495D02*
X166727409Y-146263257D01*
X166727409Y-146263257D02*
X166775028Y-146215638D01*
X166775028Y-146215638D02*
X166870266Y-146168019D01*
X166870266Y-146168019D02*
X167108361Y-146168019D01*
X167108361Y-146168019D02*
X167251218Y-146215638D01*
X167536933Y-146168019D02*
X168108361Y-146168019D01*
X167822647Y-147168019D02*
X167822647Y-146168019D01*
X168203600Y-147263257D02*
X168965504Y-147263257D01*
X169727409Y-147168019D02*
X169155981Y-147168019D01*
X169441695Y-147168019D02*
X169441695Y-146168019D01*
X169441695Y-146168019D02*
X169346457Y-146310876D01*
X169346457Y-146310876D02*
X169251219Y-146406114D01*
X169251219Y-146406114D02*
X169155981Y-146453733D01*
X157186552Y-114148019D02*
X156853219Y-113671828D01*
X156615124Y-114148019D02*
X156615124Y-113148019D01*
X156615124Y-113148019D02*
X156996076Y-113148019D01*
X156996076Y-113148019D02*
X157091314Y-113195638D01*
X157091314Y-113195638D02*
X157138933Y-113243257D01*
X157138933Y-113243257D02*
X157186552Y-113338495D01*
X157186552Y-113338495D02*
X157186552Y-113481352D01*
X157186552Y-113481352D02*
X157138933Y-113576590D01*
X157138933Y-113576590D02*
X157091314Y-113624209D01*
X157091314Y-113624209D02*
X156996076Y-113671828D01*
X156996076Y-113671828D02*
X156615124Y-113671828D01*
X158091314Y-113148019D02*
X157615124Y-113148019D01*
X157615124Y-113148019D02*
X157567505Y-113624209D01*
X157567505Y-113624209D02*
X157615124Y-113576590D01*
X157615124Y-113576590D02*
X157710362Y-113528971D01*
X157710362Y-113528971D02*
X157948457Y-113528971D01*
X157948457Y-113528971D02*
X158043695Y-113576590D01*
X158043695Y-113576590D02*
X158091314Y-113624209D01*
X158091314Y-113624209D02*
X158138933Y-113719447D01*
X158138933Y-113719447D02*
X158138933Y-113957542D01*
X158138933Y-113957542D02*
X158091314Y-114052780D01*
X158091314Y-114052780D02*
X158043695Y-114100400D01*
X158043695Y-114100400D02*
X157948457Y-114148019D01*
X157948457Y-114148019D02*
X157710362Y-114148019D01*
X157710362Y-114148019D02*
X157615124Y-114100400D01*
X157615124Y-114100400D02*
X157567505Y-114052780D01*
X158757981Y-113148019D02*
X158853219Y-113148019D01*
X158853219Y-113148019D02*
X158948457Y-113195638D01*
X158948457Y-113195638D02*
X158996076Y-113243257D01*
X158996076Y-113243257D02*
X159043695Y-113338495D01*
X159043695Y-113338495D02*
X159091314Y-113528971D01*
X159091314Y-113528971D02*
X159091314Y-113767066D01*
X159091314Y-113767066D02*
X159043695Y-113957542D01*
X159043695Y-113957542D02*
X158996076Y-114052780D01*
X158996076Y-114052780D02*
X158948457Y-114100400D01*
X158948457Y-114100400D02*
X158853219Y-114148019D01*
X158853219Y-114148019D02*
X158757981Y-114148019D01*
X158757981Y-114148019D02*
X158662743Y-114100400D01*
X158662743Y-114100400D02*
X158615124Y-114052780D01*
X158615124Y-114052780D02*
X158567505Y-113957542D01*
X158567505Y-113957542D02*
X158519886Y-113767066D01*
X158519886Y-113767066D02*
X158519886Y-113528971D01*
X158519886Y-113528971D02*
X158567505Y-113338495D01*
X158567505Y-113338495D02*
X158615124Y-113243257D01*
X158615124Y-113243257D02*
X158662743Y-113195638D01*
X158662743Y-113195638D02*
X158757981Y-113148019D01*
X160043695Y-114148019D02*
X159472267Y-114148019D01*
X159757981Y-114148019D02*
X159757981Y-113148019D01*
X159757981Y-113148019D02*
X159662743Y-113290876D01*
X159662743Y-113290876D02*
X159567505Y-113386114D01*
X159567505Y-113386114D02*
X159472267Y-113433733D01*
X124522419Y-117407771D02*
X124522419Y-117217295D01*
X124522419Y-117217295D02*
X124570038Y-117122057D01*
X124570038Y-117122057D02*
X124665276Y-117026819D01*
X124665276Y-117026819D02*
X124855752Y-116979200D01*
X124855752Y-116979200D02*
X125189085Y-116979200D01*
X125189085Y-116979200D02*
X125379561Y-117026819D01*
X125379561Y-117026819D02*
X125474800Y-117122057D01*
X125474800Y-117122057D02*
X125522419Y-117217295D01*
X125522419Y-117217295D02*
X125522419Y-117407771D01*
X125522419Y-117407771D02*
X125474800Y-117503009D01*
X125474800Y-117503009D02*
X125379561Y-117598247D01*
X125379561Y-117598247D02*
X125189085Y-117645866D01*
X125189085Y-117645866D02*
X124855752Y-117645866D01*
X124855752Y-117645866D02*
X124665276Y-117598247D01*
X124665276Y-117598247D02*
X124570038Y-117503009D01*
X124570038Y-117503009D02*
X124522419Y-117407771D01*
X125474800Y-116598247D02*
X125522419Y-116455390D01*
X125522419Y-116455390D02*
X125522419Y-116217295D01*
X125522419Y-116217295D02*
X125474800Y-116122057D01*
X125474800Y-116122057D02*
X125427180Y-116074438D01*
X125427180Y-116074438D02*
X125331942Y-116026819D01*
X125331942Y-116026819D02*
X125236704Y-116026819D01*
X125236704Y-116026819D02*
X125141466Y-116074438D01*
X125141466Y-116074438D02*
X125093847Y-116122057D01*
X125093847Y-116122057D02*
X125046228Y-116217295D01*
X125046228Y-116217295D02*
X124998609Y-116407771D01*
X124998609Y-116407771D02*
X124950990Y-116503009D01*
X124950990Y-116503009D02*
X124903371Y-116550628D01*
X124903371Y-116550628D02*
X124808133Y-116598247D01*
X124808133Y-116598247D02*
X124712895Y-116598247D01*
X124712895Y-116598247D02*
X124617657Y-116550628D01*
X124617657Y-116550628D02*
X124570038Y-116503009D01*
X124570038Y-116503009D02*
X124522419Y-116407771D01*
X124522419Y-116407771D02*
X124522419Y-116169676D01*
X124522419Y-116169676D02*
X124570038Y-116026819D01*
X125617657Y-115836343D02*
X125617657Y-115074438D01*
X125522419Y-114312533D02*
X125522419Y-114883961D01*
X125522419Y-114598247D02*
X124522419Y-114598247D01*
X124522419Y-114598247D02*
X124665276Y-114693485D01*
X124665276Y-114693485D02*
X124760514Y-114788723D01*
X124760514Y-114788723D02*
X124808133Y-114883961D01*
X144907314Y-105628019D02*
X144907314Y-106437542D01*
X144907314Y-106437542D02*
X144954933Y-106532780D01*
X144954933Y-106532780D02*
X145002552Y-106580400D01*
X145002552Y-106580400D02*
X145097790Y-106628019D01*
X145097790Y-106628019D02*
X145288266Y-106628019D01*
X145288266Y-106628019D02*
X145383504Y-106580400D01*
X145383504Y-106580400D02*
X145431123Y-106532780D01*
X145431123Y-106532780D02*
X145478742Y-106437542D01*
X145478742Y-106437542D02*
X145478742Y-105628019D01*
X146431123Y-105628019D02*
X145954933Y-105628019D01*
X145954933Y-105628019D02*
X145907314Y-106104209D01*
X145907314Y-106104209D02*
X145954933Y-106056590D01*
X145954933Y-106056590D02*
X146050171Y-106008971D01*
X146050171Y-106008971D02*
X146288266Y-106008971D01*
X146288266Y-106008971D02*
X146383504Y-106056590D01*
X146383504Y-106056590D02*
X146431123Y-106104209D01*
X146431123Y-106104209D02*
X146478742Y-106199447D01*
X146478742Y-106199447D02*
X146478742Y-106437542D01*
X146478742Y-106437542D02*
X146431123Y-106532780D01*
X146431123Y-106532780D02*
X146383504Y-106580400D01*
X146383504Y-106580400D02*
X146288266Y-106628019D01*
X146288266Y-106628019D02*
X146050171Y-106628019D01*
X146050171Y-106628019D02*
X145954933Y-106580400D01*
X145954933Y-106580400D02*
X145907314Y-106532780D01*
X147097790Y-105628019D02*
X147193028Y-105628019D01*
X147193028Y-105628019D02*
X147288266Y-105675638D01*
X147288266Y-105675638D02*
X147335885Y-105723257D01*
X147335885Y-105723257D02*
X147383504Y-105818495D01*
X147383504Y-105818495D02*
X147431123Y-106008971D01*
X147431123Y-106008971D02*
X147431123Y-106247066D01*
X147431123Y-106247066D02*
X147383504Y-106437542D01*
X147383504Y-106437542D02*
X147335885Y-106532780D01*
X147335885Y-106532780D02*
X147288266Y-106580400D01*
X147288266Y-106580400D02*
X147193028Y-106628019D01*
X147193028Y-106628019D02*
X147097790Y-106628019D01*
X147097790Y-106628019D02*
X147002552Y-106580400D01*
X147002552Y-106580400D02*
X146954933Y-106532780D01*
X146954933Y-106532780D02*
X146907314Y-106437542D01*
X146907314Y-106437542D02*
X146859695Y-106247066D01*
X146859695Y-106247066D02*
X146859695Y-106008971D01*
X146859695Y-106008971D02*
X146907314Y-105818495D01*
X146907314Y-105818495D02*
X146954933Y-105723257D01*
X146954933Y-105723257D02*
X147002552Y-105675638D01*
X147002552Y-105675638D02*
X147097790Y-105628019D01*
X148383504Y-106628019D02*
X147812076Y-106628019D01*
X148097790Y-106628019D02*
X148097790Y-105628019D01*
X148097790Y-105628019D02*
X148002552Y-105770876D01*
X148002552Y-105770876D02*
X147907314Y-105866114D01*
X147907314Y-105866114D02*
X147812076Y-105913733D01*
X125427180Y-98643486D02*
X125474800Y-98691105D01*
X125474800Y-98691105D02*
X125522419Y-98833962D01*
X125522419Y-98833962D02*
X125522419Y-98929200D01*
X125522419Y-98929200D02*
X125474800Y-99072057D01*
X125474800Y-99072057D02*
X125379561Y-99167295D01*
X125379561Y-99167295D02*
X125284323Y-99214914D01*
X125284323Y-99214914D02*
X125093847Y-99262533D01*
X125093847Y-99262533D02*
X124950990Y-99262533D01*
X124950990Y-99262533D02*
X124760514Y-99214914D01*
X124760514Y-99214914D02*
X124665276Y-99167295D01*
X124665276Y-99167295D02*
X124570038Y-99072057D01*
X124570038Y-99072057D02*
X124522419Y-98929200D01*
X124522419Y-98929200D02*
X124522419Y-98833962D01*
X124522419Y-98833962D02*
X124570038Y-98691105D01*
X124570038Y-98691105D02*
X124617657Y-98643486D01*
X125522419Y-98072057D02*
X125474800Y-98167295D01*
X125474800Y-98167295D02*
X125427180Y-98214914D01*
X125427180Y-98214914D02*
X125331942Y-98262533D01*
X125331942Y-98262533D02*
X125046228Y-98262533D01*
X125046228Y-98262533D02*
X124950990Y-98214914D01*
X124950990Y-98214914D02*
X124903371Y-98167295D01*
X124903371Y-98167295D02*
X124855752Y-98072057D01*
X124855752Y-98072057D02*
X124855752Y-97929200D01*
X124855752Y-97929200D02*
X124903371Y-97833962D01*
X124903371Y-97833962D02*
X124950990Y-97786343D01*
X124950990Y-97786343D02*
X125046228Y-97738724D01*
X125046228Y-97738724D02*
X125331942Y-97738724D01*
X125331942Y-97738724D02*
X125427180Y-97786343D01*
X125427180Y-97786343D02*
X125474800Y-97833962D01*
X125474800Y-97833962D02*
X125522419Y-97929200D01*
X125522419Y-97929200D02*
X125522419Y-98072057D01*
X125522419Y-97167295D02*
X125474800Y-97262533D01*
X125474800Y-97262533D02*
X125427180Y-97310152D01*
X125427180Y-97310152D02*
X125331942Y-97357771D01*
X125331942Y-97357771D02*
X125046228Y-97357771D01*
X125046228Y-97357771D02*
X124950990Y-97310152D01*
X124950990Y-97310152D02*
X124903371Y-97262533D01*
X124903371Y-97262533D02*
X124855752Y-97167295D01*
X124855752Y-97167295D02*
X124855752Y-97024438D01*
X124855752Y-97024438D02*
X124903371Y-96929200D01*
X124903371Y-96929200D02*
X124950990Y-96881581D01*
X124950990Y-96881581D02*
X125046228Y-96833962D01*
X125046228Y-96833962D02*
X125331942Y-96833962D01*
X125331942Y-96833962D02*
X125427180Y-96881581D01*
X125427180Y-96881581D02*
X125474800Y-96929200D01*
X125474800Y-96929200D02*
X125522419Y-97024438D01*
X125522419Y-97024438D02*
X125522419Y-97167295D01*
X125522419Y-96262533D02*
X125474800Y-96357771D01*
X125474800Y-96357771D02*
X125379561Y-96405390D01*
X125379561Y-96405390D02*
X124522419Y-96405390D01*
X125617657Y-96119676D02*
X125617657Y-95357771D01*
X125522419Y-94595866D02*
X125522419Y-95167294D01*
X125522419Y-94881580D02*
X124522419Y-94881580D01*
X124522419Y-94881580D02*
X124665276Y-94976818D01*
X124665276Y-94976818D02*
X124760514Y-95072056D01*
X124760514Y-95072056D02*
X124808133Y-95167294D01*
X175181029Y-147168019D02*
X175181029Y-146168019D01*
X175181029Y-146168019D02*
X175514362Y-146882304D01*
X175514362Y-146882304D02*
X175847695Y-146168019D01*
X175847695Y-146168019D02*
X175847695Y-147168019D01*
X176514362Y-146168019D02*
X176704838Y-146168019D01*
X176704838Y-146168019D02*
X176800076Y-146215638D01*
X176800076Y-146215638D02*
X176895314Y-146310876D01*
X176895314Y-146310876D02*
X176942933Y-146501352D01*
X176942933Y-146501352D02*
X176942933Y-146834685D01*
X176942933Y-146834685D02*
X176895314Y-147025161D01*
X176895314Y-147025161D02*
X176800076Y-147120400D01*
X176800076Y-147120400D02*
X176704838Y-147168019D01*
X176704838Y-147168019D02*
X176514362Y-147168019D01*
X176514362Y-147168019D02*
X176419124Y-147120400D01*
X176419124Y-147120400D02*
X176323886Y-147025161D01*
X176323886Y-147025161D02*
X176276267Y-146834685D01*
X176276267Y-146834685D02*
X176276267Y-146501352D01*
X176276267Y-146501352D02*
X176323886Y-146310876D01*
X176323886Y-146310876D02*
X176419124Y-146215638D01*
X176419124Y-146215638D02*
X176514362Y-146168019D01*
X177323886Y-147120400D02*
X177466743Y-147168019D01*
X177466743Y-147168019D02*
X177704838Y-147168019D01*
X177704838Y-147168019D02*
X177800076Y-147120400D01*
X177800076Y-147120400D02*
X177847695Y-147072780D01*
X177847695Y-147072780D02*
X177895314Y-146977542D01*
X177895314Y-146977542D02*
X177895314Y-146882304D01*
X177895314Y-146882304D02*
X177847695Y-146787066D01*
X177847695Y-146787066D02*
X177800076Y-146739447D01*
X177800076Y-146739447D02*
X177704838Y-146691828D01*
X177704838Y-146691828D02*
X177514362Y-146644209D01*
X177514362Y-146644209D02*
X177419124Y-146596590D01*
X177419124Y-146596590D02*
X177371505Y-146548971D01*
X177371505Y-146548971D02*
X177323886Y-146453733D01*
X177323886Y-146453733D02*
X177323886Y-146358495D01*
X177323886Y-146358495D02*
X177371505Y-146263257D01*
X177371505Y-146263257D02*
X177419124Y-146215638D01*
X177419124Y-146215638D02*
X177514362Y-146168019D01*
X177514362Y-146168019D02*
X177752457Y-146168019D01*
X177752457Y-146168019D02*
X177895314Y-146215638D01*
X178323886Y-147168019D02*
X178323886Y-146501352D01*
X178323886Y-146168019D02*
X178276267Y-146215638D01*
X178276267Y-146215638D02*
X178323886Y-146263257D01*
X178323886Y-146263257D02*
X178371505Y-146215638D01*
X178371505Y-146215638D02*
X178323886Y-146168019D01*
X178323886Y-146168019D02*
X178323886Y-146263257D01*
X178561981Y-147263257D02*
X179323885Y-147263257D01*
X180085790Y-147168019D02*
X179514362Y-147168019D01*
X179800076Y-147168019D02*
X179800076Y-146168019D01*
X179800076Y-146168019D02*
X179704838Y-146310876D01*
X179704838Y-146310876D02*
X179609600Y-146406114D01*
X179609600Y-146406114D02*
X179514362Y-146453733D01*
X165240419Y-78746057D02*
X164764228Y-79079390D01*
X165240419Y-79317485D02*
X164240419Y-79317485D01*
X164240419Y-79317485D02*
X164240419Y-78936533D01*
X164240419Y-78936533D02*
X164288038Y-78841295D01*
X164288038Y-78841295D02*
X164335657Y-78793676D01*
X164335657Y-78793676D02*
X164430895Y-78746057D01*
X164430895Y-78746057D02*
X164573752Y-78746057D01*
X164573752Y-78746057D02*
X164668990Y-78793676D01*
X164668990Y-78793676D02*
X164716609Y-78841295D01*
X164716609Y-78841295D02*
X164764228Y-78936533D01*
X164764228Y-78936533D02*
X164764228Y-79317485D01*
X165240419Y-77793676D02*
X165240419Y-78365104D01*
X165240419Y-78079390D02*
X164240419Y-78079390D01*
X164240419Y-78079390D02*
X164383276Y-78174628D01*
X164383276Y-78174628D02*
X164478514Y-78269866D01*
X164478514Y-78269866D02*
X164526133Y-78365104D01*
X164240419Y-77174628D02*
X164240419Y-77079390D01*
X164240419Y-77079390D02*
X164288038Y-76984152D01*
X164288038Y-76984152D02*
X164335657Y-76936533D01*
X164335657Y-76936533D02*
X164430895Y-76888914D01*
X164430895Y-76888914D02*
X164621371Y-76841295D01*
X164621371Y-76841295D02*
X164859466Y-76841295D01*
X164859466Y-76841295D02*
X165049942Y-76888914D01*
X165049942Y-76888914D02*
X165145180Y-76936533D01*
X165145180Y-76936533D02*
X165192800Y-76984152D01*
X165192800Y-76984152D02*
X165240419Y-77079390D01*
X165240419Y-77079390D02*
X165240419Y-77174628D01*
X165240419Y-77174628D02*
X165192800Y-77269866D01*
X165192800Y-77269866D02*
X165145180Y-77317485D01*
X165145180Y-77317485D02*
X165049942Y-77365104D01*
X165049942Y-77365104D02*
X164859466Y-77412723D01*
X164859466Y-77412723D02*
X164621371Y-77412723D01*
X164621371Y-77412723D02*
X164430895Y-77365104D01*
X164430895Y-77365104D02*
X164335657Y-77317485D01*
X164335657Y-77317485D02*
X164288038Y-77269866D01*
X164288038Y-77269866D02*
X164240419Y-77174628D01*
X186410419Y-100508724D02*
X185934228Y-100842057D01*
X186410419Y-101080152D02*
X185410419Y-101080152D01*
X185410419Y-101080152D02*
X185410419Y-100699200D01*
X185410419Y-100699200D02*
X185458038Y-100603962D01*
X185458038Y-100603962D02*
X185505657Y-100556343D01*
X185505657Y-100556343D02*
X185600895Y-100508724D01*
X185600895Y-100508724D02*
X185743752Y-100508724D01*
X185743752Y-100508724D02*
X185838990Y-100556343D01*
X185838990Y-100556343D02*
X185886609Y-100603962D01*
X185886609Y-100603962D02*
X185934228Y-100699200D01*
X185934228Y-100699200D02*
X185934228Y-101080152D01*
X185886609Y-100080152D02*
X185886609Y-99746819D01*
X186410419Y-99603962D02*
X186410419Y-100080152D01*
X186410419Y-100080152D02*
X185410419Y-100080152D01*
X185410419Y-100080152D02*
X185410419Y-99603962D01*
X186362800Y-99223009D02*
X186410419Y-99080152D01*
X186410419Y-99080152D02*
X186410419Y-98842057D01*
X186410419Y-98842057D02*
X186362800Y-98746819D01*
X186362800Y-98746819D02*
X186315180Y-98699200D01*
X186315180Y-98699200D02*
X186219942Y-98651581D01*
X186219942Y-98651581D02*
X186124704Y-98651581D01*
X186124704Y-98651581D02*
X186029466Y-98699200D01*
X186029466Y-98699200D02*
X185981847Y-98746819D01*
X185981847Y-98746819D02*
X185934228Y-98842057D01*
X185934228Y-98842057D02*
X185886609Y-99032533D01*
X185886609Y-99032533D02*
X185838990Y-99127771D01*
X185838990Y-99127771D02*
X185791371Y-99175390D01*
X185791371Y-99175390D02*
X185696133Y-99223009D01*
X185696133Y-99223009D02*
X185600895Y-99223009D01*
X185600895Y-99223009D02*
X185505657Y-99175390D01*
X185505657Y-99175390D02*
X185458038Y-99127771D01*
X185458038Y-99127771D02*
X185410419Y-99032533D01*
X185410419Y-99032533D02*
X185410419Y-98794438D01*
X185410419Y-98794438D02*
X185458038Y-98651581D01*
X185886609Y-98223009D02*
X185886609Y-97889676D01*
X186410419Y-97746819D02*
X186410419Y-98223009D01*
X186410419Y-98223009D02*
X185410419Y-98223009D01*
X185410419Y-98223009D02*
X185410419Y-97746819D01*
X185410419Y-97461104D02*
X185410419Y-96889676D01*
X186410419Y-97175390D02*
X185410419Y-97175390D01*
X186505657Y-96794438D02*
X186505657Y-96032533D01*
X186410419Y-95270628D02*
X186410419Y-95842056D01*
X186410419Y-95556342D02*
X185410419Y-95556342D01*
X185410419Y-95556342D02*
X185553276Y-95651580D01*
X185553276Y-95651580D02*
X185648514Y-95746818D01*
X185648514Y-95746818D02*
X185696133Y-95842056D01*
X135025124Y-104786019D02*
X135025124Y-103786019D01*
X135596552Y-104786019D02*
X135167981Y-104214590D01*
X135596552Y-103786019D02*
X135025124Y-104357447D01*
X136501314Y-103786019D02*
X136025124Y-103786019D01*
X136025124Y-103786019D02*
X135977505Y-104262209D01*
X135977505Y-104262209D02*
X136025124Y-104214590D01*
X136025124Y-104214590D02*
X136120362Y-104166971D01*
X136120362Y-104166971D02*
X136358457Y-104166971D01*
X136358457Y-104166971D02*
X136453695Y-104214590D01*
X136453695Y-104214590D02*
X136501314Y-104262209D01*
X136501314Y-104262209D02*
X136548933Y-104357447D01*
X136548933Y-104357447D02*
X136548933Y-104595542D01*
X136548933Y-104595542D02*
X136501314Y-104690780D01*
X136501314Y-104690780D02*
X136453695Y-104738400D01*
X136453695Y-104738400D02*
X136358457Y-104786019D01*
X136358457Y-104786019D02*
X136120362Y-104786019D01*
X136120362Y-104786019D02*
X136025124Y-104738400D01*
X136025124Y-104738400D02*
X135977505Y-104690780D01*
X137167981Y-103786019D02*
X137263219Y-103786019D01*
X137263219Y-103786019D02*
X137358457Y-103833638D01*
X137358457Y-103833638D02*
X137406076Y-103881257D01*
X137406076Y-103881257D02*
X137453695Y-103976495D01*
X137453695Y-103976495D02*
X137501314Y-104166971D01*
X137501314Y-104166971D02*
X137501314Y-104405066D01*
X137501314Y-104405066D02*
X137453695Y-104595542D01*
X137453695Y-104595542D02*
X137406076Y-104690780D01*
X137406076Y-104690780D02*
X137358457Y-104738400D01*
X137358457Y-104738400D02*
X137263219Y-104786019D01*
X137263219Y-104786019D02*
X137167981Y-104786019D01*
X137167981Y-104786019D02*
X137072743Y-104738400D01*
X137072743Y-104738400D02*
X137025124Y-104690780D01*
X137025124Y-104690780D02*
X136977505Y-104595542D01*
X136977505Y-104595542D02*
X136929886Y-104405066D01*
X136929886Y-104405066D02*
X136929886Y-104166971D01*
X136929886Y-104166971D02*
X136977505Y-103976495D01*
X136977505Y-103976495D02*
X137025124Y-103881257D01*
X137025124Y-103881257D02*
X137072743Y-103833638D01*
X137072743Y-103833638D02*
X137167981Y-103786019D01*
X138453695Y-104786019D02*
X137882267Y-104786019D01*
X138167981Y-104786019D02*
X138167981Y-103786019D01*
X138167981Y-103786019D02*
X138072743Y-103928876D01*
X138072743Y-103928876D02*
X137977505Y-104024114D01*
X137977505Y-104024114D02*
X137882267Y-104071733D01*
X173502419Y-104746057D02*
X173026228Y-105079390D01*
X173502419Y-105317485D02*
X172502419Y-105317485D01*
X172502419Y-105317485D02*
X172502419Y-104936533D01*
X172502419Y-104936533D02*
X172550038Y-104841295D01*
X172550038Y-104841295D02*
X172597657Y-104793676D01*
X172597657Y-104793676D02*
X172692895Y-104746057D01*
X172692895Y-104746057D02*
X172835752Y-104746057D01*
X172835752Y-104746057D02*
X172930990Y-104793676D01*
X172930990Y-104793676D02*
X172978609Y-104841295D01*
X172978609Y-104841295D02*
X173026228Y-104936533D01*
X173026228Y-104936533D02*
X173026228Y-105317485D01*
X173502419Y-103793676D02*
X173502419Y-104365104D01*
X173502419Y-104079390D02*
X172502419Y-104079390D01*
X172502419Y-104079390D02*
X172645276Y-104174628D01*
X172645276Y-104174628D02*
X172740514Y-104269866D01*
X172740514Y-104269866D02*
X172788133Y-104365104D01*
X173502419Y-102841295D02*
X173502419Y-103412723D01*
X173502419Y-103127009D02*
X172502419Y-103127009D01*
X172502419Y-103127009D02*
X172645276Y-103222247D01*
X172645276Y-103222247D02*
X172740514Y-103317485D01*
X172740514Y-103317485D02*
X172788133Y-103412723D01*
X124486419Y-83332056D02*
X124486419Y-82760628D01*
X125486419Y-83046342D02*
X124486419Y-83046342D01*
X125486419Y-81855866D02*
X125010228Y-82189199D01*
X125486419Y-82427294D02*
X124486419Y-82427294D01*
X124486419Y-82427294D02*
X124486419Y-82046342D01*
X124486419Y-82046342D02*
X124534038Y-81951104D01*
X124534038Y-81951104D02*
X124581657Y-81903485D01*
X124581657Y-81903485D02*
X124676895Y-81855866D01*
X124676895Y-81855866D02*
X124819752Y-81855866D01*
X124819752Y-81855866D02*
X124914990Y-81903485D01*
X124914990Y-81903485D02*
X124962609Y-81951104D01*
X124962609Y-81951104D02*
X125010228Y-82046342D01*
X125010228Y-82046342D02*
X125010228Y-82427294D01*
X125581657Y-81665390D02*
X125581657Y-80903485D01*
X125486419Y-80141580D02*
X125486419Y-80713008D01*
X125486419Y-80427294D02*
X124486419Y-80427294D01*
X124486419Y-80427294D02*
X124629276Y-80522532D01*
X124629276Y-80522532D02*
X124724514Y-80617770D01*
X124724514Y-80617770D02*
X124772133Y-80713008D01*
X149612933Y-132436019D02*
X149279600Y-131959828D01*
X149041505Y-132436019D02*
X149041505Y-131436019D01*
X149041505Y-131436019D02*
X149422457Y-131436019D01*
X149422457Y-131436019D02*
X149517695Y-131483638D01*
X149517695Y-131483638D02*
X149565314Y-131531257D01*
X149565314Y-131531257D02*
X149612933Y-131626495D01*
X149612933Y-131626495D02*
X149612933Y-131769352D01*
X149612933Y-131769352D02*
X149565314Y-131864590D01*
X149565314Y-131864590D02*
X149517695Y-131912209D01*
X149517695Y-131912209D02*
X149422457Y-131959828D01*
X149422457Y-131959828D02*
X149041505Y-131959828D01*
X149946267Y-131436019D02*
X150565314Y-131436019D01*
X150565314Y-131436019D02*
X150231981Y-131816971D01*
X150231981Y-131816971D02*
X150374838Y-131816971D01*
X150374838Y-131816971D02*
X150470076Y-131864590D01*
X150470076Y-131864590D02*
X150517695Y-131912209D01*
X150517695Y-131912209D02*
X150565314Y-132007447D01*
X150565314Y-132007447D02*
X150565314Y-132245542D01*
X150565314Y-132245542D02*
X150517695Y-132340780D01*
X150517695Y-132340780D02*
X150470076Y-132388400D01*
X150470076Y-132388400D02*
X150374838Y-132436019D01*
X150374838Y-132436019D02*
X150089124Y-132436019D01*
X150089124Y-132436019D02*
X149993886Y-132388400D01*
X149993886Y-132388400D02*
X149946267Y-132340780D01*
D11*
X159465600Y-80273200D02*
X159465600Y-100713200D01*
X159465600Y-100713200D02*
X164765600Y-100713200D01*
X161115600Y-80273200D02*
X159465600Y-80273200D01*
X164765600Y-80273200D02*
X163115600Y-80273200D01*
X164765600Y-100713200D02*
X164765600Y-80273200D01*
X163115600Y-80273200D02*
G75*
G02*
X161115600Y-80273200I-1000000J0D01*
G01*
D10*
X142521600Y-134343200D02*
X142521600Y-133693200D01*
X142521600Y-134343200D02*
X142521600Y-134993200D01*
X145641600Y-134343200D02*
X145641600Y-133693200D01*
X145641600Y-134343200D02*
X145641600Y-134993200D01*
D11*
X145921600Y-133420700D02*
X145591600Y-133180700D01*
X145921600Y-132940700D01*
X145921600Y-133420700D01*
G36*
X145921600Y-133420700D02*
G01*
X145591600Y-133180700D01*
X145921600Y-132940700D01*
X145921600Y-133420700D01*
G37*
D12*
X124512600Y-143669700D02*
X124512600Y-153829700D01*
X124512600Y-153829700D02*
X132662600Y-153829700D01*
X132662600Y-143669700D02*
X124512600Y-143669700D01*
X132662600Y-153829700D02*
X132662600Y-143669700D01*
D13*
X128662600Y-142569700D02*
G75*
G02*
X128462600Y-142569700I-100000J0D01*
G01*
X128462600Y-142569700D02*
G75*
G02*
X128662600Y-142569700I100000J0D01*
G01*
D10*
X146699600Y-77303200D02*
X146699600Y-78903200D01*
X150099600Y-77303200D02*
X150099600Y-78903200D01*
X159399600Y-104903200D02*
X159399600Y-103303200D01*
X162799600Y-104903200D02*
X162799600Y-103303200D01*
D11*
X143033600Y-140245200D02*
X143033600Y-138835200D01*
X145353600Y-140235200D02*
X145353600Y-138835200D01*
X143083600Y-140615200D02*
X142753600Y-140855200D01*
X142753600Y-140375200D01*
X143083600Y-140615200D01*
G36*
X143083600Y-140615200D02*
G01*
X142753600Y-140855200D01*
X142753600Y-140375200D01*
X143083600Y-140615200D01*
G37*
D10*
X138367600Y-87755200D02*
X139967600Y-87755200D01*
X138367600Y-91155200D02*
X139967600Y-91155200D01*
X174455600Y-77303200D02*
X174455600Y-78903200D01*
X177855600Y-77303200D02*
X177855600Y-78903200D01*
X168215600Y-133769200D02*
X171255600Y-133769200D01*
X168215600Y-138829200D02*
X168215600Y-133769200D01*
X171255600Y-133769200D02*
X171255600Y-138829200D01*
X171255600Y-138829200D02*
X168215600Y-138829200D01*
X168015600Y-133799200D02*
G75*
G02*
X167955600Y-133799200I-30000J0D01*
G01*
X167955600Y-133799200D02*
G75*
G02*
X168015600Y-133799200I30000J0D01*
G01*
D11*
X136361800Y-122497800D02*
X137691800Y-122497800D01*
X136361800Y-123827800D02*
X136361800Y-122497800D01*
X138961800Y-122497800D02*
X184741800Y-122497800D01*
X138961800Y-125157800D02*
X138961800Y-122497800D01*
X138961800Y-125157800D02*
X184741800Y-125157800D01*
X184741800Y-125157800D02*
X184741800Y-122497800D01*
X168913600Y-114395200D02*
X168913600Y-117055200D01*
X176593600Y-114395200D02*
X168913600Y-114395200D01*
X176593600Y-114395200D02*
X176593600Y-117055200D01*
X176593600Y-117055200D02*
X168913600Y-117055200D01*
X179193600Y-115725200D02*
X179193600Y-117055200D01*
X179193600Y-117055200D02*
X177863600Y-117055200D01*
D10*
X150821600Y-143261200D02*
X150821600Y-137451200D01*
X150821600Y-143261200D02*
X155121600Y-143261200D01*
X155121600Y-143261200D02*
X155121600Y-137451200D01*
D11*
X173433100Y-80273200D02*
X173433100Y-100713200D01*
X173433100Y-100713200D02*
X178733100Y-100713200D01*
X175083100Y-80273200D02*
X173433100Y-80273200D01*
X178733100Y-80273200D02*
X177083100Y-80273200D01*
X178733100Y-100713200D02*
X178733100Y-80273200D01*
X177083100Y-80273200D02*
G75*
G02*
X175083100Y-80273200I-1000000J0D01*
G01*
X144733600Y-80273200D02*
X144733600Y-100713200D01*
X144733600Y-100713200D02*
X150033600Y-100713200D01*
X146383600Y-80273200D02*
X144733600Y-80273200D01*
X150033600Y-80273200D02*
X148383600Y-80273200D01*
X150033600Y-100713200D02*
X150033600Y-80273200D01*
X148383600Y-80273200D02*
G75*
G02*
X146383600Y-80273200I-1000000J0D01*
G01*
X129797600Y-116173200D02*
X131127600Y-116173200D01*
X129797600Y-117503200D02*
X129797600Y-116173200D01*
X132397600Y-116173200D02*
X140077600Y-116173200D01*
X132397600Y-118833200D02*
X132397600Y-116173200D01*
X132397600Y-118833200D02*
X140077600Y-118833200D01*
X140077600Y-118833200D02*
X140077600Y-116173200D01*
X167095600Y-107532200D02*
X167095600Y-112732200D01*
X167095600Y-112732200D02*
X172395600Y-112732200D01*
X168745600Y-107532200D02*
X167095600Y-107532200D01*
X172395600Y-107532200D02*
X170745600Y-107532200D01*
X172395600Y-112732200D02*
X172395600Y-107532200D01*
X170745600Y-107532200D02*
G75*
G02*
X168745600Y-107532200I-1000000J0D01*
G01*
D10*
X150821600Y-135641200D02*
X150821600Y-129831200D01*
X150821600Y-135641200D02*
X155121600Y-135641200D01*
X155121600Y-135641200D02*
X155121600Y-129831200D01*
D11*
X136361800Y-147897800D02*
X137691800Y-147897800D01*
X136361800Y-149227800D02*
X136361800Y-147897800D01*
X138961800Y-147897800D02*
X184741800Y-147897800D01*
X138961800Y-150557800D02*
X138961800Y-147897800D01*
X138961800Y-150557800D02*
X184741800Y-150557800D01*
X184741800Y-150557800D02*
X184741800Y-147897800D01*
D10*
X143746600Y-107098200D02*
X143746600Y-107673200D01*
X143746600Y-107098200D02*
X149496600Y-107098200D01*
X143746600Y-117173200D02*
X143746600Y-117748200D01*
X143746600Y-117748200D02*
X149496600Y-117748200D01*
X149496600Y-107098200D02*
X149496600Y-107673200D01*
X149496600Y-117173200D02*
X149496600Y-117748200D01*
D11*
X143246600Y-107673200D02*
X143006600Y-107343200D01*
X143486600Y-107343200D01*
X143246600Y-107673200D01*
G36*
X143246600Y-107673200D02*
G01*
X143006600Y-107343200D01*
X143486600Y-107343200D01*
X143246600Y-107673200D01*
G37*
D10*
X160485600Y-77303200D02*
X160485600Y-78903200D01*
X163885600Y-77303200D02*
X163885600Y-78903200D01*
X173947600Y-104903200D02*
X173947600Y-103303200D01*
X177347600Y-104903200D02*
X177347600Y-103303200D01*
%LPC*%
D14*
X158305600Y-81603200D03*
D15*
X158305600Y-84143200D03*
X158305600Y-86683200D03*
X158305600Y-89223200D03*
X158305600Y-91763200D03*
X158305600Y-94303200D03*
X158305600Y-96843200D03*
X158305600Y-99383200D03*
X165925600Y-99383200D03*
X165925600Y-96843200D03*
X165925600Y-94303200D03*
X165925600Y-91763200D03*
X165925600Y-89223200D03*
X165925600Y-86683200D03*
X165925600Y-84143200D03*
X165925600Y-81603200D03*
D16*
X150547600Y-120043200D03*
X148907600Y-120043200D03*
D17*
X145031600Y-133403200D03*
X143131600Y-133403200D03*
X144081600Y-135283200D03*
D18*
X127317600Y-112169200D03*
D19*
X171005600Y-152809200D03*
D20*
X128562600Y-146209700D03*
D21*
X128562600Y-151289700D03*
D16*
X157601600Y-118265200D03*
X155961600Y-118265200D03*
D22*
X149599600Y-77253200D03*
X148799600Y-77253200D03*
X147999600Y-77253200D03*
X147199600Y-77253200D03*
X147199600Y-78953200D03*
X147999600Y-78953200D03*
X148799600Y-78953200D03*
X149599600Y-78953200D03*
X159899600Y-104953200D03*
X160699600Y-104953200D03*
X161499600Y-104953200D03*
X162299600Y-104953200D03*
X162299600Y-103253200D03*
X161499600Y-103253200D03*
X160699600Y-103253200D03*
X159899600Y-103253200D03*
D18*
X127317600Y-104549200D03*
D16*
X144843600Y-130457200D03*
X143203600Y-130457200D03*
D23*
X150939600Y-152809200D03*
X159067600Y-152809200D03*
D24*
X143543600Y-140485200D03*
X144193600Y-140485200D03*
X144843600Y-140485200D03*
X144843600Y-138585200D03*
X144193600Y-138585200D03*
X143543600Y-138585200D03*
D25*
X146759600Y-136553200D03*
X148399600Y-136553200D03*
D26*
X183705600Y-91849200D03*
D23*
X132651600Y-99215200D03*
D27*
X138317600Y-88255200D03*
X138317600Y-89055200D03*
X138317600Y-89855200D03*
X138317600Y-90655200D03*
X140017600Y-90655200D03*
X140017600Y-89855200D03*
X140017600Y-89055200D03*
X140017600Y-88255200D03*
D22*
X177355600Y-77253200D03*
X176555600Y-77253200D03*
X175755600Y-77253200D03*
X174955600Y-77253200D03*
X174955600Y-78953200D03*
X175755600Y-78953200D03*
X176555600Y-78953200D03*
X177355600Y-78953200D03*
D28*
X166965600Y-134389200D03*
X166965600Y-135659200D03*
X166965600Y-136939200D03*
X166965600Y-138209200D03*
X172505600Y-138209200D03*
X172505600Y-136939200D03*
X172505600Y-135659200D03*
X172505600Y-134389200D03*
D23*
X136461600Y-99215200D03*
X155003600Y-152809200D03*
D29*
X179661600Y-142803200D03*
D18*
X127317600Y-108359200D03*
D30*
X137691800Y-123827800D03*
D31*
X140231800Y-123827800D03*
X142771800Y-123827800D03*
X145311800Y-123827800D03*
X147851800Y-123827800D03*
X150391800Y-123827800D03*
X152931800Y-123827800D03*
X155471800Y-123827800D03*
X158011800Y-123827800D03*
X160551800Y-123827800D03*
X163091800Y-123827800D03*
X165631800Y-123827800D03*
X168171800Y-123827800D03*
X170711800Y-123827800D03*
X173251800Y-123827800D03*
X175791800Y-123827800D03*
X178331800Y-123827800D03*
X180871800Y-123827800D03*
X183411800Y-123827800D03*
D18*
X127317600Y-132235200D03*
X127317600Y-124107200D03*
X127317600Y-89309200D03*
D32*
X148907600Y-121313200D03*
X149907600Y-121313200D03*
D30*
X177863600Y-115725200D03*
D31*
X175323600Y-115725200D03*
X172783600Y-115725200D03*
X170243600Y-115725200D03*
D33*
X152971600Y-141751200D03*
X152971600Y-137451200D03*
D26*
X183705600Y-87023200D03*
D16*
X170301600Y-132743200D03*
X168661600Y-132743200D03*
D25*
X146759600Y-133505200D03*
X148399600Y-133505200D03*
D14*
X172273100Y-81603200D03*
D15*
X172273100Y-84143200D03*
X172273100Y-86683200D03*
X172273100Y-89223200D03*
X172273100Y-91763200D03*
X172273100Y-94303200D03*
X172273100Y-96843200D03*
X172273100Y-99383200D03*
X179893100Y-99383200D03*
X179893100Y-96843200D03*
X179893100Y-94303200D03*
X179893100Y-91763200D03*
X179893100Y-89223200D03*
X179893100Y-86683200D03*
X179893100Y-84143200D03*
X179893100Y-81603200D03*
D29*
X135711600Y-111903200D03*
D26*
X183705600Y-133251200D03*
D14*
X143573600Y-81603200D03*
D15*
X143573600Y-84143200D03*
X143573600Y-86683200D03*
X143573600Y-89223200D03*
X143573600Y-91763200D03*
X143573600Y-94303200D03*
X143573600Y-96843200D03*
X143573600Y-99383200D03*
X151193600Y-99383200D03*
X151193600Y-96843200D03*
X151193600Y-94303200D03*
X151193600Y-91763200D03*
X151193600Y-89223200D03*
X151193600Y-86683200D03*
X151193600Y-84143200D03*
X151193600Y-81603200D03*
D23*
X132651600Y-106581200D03*
D18*
X127317600Y-93119200D03*
D23*
X163131600Y-152809200D03*
D30*
X131127600Y-117503200D03*
D31*
X133667600Y-117503200D03*
X136207600Y-117503200D03*
X138747600Y-117503200D03*
D25*
X146759600Y-138077200D03*
X148399600Y-138077200D03*
D29*
X125511600Y-138203200D03*
D18*
X127317600Y-128171200D03*
D26*
X183705600Y-129441200D03*
D25*
X146759600Y-135029200D03*
X148399600Y-135029200D03*
D34*
X157543600Y-106777200D03*
X157543600Y-108417200D03*
D18*
X127317600Y-85499200D03*
D14*
X165935600Y-108862200D03*
D15*
X165935600Y-111402200D03*
X173555600Y-111402200D03*
X173555600Y-108862200D03*
D29*
X135211600Y-82103200D03*
D18*
X127317600Y-100739200D03*
X127317600Y-119789200D03*
D35*
X154749600Y-115725200D03*
X154749600Y-114725200D03*
D33*
X152971600Y-134131200D03*
X152971600Y-129831200D03*
D30*
X137691800Y-149227800D03*
D31*
X140231800Y-149227800D03*
X142771800Y-149227800D03*
X145311800Y-149227800D03*
X147851800Y-149227800D03*
X150391800Y-149227800D03*
X152931800Y-149227800D03*
X155471800Y-149227800D03*
X158011800Y-149227800D03*
X160551800Y-149227800D03*
X163091800Y-149227800D03*
X165631800Y-149227800D03*
X168171800Y-149227800D03*
X170711800Y-149227800D03*
X173251800Y-149227800D03*
X175791800Y-149227800D03*
X178331800Y-149227800D03*
X180871800Y-149227800D03*
X183411800Y-149227800D03*
D19*
X166941600Y-152809200D03*
D16*
X158871600Y-114963200D03*
X157231600Y-114963200D03*
D18*
X127317600Y-115979200D03*
D36*
X143021600Y-108198200D03*
X143021600Y-108848200D03*
X143021600Y-109498200D03*
X143021600Y-110148200D03*
X143021600Y-110798200D03*
X143021600Y-111448200D03*
X143021600Y-112098200D03*
X143021600Y-112748200D03*
X143021600Y-113398200D03*
X143021600Y-114048200D03*
X143021600Y-114698200D03*
X143021600Y-115348200D03*
X143021600Y-115998200D03*
X143021600Y-116648200D03*
X150221600Y-116648200D03*
X150221600Y-115998200D03*
X150221600Y-115348200D03*
X150221600Y-114698200D03*
X150221600Y-114048200D03*
X150221600Y-113398200D03*
X150221600Y-112748200D03*
X150221600Y-112098200D03*
X150221600Y-111448200D03*
X150221600Y-110798200D03*
X150221600Y-110148200D03*
X150221600Y-109498200D03*
X150221600Y-108848200D03*
X150221600Y-108198200D03*
D18*
X127317600Y-96929200D03*
D23*
X175323600Y-152809200D03*
D22*
X163385600Y-77253200D03*
X162585600Y-77253200D03*
X161785600Y-77253200D03*
X160985600Y-77253200D03*
X160985600Y-78953200D03*
X161785600Y-78953200D03*
X162585600Y-78953200D03*
X163385600Y-78953200D03*
D26*
X183705600Y-96675200D03*
D23*
X136461600Y-106581200D03*
D22*
X174447600Y-104953200D03*
X175247600Y-104953200D03*
X176047600Y-104953200D03*
X176847600Y-104953200D03*
X176847600Y-103253200D03*
X176047600Y-103253200D03*
X175247600Y-103253200D03*
X174447600Y-103253200D03*
D26*
X127317600Y-81689200D03*
D16*
X148399600Y-131981200D03*
X146759600Y-131981200D03*
%LPD*%
M02*
