%TF.GenerationSoftware,KiCad,Pcbnew,8.0.9-8.0.9-0~ubuntu22.04.1*%
%TF.CreationDate,2025-03-11T20:39:32+01:00*%
%TF.ProjectId,BrakeOutBoard,4272616b-654f-4757-9442-6f6172642e6b,rev?*%
%TF.SameCoordinates,Original*%
%TF.FileFunction,Drillmap*%
%TF.FilePolarity,Positive*%
%FSLAX45Y45*%
G04 Gerber Fmt 4.5, Leading zero omitted, Abs format (unit mm)*
G04 Created by KiCad (PCBNEW 8.0.9-8.0.9-0~ubuntu22.04.1) date 2025-03-11 20:39:32*
%MOMM*%
%LPD*%
G01*
G04 APERTURE LIST*
%ADD10C,0.050000*%
%ADD11C,0.200000*%
%ADD12C,0.320000*%
G04 APERTURE END LIST*
D10*
X12401160Y-7460320D02*
X18701160Y-7460320D01*
X18701160Y-15460320D01*
X12401160Y-15460320D01*
X12401160Y-7460320D01*
X18201160Y-13660320D02*
X18696160Y-13660320D01*
X18696160Y-14160320D01*
X18201160Y-14160320D01*
X18201160Y-13660320D01*
D11*
D12*
X12391160Y-13660320D02*
X12711160Y-13980320D01*
X12711160Y-13660320D02*
X12391160Y-13980320D01*
X13361160Y-8050320D02*
X13681160Y-8370320D01*
X13681160Y-8050320D02*
X13361160Y-8370320D01*
X13411160Y-11030320D02*
X13731160Y-11350320D01*
X13731160Y-11030320D02*
X13411160Y-11350320D01*
X17806160Y-14120320D02*
X18126160Y-14440320D01*
X18126160Y-14120320D02*
X17806160Y-14440320D01*
D11*
X12659437Y-15774304D02*
X12659437Y-15574304D01*
X12659437Y-15574304D02*
X12707056Y-15574304D01*
X12707056Y-15574304D02*
X12735627Y-15583828D01*
X12735627Y-15583828D02*
X12754675Y-15602875D01*
X12754675Y-15602875D02*
X12764199Y-15621923D01*
X12764199Y-15621923D02*
X12773722Y-15660018D01*
X12773722Y-15660018D02*
X12773722Y-15688589D01*
X12773722Y-15688589D02*
X12764199Y-15726685D01*
X12764199Y-15726685D02*
X12754675Y-15745732D01*
X12754675Y-15745732D02*
X12735627Y-15764780D01*
X12735627Y-15764780D02*
X12707056Y-15774304D01*
X12707056Y-15774304D02*
X12659437Y-15774304D01*
X12859437Y-15774304D02*
X12859437Y-15640970D01*
X12859437Y-15679066D02*
X12868961Y-15660018D01*
X12868961Y-15660018D02*
X12878484Y-15650494D01*
X12878484Y-15650494D02*
X12897532Y-15640970D01*
X12897532Y-15640970D02*
X12916580Y-15640970D01*
X12983246Y-15774304D02*
X12983246Y-15640970D01*
X12983246Y-15574304D02*
X12973722Y-15583828D01*
X12973722Y-15583828D02*
X12983246Y-15593351D01*
X12983246Y-15593351D02*
X12992770Y-15583828D01*
X12992770Y-15583828D02*
X12983246Y-15574304D01*
X12983246Y-15574304D02*
X12983246Y-15593351D01*
X13107056Y-15774304D02*
X13088008Y-15764780D01*
X13088008Y-15764780D02*
X13078484Y-15745732D01*
X13078484Y-15745732D02*
X13078484Y-15574304D01*
X13211818Y-15774304D02*
X13192770Y-15764780D01*
X13192770Y-15764780D02*
X13183246Y-15745732D01*
X13183246Y-15745732D02*
X13183246Y-15574304D01*
X13440389Y-15774304D02*
X13440389Y-15574304D01*
X13440389Y-15574304D02*
X13507056Y-15717161D01*
X13507056Y-15717161D02*
X13573722Y-15574304D01*
X13573722Y-15574304D02*
X13573722Y-15774304D01*
X13754675Y-15774304D02*
X13754675Y-15669542D01*
X13754675Y-15669542D02*
X13745151Y-15650494D01*
X13745151Y-15650494D02*
X13726103Y-15640970D01*
X13726103Y-15640970D02*
X13688008Y-15640970D01*
X13688008Y-15640970D02*
X13668961Y-15650494D01*
X13754675Y-15764780D02*
X13735627Y-15774304D01*
X13735627Y-15774304D02*
X13688008Y-15774304D01*
X13688008Y-15774304D02*
X13668961Y-15764780D01*
X13668961Y-15764780D02*
X13659437Y-15745732D01*
X13659437Y-15745732D02*
X13659437Y-15726685D01*
X13659437Y-15726685D02*
X13668961Y-15707637D01*
X13668961Y-15707637D02*
X13688008Y-15698113D01*
X13688008Y-15698113D02*
X13735627Y-15698113D01*
X13735627Y-15698113D02*
X13754675Y-15688589D01*
X13849913Y-15640970D02*
X13849913Y-15840970D01*
X13849913Y-15650494D02*
X13868961Y-15640970D01*
X13868961Y-15640970D02*
X13907056Y-15640970D01*
X13907056Y-15640970D02*
X13926103Y-15650494D01*
X13926103Y-15650494D02*
X13935627Y-15660018D01*
X13935627Y-15660018D02*
X13945151Y-15679066D01*
X13945151Y-15679066D02*
X13945151Y-15736208D01*
X13945151Y-15736208D02*
X13935627Y-15755256D01*
X13935627Y-15755256D02*
X13926103Y-15764780D01*
X13926103Y-15764780D02*
X13907056Y-15774304D01*
X13907056Y-15774304D02*
X13868961Y-15774304D01*
X13868961Y-15774304D02*
X13849913Y-15764780D01*
X14030865Y-15755256D02*
X14040389Y-15764780D01*
X14040389Y-15764780D02*
X14030865Y-15774304D01*
X14030865Y-15774304D02*
X14021342Y-15764780D01*
X14021342Y-15764780D02*
X14030865Y-15755256D01*
X14030865Y-15755256D02*
X14030865Y-15774304D01*
X14030865Y-15650494D02*
X14040389Y-15660018D01*
X14040389Y-15660018D02*
X14030865Y-15669542D01*
X14030865Y-15669542D02*
X14021342Y-15660018D01*
X14021342Y-15660018D02*
X14030865Y-15650494D01*
X14030865Y-15650494D02*
X14030865Y-15669542D01*
X12198660Y-16002820D02*
X12398660Y-16202820D01*
X12398660Y-16002820D02*
X12198660Y-16202820D01*
X12640389Y-15994304D02*
X12764199Y-15994304D01*
X12764199Y-15994304D02*
X12697532Y-16070494D01*
X12697532Y-16070494D02*
X12726103Y-16070494D01*
X12726103Y-16070494D02*
X12745151Y-16080018D01*
X12745151Y-16080018D02*
X12754675Y-16089542D01*
X12754675Y-16089542D02*
X12764199Y-16108589D01*
X12764199Y-16108589D02*
X12764199Y-16156208D01*
X12764199Y-16156208D02*
X12754675Y-16175256D01*
X12754675Y-16175256D02*
X12745151Y-16184780D01*
X12745151Y-16184780D02*
X12726103Y-16194304D01*
X12726103Y-16194304D02*
X12668961Y-16194304D01*
X12668961Y-16194304D02*
X12649913Y-16184780D01*
X12649913Y-16184780D02*
X12640389Y-16175256D01*
X12849913Y-16175256D02*
X12859437Y-16184780D01*
X12859437Y-16184780D02*
X12849913Y-16194304D01*
X12849913Y-16194304D02*
X12840389Y-16184780D01*
X12840389Y-16184780D02*
X12849913Y-16175256D01*
X12849913Y-16175256D02*
X12849913Y-16194304D01*
X12935627Y-16013351D02*
X12945151Y-16003828D01*
X12945151Y-16003828D02*
X12964199Y-15994304D01*
X12964199Y-15994304D02*
X13011818Y-15994304D01*
X13011818Y-15994304D02*
X13030865Y-16003828D01*
X13030865Y-16003828D02*
X13040389Y-16013351D01*
X13040389Y-16013351D02*
X13049913Y-16032399D01*
X13049913Y-16032399D02*
X13049913Y-16051447D01*
X13049913Y-16051447D02*
X13040389Y-16080018D01*
X13040389Y-16080018D02*
X12926103Y-16194304D01*
X12926103Y-16194304D02*
X13049913Y-16194304D01*
X13173722Y-15994304D02*
X13192770Y-15994304D01*
X13192770Y-15994304D02*
X13211818Y-16003828D01*
X13211818Y-16003828D02*
X13221342Y-16013351D01*
X13221342Y-16013351D02*
X13230865Y-16032399D01*
X13230865Y-16032399D02*
X13240389Y-16070494D01*
X13240389Y-16070494D02*
X13240389Y-16118113D01*
X13240389Y-16118113D02*
X13230865Y-16156208D01*
X13230865Y-16156208D02*
X13221342Y-16175256D01*
X13221342Y-16175256D02*
X13211818Y-16184780D01*
X13211818Y-16184780D02*
X13192770Y-16194304D01*
X13192770Y-16194304D02*
X13173722Y-16194304D01*
X13173722Y-16194304D02*
X13154675Y-16184780D01*
X13154675Y-16184780D02*
X13145151Y-16175256D01*
X13145151Y-16175256D02*
X13135627Y-16156208D01*
X13135627Y-16156208D02*
X13126103Y-16118113D01*
X13126103Y-16118113D02*
X13126103Y-16070494D01*
X13126103Y-16070494D02*
X13135627Y-16032399D01*
X13135627Y-16032399D02*
X13145151Y-16013351D01*
X13145151Y-16013351D02*
X13154675Y-16003828D01*
X13154675Y-16003828D02*
X13173722Y-15994304D01*
X13364199Y-15994304D02*
X13383246Y-15994304D01*
X13383246Y-15994304D02*
X13402294Y-16003828D01*
X13402294Y-16003828D02*
X13411818Y-16013351D01*
X13411818Y-16013351D02*
X13421342Y-16032399D01*
X13421342Y-16032399D02*
X13430865Y-16070494D01*
X13430865Y-16070494D02*
X13430865Y-16118113D01*
X13430865Y-16118113D02*
X13421342Y-16156208D01*
X13421342Y-16156208D02*
X13411818Y-16175256D01*
X13411818Y-16175256D02*
X13402294Y-16184780D01*
X13402294Y-16184780D02*
X13383246Y-16194304D01*
X13383246Y-16194304D02*
X13364199Y-16194304D01*
X13364199Y-16194304D02*
X13345151Y-16184780D01*
X13345151Y-16184780D02*
X13335627Y-16175256D01*
X13335627Y-16175256D02*
X13326103Y-16156208D01*
X13326103Y-16156208D02*
X13316580Y-16118113D01*
X13316580Y-16118113D02*
X13316580Y-16070494D01*
X13316580Y-16070494D02*
X13326103Y-16032399D01*
X13326103Y-16032399D02*
X13335627Y-16013351D01*
X13335627Y-16013351D02*
X13345151Y-16003828D01*
X13345151Y-16003828D02*
X13364199Y-15994304D01*
X13516580Y-16194304D02*
X13516580Y-16060970D01*
X13516580Y-16080018D02*
X13526103Y-16070494D01*
X13526103Y-16070494D02*
X13545151Y-16060970D01*
X13545151Y-16060970D02*
X13573723Y-16060970D01*
X13573723Y-16060970D02*
X13592770Y-16070494D01*
X13592770Y-16070494D02*
X13602294Y-16089542D01*
X13602294Y-16089542D02*
X13602294Y-16194304D01*
X13602294Y-16089542D02*
X13611818Y-16070494D01*
X13611818Y-16070494D02*
X13630865Y-16060970D01*
X13630865Y-16060970D02*
X13659437Y-16060970D01*
X13659437Y-16060970D02*
X13678484Y-16070494D01*
X13678484Y-16070494D02*
X13688008Y-16089542D01*
X13688008Y-16089542D02*
X13688008Y-16194304D01*
X13783246Y-16194304D02*
X13783246Y-16060970D01*
X13783246Y-16080018D02*
X13792770Y-16070494D01*
X13792770Y-16070494D02*
X13811818Y-16060970D01*
X13811818Y-16060970D02*
X13840389Y-16060970D01*
X13840389Y-16060970D02*
X13859437Y-16070494D01*
X13859437Y-16070494D02*
X13868961Y-16089542D01*
X13868961Y-16089542D02*
X13868961Y-16194304D01*
X13868961Y-16089542D02*
X13878484Y-16070494D01*
X13878484Y-16070494D02*
X13897532Y-16060970D01*
X13897532Y-16060970D02*
X13926103Y-16060970D01*
X13926103Y-16060970D02*
X13945151Y-16070494D01*
X13945151Y-16070494D02*
X13954675Y-16089542D01*
X13954675Y-16089542D02*
X13954675Y-16194304D01*
X14345151Y-15984780D02*
X14173723Y-16241923D01*
X14602294Y-15994304D02*
X14621342Y-15994304D01*
X14621342Y-15994304D02*
X14640389Y-16003828D01*
X14640389Y-16003828D02*
X14649913Y-16013351D01*
X14649913Y-16013351D02*
X14659437Y-16032399D01*
X14659437Y-16032399D02*
X14668961Y-16070494D01*
X14668961Y-16070494D02*
X14668961Y-16118113D01*
X14668961Y-16118113D02*
X14659437Y-16156208D01*
X14659437Y-16156208D02*
X14649913Y-16175256D01*
X14649913Y-16175256D02*
X14640389Y-16184780D01*
X14640389Y-16184780D02*
X14621342Y-16194304D01*
X14621342Y-16194304D02*
X14602294Y-16194304D01*
X14602294Y-16194304D02*
X14583246Y-16184780D01*
X14583246Y-16184780D02*
X14573723Y-16175256D01*
X14573723Y-16175256D02*
X14564199Y-16156208D01*
X14564199Y-16156208D02*
X14554675Y-16118113D01*
X14554675Y-16118113D02*
X14554675Y-16070494D01*
X14554675Y-16070494D02*
X14564199Y-16032399D01*
X14564199Y-16032399D02*
X14573723Y-16013351D01*
X14573723Y-16013351D02*
X14583246Y-16003828D01*
X14583246Y-16003828D02*
X14602294Y-15994304D01*
X14754675Y-16175256D02*
X14764199Y-16184780D01*
X14764199Y-16184780D02*
X14754675Y-16194304D01*
X14754675Y-16194304D02*
X14745151Y-16184780D01*
X14745151Y-16184780D02*
X14754675Y-16175256D01*
X14754675Y-16175256D02*
X14754675Y-16194304D01*
X14954675Y-16194304D02*
X14840389Y-16194304D01*
X14897532Y-16194304D02*
X14897532Y-15994304D01*
X14897532Y-15994304D02*
X14878485Y-16022875D01*
X14878485Y-16022875D02*
X14859437Y-16041923D01*
X14859437Y-16041923D02*
X14840389Y-16051447D01*
X15030866Y-16013351D02*
X15040389Y-16003828D01*
X15040389Y-16003828D02*
X15059437Y-15994304D01*
X15059437Y-15994304D02*
X15107056Y-15994304D01*
X15107056Y-15994304D02*
X15126104Y-16003828D01*
X15126104Y-16003828D02*
X15135627Y-16013351D01*
X15135627Y-16013351D02*
X15145151Y-16032399D01*
X15145151Y-16032399D02*
X15145151Y-16051447D01*
X15145151Y-16051447D02*
X15135627Y-16080018D01*
X15135627Y-16080018D02*
X15021342Y-16194304D01*
X15021342Y-16194304D02*
X15145151Y-16194304D01*
X15316580Y-15994304D02*
X15278485Y-15994304D01*
X15278485Y-15994304D02*
X15259437Y-16003828D01*
X15259437Y-16003828D02*
X15249913Y-16013351D01*
X15249913Y-16013351D02*
X15230866Y-16041923D01*
X15230866Y-16041923D02*
X15221342Y-16080018D01*
X15221342Y-16080018D02*
X15221342Y-16156208D01*
X15221342Y-16156208D02*
X15230866Y-16175256D01*
X15230866Y-16175256D02*
X15240389Y-16184780D01*
X15240389Y-16184780D02*
X15259437Y-16194304D01*
X15259437Y-16194304D02*
X15297532Y-16194304D01*
X15297532Y-16194304D02*
X15316580Y-16184780D01*
X15316580Y-16184780D02*
X15326104Y-16175256D01*
X15326104Y-16175256D02*
X15335627Y-16156208D01*
X15335627Y-16156208D02*
X15335627Y-16108589D01*
X15335627Y-16108589D02*
X15326104Y-16089542D01*
X15326104Y-16089542D02*
X15316580Y-16080018D01*
X15316580Y-16080018D02*
X15297532Y-16070494D01*
X15297532Y-16070494D02*
X15259437Y-16070494D01*
X15259437Y-16070494D02*
X15240389Y-16080018D01*
X15240389Y-16080018D02*
X15230866Y-16089542D01*
X15230866Y-16089542D02*
X15221342Y-16108589D01*
X15459437Y-15994304D02*
X15478485Y-15994304D01*
X15478485Y-15994304D02*
X15497532Y-16003828D01*
X15497532Y-16003828D02*
X15507056Y-16013351D01*
X15507056Y-16013351D02*
X15516580Y-16032399D01*
X15516580Y-16032399D02*
X15526104Y-16070494D01*
X15526104Y-16070494D02*
X15526104Y-16118113D01*
X15526104Y-16118113D02*
X15516580Y-16156208D01*
X15516580Y-16156208D02*
X15507056Y-16175256D01*
X15507056Y-16175256D02*
X15497532Y-16184780D01*
X15497532Y-16184780D02*
X15478485Y-16194304D01*
X15478485Y-16194304D02*
X15459437Y-16194304D01*
X15459437Y-16194304D02*
X15440389Y-16184780D01*
X15440389Y-16184780D02*
X15430866Y-16175256D01*
X15430866Y-16175256D02*
X15421342Y-16156208D01*
X15421342Y-16156208D02*
X15411818Y-16118113D01*
X15411818Y-16118113D02*
X15411818Y-16070494D01*
X15411818Y-16070494D02*
X15421342Y-16032399D01*
X15421342Y-16032399D02*
X15430866Y-16013351D01*
X15430866Y-16013351D02*
X15440389Y-16003828D01*
X15440389Y-16003828D02*
X15459437Y-15994304D01*
X15602294Y-15994304D02*
X15602294Y-16032399D01*
X15678485Y-15994304D02*
X15678485Y-16032399D01*
X15973723Y-16270494D02*
X15964199Y-16260970D01*
X15964199Y-16260970D02*
X15945151Y-16232399D01*
X15945151Y-16232399D02*
X15935628Y-16213351D01*
X15935628Y-16213351D02*
X15926104Y-16184780D01*
X15926104Y-16184780D02*
X15916580Y-16137161D01*
X15916580Y-16137161D02*
X15916580Y-16099066D01*
X15916580Y-16099066D02*
X15926104Y-16051447D01*
X15926104Y-16051447D02*
X15935628Y-16022875D01*
X15935628Y-16022875D02*
X15945151Y-16003828D01*
X15945151Y-16003828D02*
X15964199Y-15975256D01*
X15964199Y-15975256D02*
X15973723Y-15965732D01*
X16135628Y-16060970D02*
X16135628Y-16194304D01*
X16088008Y-15984780D02*
X16040389Y-16127637D01*
X16040389Y-16127637D02*
X16164199Y-16127637D01*
X16392770Y-16194304D02*
X16392770Y-15994304D01*
X16478485Y-16194304D02*
X16478485Y-16089542D01*
X16478485Y-16089542D02*
X16468961Y-16070494D01*
X16468961Y-16070494D02*
X16449913Y-16060970D01*
X16449913Y-16060970D02*
X16421342Y-16060970D01*
X16421342Y-16060970D02*
X16402294Y-16070494D01*
X16402294Y-16070494D02*
X16392770Y-16080018D01*
X16602294Y-16194304D02*
X16583247Y-16184780D01*
X16583247Y-16184780D02*
X16573723Y-16175256D01*
X16573723Y-16175256D02*
X16564199Y-16156208D01*
X16564199Y-16156208D02*
X16564199Y-16099066D01*
X16564199Y-16099066D02*
X16573723Y-16080018D01*
X16573723Y-16080018D02*
X16583247Y-16070494D01*
X16583247Y-16070494D02*
X16602294Y-16060970D01*
X16602294Y-16060970D02*
X16630866Y-16060970D01*
X16630866Y-16060970D02*
X16649913Y-16070494D01*
X16649913Y-16070494D02*
X16659437Y-16080018D01*
X16659437Y-16080018D02*
X16668961Y-16099066D01*
X16668961Y-16099066D02*
X16668961Y-16156208D01*
X16668961Y-16156208D02*
X16659437Y-16175256D01*
X16659437Y-16175256D02*
X16649913Y-16184780D01*
X16649913Y-16184780D02*
X16630866Y-16194304D01*
X16630866Y-16194304D02*
X16602294Y-16194304D01*
X16783247Y-16194304D02*
X16764199Y-16184780D01*
X16764199Y-16184780D02*
X16754675Y-16165732D01*
X16754675Y-16165732D02*
X16754675Y-15994304D01*
X16935628Y-16184780D02*
X16916580Y-16194304D01*
X16916580Y-16194304D02*
X16878485Y-16194304D01*
X16878485Y-16194304D02*
X16859437Y-16184780D01*
X16859437Y-16184780D02*
X16849913Y-16165732D01*
X16849913Y-16165732D02*
X16849913Y-16089542D01*
X16849913Y-16089542D02*
X16859437Y-16070494D01*
X16859437Y-16070494D02*
X16878485Y-16060970D01*
X16878485Y-16060970D02*
X16916580Y-16060970D01*
X16916580Y-16060970D02*
X16935628Y-16070494D01*
X16935628Y-16070494D02*
X16945152Y-16089542D01*
X16945152Y-16089542D02*
X16945152Y-16108589D01*
X16945152Y-16108589D02*
X16849913Y-16127637D01*
X17021342Y-16184780D02*
X17040390Y-16194304D01*
X17040390Y-16194304D02*
X17078485Y-16194304D01*
X17078485Y-16194304D02*
X17097533Y-16184780D01*
X17097533Y-16184780D02*
X17107056Y-16165732D01*
X17107056Y-16165732D02*
X17107056Y-16156208D01*
X17107056Y-16156208D02*
X17097533Y-16137161D01*
X17097533Y-16137161D02*
X17078485Y-16127637D01*
X17078485Y-16127637D02*
X17049913Y-16127637D01*
X17049913Y-16127637D02*
X17030866Y-16118113D01*
X17030866Y-16118113D02*
X17021342Y-16099066D01*
X17021342Y-16099066D02*
X17021342Y-16089542D01*
X17021342Y-16089542D02*
X17030866Y-16070494D01*
X17030866Y-16070494D02*
X17049913Y-16060970D01*
X17049913Y-16060970D02*
X17078485Y-16060970D01*
X17078485Y-16060970D02*
X17097533Y-16070494D01*
X17173723Y-16270494D02*
X17183247Y-16260970D01*
X17183247Y-16260970D02*
X17202294Y-16232399D01*
X17202294Y-16232399D02*
X17211818Y-16213351D01*
X17211818Y-16213351D02*
X17221342Y-16184780D01*
X17221342Y-16184780D02*
X17230866Y-16137161D01*
X17230866Y-16137161D02*
X17230866Y-16099066D01*
X17230866Y-16099066D02*
X17221342Y-16051447D01*
X17221342Y-16051447D02*
X17211818Y-16022875D01*
X17211818Y-16022875D02*
X17202294Y-16003828D01*
X17202294Y-16003828D02*
X17183247Y-15975256D01*
X17183247Y-15975256D02*
X17173723Y-15965732D01*
X17535628Y-16270494D02*
X17526104Y-16260970D01*
X17526104Y-16260970D02*
X17507056Y-16232399D01*
X17507056Y-16232399D02*
X17497533Y-16213351D01*
X17497533Y-16213351D02*
X17488009Y-16184780D01*
X17488009Y-16184780D02*
X17478485Y-16137161D01*
X17478485Y-16137161D02*
X17478485Y-16099066D01*
X17478485Y-16099066D02*
X17488009Y-16051447D01*
X17488009Y-16051447D02*
X17497533Y-16022875D01*
X17497533Y-16022875D02*
X17507056Y-16003828D01*
X17507056Y-16003828D02*
X17526104Y-15975256D01*
X17526104Y-15975256D02*
X17535628Y-15965732D01*
X17611818Y-16060970D02*
X17611818Y-16194304D01*
X17611818Y-16080018D02*
X17621342Y-16070494D01*
X17621342Y-16070494D02*
X17640390Y-16060970D01*
X17640390Y-16060970D02*
X17668961Y-16060970D01*
X17668961Y-16060970D02*
X17688009Y-16070494D01*
X17688009Y-16070494D02*
X17697533Y-16089542D01*
X17697533Y-16089542D02*
X17697533Y-16194304D01*
X17821342Y-16194304D02*
X17802294Y-16184780D01*
X17802294Y-16184780D02*
X17792771Y-16175256D01*
X17792771Y-16175256D02*
X17783247Y-16156208D01*
X17783247Y-16156208D02*
X17783247Y-16099066D01*
X17783247Y-16099066D02*
X17792771Y-16080018D01*
X17792771Y-16080018D02*
X17802294Y-16070494D01*
X17802294Y-16070494D02*
X17821342Y-16060970D01*
X17821342Y-16060970D02*
X17849914Y-16060970D01*
X17849914Y-16060970D02*
X17868961Y-16070494D01*
X17868961Y-16070494D02*
X17878485Y-16080018D01*
X17878485Y-16080018D02*
X17888009Y-16099066D01*
X17888009Y-16099066D02*
X17888009Y-16156208D01*
X17888009Y-16156208D02*
X17878485Y-16175256D01*
X17878485Y-16175256D02*
X17868961Y-16184780D01*
X17868961Y-16184780D02*
X17849914Y-16194304D01*
X17849914Y-16194304D02*
X17821342Y-16194304D01*
X17945152Y-16060970D02*
X18021342Y-16060970D01*
X17973723Y-15994304D02*
X17973723Y-16165732D01*
X17973723Y-16165732D02*
X17983247Y-16184780D01*
X17983247Y-16184780D02*
X18002294Y-16194304D01*
X18002294Y-16194304D02*
X18021342Y-16194304D01*
X18240390Y-16060970D02*
X18240390Y-16260970D01*
X18240390Y-16070494D02*
X18259437Y-16060970D01*
X18259437Y-16060970D02*
X18297533Y-16060970D01*
X18297533Y-16060970D02*
X18316580Y-16070494D01*
X18316580Y-16070494D02*
X18326104Y-16080018D01*
X18326104Y-16080018D02*
X18335628Y-16099066D01*
X18335628Y-16099066D02*
X18335628Y-16156208D01*
X18335628Y-16156208D02*
X18326104Y-16175256D01*
X18326104Y-16175256D02*
X18316580Y-16184780D01*
X18316580Y-16184780D02*
X18297533Y-16194304D01*
X18297533Y-16194304D02*
X18259437Y-16194304D01*
X18259437Y-16194304D02*
X18240390Y-16184780D01*
X18449914Y-16194304D02*
X18430866Y-16184780D01*
X18430866Y-16184780D02*
X18421342Y-16165732D01*
X18421342Y-16165732D02*
X18421342Y-15994304D01*
X18611818Y-16194304D02*
X18611818Y-16089542D01*
X18611818Y-16089542D02*
X18602295Y-16070494D01*
X18602295Y-16070494D02*
X18583247Y-16060970D01*
X18583247Y-16060970D02*
X18545152Y-16060970D01*
X18545152Y-16060970D02*
X18526104Y-16070494D01*
X18611818Y-16184780D02*
X18592771Y-16194304D01*
X18592771Y-16194304D02*
X18545152Y-16194304D01*
X18545152Y-16194304D02*
X18526104Y-16184780D01*
X18526104Y-16184780D02*
X18516580Y-16165732D01*
X18516580Y-16165732D02*
X18516580Y-16146685D01*
X18516580Y-16146685D02*
X18526104Y-16127637D01*
X18526104Y-16127637D02*
X18545152Y-16118113D01*
X18545152Y-16118113D02*
X18592771Y-16118113D01*
X18592771Y-16118113D02*
X18611818Y-16108589D01*
X18678485Y-16060970D02*
X18754675Y-16060970D01*
X18707056Y-15994304D02*
X18707056Y-16165732D01*
X18707056Y-16165732D02*
X18716580Y-16184780D01*
X18716580Y-16184780D02*
X18735628Y-16194304D01*
X18735628Y-16194304D02*
X18754675Y-16194304D01*
X18897533Y-16184780D02*
X18878485Y-16194304D01*
X18878485Y-16194304D02*
X18840390Y-16194304D01*
X18840390Y-16194304D02*
X18821342Y-16184780D01*
X18821342Y-16184780D02*
X18811818Y-16165732D01*
X18811818Y-16165732D02*
X18811818Y-16089542D01*
X18811818Y-16089542D02*
X18821342Y-16070494D01*
X18821342Y-16070494D02*
X18840390Y-16060970D01*
X18840390Y-16060970D02*
X18878485Y-16060970D01*
X18878485Y-16060970D02*
X18897533Y-16070494D01*
X18897533Y-16070494D02*
X18907056Y-16089542D01*
X18907056Y-16089542D02*
X18907056Y-16108589D01*
X18907056Y-16108589D02*
X18811818Y-16127637D01*
X19078485Y-16194304D02*
X19078485Y-15994304D01*
X19078485Y-16184780D02*
X19059437Y-16194304D01*
X19059437Y-16194304D02*
X19021342Y-16194304D01*
X19021342Y-16194304D02*
X19002295Y-16184780D01*
X19002295Y-16184780D02*
X18992771Y-16175256D01*
X18992771Y-16175256D02*
X18983247Y-16156208D01*
X18983247Y-16156208D02*
X18983247Y-16099066D01*
X18983247Y-16099066D02*
X18992771Y-16080018D01*
X18992771Y-16080018D02*
X19002295Y-16070494D01*
X19002295Y-16070494D02*
X19021342Y-16060970D01*
X19021342Y-16060970D02*
X19059437Y-16060970D01*
X19059437Y-16060970D02*
X19078485Y-16070494D01*
X19154676Y-16270494D02*
X19164199Y-16260970D01*
X19164199Y-16260970D02*
X19183247Y-16232399D01*
X19183247Y-16232399D02*
X19192771Y-16213351D01*
X19192771Y-16213351D02*
X19202295Y-16184780D01*
X19202295Y-16184780D02*
X19211818Y-16137161D01*
X19211818Y-16137161D02*
X19211818Y-16099066D01*
X19211818Y-16099066D02*
X19202295Y-16051447D01*
X19202295Y-16051447D02*
X19192771Y-16022875D01*
X19192771Y-16022875D02*
X19183247Y-16003828D01*
X19183247Y-16003828D02*
X19164199Y-15975256D01*
X19164199Y-15975256D02*
X19154676Y-15965732D01*
M02*
