G04 #@! TF.GenerationSoftware,KiCad,Pcbnew,8.0.9-8.0.9-0~ubuntu22.04.1*
G04 #@! TF.CreationDate,2025-03-06T20:20:15+01:00*
G04 #@! TF.ProjectId,BrakeOutBoard,4272616b-654f-4757-9442-6f6172642e6b,rev?*
G04 #@! TF.SameCoordinates,Original*
G04 #@! TF.FileFunction,Copper,L2,Bot*
G04 #@! TF.FilePolarity,Positive*
%FSLAX46Y46*%
G04 Gerber Fmt 4.6, Leading zero omitted, Abs format (unit mm)*
G04 Created by KiCad (PCBNEW 8.0.9-8.0.9-0~ubuntu22.04.1) date 2025-03-06 20:20:15*
%MOMM*%
%LPD*%
G01*
G04 APERTURE LIST*
G04 Aperture macros list*
%AMRoundRect*
0 Rectangle with rounded corners*
0 $1 Rounding radius*
0 $2 $3 $4 $5 $6 $7 $8 $9 X,Y pos of 4 corners*
0 Add a 4 corners polygon primitive as box body*
4,1,4,$2,$3,$4,$5,$6,$7,$8,$9,$2,$3,0*
0 Add four circle primitives for the rounded corners*
1,1,$1+$1,$2,$3*
1,1,$1+$1,$4,$5*
1,1,$1+$1,$6,$7*
1,1,$1+$1,$8,$9*
0 Add four rect primitives between the rounded corners*
20,1,$1+$1,$2,$3,$4,$5,0*
20,1,$1+$1,$4,$5,$6,$7,0*
20,1,$1+$1,$6,$7,$8,$9,0*
20,1,$1+$1,$8,$9,$2,$3,0*%
G04 Aperture macros list end*
G04 #@! TA.AperFunction,ComponentPad*
%ADD10R,1.600000X1.600000*%
G04 #@! TD*
G04 #@! TA.AperFunction,ComponentPad*
%ADD11O,1.600000X1.600000*%
G04 #@! TD*
G04 #@! TA.AperFunction,ComponentPad*
%ADD12RoundRect,0.250001X0.799999X-0.799999X0.799999X0.799999X-0.799999X0.799999X-0.799999X-0.799999X0*%
G04 #@! TD*
G04 #@! TA.AperFunction,ComponentPad*
%ADD13RoundRect,0.250001X0.799999X0.799999X-0.799999X0.799999X-0.799999X-0.799999X0.799999X-0.799999X0*%
G04 #@! TD*
G04 #@! TA.AperFunction,ComponentPad*
%ADD14R,1.950000X1.950000*%
G04 #@! TD*
G04 #@! TA.AperFunction,ComponentPad*
%ADD15C,1.950000*%
G04 #@! TD*
G04 #@! TA.AperFunction,ComponentPad*
%ADD16RoundRect,0.250001X-0.799999X-0.799999X0.799999X-0.799999X0.799999X0.799999X-0.799999X0.799999X0*%
G04 #@! TD*
G04 #@! TA.AperFunction,ComponentPad*
%ADD17RoundRect,0.250001X-0.799999X0.799999X-0.799999X-0.799999X0.799999X-0.799999X0.799999X0.799999X0*%
G04 #@! TD*
G04 #@! TA.AperFunction,ComponentPad*
%ADD18R,1.700000X1.700000*%
G04 #@! TD*
G04 #@! TA.AperFunction,ComponentPad*
%ADD19O,1.700000X1.700000*%
G04 #@! TD*
G04 #@! TA.AperFunction,ViaPad*
%ADD20C,0.600000*%
G04 #@! TD*
G04 #@! TA.AperFunction,Conductor*
%ADD21C,0.200000*%
G04 #@! TD*
G04 APERTURE END LIST*
D10*
X158305600Y-81603200D03*
D11*
X158305600Y-84143200D03*
X158305600Y-86683200D03*
X158305600Y-89223200D03*
X158305600Y-91763200D03*
X158305600Y-94303200D03*
X158305600Y-96843200D03*
X158305600Y-99383200D03*
X165925600Y-99383200D03*
X165925600Y-96843200D03*
X165925600Y-94303200D03*
X165925600Y-91763200D03*
X165925600Y-89223200D03*
X165925600Y-86683200D03*
X165925600Y-84143200D03*
X165925600Y-81603200D03*
D12*
X127317600Y-109375200D03*
D13*
X171005600Y-152809200D03*
D14*
X128562600Y-146209700D03*
D15*
X128562600Y-151289700D03*
D12*
X127317600Y-101247200D03*
D16*
X150939600Y-152809200D03*
X159067600Y-152809200D03*
D17*
X183705600Y-91849200D03*
D18*
X183411800Y-149227800D03*
D19*
X180871800Y-149227800D03*
X178331800Y-149227800D03*
X175791800Y-149227800D03*
X173251800Y-149227800D03*
X170711800Y-149227800D03*
X168171800Y-149227800D03*
X165631800Y-149227800D03*
X163091800Y-149227800D03*
X160551800Y-149227800D03*
X158011800Y-149227800D03*
X155471800Y-149227800D03*
X152931800Y-149227800D03*
X150391800Y-149227800D03*
X147851800Y-149227800D03*
X145311800Y-149227800D03*
X142771800Y-149227800D03*
X140231800Y-149227800D03*
X137691800Y-149227800D03*
D16*
X155003600Y-152809200D03*
D12*
X127317600Y-105311200D03*
D18*
X137691800Y-123827800D03*
D19*
X140231800Y-123827800D03*
X142771800Y-123827800D03*
X145311800Y-123827800D03*
X147851800Y-123827800D03*
X150391800Y-123827800D03*
X152931800Y-123827800D03*
X155471800Y-123827800D03*
X158011800Y-123827800D03*
X160551800Y-123827800D03*
X163091800Y-123827800D03*
X165631800Y-123827800D03*
X168171800Y-123827800D03*
X170711800Y-123827800D03*
X173251800Y-123827800D03*
X175791800Y-123827800D03*
X178331800Y-123827800D03*
X180871800Y-123827800D03*
X183411800Y-123827800D03*
D12*
X127317600Y-132235200D03*
X127317600Y-124107200D03*
X127317600Y-84991200D03*
D18*
X177863600Y-115725200D03*
D19*
X175323600Y-115725200D03*
X172783600Y-115725200D03*
X170243600Y-115725200D03*
D17*
X183705600Y-87023200D03*
D10*
X172273100Y-81603200D03*
D11*
X172273100Y-84143200D03*
X172273100Y-86683200D03*
X172273100Y-89223200D03*
X172273100Y-91763200D03*
X172273100Y-94303200D03*
X172273100Y-96843200D03*
X172273100Y-99383200D03*
X179893100Y-99383200D03*
X179893100Y-96843200D03*
X179893100Y-94303200D03*
X179893100Y-91763200D03*
X179893100Y-89223200D03*
X179893100Y-86683200D03*
X179893100Y-84143200D03*
X179893100Y-81603200D03*
D17*
X183705600Y-133251200D03*
D10*
X143573600Y-81603200D03*
D11*
X143573600Y-84143200D03*
X143573600Y-86683200D03*
X143573600Y-89223200D03*
X143573600Y-91763200D03*
X143573600Y-94303200D03*
X143573600Y-96843200D03*
X143573600Y-99383200D03*
X151193600Y-99383200D03*
X151193600Y-96843200D03*
X151193600Y-94303200D03*
X151193600Y-91763200D03*
X151193600Y-89223200D03*
X151193600Y-86683200D03*
X151193600Y-84143200D03*
X151193600Y-81603200D03*
D12*
X127317600Y-89055200D03*
D16*
X163131600Y-152809200D03*
D18*
X131127600Y-117503200D03*
D19*
X133667600Y-117503200D03*
X136207600Y-117503200D03*
X138747600Y-117503200D03*
D12*
X127317600Y-128171200D03*
D17*
X183705600Y-129441200D03*
D12*
X127317600Y-80927200D03*
D10*
X165935600Y-108862200D03*
D11*
X165935600Y-111402200D03*
X173555600Y-111402200D03*
X173555600Y-108862200D03*
D12*
X127317600Y-97183200D03*
X127317600Y-117503200D03*
D13*
X166941600Y-152809200D03*
D12*
X127317600Y-113439200D03*
X127317600Y-93119200D03*
D16*
X175323600Y-152809200D03*
D17*
X183705600Y-96675200D03*
X127317600Y-76863200D03*
D20*
X135788800Y-105146400D03*
X157647600Y-104953200D03*
X155765600Y-111828000D03*
X149019600Y-119027200D03*
X152971600Y-119027200D03*
X142049600Y-107597200D03*
X149669600Y-109375200D03*
X142649600Y-109467200D03*
X141033600Y-106235200D03*
X155511600Y-106835200D03*
D21*
X138023600Y-121859200D02*
X148423200Y-121859200D01*
X133667600Y-117503200D02*
X138023600Y-121859200D01*
X181536400Y-151103200D02*
X172711600Y-151103200D01*
X183411800Y-149227800D02*
X181536400Y-151103200D01*
X148423200Y-121859200D02*
X150391800Y-123827800D01*
X172711600Y-151103200D02*
X171005600Y-152809200D01*
X157543600Y-105057200D02*
X157647600Y-104953200D01*
X135788800Y-105146400D02*
X135878000Y-105057200D01*
X135878000Y-105057200D02*
X157543600Y-105057200D01*
X168171800Y-123827800D02*
X168171800Y-118987400D01*
X168171800Y-118987400D02*
X161012400Y-111828000D01*
X161012400Y-111828000D02*
X155765600Y-111828000D01*
X155643200Y-121459200D02*
X158011800Y-123827800D01*
X140163600Y-121459200D02*
X155643200Y-121459200D01*
X136207600Y-117503200D02*
X140163600Y-121459200D01*
X179893100Y-91763200D02*
X180993100Y-92863200D01*
X152293600Y-90663200D02*
X151193600Y-91763200D01*
X151193600Y-86683200D02*
X152293600Y-87783200D01*
X152293600Y-95743200D02*
X151193600Y-96843200D01*
X172280600Y-110137200D02*
X156187071Y-110137200D01*
X152293600Y-87783200D02*
X152293600Y-90663200D01*
X156187071Y-110137200D02*
X153987600Y-112336671D01*
X179893100Y-81603200D02*
X180993100Y-82703200D01*
X180993100Y-85583200D02*
X179893100Y-86683200D01*
X180993100Y-92863200D02*
X180993100Y-95743200D01*
X178879600Y-112677200D02*
X172275600Y-112677200D01*
X179893100Y-86683200D02*
X180993100Y-87783200D01*
X181927600Y-103787200D02*
X176847600Y-108867200D01*
X153225600Y-119027200D02*
X149019600Y-119027200D01*
X170243600Y-110645200D02*
X170243600Y-110137200D01*
X165925600Y-86683200D02*
X167025600Y-87783200D01*
X165925600Y-91763200D02*
X167025600Y-92863200D01*
X151193600Y-81603200D02*
X152293600Y-82703200D01*
X131127600Y-117503200D02*
X132277600Y-116353200D01*
X153987600Y-112336671D02*
X153987600Y-118265200D01*
X142169600Y-116353200D02*
X144843600Y-119027200D01*
X152293600Y-82703200D02*
X152293600Y-85583200D01*
X165925600Y-81603200D02*
X167025600Y-82703200D01*
X132277600Y-116353200D02*
X142169600Y-116353200D01*
X167025600Y-90663200D02*
X165925600Y-91763200D01*
X144843600Y-119027200D02*
X149019600Y-119027200D01*
X184467600Y-122772000D02*
X184467600Y-118265200D01*
X172275600Y-112677200D02*
X170243600Y-110645200D01*
X167025600Y-87783200D02*
X167025600Y-90663200D01*
X184467600Y-118265200D02*
X178879600Y-112677200D01*
X180993100Y-95743200D02*
X179893100Y-96843200D01*
X153987600Y-118265200D02*
X153225600Y-119027200D01*
X176847600Y-108867200D02*
X173550600Y-108867200D01*
X151193600Y-91763200D02*
X152293600Y-92863200D01*
X167025600Y-82703200D02*
X167025600Y-85583200D01*
X152293600Y-92863200D02*
X152293600Y-95743200D01*
X152293600Y-85583200D02*
X151193600Y-86683200D01*
X179893100Y-96843200D02*
X181927600Y-98877700D01*
X167025600Y-95743200D02*
X165925600Y-96843200D01*
X180993100Y-90663200D02*
X179893100Y-91763200D01*
X183411800Y-123827800D02*
X184467600Y-122772000D01*
X180993100Y-82703200D02*
X180993100Y-85583200D01*
X167025600Y-85583200D02*
X165925600Y-86683200D01*
X172280600Y-110137200D02*
X173555600Y-108862200D01*
X180993100Y-87783200D02*
X180993100Y-90663200D01*
X167025600Y-92863200D02*
X167025600Y-95743200D01*
X173550600Y-108867200D02*
X172280600Y-110137200D01*
X181927600Y-98877700D02*
X181927600Y-103787200D01*
X142303600Y-121059200D02*
X157783200Y-121059200D01*
X138747600Y-117503200D02*
X142303600Y-121059200D01*
X157783200Y-121059200D02*
X160551800Y-123827800D01*
X130873600Y-96675200D02*
X140865600Y-96675200D01*
X127317600Y-93119200D02*
X130873600Y-96675200D01*
X140865600Y-96675200D02*
X143573600Y-99383200D01*
X153791285Y-103533200D02*
X131381600Y-103533200D01*
X131381600Y-103533200D02*
X129095600Y-101247200D01*
X129095600Y-101247200D02*
X127317600Y-101247200D01*
X156382000Y-91146800D02*
X156382000Y-100942485D01*
X158305600Y-89223200D02*
X156382000Y-91146800D01*
X156382000Y-100942485D02*
X153791285Y-103533200D01*
X156782000Y-95826800D02*
X158305600Y-94303200D01*
X153956971Y-103933200D02*
X156782000Y-101108171D01*
X156782000Y-101108171D02*
X156782000Y-95826800D01*
X127317600Y-105311200D02*
X128695600Y-103933200D01*
X128695600Y-103933200D02*
X153956971Y-103933200D01*
X155982000Y-100776799D02*
X155982000Y-86466800D01*
X133267600Y-103133200D02*
X153625599Y-103133200D01*
X153625599Y-103133200D02*
X155982000Y-100776799D01*
X127317600Y-97183200D02*
X133267600Y-103133200D01*
X155982000Y-86466800D02*
X158305600Y-84143200D01*
X127317600Y-89055200D02*
X132565600Y-94303200D01*
X132565600Y-94303200D02*
X143573600Y-94303200D01*
X143573600Y-89223200D02*
X131549600Y-89223200D01*
X131549600Y-89223200D02*
X127317600Y-84991200D01*
X173545600Y-113947200D02*
X168973600Y-113947200D01*
X168211600Y-114709200D02*
X168211600Y-116995200D01*
X169321800Y-125283000D02*
X155471800Y-139133000D01*
X155471800Y-139133000D02*
X155471800Y-149227800D01*
X168973600Y-113947200D02*
X168211600Y-114709200D01*
X169321800Y-118105400D02*
X169321800Y-125283000D01*
X175323600Y-115725200D02*
X173545600Y-113947200D01*
X168211600Y-116995200D02*
X169321800Y-118105400D01*
X172783600Y-115725200D02*
X172021600Y-116487200D01*
X158011800Y-138879000D02*
X158011800Y-149227800D01*
X172021600Y-116487200D02*
X172021600Y-124869200D01*
X172021600Y-124869200D02*
X158011800Y-138879000D01*
X127317600Y-76863200D02*
X143319600Y-76863200D01*
X163977100Y-75847200D02*
X172273100Y-84143200D01*
X144335600Y-75847200D02*
X163977100Y-75847200D01*
X143319600Y-76863200D02*
X144335600Y-75847200D01*
X185483600Y-130631200D02*
X185483600Y-116233200D01*
X184511600Y-131603200D02*
X185483600Y-130631200D01*
X182011600Y-131603200D02*
X184511600Y-131603200D01*
X185483600Y-116233200D02*
X180657600Y-111407200D01*
X165631800Y-147983000D02*
X182011600Y-131603200D01*
X180657600Y-111407200D02*
X173560600Y-111407200D01*
X165631800Y-149227800D02*
X165631800Y-147983000D01*
X179387600Y-98199200D02*
X178625600Y-97437200D01*
X181166000Y-98681786D02*
X180683414Y-98199200D01*
X178625600Y-97437200D02*
X178625600Y-95570700D01*
X177355600Y-107597200D02*
X181166000Y-103786800D01*
X181166000Y-103786800D02*
X181166000Y-98681786D01*
X142049600Y-107597200D02*
X177355600Y-107597200D01*
X178625600Y-95570700D02*
X179893100Y-94303200D01*
X180683414Y-98199200D02*
X179387600Y-98199200D01*
X149669600Y-109375200D02*
X142741600Y-109375200D01*
X142741600Y-109375200D02*
X142649600Y-109467200D01*
X141033600Y-106235200D02*
X141195600Y-106073200D01*
X179895600Y-103533200D02*
X179893100Y-103530700D01*
X177863600Y-106073200D02*
X179895600Y-104041200D01*
X141195600Y-106073200D02*
X177863600Y-106073200D01*
X179893100Y-103530700D02*
X179893100Y-99383200D01*
X179895600Y-104041200D02*
X179895600Y-103533200D01*
X129603600Y-80927200D02*
X132440600Y-78090200D01*
X132440600Y-78090200D02*
X137520600Y-78090200D01*
X127317600Y-80927200D02*
X129603600Y-80927200D01*
X137520600Y-78090200D02*
X143573600Y-84143200D01*
X153297600Y-151103200D02*
X136353946Y-151103200D01*
X135699600Y-125820000D02*
X137691800Y-123827800D01*
X155003600Y-152809200D02*
X153297600Y-151103200D01*
X136353946Y-151103200D02*
X135699600Y-150448854D01*
X135699600Y-150448854D02*
X135699600Y-125820000D01*
X129641600Y-109375200D02*
X134683600Y-104333200D01*
X154710800Y-104333200D02*
X158305600Y-100738400D01*
X127317600Y-109375200D02*
X129641600Y-109375200D01*
X158305600Y-100738400D02*
X158305600Y-99383200D01*
X134683600Y-104333200D02*
X154710800Y-104333200D01*
X161542400Y-125377200D02*
X139763600Y-125377200D01*
X139001600Y-124615200D02*
X139001600Y-122329200D01*
X163091800Y-123827800D02*
X161542400Y-125377200D01*
X127317600Y-119535200D02*
X127317600Y-117503200D01*
X139763600Y-125377200D02*
X139001600Y-124615200D01*
X139001600Y-122329200D02*
X130111600Y-122329200D01*
X130111600Y-122329200D02*
X127317600Y-119535200D01*
X180871800Y-131963314D02*
X180871800Y-123827800D01*
X164401600Y-148433514D02*
X180871800Y-131963314D01*
X164401600Y-150269200D02*
X164401600Y-148433514D01*
X166941600Y-152809200D02*
X164401600Y-150269200D01*
X155511600Y-106835200D02*
X133159600Y-106835200D01*
X133159600Y-106835200D02*
X127317600Y-112677200D01*
M02*
